<?xml version="1.0" encoding="utf-8"?>
<!-- Generator: Adobe Illustrator 24.1.0, SVG Export Plug-In . SVG Version: 6.00 Build 0)  -->
<svg version="1.0" id="Layer_1" xmlns="http://www.w3.org/2000/svg" xmlns:xlink="http://www.w3.org/1999/xlink" x="0px" y="0px"
	 viewBox="0 0 500 500" enable-background="new 0 0 500 500" xml:space="preserve">
<path fill="#020203" d="M65.76,12.78c0.32,0.63,0.6,1.51,0.6,1.98v0.79h184.1c174.99,0,184.14-0.04,184.34-0.71
	c0.12-0.36,0.48-1.27,0.8-1.98l0.56-1.27H250.65H65.12L65.76,12.78z"/>
<path fill="#020203" d="M65.08,19.13l-0.68,1.19h185.45c102.03,0,185.49-0.08,185.49-0.16c0-0.12-0.16-0.63-0.4-1.19l-0.4-1.03
	H250.17H65.76L65.08,19.13z"/>
<path fill="#020203" d="M62.16,22.3c-0.16,0.28,62.3,0.4,187.09,0.4s187.25-0.12,187.09-0.4s-62.98-0.4-187.09-0.4
	S62.32,22.03,62.16,22.3z"/>
<path fill="#020203" d="M20.43,248.66c0,127.37,0.12,191.45,0.4,191.45c0.28,0,0.4-64.08,0.4-191.45s-0.12-191.45-0.4-191.45
	C20.55,57.22,20.43,121.3,20.43,248.66z"/>
<path fill="#020203" d="M17.56,59.04l-1.12,0.6v189.58v189.62l1.04,0.24c0.6,0.16,1.12,0.2,1.2,0.12s0.12-85.78,0.08-190.41
	L18.63,58.49L17.56,59.04z"/>
<path fill="#020203" d="M10.05,249.66c0,104.75,0.04,190.45,0.12,190.45c0.04,0,0.88-0.24,1.88-0.56l1.8-0.52l0.12-189.54L14.04,60
	h-0.96c-0.56,0-1.44-0.16-2-0.4l-1.04-0.4V249.66z"/>
<path fill="#020203" d="M475.68,250.69c0,125.66,0.12,188.59,0.4,188.43c0.28-0.16,0.4-63.48,0.4-188.71
	c0-125.34-0.12-188.43-0.4-188.43C475.8,61.98,475.68,125.15,475.68,250.69z"/>
<path fill="#020203" d="M483.98,62.66l-1.12,0.16v186.13v186.13l1.24-0.28c0.68-0.12,1.6-0.24,2-0.24c0.76,0,0.76-4.4,0.76-185.89
	V62.77l-1.08,0.24c-0.88,0.16-1,0.12-0.52-0.2c0.32-0.24,0.44-0.4,0.2-0.36C485.26,62.46,484.58,62.58,483.98,62.66z"/>
<path fill="#020203" d="M478.07,250.21v187.08l1.2-0.67l1.2-0.67l-0.12-186.29l-0.08-186.29l-1.08-0.12l-1.12-0.12V250.21z"/>
<path fill="#020203" d="M63.96,478.99c0,0.28,62.22,0.4,185.89,0.4s185.89-0.12,185.89-0.4s-62.22-0.4-185.89-0.4
	S63.96,478.72,63.96,478.99z"/>
<path fill="#020203" d="M66,482.17l0.44,1.19h184.06c158.62,0,184.06-0.08,184.06-0.56c0-0.32,0.12-0.83,0.24-1.19
	c0.24-0.6-16.21-0.63-184.46-0.63H65.6L66,482.17z"/>
<path fill="#020203" d="M65.96,486.81c-0.24,0.63-0.6,1.43-0.8,1.79c-0.24,0.4-0.4,0.79-0.4,0.91c0,0.12,83.94,0.2,186.53,0.2
	h186.53l-1-1.19c-0.56-0.63-1.12-1.55-1.28-1.98c-0.24-0.79-0.44-0.79-184.73-0.79H66.35L65.96,486.81z"/>
<g>
	<g>
		<path fill="#020203" d="M50.84,16.69c0.41-0.61,1.37-4.51,1.77-6.57c0.24-1.35,2.12-3.29,3.15-3.29c1.28,0,3.47,0.99,4.35,1.94
			l0.76,0.83h-1.96c-2.44,0-4.39,1.11-5.19,2.98c-0.76,1.9-0.72,3.73,0.24,5.28c3.03,4.92,10.38,2.98,10.38-2.74
			c0-1.9-1.04-4.01-2.32-4.68c-0.44-0.24-0.88-0.91-1-1.55c-0.32-1.63-2.08-3.53-3.71-4.05c-3.79-1.27-7.27,1.63-7.95,6.55
			c-0.4,3.06-0.96,4.48-2.08,5.36c-1.44,1.11-3.67,1.63-5.11,1.23c-1.28-0.4-0.84,0.04,1.12-0.7c0.14-0.05,0.46-0.37,0.55-0.48
			c0.2-0.25,0.21-0.29,0.65-1.12c0.68-1.35,0.69-1.94,0.33-3.92c-0.56-2.9-0.54-4.4-0.19-4.86c0.03-0.04,0.06-0.13,0.15-0.3
			c0.08-0.13,0.17-0.24,0.38-0.34c0.28-0.14,0.74-0.33,1.33-0.61c1.08-0.52,1.08-0.6,0.44-1.07c-0.88-0.63-1.24-0.63-2.84,0.08
			c-2.28,0.95-2.96,3.49-2.12,7.74c0.36,1.94-0.2,3.41-1.52,3.81c-2.24,0.71-2.36,0.83-1.08,1.43c0.68,0.28,1.72,0.87,2.32,1.27
			c0.76,0.52,1.96,0.79,3.67,0.83c1.44,0.08,2.11-0.16,2.3-0.22c0.25-0.09,0.59-0.25,1.13-0.64C49.41,18.43,50.4,17.36,50.84,16.69z
			 M45.11,5.48c-1.4,0.71-1.72,1.98-1.32,4.84c0.56,3.89,0.44,4.88-0.76,5.91c-0.6,0.52-1.56,0.91-2.16,0.87
			c-1.04-0.04-1.04-0.04,0.2-0.4c0.72-0.2,1.6-0.83,2-1.39c0.56-0.87,0.6-1.35,0.2-3.49c-0.28-1.39-0.48-2.98-0.48-3.53
			c0-1.19,1.8-3.45,2.72-3.45C45.95,4.88,45.83,5.08,45.11,5.48z M58.69,6.43c1.76,1.07,1.64,1.39-0.2,0.4
			c-1.88-0.99-2.8-0.99-4.39,0c-1.64,0.95-2,1.71-2.68,5.32c-0.32,1.63-0.88,3.49-1.24,4.17c-0.84,1.67-3.27,2.82-5.67,2.78
			l-1.92-0.04l2.12-0.32c3.79-0.56,4.99-1.86,5.87-6.51c0.68-3.61,0.96-4.17,2.64-5.55C54.73,5.4,56.81,5.32,58.69,6.43z
			 M61.52,11.83c2.44,2.02,1.92,5.95-1,7.14c-1.8,0.75-3.35,0.44-4.71-0.91C52.02,14.29,57.41,8.38,61.52,11.83z"/>
		<path fill="#020203" d="M56.33,12.74c-1.76,1.79-1.4,4.25,0.84,5.4c2.4,1.23,5.19-0.44,5.19-3.06c0-1.63-1.92-3.49-3.59-3.49
			C57.89,11.59,57.13,11.95,56.33,12.74z M60.64,13.26c0.52,0.48,0.92,1.27,0.92,1.79c0,1.19-1.68,2.9-2.8,2.9
			c-1.04,0-2.8-1.71-2.8-2.7c0-0.44,0.36-1.23,0.84-1.83C57.81,12.15,59.37,12.07,60.64,13.26z"/>
		<path fill="#020203" d="M28.62,16.43c-3.67,1.35-6.63,4.76-7.43,8.53c-1.52,7.42,4.51,14.48,11.98,13.93
			c1.24-0.08,3.03-0.52,3.99-0.99c1.44-0.71,1.64-0.75,1.4-0.2c-1.04,2.42-0.56,5.16,1.2,7.02c1.12,1.19,1.6,1.39,3.11,1.39
			c4.07,0,7.11-2.98,7.11-6.98c0-1.79-0.16-2.22-1.28-3.29c-1.4-1.35-3.15-1.83-5.55-1.51c-0.84,0.12-1.56,0.16-1.56,0.08
			s0.4-0.79,0.88-1.59c1.16-2.02,1.44-6.55,0.56-9.21c-0.8-2.46-2.92-4.92-5.31-6.35c-1.48-0.83-2.44-1.07-4.87-1.19
			C31.17,16.03,29.3,16.15,28.62,16.43z M36.64,18.26c1.84,0.95,3.75,2.9,4.79,4.84s1.04,6.78,0,8.73
			c-1.96,3.69-5.11,5.71-9.03,5.71c-3.19,0-5.23-0.95-7.47-3.49c-4.71-5.32-2.56-13.89,4.11-16.35
			C31.09,16.95,34.61,17.22,36.64,18.26z M47.19,36.03c1.64,1.11,2,1.79,1.92,3.89c-0.04,1.51-0.08,1.67-0.2,0.63
			c-0.24-2.58-0.52-3.17-1.72-3.77c-4.43-2.26-8.95,2.26-6.39,6.43c0.72,1.23,1.24,1.47,3.59,1.83c0.64,0.12,0.4,0.2-0.6,0.24
			c-1.96,0.04-3.27-0.79-4.03-2.58s-0.72-2.9,0.16-4.48C41.28,35.71,45.03,34.6,47.19,36.03z M47.11,37.62
			c0.48,0.32,0.64,0.67,0.71,0.89c0.07,0.2,0.17,0.45,0.23,0.67c0.15,0.53,0.05,2.73-0.43,3.49c-0.2,0.36-1.17,1.4-2.54,1.42
			c-2.92-0.08-3.15-0.2-3.83-1.43c-1.36-2.58,0.52-5.67,3.43-5.67C45.51,36.98,46.63,37.26,47.11,37.62z"/>
		<path fill="#020203" d="M29.26,18.45c-2,0.75-4.43,2.98-5.27,4.8c-1.76,3.85-0.4,9.36,2.92,11.74c5.87,4.21,13.82,0.67,14.58-6.47
			c0.4-3.93-1.72-7.86-5.15-9.64C34.69,18.06,30.97,17.82,29.26,18.45z M36.68,20.16c1.36,0.83,2.2,1.75,3,3.29
			c1.48,2.82,1.48,5.2,0,8.01c-3.91,7.5-14.98,5.16-15.57-3.25C23.59,20.95,30.61,16.43,36.68,20.16z"/>
		<path fill="#020203" d="M31.29,21.95c-3.83,0.79-5.63,5.79-3.23,8.85c3.03,3.85,9.07,2.38,10.14-2.42
			C39,24.6,35.25,21.11,31.29,21.95z M35.45,24.45c1.08,1.07,1.36,1.67,1.36,2.94c0,1.94-1.12,3.41-3.03,4.05
			c-4.75,1.59-7.59-5.44-3.15-7.86C32.21,22.7,34.01,23.02,35.45,24.45z"/>
		<path fill="#020203" d="M30.21,24.88c-1.56,1.51-1.48,3.49,0.24,5.04c1.48,1.39,2.76,1.39,4.31,0.08c2.52-2.1,1.12-6.11-2.16-6.11
			C31.61,23.89,30.85,24.21,30.21,24.88z M34.41,25.48c1.16,1.15,1.04,2.94-0.24,3.93c-1.36,1.07-1.88,1.03-3.19-0.08
			c-1.36-1.15-1.44-2.9-0.16-3.93C31.97,24.45,33.41,24.49,34.41,25.48z"/>
		<path fill="#020203" d="M52.18,28.33c1.48-1.63,4.59-3.09,7.11-3.41c1.03-0.07,1.29-0.05,1.76,0.08c0.3,0.08,0.76,0.28,1.96,0.32
			c1.84,0,2.08-0.04,1.64-0.56c-1.76-2.14-7.43-2.74-10.9-1.11c-1.4,0.63-2.8,1.83-4.59,3.85c-1.4,1.59-3.11,3.49-3.79,4.21
			c-1.24,1.27-1.24,1.31-0.36,1.31c1.2,0,3.39-1.31,3.79-1.63 M62.64,24.21c0.28,0.16-0.72,0.24-2.24,0.16
			c-3.63-0.2-6.11,0.87-10.02,4.44c-1.56,1.43-3.27,2.82-3.71,3.09c-0.88,0.44,5.55-5.75,7.07-6.82
			C55.69,23.69,60.8,23.22,62.64,24.21z"/>
		<path fill="#020203" d="M28.7,46.03c-1.08,0.75-2.4,2.22-3.03,3.33c-1.04,1.75-1.12,2.22-1,5.28c0.04,1.94,0.36,3.77,0.68,4.44
			l0.6,1.11l0.28-1.59c0.56-3.37,0.72-4.01,1.48-5.55c0.44-0.87,2.48-3.29,4.55-5.36c3.15-3.17,5.39-6.43,4.87-6.98
			c-0.08-0.04-0.76,0.36-1.52,0.95c-0.76,0.56-1.33,0.98-1.64,1.24c-0.19,0.17-0.19,0.18-0.36,0.31 M34.57,44.05
			c-0.88,0.79-2.72,2.42-4.07,3.57c-2.8,2.38-3.83,4.13-4.67,7.74l-0.6,2.46l0.16-2.46c0.2-3.41,1.76-6.11,4.83-8.41
			c1.32-0.99,3.11-2.5,3.99-3.29c0.88-0.79,1.68-1.35,1.8-1.23C36.12,42.5,35.49,43.25,34.57,44.05z"/>
		<path fill="#020203" d="M12.64,50.12c-1.24,0.71-1.8,1.59-1.8,2.86c0,2.46,2.16,3.97,4.39,3.06c1.44-0.6,2-1.47,2-3.09
			C17.24,50.67,14.56,49.05,12.64,50.12z M15.56,51.74c0.28,0.28,0.48,0.83,0.48,1.31c0,1.15-0.76,1.79-2.08,1.79
			c-1.44,0-2.24-1.43-1.56-2.74C12.92,51.19,14.76,50.95,15.56,51.74z"/>
		<path fill="none" d="M17.89,50.12c0.13,0.16,0.25,0.33,0.35,0.52c0.96,1.27,0.76,3.97-0.4,5.36c-2.96,3.45-8.07,1.86-8.51-2.7
			c-0.16-1.79-0.04-2.06,1.16-3.37c1.64-1.79,3.63-2.22,5.59-1.27"/>
		<path fill="none" d="M16.28,48.17c0,0-0.02-0.01-0.03-0.01c-1.04-0.39-2.43-0.97-4.42,0.03c-0.13,0.09-0.28,0.2-0.46,0.3
			c-3.51,2.1-3.27,7.54,0.4,9.24c1.72,0.83,2.68,0.83,4.43,0.12c1.36-0.56,2.8-2.22,3.15-3.61c0.01-0.05,0.03-0.26,0.03-0.3
			c0.02-0.12,0.04-0.89-0.01-1.33c-0.02-0.14-0.11-0.53-0.11-0.53l-0.03-0.14c-0.14-0.74-0.47-1.6-0.82-2.03
			c0.01,0.01,0.02,0.03,0.03,0.04c-0.01-0.01-0.02-0.03-0.03-0.04c-0.05-0.06-0.09-0.11-0.14-0.15"/>
		<path fill="none" d="M17.89,50.12c0.09,0.16,0.2,0.33,0.35,0.52C18.13,50.45,18.01,50.28,17.89,50.12z"/>
		<path fill="none" d="M15.76,49.32c-1.68-0.83-3.51-0.32-4.87,1.39c-2.52,3.21,1.16,7.7,4.87,5.91
			C18.79,55.2,18.79,50.87,15.76,49.32z"/>
		<path fill="none" d="M21.83,35.4c-0.12,0-0.2,0.24-0.2,0.52c0,0.79-1.48,2.22-2.6,2.5c-0.64,0.16-2-0.24-4.19-1.23
			c-3.71-1.67-5.19-1.63-6.31,0.2l-0.64,0.99l1-0.91c1.4-1.19,2.6-1.11,6.07,0.56c2.16,0.99,3.27,1.31,4.03,1.11
			c1.12-0.28,3.03-2.26,3.03-3.17C22.03,35.63,21.95,35.4,21.83,35.4z"/>
		<path fill="none" d="M21.91,40.95c-0.12,0.56-0.88,1.63-1.68,2.38c-1.56,1.51-2,1.55-8.39,1.19c-2.92-0.16-4.75,0.63-5.67,2.54
			c-0.64,1.35-0.48,3.93,0.28,4.4c0.2,0.12,0.2-0.32-0.04-1.07c-0.44-1.55-0.16-2.58,0.96-3.81c1.28-1.35,3.11-1.71,6.63-1.19
			c2.88,0.44,3.23,0.4,4.87-0.4c1.24-0.6,2.12-1.39,2.72-2.46c0.48-0.87,0.84-1.83,0.72-2.1C22.23,40.2,22.07,40.4,21.91,40.95z"/>
		<path fill="#020203" d="M16.08,48.65c-1.96-0.95-3.95-0.52-5.59,1.27c-1.2,1.31-1.32,1.59-1.16,3.37c0.44,4.56,5.55,6.15,8.51,2.7
			c1.16-1.39,1.36-4.09,0.4-5.36c-0.15-0.19-0.26-0.36-0.35-0.52C17.14,49.16,16.08,48.65,16.08,48.65z M15.76,56.62
			c-3.71,1.79-7.39-2.7-4.87-5.91c1.36-1.71,3.19-2.22,4.87-1.39C18.79,50.87,18.79,55.2,15.76,56.62z"/>
		<path fill="#020203" d="M22.91,37.98c-0.28-0.99-0.48-2.14-0.48-2.58c0-1.35-0.56-1.15-1.72,0.63c-1.36,2.1-1.88,2.14-5.31,0.52
			c-1.96-0.95-2.96-1.22-4.32-1.23c-1.48,0-1.92,0.19-2.39,0.59c-0.77,0.66-1.04,1.59-1.04,2.46c0,0-0.1,0.77,0.22,0.84
			c0.26,0.05,0.94-0.68,0.94-0.68c0.64-0.63,1.36-1.15,1.56-1.15c0.2,0,1.52,0.63,2.96,1.39c3.67,1.94,5.31,2.1,7.23,0.83
			c0.8-0.56,1.48-0.91,1.48-0.79c0,0.39-0.74,1.49-1.32,2.39c-0.3,0.47-0.78,1.06-1.04,1.45c-0.31,0.46-0.95,0.97-1.95,1.28
			c-0.93,0.09-2.14,0.07-3.48-0.07c-2.96-0.36-4.4-0.36-6.39,0.48c-1.12,0.47-1.76,1.06-2.13,1.56l-0.03,0.04
			c-0.58,0.7-0.56,1.51-0.56,1.51l0,0.04c-0.02,0.32-0.02,0.74,0.01,1.26c0.08,2.26,0.88,3.73,2.36,4.52
			c0.44,0.24,1.04,1.07,1.32,1.79c1,2.78,4.19,4.29,6.99,3.37c1.68-0.56,3.75-2.83,3.8-4.06c0.01-0.18,0.02-0.4,0.02-0.49
			c-0.02-0.46,0-1.72,0-1.72c0.04-1.03-0.27-1.78-1.51-2.97c-0.84-0.87-1.67-1.39-2.07-1.45l-0.01,0c-2.28-0.71-4.12,0.05-4.12,0.05
			c-0.02,0.01-0.32,0.16-0.34,0.16c-0.08,0.04-0.22,0.13-0.29,0.18c-0.79,0.5-1.73,1.42-2.11,2.09c-0.24,0.48-0.6,1.39-0.72,2.06
			l-0.28,1.19l-0.52-1.19c-0.88-2.1-0.68-3.77,0.6-4.84c1.08-0.95,1.24-0.95,5.23-0.71c3.71,0.28,4.27,0.2,5.83-0.56
			c2.04-0.99,2.92-2.14,3.59-4.56C23.31,40.16,23.31,39.36,22.91,37.98z M18.38,49.91c0.39,0.4,0.71,1.3,0.85,2.04l0.03,0.14
			c0,0,0.1,0.4,0.11,0.53c0.05,0.44,0.03,1.21,0.01,1.33c-0.01,0.04-0.02,0.25-0.03,0.3c-0.36,1.39-1.8,3.06-3.15,3.61
			c-1.76,0.71-2.72,0.71-4.43-0.12c-3.67-1.71-3.91-7.14-0.4-9.24c0.18-0.11,0.33-0.21,0.46-0.3c1.97-0.91,3.48-0.36,4.42-0.03
			C16.91,48.39,17.89,49.41,18.38,49.91z M18.99,39.13c-0.76,0.2-1.88-0.12-4.03-1.11c-3.47-1.67-4.67-1.75-6.07-0.56l-1,0.91
			l0.64-0.99c1.12-1.83,2.6-1.86,6.31-0.2c2.2,0.99,3.55,1.39,4.19,1.23c1.12-0.28,2.6-1.71,2.6-2.5c0-0.28,0.08-0.52,0.2-0.52
			c0.12,0,0.2,0.24,0.2,0.56C22.03,36.86,20.11,38.85,18.99,39.13z M21.59,42.54c-0.6,1.07-1.48,1.86-2.72,2.46
			c-1.64,0.79-2,0.83-4.87,0.4c-3.51-0.52-5.35-0.16-6.63,1.19c-1.12,1.23-1.4,2.26-0.96,3.81c0.24,0.75,0.24,1.19,0.04,1.07
			c-0.76-0.48-0.92-3.06-0.28-4.4c0.92-1.9,2.76-2.7,5.67-2.54c6.39,0.36,6.83,0.32,8.39-1.19c0.8-0.75,1.56-1.83,1.68-2.38
			c0.16-0.56,0.32-0.75,0.4-0.52C22.43,40.71,22.07,41.67,21.59,42.54z"/>
	</g>
	<g>
		<path fill="#020203" d="M451.79,18.86c0.53,0.39,0.88,0.55,1.13,0.64c0.19,0.07,0.86,0.3,2.3,0.22c1.72-0.04,2.92-0.32,3.67-0.83
			c0.6-0.4,1.64-0.99,2.32-1.27c1.28-0.6,1.16-0.71-1.08-1.43c-1.32-0.4-1.88-1.86-1.52-3.81c0.84-4.25,0.16-6.78-2.12-7.74
			c-1.6-0.71-1.96-0.71-2.84-0.08c-0.64,0.48-0.64,0.56,0.44,1.07c0.6,0.28,1.05,0.48,1.33,0.61c0.21,0.1,0.31,0.21,0.38,0.34
			c0.1,0.17,0.12,0.26,0.15,0.3c0.35,0.46,0.37,1.96-0.19,4.86c-0.36,1.98-0.35,2.58,0.33,3.92c0.44,0.83,0.45,0.87,0.65,1.12
			c0.09,0.11,0.41,0.43,0.55,0.48c1.95,0.74,2.39,0.3,1.12,0.7c-1.44,0.4-3.67-0.12-5.11-1.23c-1.12-0.87-1.68-2.3-2.08-5.36
			c-0.68-4.92-4.15-7.82-7.95-6.55c-1.64,0.52-3.39,2.42-3.71,4.05c-0.12,0.63-0.56,1.31-1,1.55c-1.28,0.67-2.32,2.78-2.32,4.68
			c0,5.71,7.35,7.66,10.38,2.74c0.96-1.55,1-3.37,0.24-5.28c-0.8-1.86-2.76-2.98-5.19-2.98h-1.96l0.76-0.83
			c0.88-0.95,3.07-1.94,4.35-1.94c1.04,0,2.92,1.94,3.15,3.29c0.4,2.06,1.37,5.97,1.77,6.57C450.21,17.36,451.2,18.43,451.79,18.86z
			 M455.1,4.84c0.92,0,2.72,2.26,2.72,3.45c0,0.56-0.2,2.14-0.48,3.53c-0.4,2.14-0.36,2.62,0.2,3.49c0.4,0.56,1.28,1.19,2,1.39
			c1.24,0.36,1.24,0.36,0.2,0.4c-0.6,0.04-1.56-0.36-2.16-0.87c-1.2-1.03-1.32-2.02-0.76-5.91c0.4-2.86,0.08-4.13-1.32-4.84
			C454.78,5.08,454.66,4.88,455.1,4.84z M447.39,6.67c1.68,1.39,1.96,1.94,2.64,5.55c0.88,4.64,2.08,5.95,5.87,6.51l2.12,0.32
			l-1.92,0.04c-2.4,0.04-4.83-1.11-5.67-2.78c-0.36-0.67-0.92-2.54-1.24-4.17c-0.68-3.61-1.04-4.36-2.68-5.32
			c-1.6-0.99-2.52-0.99-4.39,0c-1.84,0.99-1.96,0.67-0.2-0.4C443.8,5.32,445.88,5.4,447.39,6.67z M444.8,18.06
			c-1.36,1.35-2.92,1.67-4.71,0.91c-2.92-1.19-3.43-5.12-1-7.14C443.2,8.38,448.59,14.29,444.8,18.06z"/>
		<path fill="#020203" d="M441.84,11.59c-1.68,0-3.59,1.86-3.59,3.49c0,2.62,2.8,4.29,5.19,3.06c2.24-1.15,2.6-3.61,0.84-5.4
			C443.48,11.95,442.72,11.59,441.84,11.59z M443.8,13.42c0.48,0.6,0.84,1.39,0.84,1.83c0,0.99-1.76,2.7-2.8,2.7
			c-1.12,0-2.8-1.71-2.8-2.9c0-0.52,0.4-1.31,0.92-1.79C441.24,12.07,442.8,12.15,443.8,13.42z"/>
		<path fill="#020203" d="M467.76,16.07c-2.44,0.12-3.39,0.36-4.87,1.19c-2.4,1.43-4.51,3.89-5.31,6.35
			c-0.88,2.66-0.6,7.18,0.56,9.21c0.48,0.79,0.88,1.51,0.88,1.59s-0.72,0.04-1.56-0.08c-2.4-0.32-4.15,0.16-5.55,1.51
			c-1.12,1.07-1.28,1.51-1.28,3.29c0,4.01,3.04,6.98,7.11,6.98c1.52,0,2-0.2,3.11-1.39c1.76-1.86,2.24-4.6,1.2-7.02
			c-0.24-0.56-0.04-0.52,1.4,0.2c0.96,0.48,2.76,0.91,3.99,0.99c7.47,0.56,13.5-6.51,11.98-13.93c-0.8-3.77-3.75-7.18-7.43-8.53
			C471.31,16.15,469.44,16.03,467.76,16.07z M471.55,17.7c6.67,2.46,8.83,11.03,4.11,16.35c-2.24,2.54-4.27,3.49-7.47,3.49
			c-3.91,0-7.07-2.02-9.03-5.71c-1.04-1.94-1.04-6.78,0-8.73c1.04-1.94,2.96-3.89,4.79-4.84C466,17.22,469.52,16.95,471.55,17.7z
			 M460.69,38.21c0.88,1.59,0.92,2.7,0.16,4.48s-2.08,2.62-4.03,2.58c-1-0.04-1.24-0.12-0.6-0.24c2.36-0.36,2.88-0.6,3.59-1.83
			c2.56-4.17-1.96-8.69-6.39-6.43c-1.2,0.6-1.48,1.19-1.72,3.77c-0.12,1.03-0.16,0.87-0.2-0.63c-0.08-2.1,0.28-2.78,1.92-3.89
			C455.58,34.6,459.33,35.71,460.69,38.21z M455.94,36.98c2.92,0,4.79,3.09,3.43,5.67c-0.68,1.23-0.92,1.35-3.83,1.43
			c-1.37-0.02-2.34-1.06-2.54-1.42c-0.48-0.75-0.58-2.95-0.43-3.49c0.06-0.22,0.16-0.47,0.23-0.67c0.07-0.22,0.23-0.58,0.71-0.89
			C453.98,37.26,455.1,36.98,455.94,36.98z"/>
		<path fill="#020203" d="M464.29,18.89c-3.43,1.79-5.55,5.71-5.15,9.64c0.76,7.14,8.71,10.67,14.58,6.47
			c3.31-2.38,4.67-7.9,2.92-11.74c-0.84-1.83-3.27-4.05-5.27-4.8C469.64,17.82,465.92,18.06,464.29,18.89z M476.51,28.21
			c-0.6,8.41-11.66,10.75-15.57,3.25c-1.48-2.82-1.48-5.2,0-8.01c0.8-1.55,1.64-2.46,3-3.29C470,16.43,477.02,20.95,476.51,28.21z"
			/>
		<path fill="#020203" d="M462.41,28.37c1.08,4.8,7.11,6.27,10.14,2.42c2.4-3.06,0.6-8.05-3.23-8.85
			C465.36,21.11,461.61,24.6,462.41,28.37z M470,23.57c4.43,2.42,1.6,9.44-3.15,7.86c-1.92-0.63-3.03-2.1-3.03-4.05
			c0-1.27,0.28-1.86,1.36-2.94C466.6,23.02,468.4,22.7,470,23.57z"/>
		<path fill="#020203" d="M468,23.89c-3.27,0-4.67,4.01-2.16,6.11c1.56,1.31,2.84,1.31,4.31-0.08c1.72-1.55,1.8-3.53,0.24-5.04
			C469.76,24.21,469,23.89,468,23.89z M469.8,25.4c1.28,1.03,1.2,2.78-0.16,3.93c-1.32,1.11-1.84,1.15-3.19,0.08
			c-1.28-0.99-1.4-2.78-0.24-3.93C467.2,24.49,468.64,24.45,469.8,25.4z"/>
		<path fill="#020203" d="M451.83,31.39c0.41,0.32,2.6,1.63,3.79,1.63c0.88,0,0.88-0.04-0.36-1.31c-0.68-0.71-2.4-2.62-3.79-4.21
			c-1.8-2.02-3.19-3.21-4.59-3.85c-3.47-1.63-9.14-1.03-10.9,1.11c-0.44,0.52-0.2,0.56,1.64,0.56c1.2-0.04,1.66-0.24,1.96-0.32
			c0.47-0.12,0.73-0.14,1.76-0.08c2.52,0.32,5.63,1.79,7.11,3.41 M446.87,25.08c1.52,1.07,7.95,7.26,7.07,6.82
			c-0.44-0.28-2.16-1.67-3.71-3.09c-3.91-3.57-6.39-4.64-10.02-4.44c-1.52,0.08-2.52,0-2.24-0.16
			C439.81,23.22,444.92,23.69,446.87,25.08z"/>
		<path fill="#020203" d="M467,43.21c-0.17-0.13-0.17-0.14-0.36-0.31c-0.31-0.26-0.88-0.68-1.64-1.24c-0.76-0.6-1.44-0.99-1.52-0.95
			c-0.52,0.56,1.72,3.81,4.87,6.98c2.08,2.06,4.11,4.48,4.55,5.36c0.76,1.55,0.92,2.18,1.48,5.55l0.28,1.59l0.6-1.11
			c0.32-0.67,0.64-2.5,0.68-4.44c0.12-3.06,0.04-3.53-1-5.28c-0.64-1.11-1.96-2.58-3.04-3.33 M464.6,42.42
			c0.12-0.12,0.92,0.44,1.8,1.23c0.88,0.79,2.68,2.3,3.99,3.29c3.07,2.3,4.63,5,4.83,8.41l0.16,2.46l-0.6-2.46
			c-0.84-3.61-1.88-5.36-4.67-7.74c-1.36-1.15-3.19-2.78-4.07-3.57C465.12,43.25,464.49,42.5,464.6,42.42z"/>
		<path fill="#020203" d="M483.37,52.93c0,1.63,0.56,2.5,2,3.09c2.24,0.91,4.39-0.6,4.39-3.06c0-1.27-0.56-2.14-1.8-2.86
			C486.05,49.05,483.37,50.67,483.37,52.93z M488.21,52.1c0.68,1.31-0.12,2.74-1.56,2.74c-1.32,0-2.08-0.63-2.08-1.79
			c0-0.48,0.2-1.03,0.48-1.31C485.85,50.95,487.69,51.19,488.21,52.1z"/>
		<path fill="none" d="M482.72,50.12c-0.13,0.16-0.25,0.33-0.35,0.52c-0.96,1.27-0.76,3.97,0.4,5.36c2.96,3.45,8.07,1.86,8.51-2.7
			c0.16-1.79,0.04-2.06-1.16-3.37c-1.64-1.79-3.63-2.22-5.59-1.27"/>
		<path fill="none" d="M484.33,48.17c0,0,0.02-0.01,0.03-0.01c1.04-0.39,2.43-0.97,4.42,0.03c0.13,0.09,0.28,0.2,0.46,0.3
			c3.51,2.1,3.27,7.54-0.4,9.24c-1.72,0.83-2.68,0.83-4.43,0.12c-1.36-0.56-2.8-2.22-3.15-3.61c-0.01-0.05-0.03-0.26-0.03-0.3
			c-0.02-0.12-0.04-0.89,0.01-1.33c0.02-0.14,0.11-0.53,0.11-0.53l0.03-0.14c0.14-0.74,0.47-1.6,0.82-2.03
			c-0.01,0.01-0.02,0.03-0.03,0.04c0.01-0.01,0.02-0.03,0.03-0.04c0.05-0.06,0.09-0.11,0.14-0.15"/>
		<path fill="none" d="M482.72,50.12c-0.09,0.16-0.2,0.33-0.35,0.52C482.48,50.45,482.6,50.28,482.72,50.12z"/>
		<path fill="none" d="M484.85,49.32c1.68-0.83,3.51-0.32,4.87,1.39c2.52,3.21-1.16,7.7-4.87,5.91
			C481.82,55.2,481.82,50.87,484.85,49.32z"/>
		<path fill="none" d="M478.78,35.4c0.12,0,0.2,0.24,0.2,0.52c0,0.79,1.48,2.22,2.6,2.5c0.64,0.16,2-0.24,4.19-1.23
			c3.71-1.67,5.19-1.63,6.31,0.2l0.64,0.99l-1-0.91c-1.4-1.19-2.6-1.11-6.07,0.56c-2.16,0.99-3.27,1.31-4.03,1.11
			c-1.12-0.28-3.03-2.26-3.03-3.17C478.58,35.63,478.66,35.4,478.78,35.4z"/>
		<path fill="none" d="M478.7,40.95c0.12,0.56,0.88,1.63,1.68,2.38c1.56,1.51,2,1.55,8.39,1.19c2.92-0.16,4.75,0.63,5.67,2.54
			c0.64,1.35,0.48,3.93-0.28,4.4c-0.2,0.12-0.2-0.32,0.04-1.07c0.44-1.55,0.16-2.58-0.96-3.81c-1.28-1.35-3.11-1.71-6.63-1.19
			c-2.88,0.44-3.23,0.4-4.87-0.4c-1.24-0.6-2.12-1.39-2.72-2.46c-0.48-0.87-0.84-1.83-0.72-2.1C478.38,40.2,478.54,40.4,478.7,40.95
			z"/>
		<path fill="#020203" d="M482.72,50.12c-0.09,0.16-0.2,0.33-0.35,0.52c-0.96,1.27-0.76,3.97,0.4,5.36c2.96,3.45,8.07,1.86,8.51-2.7
			c0.16-1.79,0.04-2.06-1.16-3.37c-1.64-1.79-3.63-2.22-5.59-1.27C484.53,48.65,483.47,49.16,482.72,50.12z M484.85,49.32
			c1.68-0.83,3.51-0.32,4.87,1.39c2.52,3.21-1.16,7.7-4.87,5.91C481.82,55.2,481.82,50.87,484.85,49.32z"/>
		<path fill="#020203" d="M477.7,41.59c0.68,2.42,1.56,3.57,3.59,4.56c1.56,0.75,2.12,0.83,5.83,0.56c3.99-0.24,4.15-0.24,5.23,0.71
			c1.28,1.07,1.48,2.74,0.6,4.84l-0.52,1.19l-0.28-1.19c-0.12-0.67-0.48-1.59-0.72-2.06c-0.38-0.67-1.32-1.59-2.11-2.09
			c-0.07-0.05-0.21-0.14-0.29-0.18c-0.02-0.01-0.32-0.16-0.34-0.16c0,0-1.83-0.76-4.12-0.05l-0.01,0c-0.4,0.07-1.23,0.58-2.07,1.45
			c-1.24,1.19-1.55,1.94-1.51,2.97c0,0,0.01,1.26,0,1.72c0,0.09,0.01,0.31,0.02,0.49c0.05,1.23,2.12,3.51,3.8,4.06
			c2.8,0.91,5.99-0.6,6.99-3.37c0.28-0.71,0.88-1.55,1.32-1.79c1.48-0.79,2.28-2.26,2.36-4.52c0.03-0.52,0.03-0.94,0.01-1.26l0-0.04
			c0,0,0.02-0.81-0.56-1.51l-0.03-0.04c-0.38-0.5-1.01-1.09-2.13-1.56c-1.99-0.84-3.43-0.83-6.39-0.48
			c-1.33,0.15-2.55,0.17-3.48,0.07c-1-0.31-1.64-0.82-1.95-1.28c-0.26-0.39-0.73-0.98-1.04-1.45c-0.58-0.9-1.32-2-1.32-2.39
			c0-0.12,0.68,0.24,1.48,0.79c1.92,1.27,3.55,1.11,7.23-0.83c1.44-0.75,2.76-1.39,2.96-1.39c0.2,0,0.92,0.52,1.56,1.15
			c0,0,0.68,0.73,0.94,0.68c0.32-0.06,0.22-0.84,0.22-0.84c0-0.87-0.27-1.8-1.04-2.46c-0.47-0.4-0.91-0.6-2.39-0.59
			c-1.36,0-2.36,0.27-4.32,1.23c-3.43,1.63-3.95,1.59-5.31-0.52c-1.16-1.79-1.72-1.98-1.72-0.63c0,0.44-0.2,1.59-0.48,2.58
			C477.3,39.36,477.3,40.16,477.7,41.59z M484.36,48.16c0.94-0.33,2.45-0.88,4.42,0.03c0.13,0.09,0.28,0.2,0.46,0.3
			c3.51,2.1,3.27,7.54-0.4,9.24c-1.72,0.83-2.68,0.83-4.43,0.12c-1.36-0.56-2.8-2.22-3.15-3.61c-0.01-0.05-0.03-0.26-0.03-0.3
			c-0.02-0.12-0.04-0.89,0.01-1.33c0.02-0.14,0.11-0.53,0.11-0.53l0.03-0.14c0.14-0.74,0.46-1.64,0.85-2.04
			C482.72,49.41,483.7,48.39,484.36,48.16z M478.58,35.95c0-0.32,0.08-0.56,0.2-0.56c0.12,0,0.2,0.24,0.2,0.52
			c0,0.79,1.48,2.22,2.6,2.5c0.64,0.16,2-0.24,4.19-1.23c3.71-1.67,5.19-1.63,6.31,0.2l0.64,0.99l-1-0.91
			c-1.4-1.19-2.6-1.11-6.07,0.56c-2.16,0.99-3.27,1.31-4.03,1.11C480.5,38.85,478.58,36.86,478.58,35.95z M478.3,40.44
			c0.08-0.24,0.24-0.04,0.4,0.52c0.12,0.56,0.88,1.63,1.68,2.38c1.56,1.51,2,1.55,8.39,1.19c2.92-0.16,4.75,0.63,5.67,2.54
			c0.64,1.35,0.48,3.93-0.28,4.4c-0.2,0.12-0.2-0.32,0.04-1.07c0.44-1.55,0.16-2.58-0.96-3.81c-1.28-1.35-3.11-1.71-6.63-1.19
			c-2.88,0.44-3.23,0.4-4.87-0.4c-1.24-0.6-2.12-1.39-2.72-2.46C478.54,41.67,478.18,40.71,478.3,40.44z"/>
	</g>
</g>
<g>
	<g>
		<path fill="#020203" d="M449.78,482.34c-0.41,0.61-1.37,4.51-1.77,6.57c-0.24,1.35-2.12,3.29-3.15,3.29
			c-1.28,0-3.47-0.99-4.35-1.94l-0.76-0.83h1.96c2.44,0,4.39-1.11,5.19-2.98c0.76-1.9,0.72-3.73-0.24-5.28
			c-3.03-4.92-10.38-2.98-10.38,2.74c0,1.9,1.04,4.01,2.32,4.68c0.44,0.24,0.88,0.91,1,1.55c0.32,1.63,2.08,3.53,3.71,4.05
			c3.79,1.27,7.27-1.63,7.95-6.55c0.4-3.06,0.96-4.48,2.08-5.36c1.44-1.11,3.67-1.63,5.11-1.23c1.28,0.4,0.84-0.04-1.12,0.7
			c-0.14,0.05-0.46,0.37-0.55,0.48c-0.2,0.25-0.21,0.29-0.65,1.12c-0.68,1.35-0.69,1.94-0.33,3.92c0.56,2.9,0.54,4.4,0.19,4.86
			c-0.03,0.04-0.06,0.13-0.15,0.3c-0.08,0.13-0.17,0.24-0.38,0.34c-0.28,0.14-0.74,0.33-1.33,0.61c-1.08,0.52-1.08,0.6-0.44,1.07
			c0.88,0.63,1.24,0.63,2.84-0.08c2.28-0.95,2.96-3.49,2.12-7.74c-0.36-1.94,0.2-3.41,1.52-3.81c2.24-0.71,2.36-0.83,1.08-1.43
			c-0.68-0.28-1.72-0.87-2.32-1.27c-0.76-0.52-1.96-0.79-3.67-0.83c-1.44-0.08-2.11,0.16-2.3,0.22c-0.25,0.09-0.59,0.25-1.13,0.64
			C451.22,480.6,450.23,481.67,449.78,482.34z M455.52,493.55c1.4-0.71,1.72-1.98,1.32-4.84c-0.56-3.89-0.44-4.88,0.76-5.91
			c0.6-0.52,1.56-0.91,2.16-0.87c1.04,0.04,1.04,0.04-0.2,0.4c-0.72,0.2-1.6,0.83-2,1.39c-0.56,0.87-0.6,1.35-0.2,3.49
			c0.28,1.39,0.48,2.98,0.48,3.53c0,1.19-1.8,3.45-2.72,3.45C454.68,494.14,454.8,493.95,455.52,493.55z M441.94,492.6
			c-1.76-1.07-1.64-1.39,0.2-0.4c1.88,0.99,2.8,0.99,4.39,0c1.64-0.95,2-1.71,2.68-5.32c0.32-1.63,0.88-3.49,1.24-4.17
			c0.84-1.67,3.27-2.82,5.67-2.78l1.92,0.04l-2.12,0.32c-3.79,0.56-4.99,1.86-5.87,6.51c-0.68,3.61-0.96,4.17-2.64,5.55
			C445.89,493.63,443.82,493.71,441.94,492.6z M439.1,487.2c-2.44-2.02-1.92-5.95,1-7.14c1.8-0.75,3.35-0.44,4.71,0.91
			C448.61,484.74,443.22,490.65,439.1,487.2z"/>
		<path fill="#020203" d="M444.29,486.29c1.76-1.79,1.4-4.25-0.84-5.4c-2.4-1.23-5.19,0.44-5.19,3.06c0,1.63,1.92,3.49,3.59,3.49
			C442.74,487.44,443.5,487.08,444.29,486.29z M439.98,485.77c-0.52-0.48-0.92-1.27-0.92-1.79c0-1.19,1.68-2.9,2.8-2.9
			c1.04,0,2.8,1.71,2.8,2.7c0,0.44-0.36,1.23-0.84,1.83C442.82,486.88,441.26,486.96,439.98,485.77z"/>
		<path fill="#020203" d="M472.01,482.6c3.67-1.35,6.63-4.76,7.43-8.53c1.52-7.42-4.51-14.48-11.98-13.93
			c-1.24,0.08-3.03,0.52-3.99,0.99c-1.44,0.71-1.64,0.75-1.4,0.2c1.04-2.42,0.56-5.16-1.2-7.02c-1.12-1.19-1.6-1.39-3.11-1.39
			c-4.07,0-7.11,2.98-7.11,6.98c0,1.79,0.16,2.22,1.28,3.29c1.4,1.35,3.15,1.83,5.55,1.51c0.84-0.12,1.56-0.16,1.56-0.08
			c0,0.08-0.4,0.79-0.88,1.59c-1.16,2.02-1.44,6.55-0.56,9.21c0.8,2.46,2.92,4.92,5.31,6.35c1.48,0.83,2.44,1.07,4.87,1.19
			C469.45,483,471.33,482.88,472.01,482.6z M463.98,480.77c-1.84-0.95-3.75-2.9-4.79-4.84c-1.04-1.94-1.04-6.78,0-8.73
			c1.96-3.69,5.11-5.71,9.03-5.71c3.19,0,5.23,0.95,7.47,3.49c4.71,5.32,2.56,13.89-4.11,16.35
			C469.53,482.08,466.02,481.81,463.98,480.77z M453.44,463c-1.64-1.11-2-1.79-1.92-3.89c0.04-1.51,0.08-1.67,0.2-0.63
			c0.24,2.58,0.52,3.17,1.72,3.77c4.43,2.26,8.95-2.26,6.39-6.43c-0.72-1.23-1.24-1.47-3.59-1.83c-0.64-0.12-0.4-0.2,0.6-0.24
			c1.96-0.04,3.27,0.79,4.03,2.58c0.76,1.79,0.72,2.9-0.16,4.48C459.35,463.32,455.6,464.43,453.44,463z M453.52,461.41
			c-0.48-0.32-0.64-0.67-0.71-0.89c-0.07-0.2-0.17-0.45-0.23-0.67c-0.15-0.53-0.05-2.73,0.43-3.49c0.2-0.36,1.17-1.4,2.54-1.42
			c2.92,0.08,3.15,0.2,3.83,1.43c1.36,2.58-0.52,5.67-3.43,5.67C455.12,462.05,454,461.77,453.52,461.41z"/>
		<path fill="#020203" d="M471.37,480.58c2-0.75,4.43-2.98,5.27-4.8c1.76-3.85,0.4-9.36-2.92-11.74
			c-5.87-4.21-13.82-0.67-14.58,6.47c-0.4,3.93,1.72,7.86,5.15,9.64C465.94,480.97,469.65,481.21,471.37,480.58z M463.94,478.87
			c-1.36-0.83-2.2-1.75-3-3.29c-1.48-2.82-1.48-5.2,0-8.01c3.91-7.5,14.98-5.16,15.57,3.25
			C477.04,478.08,470.01,482.6,463.94,478.87z"/>
		<path fill="#020203" d="M469.33,477.08c3.83-0.79,5.63-5.79,3.23-8.85c-3.04-3.85-9.07-2.38-10.14,2.42
			C461.63,474.43,465.38,477.92,469.33,477.08z M465.18,474.58c-1.08-1.07-1.36-1.67-1.36-2.94c0-1.94,1.12-3.41,3.03-4.05
			c4.75-1.59,7.59,5.44,3.15,7.86C468.42,476.33,466.62,476.01,465.18,474.58z"/>
		<path fill="#020203" d="M470.41,474.15c1.56-1.51,1.48-3.49-0.24-5.04c-1.48-1.39-2.76-1.39-4.31-0.08
			c-2.52,2.1-1.12,6.11,2.16,6.11C469.01,475.14,469.77,474.82,470.41,474.15z M466.22,473.55c-1.16-1.15-1.04-2.94,0.24-3.93
			c1.36-1.07,1.88-1.03,3.19,0.08c1.36,1.15,1.44,2.9,0.16,3.93C468.65,474.58,467.22,474.54,466.22,473.55z"/>
		<path fill="#020203" d="M448.45,470.7c-1.48,1.63-4.59,3.09-7.11,3.41c-1.03,0.07-1.29,0.05-1.76-0.08
			c-0.3-0.08-0.76-0.28-1.96-0.32c-1.84,0-2.08,0.04-1.64,0.56c1.76,2.14,7.43,2.74,10.9,1.11c1.4-0.63,2.8-1.83,4.59-3.85
			c1.4-1.59,3.11-3.49,3.79-4.21c1.24-1.27,1.24-1.31,0.36-1.31c-1.2,0-3.39,1.31-3.79,1.63 M437.99,474.82
			c-0.28-0.16,0.72-0.24,2.24-0.16c3.63,0.2,6.11-0.87,10.02-4.44c1.56-1.43,3.27-2.82,3.71-3.09c0.88-0.44-5.55,5.75-7.07,6.82
			C444.93,475.34,439.82,475.81,437.99,474.82z"/>
		<path fill="#020203" d="M471.93,453c1.08-0.75,2.4-2.22,3.03-3.33c1.04-1.75,1.12-2.22,1-5.28c-0.04-1.94-0.36-3.77-0.68-4.44
			l-0.6-1.11l-0.28,1.59c-0.56,3.37-0.72,4.01-1.48,5.55c-0.44,0.87-2.48,3.29-4.55,5.36c-3.15,3.17-5.39,6.43-4.87,6.98
			c0.08,0.04,0.76-0.36,1.52-0.95c0.76-0.56,1.33-0.98,1.64-1.24c0.19-0.17,0.19-0.18,0.36-0.31 M466.06,454.98
			c0.88-0.79,2.72-2.42,4.07-3.57c2.8-2.38,3.83-4.13,4.67-7.74l0.6-2.46l-0.16,2.46c-0.2,3.41-1.76,6.11-4.83,8.41
			c-1.32,0.99-3.11,2.5-3.99,3.29s-1.68,1.35-1.8,1.23C464.5,456.53,465.14,455.78,466.06,454.98z"/>
		<path fill="#020203" d="M487.98,448.91c1.24-0.71,1.8-1.59,1.8-2.86c0-2.46-2.16-3.97-4.39-3.06c-1.44,0.6-2,1.47-2,3.09
			C483.39,448.36,486.07,449.98,487.98,448.91z M485.07,447.29c-0.28-0.28-0.48-0.83-0.48-1.31c0-1.15,0.76-1.79,2.08-1.79
			c1.44,0,2.24,1.43,1.56,2.74C487.7,447.84,485.87,448.08,485.07,447.29z"/>
		<path fill="none" d="M482.74,448.91c-0.13-0.16-0.25-0.33-0.35-0.52c-0.96-1.27-0.76-3.97,0.4-5.36c2.96-3.45,8.07-1.86,8.51,2.7
			c0.16,1.79,0.04,2.06-1.16,3.37c-1.64,1.79-3.63,2.22-5.59,1.27"/>
		<path fill="none" d="M484.35,450.86c0,0,0.02,0.01,0.03,0.01c1.04,0.39,2.43,0.97,4.42-0.03c0.13-0.09,0.28-0.2,0.46-0.3
			c3.51-2.1,3.27-7.54-0.4-9.24c-1.72-0.83-2.68-0.83-4.43-0.12c-1.36,0.56-2.8,2.22-3.15,3.61c-0.01,0.05-0.03,0.26-0.03,0.3
			c-0.02,0.12-0.04,0.89,0.01,1.33c0.02,0.14,0.11,0.53,0.11,0.53l0.03,0.14c0.14,0.74,0.47,1.6,0.82,2.03
			c-0.01-0.01-0.02-0.03-0.03-0.04c0.01,0.01,0.02,0.03,0.03,0.04c0.05,0.06,0.09,0.11,0.14,0.15"/>
		<path fill="none" d="M482.74,448.91c-0.09-0.16-0.2-0.33-0.35-0.52C482.49,448.58,482.61,448.75,482.74,448.91z"/>
		<path fill="none" d="M484.87,449.71c1.68,0.83,3.51,0.32,4.87-1.39c2.52-3.21-1.16-7.7-4.87-5.91
			C481.83,443.83,481.83,448.16,484.87,449.71z"/>
		<path fill="none" d="M478.8,463.63c0.12,0,0.2-0.24,0.2-0.52c0-0.79,1.48-2.22,2.6-2.5c0.64-0.16,2,0.24,4.19,1.23
			c3.71,1.67,5.19,1.63,6.31-0.2l0.64-0.99l-1,0.91c-1.4,1.19-2.6,1.11-6.07-0.56c-2.16-0.99-3.27-1.31-4.03-1.11
			c-1.12,0.28-3.03,2.26-3.03,3.17C478.6,463.39,478.68,463.63,478.8,463.63z"/>
		<path fill="none" d="M478.72,458.08c0.12-0.56,0.88-1.63,1.68-2.38c1.56-1.51,2-1.55,8.39-1.19c2.92,0.16,4.75-0.63,5.67-2.54
			c0.64-1.35,0.48-3.93-0.28-4.4c-0.2-0.12-0.2,0.32,0.04,1.07c0.44,1.55,0.16,2.58-0.96,3.81c-1.28,1.35-3.11,1.71-6.63,1.19
			c-2.88-0.44-3.23-0.4-4.87,0.4c-1.24,0.6-2.12,1.39-2.72,2.46c-0.48,0.87-0.84,1.83-0.72,2.1
			C478.4,458.83,478.56,458.63,478.72,458.08z"/>
		<path fill="#020203" d="M484.55,450.38c1.96,0.95,3.95,0.52,5.59-1.27c1.2-1.31,1.32-1.59,1.16-3.37
			c-0.44-4.56-5.55-6.15-8.51-2.7c-1.16,1.39-1.36,4.09-0.4,5.36c0.15,0.19,0.26,0.36,0.35,0.52
			C483.49,449.87,484.55,450.38,484.55,450.38z M484.87,442.41c3.71-1.79,7.39,2.7,4.87,5.91c-1.36,1.71-3.19,2.22-4.87,1.39
			C481.83,448.16,481.83,443.83,484.87,442.41z"/>
		<path fill="#020203" d="M477.72,461.05c0.28,0.99,0.48,2.14,0.48,2.58c0,1.35,0.56,1.15,1.72-0.63c1.36-2.1,1.88-2.14,5.31-0.52
			c1.96,0.95,2.96,1.22,4.32,1.23c1.48,0,1.92-0.19,2.39-0.59c0.77-0.66,1.04-1.59,1.04-2.46c0,0,0.1-0.77-0.22-0.84
			c-0.26-0.05-0.94,0.68-0.94,0.68c-0.64,0.63-1.36,1.15-1.56,1.15c-0.2,0-1.52-0.63-2.96-1.39c-3.67-1.94-5.31-2.1-7.23-0.83
			c-0.8,0.56-1.48,0.91-1.48,0.79c0-0.39,0.74-1.49,1.32-2.39c0.3-0.47,0.78-1.06,1.04-1.45c0.31-0.46,0.95-0.97,1.95-1.28
			c0.93-0.09,2.14-0.07,3.48,0.07c2.96,0.36,4.4,0.36,6.39-0.48c1.12-0.47,1.76-1.06,2.13-1.56l0.03-0.04
			c0.58-0.7,0.56-1.51,0.56-1.51l0-0.04c0.02-0.32,0.02-0.74-0.01-1.26c-0.08-2.26-0.88-3.73-2.36-4.52
			c-0.44-0.24-1.04-1.07-1.32-1.79c-1-2.78-4.19-4.29-6.99-3.37c-1.68,0.56-3.75,2.83-3.8,4.06c-0.01,0.18-0.02,0.4-0.02,0.49
			c0.02,0.46,0,1.72,0,1.72c-0.04,1.03,0.27,1.78,1.51,2.97c0.84,0.87,1.67,1.39,2.07,1.45l0.01,0c2.28,0.71,4.12-0.05,4.12-0.05
			c0.02-0.01,0.32-0.16,0.34-0.16c0.08-0.04,0.22-0.13,0.29-0.18c0.79-0.5,1.73-1.42,2.11-2.09c0.24-0.48,0.6-1.39,0.72-2.06
			l0.28-1.19l0.52,1.19c0.88,2.1,0.68,3.77-0.6,4.84c-1.08,0.95-1.24,0.95-5.23,0.71c-3.71-0.28-4.27-0.2-5.83,0.56
			c-2.04,0.99-2.92,2.14-3.59,4.56C477.32,458.87,477.32,459.67,477.72,461.05z M482.24,449.12c-0.39-0.4-0.71-1.3-0.85-2.04
			l-0.03-0.14c0,0-0.1-0.4-0.11-0.53c-0.05-0.44-0.03-1.21-0.01-1.33c0.01-0.04,0.02-0.25,0.03-0.3c0.36-1.39,1.8-3.06,3.15-3.61
			c1.76-0.71,2.72-0.71,4.43,0.12c3.67,1.71,3.91,7.14,0.4,9.24c-0.18,0.11-0.33,0.21-0.46,0.3c-1.97,0.91-3.48,0.36-4.42,0.03
			C483.72,450.64,482.74,449.62,482.24,449.12z M481.63,459.9c0.76-0.2,1.88,0.12,4.03,1.11c3.47,1.67,4.67,1.75,6.07,0.56l1-0.91
			l-0.64,0.99c-1.12,1.83-2.6,1.86-6.31,0.2c-2.2-0.99-3.55-1.39-4.19-1.23c-1.12,0.28-2.6,1.71-2.6,2.5c0,0.28-0.08,0.52-0.2,0.52
			c-0.12,0-0.2-0.24-0.2-0.56C478.6,462.16,480.52,460.18,481.63,459.9z M479.04,456.49c0.6-1.07,1.48-1.86,2.72-2.46
			c1.64-0.79,2-0.83,4.87-0.4c3.51,0.52,5.35,0.16,6.63-1.19c1.12-1.23,1.4-2.26,0.96-3.81c-0.24-0.75-0.24-1.19-0.04-1.07
			c0.76,0.48,0.92,3.06,0.28,4.4c-0.92,1.9-2.76,2.7-5.67,2.54c-6.39-0.36-6.83-0.32-8.39,1.19c-0.8,0.75-1.56,1.83-1.68,2.38
			c-0.16,0.56-0.32,0.75-0.4,0.52C478.2,458.32,478.56,457.36,479.04,456.49z"/>
	</g>
	<g>
		<path fill="#020203" d="M48.83,480.17c-0.53-0.39-0.88-0.55-1.13-0.64c-0.19-0.07-0.86-0.3-2.3-0.22
			c-1.72,0.04-2.92,0.32-3.67,0.83c-0.6,0.4-1.64,0.99-2.32,1.27c-1.28,0.6-1.16,0.71,1.08,1.43c1.32,0.4,1.88,1.86,1.52,3.81
			c-0.84,4.25-0.16,6.78,2.12,7.74c1.6,0.71,1.96,0.71,2.84,0.08c0.64-0.48,0.64-0.56-0.44-1.07c-0.6-0.28-1.05-0.48-1.33-0.61
			c-0.21-0.1-0.31-0.21-0.38-0.34c-0.1-0.17-0.12-0.26-0.15-0.3c-0.35-0.46-0.37-1.96,0.19-4.86c0.36-1.98,0.35-2.58-0.33-3.92
			c-0.44-0.83-0.45-0.87-0.65-1.12c-0.09-0.11-0.41-0.43-0.55-0.48c-1.95-0.74-2.39-0.3-1.12-0.7c1.44-0.4,3.67,0.12,5.11,1.23
			c1.12,0.87,1.68,2.3,2.08,5.36c0.68,4.92,4.15,7.82,7.95,6.55c1.64-0.52,3.39-2.42,3.71-4.05c0.12-0.63,0.56-1.31,1-1.55
			c1.28-0.67,2.32-2.78,2.32-4.68c0-5.71-7.35-7.66-10.38-2.74c-0.96,1.55-1,3.37-0.24,5.28c0.8,1.86,2.76,2.98,5.19,2.98h1.96
			l-0.76,0.83c-0.88,0.95-3.07,1.94-4.35,1.94c-1.04,0-2.92-1.94-3.15-3.29c-0.4-2.06-1.37-5.97-1.77-6.57
			C50.41,481.67,49.42,480.6,48.83,480.17z M45.53,494.18c-0.92,0-2.72-2.26-2.72-3.45c0-0.56,0.2-2.14,0.48-3.53
			c0.4-2.14,0.36-2.62-0.2-3.49c-0.4-0.56-1.28-1.19-2-1.39c-1.24-0.36-1.24-0.36-0.2-0.4c0.6-0.04,1.56,0.36,2.16,0.87
			c1.2,1.03,1.32,2.02,0.76,5.91c-0.4,2.86-0.08,4.13,1.32,4.84C45.85,493.95,45.96,494.14,45.53,494.18z M53.23,492.36
			c-1.68-1.39-1.96-1.94-2.64-5.55c-0.88-4.64-2.08-5.95-5.87-6.51l-2.12-0.32l1.92-0.04c2.4-0.04,4.83,1.11,5.67,2.78
			c0.36,0.67,0.92,2.54,1.24,4.17c0.68,3.61,1.04,4.36,2.68,5.32c1.6,0.99,2.52,0.99,4.39,0c1.84-0.99,1.96-0.67,0.2,0.4
			C56.83,493.71,54.75,493.63,53.23,492.36z M55.83,480.97c1.36-1.35,2.92-1.67,4.71-0.91c2.92,1.19,3.43,5.12,1,7.14
			C57.43,490.65,52.03,484.74,55.83,480.97z"/>
		<path fill="#020203" d="M58.78,487.44c1.68,0,3.59-1.86,3.59-3.49c0-2.62-2.8-4.29-5.19-3.06c-2.24,1.15-2.6,3.61-0.84,5.4
			C57.15,487.08,57.91,487.44,58.78,487.44z M56.83,485.61c-0.48-0.6-0.84-1.39-0.84-1.83c0-0.99,1.76-2.7,2.8-2.7
			c1.12,0,2.8,1.71,2.8,2.9c0,0.52-0.4,1.31-0.92,1.79C59.38,486.96,57.83,486.88,56.83,485.61z"/>
		<path fill="#020203" d="M32.87,482.96c2.44-0.12,3.39-0.36,4.87-1.19c2.4-1.43,4.51-3.89,5.31-6.35c0.88-2.66,0.6-7.18-0.56-9.21
			c-0.48-0.79-0.88-1.51-0.88-1.59c0-0.08,0.72-0.04,1.56,0.08c2.4,0.32,4.15-0.16,5.55-1.51c1.12-1.07,1.28-1.51,1.28-3.29
			c0-4.01-3.03-6.98-7.11-6.98c-1.52,0-2,0.2-3.11,1.39c-1.76,1.86-2.24,4.6-1.2,7.02c0.24,0.56,0.04,0.52-1.4-0.2
			c-0.96-0.48-2.76-0.91-3.99-0.99c-7.47-0.56-13.5,6.51-11.98,13.93c0.8,3.77,3.75,7.18,7.43,8.53
			C29.31,482.88,31.19,483,32.87,482.96z M29.07,481.33c-6.67-2.46-8.83-11.03-4.11-16.35c2.24-2.54,4.27-3.49,7.47-3.49
			c3.91,0,7.07,2.02,9.03,5.71c1.04,1.94,1.04,6.78,0,8.73s-2.96,3.89-4.79,4.84C34.62,481.81,31.11,482.08,29.07,481.33z
			 M39.93,460.82c-0.88-1.59-0.92-2.7-0.16-4.48c0.76-1.79,2.08-2.62,4.03-2.58c1,0.04,1.24,0.12,0.6,0.24
			c-2.36,0.36-2.88,0.6-3.59,1.83c-2.56,4.17,1.96,8.69,6.39,6.43c1.2-0.6,1.48-1.19,1.72-3.77c0.12-1.03,0.16-0.87,0.2,0.63
			c0.08,2.1-0.28,2.78-1.92,3.89C45.05,464.43,41.29,463.32,39.93,460.82z M44.69,462.05c-2.92,0-4.79-3.09-3.43-5.67
			c0.68-1.23,0.92-1.35,3.83-1.43c1.37,0.02,2.34,1.06,2.54,1.42c0.48,0.75,0.58,2.95,0.43,3.49c-0.06,0.22-0.16,0.47-0.23,0.67
			c-0.07,0.22-0.23,0.58-0.71,0.89C46.64,461.77,45.53,462.05,44.69,462.05z"/>
		<path fill="#020203" d="M36.34,480.14c3.43-1.79,5.55-5.71,5.15-9.64c-0.76-7.14-8.71-10.67-14.58-6.47
			c-3.31,2.38-4.67,7.9-2.92,11.74c0.84,1.83,3.27,4.05,5.27,4.8C30.99,481.21,34.7,480.97,36.34,480.14z M24.12,470.81
			c0.6-8.41,11.66-10.75,15.57-3.25c1.48,2.82,1.48,5.2,0,8.01c-0.8,1.55-1.64,2.46-3,3.29C30.63,482.6,23.6,478.08,24.12,470.81z"
			/>
		<path fill="#020203" d="M38.22,470.66c-1.08-4.8-7.11-6.27-10.14-2.42c-2.4,3.06-0.6,8.05,3.23,8.85
			C35.26,477.92,39.02,474.43,38.22,470.66z M30.63,475.46c-4.43-2.42-1.6-9.44,3.15-7.86c1.92,0.63,3.03,2.1,3.03,4.05
			c0,1.27-0.28,1.86-1.36,2.94C34.02,476.01,32.23,476.33,30.63,475.46z"/>
		<path fill="#020203" d="M32.63,475.14c3.27,0,4.67-4.01,2.16-6.11c-1.56-1.31-2.84-1.31-4.31,0.08c-1.72,1.55-1.8,3.53-0.24,5.04
			C30.87,474.82,31.63,475.14,32.63,475.14z M30.83,473.63c-1.28-1.03-1.2-2.78,0.16-3.93c1.32-1.11,1.84-1.15,3.19-0.08
			c1.28,0.99,1.4,2.78,0.24,3.93C33.43,474.54,31.99,474.58,30.83,473.63z"/>
		<path fill="#020203" d="M48.8,467.64c-0.41-0.32-2.6-1.63-3.79-1.63c-0.88,0-0.88,0.04,0.36,1.31c0.68,0.71,2.4,2.62,3.79,4.21
			c1.8,2.02,3.19,3.21,4.59,3.85c3.47,1.63,9.14,1.03,10.9-1.11c0.44-0.52,0.2-0.56-1.64-0.56c-1.2,0.04-1.66,0.24-1.96,0.32
			c-0.47,0.12-0.73,0.14-1.76,0.08c-2.52-0.32-5.63-1.79-7.11-3.41 M53.75,473.95c-1.52-1.07-7.95-7.26-7.07-6.82
			c0.44,0.28,2.16,1.67,3.71,3.09c3.91,3.57,6.39,4.64,10.02,4.44c1.52-0.08,2.52,0,2.24,0.16
			C60.82,475.81,55.71,475.34,53.75,473.95z"/>
		<path fill="#020203" d="M33.63,455.82c0.17,0.13,0.17,0.14,0.36,0.31c0.31,0.26,0.88,0.68,1.64,1.24c0.76,0.6,1.44,0.99,1.52,0.95
			c0.52-0.56-1.72-3.81-4.87-6.98c-2.08-2.06-4.11-4.48-4.55-5.36c-0.76-1.55-0.92-2.18-1.48-5.55l-0.28-1.59l-0.6,1.11
			c-0.32,0.67-0.64,2.5-0.68,4.44c-0.12,3.06-0.04,3.53,1,5.28c0.64,1.11,1.96,2.58,3.03,3.33 M36.02,456.61
			c-0.12,0.12-0.92-0.44-1.8-1.23s-2.68-2.3-3.99-3.29c-3.07-2.3-4.63-5-4.83-8.41l-0.16-2.46l0.6,2.46
			c0.84,3.61,1.88,5.36,4.67,7.74c1.36,1.15,3.19,2.78,4.07,3.57C35.5,455.78,36.14,456.53,36.02,456.61z"/>
		<path fill="#020203" d="M17.25,446.1c0-1.63-0.56-2.5-2-3.09c-2.24-0.91-4.39,0.6-4.39,3.06c0,1.27,0.56,2.14,1.8,2.86
			C14.58,449.98,17.25,448.36,17.25,446.1z M12.42,446.93c-0.68-1.31,0.12-2.74,1.56-2.74c1.32,0,2.08,0.63,2.08,1.79
			c0,0.48-0.2,1.03-0.48,1.31C14.78,448.08,12.94,447.84,12.42,446.93z"/>
		<path fill="none" d="M17.9,448.91c0.13-0.16,0.25-0.33,0.35-0.52c0.96-1.27,0.76-3.97-0.4-5.36c-2.96-3.45-8.07-1.86-8.51,2.7
			c-0.16,1.79-0.04,2.06,1.16,3.37c1.64,1.79,3.63,2.22,5.59,1.27"/>
		<path fill="none" d="M16.29,450.86c0,0-0.02,0.01-0.03,0.01c-1.04,0.39-2.43,0.97-4.42-0.03c-0.13-0.09-0.28-0.2-0.46-0.3
			c-3.51-2.1-3.27-7.54,0.4-9.24c1.72-0.83,2.68-0.83,4.43-0.12c1.36,0.56,2.8,2.22,3.15,3.61c0.01,0.05,0.03,0.26,0.03,0.3
			c0.02,0.12,0.04,0.89-0.01,1.33c-0.02,0.14-0.11,0.53-0.11,0.53l-0.03,0.14c-0.14,0.74-0.47,1.6-0.82,2.03
			c0.01-0.01,0.02-0.03,0.03-0.04c-0.01,0.01-0.02,0.03-0.03,0.04c-0.05,0.06-0.09,0.11-0.14,0.15"/>
		<path fill="none" d="M17.9,448.91c0.09-0.16,0.2-0.33,0.35-0.52C18.15,448.58,18.03,448.75,17.9,448.91z"/>
		<path fill="none" d="M15.77,449.71c-1.68,0.83-3.51,0.32-4.87-1.39c-2.52-3.21,1.16-7.7,4.87-5.91
			C18.81,443.83,18.81,448.16,15.77,449.71z"/>
		<path fill="none" d="M21.84,463.63c-0.12,0-0.2-0.24-0.2-0.52c0-0.79-1.48-2.22-2.6-2.5c-0.64-0.16-2,0.24-4.19,1.23
			c-3.71,1.67-5.19,1.63-6.31-0.2l-0.64-0.99l1,0.91c1.4,1.19,2.6,1.11,6.07-0.56c2.16-0.99,3.27-1.31,4.03-1.11
			c1.12,0.28,3.03,2.26,3.03,3.17C22.04,463.39,21.96,463.63,21.84,463.63z"/>
		<path fill="none" d="M21.92,458.08c-0.12-0.56-0.88-1.63-1.68-2.38c-1.56-1.51-2-1.55-8.39-1.19c-2.92,0.16-4.75-0.63-5.67-2.54
			c-0.64-1.35-0.48-3.93,0.28-4.4c0.2-0.12,0.2,0.32-0.04,1.07c-0.44,1.55-0.16,2.58,0.96,3.81c1.28,1.35,3.11,1.71,6.63,1.19
			c2.88-0.44,3.23-0.4,4.87,0.4c1.24,0.6,2.12,1.39,2.72,2.46c0.48,0.87,0.84,1.83,0.72,2.1C22.24,458.83,22.08,458.63,21.92,458.08
			z"/>
		<path fill="#020203" d="M17.9,448.91c0.09-0.16,0.2-0.33,0.35-0.52c0.96-1.27,0.76-3.97-0.4-5.36c-2.96-3.45-8.07-1.86-8.51,2.7
			c-0.16,1.79-0.04,2.06,1.16,3.37c1.64,1.79,3.63,2.22,5.59,1.27C16.09,450.38,17.15,449.87,17.9,448.91z M15.77,449.71
			c-1.68,0.83-3.51,0.32-4.87-1.39c-2.52-3.21,1.16-7.7,4.87-5.91C18.81,443.83,18.81,448.16,15.77,449.71z"/>
		<path fill="#020203" d="M22.92,457.44c-0.68-2.42-1.56-3.57-3.59-4.56c-1.56-0.75-2.12-0.83-5.83-0.56
			c-3.99,0.24-4.15,0.24-5.23-0.71c-1.28-1.07-1.48-2.74-0.6-4.84l0.52-1.19l0.28,1.19c0.12,0.67,0.48,1.59,0.72,2.06
			c0.38,0.67,1.32,1.59,2.11,2.09c0.07,0.05,0.21,0.14,0.29,0.18c0.02,0.01,0.32,0.16,0.34,0.16c0,0,1.83,0.76,4.12,0.05l0.01,0
			c0.4-0.07,1.23-0.58,2.07-1.45c1.24-1.19,1.55-1.94,1.51-2.97c0,0-0.01-1.26,0-1.72c0-0.09-0.01-0.31-0.02-0.49
			c-0.05-1.23-2.12-3.51-3.8-4.06c-2.8-0.91-5.99,0.6-6.99,3.37c-0.28,0.71-0.88,1.55-1.32,1.79c-1.48,0.79-2.28,2.26-2.36,4.52
			c-0.03,0.52-0.03,0.94-0.01,1.26l0,0.04c0,0-0.02,0.81,0.56,1.51l0.03,0.04c0.38,0.5,1.01,1.09,2.13,1.56
			c1.99,0.84,3.43,0.83,6.39,0.48c1.33-0.15,2.55-0.17,3.48-0.07c1,0.31,1.64,0.82,1.95,1.28c0.26,0.39,0.73,0.98,1.04,1.45
			c0.58,0.9,1.32,2,1.32,2.39c0,0.12-0.68-0.24-1.48-0.79c-1.92-1.27-3.55-1.11-7.23,0.83c-1.44,0.75-2.76,1.39-2.96,1.39
			c-0.2,0-0.92-0.52-1.56-1.15c0,0-0.68-0.73-0.94-0.68c-0.32,0.06-0.22,0.84-0.22,0.84c0,0.87,0.27,1.8,1.04,2.46
			c0.47,0.4,0.91,0.6,2.39,0.59c1.36,0,2.36-0.27,4.32-1.23c3.43-1.63,3.95-1.59,5.31,0.52c1.16,1.79,1.72,1.98,1.72,0.63
			c0-0.44,0.2-1.59,0.48-2.58C23.32,459.67,23.32,458.87,22.92,457.44z M16.27,450.87c-0.94,0.33-2.45,0.88-4.42-0.03
			c-0.13-0.09-0.28-0.2-0.46-0.3c-3.51-2.1-3.27-7.54,0.4-9.24c1.72-0.83,2.68-0.83,4.43-0.12c1.36,0.56,2.8,2.22,3.15,3.61
			c0.01,0.05,0.03,0.26,0.03,0.3c0.02,0.12,0.04,0.89-0.01,1.33c-0.02,0.14-0.11,0.53-0.11,0.53l-0.03,0.14
			c-0.14,0.74-0.46,1.64-0.85,2.04C17.91,449.62,16.92,450.64,16.27,450.87z M22.04,463.08c0,0.32-0.08,0.56-0.2,0.56
			c-0.12,0-0.2-0.24-0.2-0.52c0-0.79-1.48-2.22-2.6-2.5c-0.64-0.16-2,0.24-4.19,1.23c-3.71,1.67-5.19,1.63-6.31-0.2l-0.64-0.99
			l1,0.91c1.4,1.19,2.6,1.11,6.07-0.56c2.16-0.99,3.27-1.31,4.03-1.11C20.13,460.18,22.04,462.16,22.04,463.08z M22.32,458.59
			c-0.08,0.24-0.24,0.04-0.4-0.52c-0.12-0.56-0.88-1.63-1.68-2.38c-1.56-1.51-2-1.55-8.39-1.19c-2.92,0.16-4.75-0.63-5.67-2.54
			c-0.64-1.35-0.48-3.93,0.28-4.4c0.2-0.12,0.2,0.32-0.04,1.07c-0.44,1.55-0.16,2.58,0.96,3.81c1.28,1.35,3.11,1.71,6.63,1.19
			c2.88-0.44,3.23-0.4,4.87,0.4c1.24,0.6,2.12,1.39,2.72,2.46C22.08,457.36,22.44,458.32,22.32,458.59z"/>
	</g>
</g>
</svg>
