<?xml version="1.0" encoding="utf-8"?>
<!-- Generator: Adobe Illustrator 24.1.0, SVG Export Plug-In . SVG Version: 6.00 Build 0)  -->
<svg version="1.0" id="Layer_1" xmlns="http://www.w3.org/2000/svg" xmlns:xlink="http://www.w3.org/1999/xlink" x="0px" y="0px"
	 viewBox="0 0 500 500" enable-background="new 0 0 500 500" xml:space="preserve">
<g>
	<path d="M474.68,384.9c-0.43,1.51-0.05,2.96,0.81,4.28c0.29,0.45,0.68,0.95,0.69,1.44c0.07,2.24,0.02,4.49,0.01,7.01
		c-3.2-2.55-4.36-2.89-6.74-2.13c1,3.6,2.3,6.91,6.6,7.69c0.39,3.73,0.58,7.36,0.12,11.2c-2.69-2.23-5.28-3.71-8.6-3.52
		c2.2,3.51,3.43,7.75,8.49,8.71c0,3.04,0,6.11,0,9.56c-2.53-2.03-4.69-3.68-7.67-3.86c0.4,4.89,3.01,7.4,7.66,7.88
		c-0.26,2.26,0.31,4.35-0.34,6.45c-2.49-1.03-4.41-2.99-7.15-3.09c0.33,1.53,0.7,2.88,0.88,4.26c0.24,1.77,1.11,2.9,2.85,3.34
		c1.21,0.31,2.41,0.63,3.54,0.92c0.75,2.02-0.32,4.12,0.73,6.38c1.03-1.18,0.67-2.34,0.79-3.33c0.13-1.07,0.03-2.17,0.03-3.19
		c3.12-1.08,5.86-2.29,6.55-5.71c0.39-1.96-0.06-3.72-1.79-5.07c-0.81,0.98-1.56,1.86-2.29,2.75c-0.71,0.86-1.4,1.74-2.1,2.61
		c-0.45-0.77-0.37-1.32-0.46-1.84c-0.68-3.76,0.54-6.4,3.99-8.36c2.77-1.57,3.4-5.91,1.85-8.63c-1.73,1.78-3.5,3.6-5.65,5.81
		c0-1.75,0.1-2.98-0.02-4.2c-0.25-2.58,0.24-4.51,2.71-6.14c3.15-2.09,3.8-6.44,2.08-9.77c-1.18,2.16-2.37,4.12-4.74,5.56
		c0-2.85,0-5.44,0-8.1c2.69-0.91,3.38-3.45,4.37-5.6c1.58-3.44,1.44-5.15-0.23-6.69c-1.03,2.25-2.04,4.47-4.2,6.58
		c0-2.22,0.02-3.93,0-5.65c-0.01-1.12,0.17-2.12,0.88-3.09c1.57-2.14,1.49-4.63,0.93-7.04c-0.3-1.3-0.83-2.71-2.56-3.31
		C475.99,381.06,475.24,382.95,474.68,384.9z"/>
	<path d="M476.85,479.22c-0.63,1.06-1.24,1.77-1.49,2.6c-0.33,1.11-0.37,2.32-0.56,3.48c-0.27,1.58,0.33,2.94,1.09,4.24
		c0.7,1.19,1.26,1.34,2.55,0.79c1.58-0.67,2.4-2.27,1.82-4.35C479.62,483.74,478.84,481.5,476.85,479.22z"/>
	<path d="M465.82,481.24c-0.13,0.29-0.23,0.59-0.29,0.9c-0.31,1.57,0.52,2.6,2.14,2.65c1.24,0.04,2.38-0.27,3.19-1.24
		c0.96-1.14,1.9-2.32,2.69-3.58c0.42-0.67,0.51-1.55,0.75-2.35C471.47,476.86,466.84,478.94,465.82,481.24z"/>
	<path d="M467.37,470.41c-1.44-0.16-3.3,0.92-3.41,1.9c-0.12,1.11,0.91,2.29,2.52,2.73c0.67,0.18,1.4,0.27,2.09,0.22
		c1.85-0.15,3.7-0.39,5.76-0.63c-0.18-0.45-0.2-0.73-0.35-0.86C472.05,472.1,469.98,470.7,467.37,470.41z"/>
	<path d="M477.2,470.37c0.44-0.1,1.03-0.54,1.12-0.94c0.42-1.82,0.74-3.68,0.98-5.53c0.06-0.49-0.23-1.06-0.43-1.56
		c-0.42-1.04-1.28-1.69-2.35-1.6c-1.05,0.08-1.52,1.01-1.73,1.98c-0.11,0.53-0.11,1.09-0.16,1.63c0.03,1.92,0.47,3.74,1.49,5.37
		C476.34,470.05,476.91,470.44,477.2,470.37z"/>
	<path d="M480.22,478.24c0,0.91-0.22,1.62,0.04,2.05c1.01,1.67,2.05,3.36,3.32,4.84c1.09,1.28,2.68,1.21,3.76,0.15
		c0.82-0.81,0.7-1.68-0.31-3.17C485.49,479.85,483.07,479.17,480.22,478.24z"/>
	<path d="M490.73,474.15c-0.65-0.52-1.5-0.91-2.31-1.09c-2.66-0.58-4.94,0.3-7.03,2.08c0.13,0.36,0.14,0.54,0.23,0.64
		c1.44,1.54,7.24,2.16,8.91,0.96C491.51,476.05,491.67,474.9,490.73,474.15z"/>
	<path d="M486.9,468c0.26-0.23,0.32-0.7,0.47-1.06c0.35-0.87,0.08-1.5-0.72-1.96c-0.89-0.51-1.77-0.58-2.66-0.02
		c-2.41,1.55-3.41,3.9-4.04,7.09c1.15-0.14,1.98,0.01,2.46-0.34C483.97,470.57,485.44,469.28,486.9,468z"/>
	<path d="M470.61,464.39c-0.4-0.37-1.68-0.37-2.08-0.01c-0.63,0.57-1.21,1.59-0.59,2.53c0.51,0.77,1.21,1.45,1.94,2.01
		c1.24,0.94,2.57,1.77,3.89,2.62c0.23,0.15,0.56,0.14,0.85,0.21c0.17-0.15,0.34-0.31,0.51-0.46
		C473.92,468.8,472.69,466.31,470.61,464.39z"/>
	<path d="M474.91,474.78c-0.01,1.45,1.36,3.24,2.51,3.28c1.18,0.05,2.82-1.7,2.82-3c-0.01-1.61-1.15-2.62-2.95-2.57
		C475.8,472.52,474.91,473.37,474.91,474.78z"/>
	<path d="M447.77,475.71c-0.29-1.13-0.62-2.33-0.92-3.54c-0.44-1.75-1.57-2.61-3.34-2.86c-1.38-0.19-2.73-0.56-4.26-0.89
		c0.09,2.75,2.06,4.66,3.09,7.15c-2.1,0.66-4.19,0.08-6.45,0.34c-0.48-4.66-2.99-7.25-7.88-7.65c0.18,2.98,1.83,5.14,3.86,7.67
		c-3.45,0-6.52,0-9.56,0c-0.96-5.07-5.2-6.3-8.71-8.49c-0.19,3.32,1.29,5.93,3.52,8.61c-3.84,0.46-7.46,0.27-11.2-0.13
		c-0.78-4.29-4.09-5.6-7.69-6.6c-0.77,2.38-0.42,3.54,2.13,6.74c-2.51,0.01-4.76,0.05-7.01-0.01c-0.49-0.01-0.99-0.4-1.44-0.7
		c-1.32-0.86-2.78-1.25-4.28-0.81c-1.95,0.56-3.85,1.31-5.88,2.02c0.61,1.73,2.01,2.25,3.31,2.56c2.41,0.56,4.9,0.65,7.04-0.92
		c0.97-0.71,1.97-0.89,3.09-0.88c1.71,0.02,3.42,0,5.65,0c-2.11,2.16-4.33,3.18-6.58,4.21c1.53,1.66,3.25,1.77,6.69,0.2
		c2.16-0.99,4.69-1.68,5.6-4.37c2.67,0,5.25,0,8.1,0c-1.44,2.37-3.41,3.57-5.56,4.74c3.34,1.73,7.68,1.05,9.77-2.11
		c1.64-2.47,3.56-2.94,6.14-2.7c1.22,0.12,2.45,0.03,4.2,0.03c-2.22,2.16-4.03,3.92-5.81,5.66c2.71,1.55,7.05,0.92,8.63-1.85
		c1.96-3.45,4.6-4.67,8.36-3.99c0.52,0.09,1.07,0.01,1.84,0.46c-0.87,0.7-1.74,1.4-2.61,2.1c-0.89,0.73-1.78,1.48-2.75,2.29
		c1.35,1.73,3.12,2.19,5.07,1.79c3.41-0.69,4.63-3.43,5.71-6.55c1.01,0,2.11,0.1,3.19-0.03c0.99-0.12,2.15,0.24,3.33-0.79
		C451.88,475.4,449.79,476.47,447.77,475.71z"/>
</g>
<g>
	<path d="M24.93,114.18c0.43-1.51,0.05-2.96-0.81-4.28c-0.29-0.45-0.68-0.95-0.69-1.44c-0.07-2.24-0.02-4.49-0.01-7.01
		c3.2,2.55,4.36,2.89,6.74,2.13c-1-3.6-2.3-6.91-6.6-7.69c-0.39-3.74-0.58-7.36-0.12-11.2c2.69,2.23,5.28,3.71,8.6,3.52
		c-2.2-3.51-3.43-7.75-8.49-8.71c0-3.04,0-6.11,0-9.56c2.53,2.03,4.69,3.68,7.67,3.86c-0.4-4.89-3.01-7.4-7.66-7.88
		c0.26-2.26-0.31-4.35,0.34-6.45c2.49,1.03,4.41,2.99,7.15,3.09c-0.33-1.53-0.7-2.88-0.88-4.26c-0.24-1.77-1.11-2.9-2.85-3.34
		c-1.21-0.31-2.41-0.63-3.54-0.92c-0.75-2.02,0.32-4.12-0.73-6.38c-1.03,1.18-0.67,2.34-0.79,3.33c-0.13,1.07-0.03,2.17-0.03,3.19
		c-3.12,1.08-5.86,2.3-6.55,5.71c-0.39,1.96,0.06,3.72,1.79,5.07c0.81-0.98,1.56-1.86,2.29-2.75c0.71-0.86,1.4-1.74,2.1-2.61
		c0.45,0.77,0.37,1.32,0.46,1.84c0.68,3.76-0.54,6.4-3.99,8.36c-2.77,1.57-3.4,5.91-1.85,8.63c1.73-1.78,3.5-3.6,5.65-5.81
		c0,1.75-0.1,2.98,0.02,4.2c0.25,2.58-0.24,4.51-2.71,6.14c-3.15,2.09-3.8,6.44-2.08,9.77c1.18-2.16,2.37-4.12,4.74-5.56
		c0,2.85,0,5.44,0,8.1c-2.69,0.91-3.38,3.45-4.37,5.6c-1.58,3.44-1.44,5.15,0.23,6.69c1.03-2.25,2.04-4.47,4.2-6.58
		c0,2.22-0.02,3.93,0,5.65c0.01,1.12-0.17,2.12-0.88,3.09c-1.57,2.14-1.49,4.63-0.93,7.04c0.3,1.3,0.83,2.71,2.56,3.31
		C23.62,118.03,24.36,116.13,24.93,114.18z"/>
	<path d="M22.75,19.86c0.63-1.06,1.24-1.77,1.49-2.6c0.33-1.11,0.37-2.32,0.56-3.48c0.27-1.58-0.33-2.94-1.09-4.24
		c-0.7-1.19-1.26-1.34-2.55-0.79c-1.58,0.67-2.4,2.27-1.82,4.35C19.98,15.34,20.76,17.58,22.75,19.86z"/>
	<path d="M33.79,17.84c0.13-0.29,0.23-0.59,0.29-0.9c0.31-1.57-0.52-2.6-2.14-2.65c-1.24-0.04-2.38,0.27-3.19,1.24
		c-0.96,1.14-1.9,2.32-2.69,3.58c-0.42,0.67-0.51,1.55-0.75,2.35C28.13,22.22,32.77,20.14,33.79,17.84z"/>
	<path d="M32.24,28.68c1.44,0.16,3.3-0.92,3.41-1.9c0.12-1.11-0.91-2.29-2.52-2.73c-0.67-0.18-1.4-0.27-2.09-0.22
		c-1.85,0.15-3.7,0.39-5.76,0.63c0.18,0.45,0.2,0.73,0.35,0.86C27.55,26.98,29.62,28.39,32.24,28.68z"/>
	<path d="M22.41,28.71c-0.44,0.1-1.03,0.54-1.12,0.94c-0.42,1.82-0.74,3.68-0.98,5.53c-0.06,0.49,0.23,1.06,0.43,1.56
		c0.42,1.04,1.28,1.69,2.35,1.6c1.05-0.08,1.52-1.01,1.73-1.98c0.11-0.53,0.11-1.09,0.16-1.63c-0.03-1.92-0.47-3.74-1.49-5.37
		C23.27,29.04,22.7,28.64,22.41,28.71z"/>
	<path d="M19.38,20.84c0-0.91,0.22-1.62-0.04-2.05c-1.01-1.67-2.05-3.36-3.32-4.84c-1.09-1.28-2.68-1.21-3.76-0.15
		c-0.82,0.81-0.7,1.68,0.31,3.17C14.12,19.23,16.54,19.91,19.38,20.84z"/>
	<path d="M8.88,24.93c0.65,0.52,1.5,0.91,2.31,1.09c2.66,0.58,4.94-0.3,7.03-2.08c-0.13-0.36-0.14-0.54-0.23-0.64
		c-1.44-1.54-7.24-2.16-8.91-0.96C8.1,23.04,7.94,24.18,8.88,24.93z"/>
	<path d="M12.71,31.08c-0.26,0.23-0.32,0.7-0.47,1.06c-0.35,0.87-0.08,1.5,0.72,1.96c0.89,0.51,1.77,0.58,2.66,0.02
		c2.41-1.55,3.41-3.9,4.04-7.09c-1.15,0.14-1.98-0.01-2.46,0.34C15.63,28.51,14.17,29.8,12.71,31.08z"/>
	<path d="M29,34.69c0.4,0.37,1.68,0.37,2.08,0.01c0.63-0.57,1.21-1.59,0.59-2.53c-0.51-0.77-1.21-1.45-1.94-2.01
		c-1.24-0.94-2.57-1.77-3.89-2.62c-0.23-0.15-0.56-0.14-0.85-0.21c-0.17,0.15-0.34,0.31-0.51,0.46C25.69,30.28,26.92,32.77,29,34.69
		z"/>
	<path d="M24.7,24.3c0.01-1.45-1.36-3.24-2.51-3.28c-1.18-0.05-2.82,1.7-2.82,3c0.01,1.61,1.15,2.62,2.95,2.57
		C23.81,26.56,24.69,25.71,24.7,24.3z"/>
	<path d="M51.84,23.37c0.29,1.13,0.62,2.33,0.92,3.54c0.44,1.75,1.57,2.61,3.34,2.86c1.38,0.19,2.73,0.56,4.26,0.89
		c-0.09-2.75-2.06-4.66-3.09-7.15c2.1-0.66,4.19-0.08,6.45-0.34c0.48,4.66,2.99,7.25,7.88,7.65c-0.18-2.98-1.83-5.14-3.86-7.67
		c3.45,0,6.52,0,9.56,0c0.96,5.07,5.2,6.3,8.71,8.49c0.19-3.32-1.29-5.93-3.52-8.61c3.84-0.46,7.46-0.27,11.2,0.13
		c0.78,4.29,4.09,5.6,7.69,6.6c0.77-2.38,0.42-3.54-2.13-6.74c2.51-0.01,4.76-0.05,7.01,0.01c0.49,0.01,0.99,0.4,1.44,0.7
		c1.32,0.86,2.78,1.25,4.28,0.81c1.95-0.56,3.85-1.31,5.88-2.02c-0.61-1.73-2.01-2.25-3.31-2.56c-2.41-0.56-4.9-0.65-7.04,0.92
		c-0.97,0.71-1.97,0.89-3.09,0.88c-1.71-0.02-3.42,0-5.65,0c2.11-2.16,4.33-3.18,6.58-4.21c-1.53-1.66-3.25-1.77-6.69-0.2
		c-2.16,0.99-4.69,1.68-5.6,4.37c-2.67,0-5.25,0-8.1,0c1.44-2.37,3.41-3.57,5.56-4.74c-3.34-1.73-7.68-1.05-9.77,2.11
		c-1.64,2.47-3.56,2.94-6.14,2.7c-1.22-0.12-2.45-0.03-4.2-0.03c2.22-2.16,4.03-3.92,5.81-5.66c-2.71-1.55-7.05-0.92-8.63,1.85
		c-1.96,3.45-4.6,4.67-8.36,3.99c-0.52-0.09-1.07-0.01-1.84-0.46c0.87-0.7,1.74-1.4,2.61-2.1c0.89-0.73,1.78-1.48,2.75-2.29
		c-1.35-1.73-3.12-2.19-5.07-1.79c-3.41,0.69-4.63,3.43-5.71,6.55c-1.01,0-2.11-0.1-3.19,0.03c-0.99,0.12-2.15-0.24-3.33,0.79
		C47.73,23.69,49.82,22.61,51.84,23.37z"/>
</g>
</svg>
