<?xml version="1.0" encoding="utf-8"?>
<!-- Generator: Adobe Illustrator 24.1.0, SVG Export Plug-In . SVG Version: 6.00 Build 0)  -->
<svg version="1.1" id="Layer_1" xmlns="http://www.w3.org/2000/svg" xmlns:xlink="http://www.w3.org/1999/xlink" x="0px" y="0px"
	 viewBox="0 0 500 500" style="enable-background:new 0 0 500 500;" xml:space="preserve">
<style type="text/css">
	.st0{fill:none;}
	.st1{fill:#FFFFFF;}
</style>
<rect x="324.4" y="-608.3" class="st0" width="435.2" height="434.5"/>
<path d="M308-300.7c-1.5-0.7-2.6-0.6-3.8,0.4c-2.1,1.7-1.7,4.4,0.8,5.7c1.1,0.5,1.5,0.5,2.4,0.1c1.1-0.4,2.4-2.2,2.4-3.2
	C309.8-298.8,309-300.2,308-300.7z"/>
<path d="M308-534.5c-1.5-0.7-2.6-0.6-3.8,0.4c-2.1,1.7-1.7,4.5,0.8,5.7c1.1,0.5,1.5,0.5,2.4,0.1c1.1-0.4,2.4-2.2,2.4-3.2
	C309.8-532.6,309-534,308-534.5z"/>
<path d="M308-347.5c-1.5-0.7-2.6-0.6-3.8,0.4c-2.1,1.7-1.7,4.5,0.8,5.7c1.1,0.5,1.5,0.5,2.4,0.1c1.1-0.4,2.4-2.2,2.4-3.2
	C309.8-345.6,309-347,308-347.5z"/>
<path d="M308-487.7c-1.5-0.7-2.6-0.6-3.8,0.4c-2.1,1.7-1.7,4.4,0.8,5.7c1.1,0.5,1.5,0.5,2.4,0.1c1.1-0.4,2.4-2.2,2.4-3.2
	C309.8-485.8,309-487.2,308-487.7z"/>
<path d="M308-394.2c-1.5-0.7-2.6-0.6-3.8,0.4c-2.1,1.7-1.7,4.4,0.8,5.7c1.1,0.5,1.5,0.5,2.4,0.1c1.1-0.4,2.4-2.2,2.4-3.2
	C309.8-392.3,309-393.7,308-394.2z"/>
<path d="M308-441c-1.5-0.7-2.6-0.6-3.8,0.4c-2.1,1.7-1.7,4.5,0.8,5.7c1.1,0.5,1.5,0.5,2.4,0.1c1.1-0.4,2.4-2.2,2.4-3.2
	C309.8-439.1,309-440.5,308-441z"/>
<path d="M308-581.2c-1.5-0.7-2.6-0.6-3.8,0.4c-2.1,1.7-1.7,4.4,0.8,5.7c1.1,0.5,1.5,0.5,2.4,0.1c1.1-0.4,2.4-2.2,2.4-3.2
	C309.8-579.3,309-580.7,308-581.2z"/>
<path d="M496.4-160.5c-1.5-0.7-2.6-0.6-3.8,0.4c-2.1,1.7-1.7,4.5,0.8,5.7c1.1,0.5,1.5,0.5,2.4,0.1c1.1-0.4,2.4-2.2,2.4-3.2
	C498.2-158.6,497.4-160,496.4-160.5z"/>
<path d="M543.1-160.5c-1.5-0.7-2.6-0.6-3.8,0.4c-2.1,1.7-1.7,4.5,0.8,5.7c1.1,0.5,1.5,0.5,2.4,0.1c1.1-0.4,2.4-2.2,2.4-3.2
	C544.9-158.6,544.1-160,543.1-160.5z"/>
<path d="M309.6-628c-1.5-0.7-2.6-0.6-3.8,0.4c-2.1,1.8-1.7,4.5,0.8,5.7c1.1,0.5,1.5,0.5,2.4,0.1c1.1-0.4,2.4-2.2,2.4-3.2
	C311.4-626.1,310.6-627.5,309.6-628z"/>
<path d="M403-160.5c-1.5-0.7-2.6-0.6-3.8,0.4c-2.1,1.7-1.7,4.5,0.8,5.7c1.1,0.5,1.5,0.5,2.4,0.1c1.1-0.4,2.4-2.2,2.4-3.2
	C404.8-158.6,404-160,403-160.5z"/>
<path d="M449.7-160.5c-1.5-0.7-2.6-0.6-3.8,0.4c-2.1,1.7-1.7,4.5,0.8,5.7c1.1,0.5,1.5,0.5,2.4,0.1c1.1-0.4,2.4-2.2,2.4-3.2
	C451.5-158.6,450.7-160,449.7-160.5z"/>
<path d="M400-621.9c1.1,0.5,1.5,0.5,2.4,0.1c1.1-0.4,2.4-2.2,2.4-3.2c0-1.1-0.8-2.5-1.8-3c-1.5-0.7-2.6-0.6-3.8,0.4
	C397.1-625.8,397.5-623.1,400-621.9z"/>
<path d="M308-254c-1.5-0.7-2.6-0.6-3.8,0.4c-2.1,1.7-1.7,4.5,0.8,5.7c1.1,0.5,1.5,0.5,2.4,0.1c1.1-0.4,2.4-2.2,2.4-3.2
	C309.8-252.1,309-253.5,308-254z"/>
<path d="M540.1-621.9c1.1,0.5,1.5,0.5,2.4,0.1c1.1-0.4,2.4-2.2,2.4-3.2c0-1.1-0.8-2.5-1.8-3c-1.5-0.7-2.6-0.6-3.8,0.4
	C537.2-625.8,537.6-623.1,540.1-621.9z"/>
<path d="M586.8-621.9c1.1,0.5,1.5,0.5,2.4,0.1c1.1-0.4,2.4-2.2,2.4-3.2c0-1.1-0.8-2.5-1.8-3c-1.5-0.7-2.6-0.6-3.8,0.4
	C583.9-625.8,584.3-623.1,586.8-621.9z"/>
<path d="M633.5-621.9c1.1,0.5,1.5,0.5,2.4,0.1c1.1-0.4,2.4-2.2,2.4-3.2c0-1.1-0.8-2.5-1.8-3c-1.5-0.7-2.6-0.6-3.8,0.4
	C630.6-625.8,631-623.1,633.5-621.9z"/>
<path d="M726.9-621.9c1.1,0.5,1.5,0.5,2.4,0.1c1.1-0.4,2.4-2.2,2.4-3.2c0-1.1-0.8-2.5-1.8-3c-1.5-0.7-2.6-0.6-3.8,0.4
	C724-625.8,724.4-623.1,726.9-621.9z"/>
<path d="M773.6-621.9c1.1,0.5,1.5,0.5,2.4,0.1c1.1-0.4,2.4-2.2,2.4-3.2c0-1.1-0.8-2.5-1.8-3c-1.5-0.7-2.6-0.6-3.8,0.4
	C770.7-625.8,771.1-623.1,773.6-621.9z"/>
<path d="M680.2-621.9c1.1,0.5,1.5,0.5,2.4,0.1c1.1-0.4,2.4-2.2,2.4-3.2c0-1.1-0.8-2.5-1.8-3c-1.5-0.7-2.6-0.6-3.8,0.4
	C677.3-625.8,677.7-623.1,680.2-621.9z"/>
<path d="M353.3-621.9c1.1,0.5,1.5,0.5,2.4,0.1c1.1-0.4,2.4-2.2,2.4-3.2c0-1.1-0.8-2.5-1.8-3c-1.5-0.7-2.6-0.6-3.8,0.4
	C350.4-625.8,350.8-623.1,353.3-621.9z"/>
<path d="M308-160.5c-1.5-0.7-2.6-0.6-3.8,0.4c-2.1,1.7-1.7,4.5,0.8,5.7c1.1,0.5,1.5,0.5,2.4,0.1c1.1-0.4,2.4-2.2,2.4-3.2
	C309.8-158.6,309-160,308-160.5z"/>
<path d="M308-207.3c-1.5-0.7-2.6-0.6-3.8,0.4c-2.1,1.8-1.7,4.5,0.8,5.7c1.1,0.5,1.5,0.5,2.4,0.1c1.1-0.4,2.4-2.2,2.4-3.2
	C309.8-205.4,309-206.8,308-207.3z"/>
<path d="M589.8-160.5c-1.5-0.7-2.6-0.6-3.8,0.4c-2.1,1.7-1.7,4.5,0.8,5.7c1.1,0.5,1.5,0.5,2.4,0.1c1.1-0.4,2.4-2.2,2.4-3.2
	C591.6-158.6,590.8-160,589.8-160.5z"/>
<path d="M446.7-621.9c1.1,0.5,1.5,0.5,2.4,0.1c1.1-0.4,2.4-2.2,2.4-3.2c0-1.1-0.8-2.5-1.8-3c-1.5-0.7-2.6-0.6-3.8,0.4
	C443.8-625.8,444.2-623.1,446.7-621.9z"/>
<path d="M493.4-621.9c1.1,0.5,1.5,0.5,2.4,0.1c1.1-0.4,2.4-2.2,2.4-3.2c0-1.1-0.8-2.5-1.8-3c-1.5-0.7-2.6-0.6-3.8,0.4
	C490.5-625.8,490.9-623.1,493.4-621.9z"/>
<path d="M356.3-160.5c-1.5-0.7-2.6-0.6-3.8,0.4c-2.1,1.7-1.7,4.5,0.8,5.7c1.1,0.5,1.5,0.5,2.4,0.1c1.1-0.4,2.4-2.2,2.4-3.2
	C358.1-158.6,357.3-160,356.3-160.5z"/>
<path d="M779.2-394.2c-1.5-0.7-2.6-0.6-3.8,0.4c-2.1,1.7-1.7,4.4,0.8,5.7c1.1,0.5,1.5,0.5,2.4,0.1c1.1-0.4,2.4-2.2,2.4-3.2
	C781-392.3,780.2-393.7,779.2-394.2z"/>
<path d="M779.2-441c-1.5-0.7-2.6-0.6-3.8,0.4c-2.1,1.7-1.7,4.5,0.8,5.7c1.1,0.5,1.5,0.5,2.4,0.1c1.1-0.4,2.4-2.2,2.4-3.2
	C781-439.1,780.2-440.5,779.2-441z"/>
<path d="M779.2-300.7c-1.5-0.7-2.6-0.6-3.8,0.4c-2.1,1.7-1.7,4.4,0.8,5.7c1.1,0.5,1.5,0.5,2.4,0.1c1.1-0.4,2.4-2.2,2.4-3.2
	C781-298.8,780.2-300.2,779.2-300.7z"/>
<path d="M779.2-207.3c-1.5-0.7-2.6-0.6-3.8,0.4c-2.1,1.8-1.7,4.5,0.8,5.7c1.1,0.5,1.5,0.5,2.4,0.1c1.1-0.4,2.4-2.2,2.4-3.2
	C781-205.4,780.2-206.8,779.2-207.3z"/>
<path d="M776.6-160.5c-1.5-0.7-2.6-0.6-3.8,0.4c-2.1,1.7-1.7,4.5,0.8,5.7c1.1,0.5,1.5,0.5,2.4,0.1c1.1-0.4,2.4-2.2,2.4-3.2
	C778.4-158.6,777.6-160,776.6-160.5z"/>
<path d="M779.2-254c-1.5-0.7-2.6-0.6-3.8,0.4c-2.1,1.7-1.7,4.5,0.8,5.7c1.1,0.5,1.5,0.5,2.4,0.1c1.1-0.4,2.4-2.2,2.4-3.2
	C781-252.1,780.2-253.5,779.2-254z"/>
<path d="M779.2-581.2c-1.5-0.7-2.6-0.6-3.8,0.4c-2.1,1.7-1.7,4.4,0.8,5.7c1.1,0.5,1.5,0.5,2.4,0.1c1.1-0.4,2.4-2.2,2.4-3.2
	C781-579.3,780.2-580.7,779.2-581.2z"/>
<path d="M779.2-487.7c-1.5-0.7-2.6-0.6-3.8,0.4c-2.1,1.7-1.7,4.4,0.8,5.7c1.1,0.5,1.5,0.5,2.4,0.1c1.1-0.4,2.4-2.2,2.4-3.2
	C781-485.8,780.2-487.2,779.2-487.7z"/>
<path d="M779.2-534.5c-1.5-0.7-2.6-0.6-3.8,0.4c-2.1,1.7-1.7,4.5,0.8,5.7c1.1,0.5,1.5,0.5,2.4,0.1c1.1-0.4,2.4-2.2,2.4-3.2
	C781-532.6,780.2-534,779.2-534.5z"/>
<path d="M779.2-347.5c-1.5-0.7-2.6-0.6-3.8,0.4c-2.1,1.7-1.7,4.5,0.8,5.7c1.1,0.5,1.5,0.5,2.4,0.1c1.1-0.4,2.4-2.2,2.4-3.2
	C781-345.6,780.2-347,779.2-347.5z"/>
<path d="M729.9-160.5c-1.5-0.7-2.6-0.6-3.8,0.4c-2.1,1.7-1.7,4.5,0.8,5.7c1.1,0.5,1.5,0.5,2.4,0.1c1.1-0.4,2.4-2.2,2.4-3.2
	C731.7-158.6,730.9-160,729.9-160.5z"/>
<path d="M636.5-160.5c-1.5-0.7-2.6-0.6-3.8,0.4c-2.1,1.7-1.7,4.5,0.8,5.7c1.1,0.5,1.5,0.5,2.4,0.1c1.1-0.4,2.4-2.2,2.4-3.2
	C638.3-158.6,637.5-160,636.5-160.5z"/>
<path d="M683.2-160.5c-1.5-0.7-2.6-0.6-3.8,0.4c-2.1,1.7-1.7,4.5,0.8,5.7c1.1,0.5,1.5,0.5,2.4,0.1c1.1-0.4,2.4-2.2,2.4-3.2
	C685-158.6,684.2-160,683.2-160.5z"/>
<path class="st1" d="M314.2-631.7c-1,0-1.2-0.2-1.9-1.6c-0.4-0.9-1.2-1.9-1.9-2.3c-1.5-0.9-3.9-0.9-5.4,0c-0.6,0.4-1.2,1.3-1.7,2.3
	c-0.6,1.4-0.8,1.6-1.6,1.6c-0.5,0-1.6,0.2-2.4,0.6c-3.1,1.2-3.8,5.3-1.4,7.8c1.1,1.2,1.2,1.4,1.2,3.9c0,2.6,0,2.7,1.3,4
	c1.2,1.2,1.5,1.3,3.3,1.2c1.4,0,2.3-0.3,3-0.7c0.9-0.7,0.9-0.7,2.7,0.1c2.2,1,2.8,1.1,4.7,0.1c2.3-1.1,3.3-3.3,2.4-5.8
	c-0.4-1.1-0.4-1.5-0.1-1.6c0.9-0.3,2.3-2.1,2.7-3.3C320-628.6,317.5-631.7,314.2-631.7z M309-621.8c-0.9,0.4-1.3,0.4-2.4-0.1
	c-2.5-1.2-2.9-3.9-0.8-5.7c1.2-1,2.3-1.1,3.8-0.4c1,0.5,1.8,1.9,1.8,3C311.4-624,310.1-622.2,309-621.8z"/>
<path class="st1" d="M345.8-619.4c0,2.6,0,2.7,1.3,4c1.2,1.2,1.5,1.3,3.3,1.2c1.4,0,2.3-0.3,3-0.7c0.9-0.7,0.9-0.7,2.7,0.1
	c2.2,1,2.8,1.1,4.7,0.1c2.3-1.1,3.3-3.3,2.4-5.8c-0.4-1.1-0.4-1.5-0.1-1.6c0.9-0.3,2.3-2.1,2.7-3.3c0.9-3.2-1.6-6.3-4.9-6.3
	c-1,0-1.2-0.2-1.9-1.6c-0.4-0.9-1.2-1.9-1.9-2.3c-1.5-0.9-3.9-0.9-5.4,0c-0.6,0.4-1.2,1.3-1.7,2.3c-0.6,1.4-0.8,1.6-1.6,1.6
	c-0.5,0-1.6,0.2-2.4,0.6c-3.1,1.2-3.8,5.3-1.4,7.8C345.7-622.1,345.8-621.9,345.8-619.4z M352.5-627.6c1.2-1,2.3-1.1,3.8-0.4
	c1,0.5,1.8,1.9,1.8,3c0,1-1.3,2.8-2.4,3.2c-0.9,0.4-1.3,0.4-2.4-0.1C350.8-623.1,350.4-625.8,352.5-627.6z"/>
<path class="st1" d="M439.2-619.4c0,2.6,0,2.7,1.3,4c1.2,1.2,1.5,1.3,3.3,1.2c1.4,0,2.3-0.3,3-0.7c0.9-0.7,0.9-0.7,2.7,0.1
	c2.2,1,2.8,1.1,4.7,0.1c2.3-1.1,3.3-3.3,2.4-5.8c-0.4-1.1-0.4-1.5-0.1-1.6c0.9-0.3,2.3-2.1,2.7-3.3c0.9-3.2-1.6-6.3-4.9-6.3
	c-1,0-1.2-0.2-1.9-1.6c-0.4-0.9-1.2-1.9-1.9-2.3c-1.5-0.9-3.9-0.9-5.4,0c-0.7,0.4-1.4,1.3-1.8,2.3c-0.6,1.4-0.8,1.6-1.6,1.6
	c-0.5,0-1.6,0.2-2.4,0.6c-3.1,1.2-3.8,5.3-1.4,7.8C439.1-622.1,439.2-621.9,439.2-619.4z M445.9-627.6c1.2-1,2.3-1.1,3.8-0.4
	c1,0.5,1.8,1.9,1.8,3c0,1-1.3,2.8-2.4,3.2c-0.9,0.4-1.3,0.4-2.4-0.1C444.2-623.1,443.8-625.8,445.9-627.6z"/>
<path class="st1" d="M392.5-619.4c0,2.6,0,2.7,1.3,4c1.2,1.2,1.5,1.3,3.3,1.2c1.4,0,2.3-0.3,3-0.7c0.9-0.7,0.9-0.7,2.7,0.1
	c2.2,1,2.8,1.1,4.7,0.1c2.3-1.1,3.3-3.3,2.4-5.8c-0.4-1.1-0.4-1.5-0.1-1.6c0.9-0.3,2.3-2.1,2.7-3.3c0.9-3.2-1.6-6.3-4.9-6.3
	c-1,0-1.2-0.2-1.9-1.6c-0.4-0.9-1.2-1.9-1.9-2.3c-1.5-0.9-3.9-0.9-5.4,0c-0.7,0.4-1.4,1.3-1.8,2.3c-0.6,1.4-0.8,1.6-1.6,1.6
	c-0.5,0-1.6,0.2-2.4,0.6c-3.1,1.2-3.8,5.3-1.4,7.8C392.4-622.1,392.5-621.9,392.5-619.4z M399.2-627.6c1.2-1,2.3-1.1,3.8-0.4
	c1,0.5,1.8,1.9,1.8,3c0,1-1.3,2.8-2.4,3.2c-0.9,0.4-1.3,0.4-2.4-0.1C397.5-623.1,397.1-625.8,399.2-627.6z"/>
<path class="st1" d="M485.9-619.4c0,2.6,0,2.7,1.3,4c1.2,1.2,1.5,1.3,3.3,1.2c1.4,0,2.3-0.3,3-0.7c0.9-0.7,0.9-0.7,2.7,0.1
	c2.2,1,2.8,1.1,4.7,0.1c2.3-1.1,3.3-3.3,2.4-5.8c-0.4-1.1-0.4-1.5-0.1-1.6c0.9-0.3,2.3-2.1,2.7-3.3c0.9-3.2-1.6-6.3-4.9-6.3
	c-1,0-1.2-0.2-1.9-1.6c-0.4-0.9-1.2-1.9-1.9-2.3c-1.5-0.9-3.9-0.9-5.4,0c-0.5,0.4-1.2,1.3-1.7,2.3c-0.6,1.4-0.8,1.6-1.6,1.6
	c-0.5,0-1.6,0.2-2.4,0.6c-3.1,1.2-3.8,5.3-1.4,7.8C485.8-622.1,485.9-621.9,485.9-619.4z M492.6-627.6c1.2-1,2.3-1.1,3.8-0.4
	c1,0.5,1.8,1.9,1.8,3c0,1-1.3,2.8-2.4,3.2c-0.9,0.4-1.3,0.4-2.4-0.1C490.9-623.1,490.5-625.8,492.6-627.6z"/>
<path class="st1" d="M532.6-619.4c0,2.6,0,2.7,1.3,4c1.2,1.2,1.5,1.3,3.3,1.2c1.4,0,2.3-0.3,3-0.7c0.9-0.7,0.9-0.7,2.7,0.1
	c2.2,1,2.8,1.1,4.7,0.1c2.3-1.1,3.3-3.3,2.4-5.8c-0.4-1.1-0.4-1.5-0.1-1.6c0.9-0.3,2.3-2.1,2.7-3.3c0.9-3.2-1.6-6.3-4.9-6.3
	c-1,0-1.2-0.2-1.9-1.6c-0.4-0.9-1.2-1.9-1.9-2.3c-1.5-0.9-3.9-0.9-5.4,0c-0.5,0.4-1.2,1.3-1.6,2.3c-0.6,1.4-0.8,1.6-1.6,1.6
	c-0.5,0-1.6,0.2-2.4,0.6c-3.1,1.2-3.8,5.3-1.4,7.8C532.5-622.1,532.6-621.9,532.6-619.4z M539.3-627.6c1.2-1,2.3-1.1,3.8-0.4
	c1,0.5,1.8,1.9,1.8,3c0,1-1.3,2.8-2.4,3.2c-0.9,0.4-1.3,0.4-2.4-0.1C537.6-623.1,537.2-625.8,539.3-627.6z"/>
<path class="st1" d="M579.3-619.4c0,2.6,0,2.7,1.3,4c1.2,1.2,1.5,1.3,3.3,1.2c1.4,0,2.3-0.3,3-0.7c0.9-0.7,0.9-0.7,2.7,0.1
	c2.2,1,2.8,1.1,4.7,0.1c2.3-1.1,3.3-3.3,2.4-5.8c-0.4-1.1-0.4-1.5-0.1-1.6c0.9-0.3,2.3-2.1,2.7-3.3c0.9-3.2-1.6-6.3-4.9-6.3
	c-1,0-1.2-0.2-1.9-1.6c-0.4-0.9-1.2-1.9-1.9-2.3c-1.5-0.9-3.9-0.9-5.4,0c-0.7,0.4-1.4,1.3-1.8,2.3c-0.6,1.4-0.8,1.6-1.6,1.6
	c-0.5,0-1.6,0.2-2.4,0.6c-3.1,1.2-3.8,5.3-1.4,7.8C579.3-622.1,579.3-621.9,579.3-619.4z M586-627.6c1.2-1,2.3-1.1,3.8-0.4
	c1,0.5,1.8,1.9,1.8,3c0,1-1.3,2.8-2.4,3.2c-0.9,0.4-1.3,0.4-2.4-0.1C584.3-623.1,583.9-625.8,586-627.6z"/>
<path class="st1" d="M672.7-619.4c0,2.6,0,2.7,1.3,4c1.2,1.2,1.5,1.3,3.3,1.2c1.4,0,2.3-0.3,3-0.7c0.9-0.7,0.9-0.7,2.7,0.1
	c2.2,1,2.8,1.1,4.7,0.1c2.3-1.1,3.3-3.3,2.4-5.8c-0.4-1.1-0.4-1.5-0.1-1.6c0.9-0.3,2.3-2.1,2.7-3.3c0.9-3.2-1.6-6.3-4.9-6.3
	c-1,0-1.2-0.2-1.9-1.6c-0.4-0.9-1.2-1.9-1.9-2.3c-1.5-0.9-3.9-0.9-5.4,0c-0.7,0.4-1.4,1.3-1.8,2.3c-0.6,1.4-0.8,1.6-1.6,1.6
	c-0.5,0-1.6,0.2-2.4,0.6c-3.1,1.2-3.8,5.3-1.4,7.8C672.7-622.1,672.7-621.9,672.7-619.4z M679.4-627.6c1.2-1,2.3-1.1,3.8-0.4
	c1,0.5,1.8,1.9,1.8,3c0,1-1.3,2.8-2.4,3.2c-0.9,0.4-1.3,0.4-2.4-0.1C677.7-623.1,677.3-625.8,679.4-627.6z"/>
<path class="st1" d="M626-619.4c0,2.6,0,2.7,1.3,4c1.2,1.2,1.5,1.3,3.3,1.2c1.4,0,2.3-0.3,3-0.7c0.9-0.7,0.9-0.7,2.7,0.1
	c2.2,1,2.8,1.1,4.7,0.1c2.3-1.1,3.3-3.3,2.4-5.8c-0.4-1.1-0.4-1.5-0.1-1.6c0.9-0.3,2.3-2.1,2.7-3.3c0.9-3.2-1.6-6.3-4.9-6.3
	c-1,0-1.2-0.2-1.9-1.6c-0.4-0.9-1.2-1.9-1.9-2.3c-1.5-0.9-3.9-0.9-5.4,0c-0.5,0.4-1.2,1.3-1.6,2.3c-0.6,1.4-0.8,1.6-1.6,1.6
	c-0.5,0-1.6,0.2-2.4,0.6c-3.1,1.2-3.8,5.3-1.4,7.8C626-622.1,626-621.9,626-619.4z M632.7-627.6c1.2-1,2.3-1.1,3.8-0.4
	c1,0.5,1.8,1.9,1.8,3c0,1-1.3,2.8-2.4,3.2c-0.9,0.4-1.3,0.4-2.4-0.1C631-623.1,630.6-625.8,632.7-627.6z"/>
<path class="st1" d="M719.4-619.4c0,2.6,0,2.7,1.3,4c1.2,1.2,1.5,1.3,3.3,1.2c1.4,0,2.3-0.3,3-0.7c0.9-0.7,0.9-0.7,2.7,0.1
	c2.2,1,2.8,1.1,4.7,0.1c2.3-1.1,3.3-3.3,2.4-5.8c-0.4-1.1-0.4-1.5-0.1-1.6c0.9-0.3,2.3-2.1,2.7-3.3c0.9-3.2-1.6-6.3-4.9-6.3
	c-1,0-1.2-0.2-1.9-1.6c-0.4-0.9-1.2-1.9-1.9-2.3c-1.5-0.9-3.9-0.9-5.4,0c-0.7,0.4-1.4,1.3-1.8,2.3c-0.6,1.4-0.8,1.6-1.6,1.6
	c-0.5,0-1.6,0.2-2.4,0.6c-3.1,1.2-3.8,5.3-1.4,7.8C719.4-622.1,719.4-621.9,719.4-619.4z M726.1-627.6c1.2-1,2.3-1.1,3.8-0.4
	c1,0.5,1.8,1.9,1.8,3c0,1-1.3,2.8-2.4,3.2c-0.9,0.4-1.3,0.4-2.4-0.1C724.4-623.1,724-625.8,726.1-627.6z"/>
<path class="st1" d="M766.1-619.4c0,2.6,0,2.7,1.3,4c1.2,1.2,1.5,1.3,3.3,1.2c1.4,0,2.3-0.3,3-0.7c0.9-0.7,0.9-0.7,2.7,0.1
	c2.2,1,2.8,1.1,4.7,0.1c2.3-1.1,3.3-3.3,2.4-5.8c-0.4-1.1-0.4-1.5-0.1-1.6c0.9-0.3,2.3-2.1,2.7-3.3c0.9-3.2-1.6-6.3-4.9-6.3
	c-1,0-1.2-0.2-1.9-1.6c-0.4-0.9-1.2-1.9-1.9-2.3c-1.5-0.9-3.9-0.9-5.4,0c-0.7,0.4-1.4,1.3-1.8,2.3c-0.6,1.4-0.8,1.6-1.6,1.6
	c-0.5,0-1.6,0.2-2.4,0.6c-3.1,1.2-3.8,5.3-1.4,7.8C766.1-622.1,766.1-621.9,766.1-619.4z M772.8-627.6c1.2-1,2.3-1.1,3.8-0.4
	c1,0.5,1.8,1.9,1.8,3c0,1-1.3,2.8-2.4,3.2c-0.9,0.4-1.3,0.4-2.4-0.1C771.1-623.1,770.7-625.8,772.8-627.6z"/>
<path class="st1" d="M360.9-164.2c-1,0-1.2-0.2-1.9-1.6c-0.4-0.9-1.2-1.9-1.9-2.3c-1.5-0.9-3.9-0.9-5.4,0c-0.7,0.4-1.4,1.3-1.8,2.3
	c-0.6,1.4-0.8,1.6-1.6,1.6c-0.5,0-1.6,0.2-2.4,0.6c-3.1,1.2-3.8,5.3-1.4,7.8c1.2,1.2,1.3,1.4,1.3,3.9c0,2.6,0,2.7,1.3,4
	c1.2,1.2,1.5,1.3,3.3,1.2c1.4,0,2.3-0.3,3-0.7c0.9-0.7,0.9-0.7,2.7,0.1c2.2,1,2.8,1.1,4.7,0.1c2.3-1.1,3.3-3.3,2.4-5.8
	c-0.4-1.1-0.4-1.5-0.1-1.6c0.9-0.3,2.3-2.1,2.7-3.3C366.7-161.1,364.2-164.2,360.9-164.2z M355.7-154.3c-0.9,0.4-1.3,0.4-2.4-0.1
	c-2.5-1.2-2.9-4-0.8-5.7c1.2-1,2.3-1.1,3.8-0.4c1,0.5,1.8,1.9,1.8,3C358.1-156.5,356.8-154.7,355.7-154.3z"/>
<path class="st1" d="M454.3-164.2c-1,0-1.2-0.2-1.9-1.6c-0.4-0.9-1.2-1.9-1.9-2.3c-1.5-0.9-3.9-0.9-5.4,0c-0.7,0.4-1.4,1.3-1.8,2.3
	c-0.6,1.4-0.8,1.6-1.6,1.6c-0.5,0-1.6,0.2-2.4,0.6c-3.1,1.2-3.8,5.3-1.4,7.8c1.2,1.2,1.3,1.4,1.3,3.9c0,2.6,0,2.7,1.3,4
	c1.2,1.2,1.5,1.3,3.3,1.2c1.4,0,2.3-0.3,3-0.7c0.9-0.7,0.9-0.7,2.7,0.1c2.2,1,2.8,1.1,4.7,0.1c2.3-1.1,3.3-3.3,2.4-5.8
	c-0.4-1.1-0.4-1.5-0.1-1.6c0.9-0.3,2.3-2.1,2.7-3.3C460.1-161.1,457.6-164.2,454.3-164.2z M449.1-154.3c-0.9,0.4-1.3,0.4-2.4-0.1
	c-2.5-1.2-2.9-4-0.8-5.7c1.2-1,2.3-1.1,3.8-0.4c1,0.5,1.8,1.9,1.8,3C451.5-156.5,450.2-154.7,449.1-154.3z"/>
<path class="st1" d="M407.6-164.2c-1,0-1.2-0.2-1.9-1.6c-0.4-0.9-1.2-1.9-1.9-2.3c-1.5-0.9-3.9-0.9-5.4,0c-0.7,0.4-1.4,1.3-1.8,2.3
	c-0.6,1.4-0.8,1.6-1.6,1.6c-0.5,0-1.6,0.2-2.4,0.6c-3.1,1.2-3.8,5.3-1.4,7.8c1.2,1.2,1.3,1.4,1.3,3.9c0,2.6,0,2.7,1.3,4
	c1.2,1.2,1.5,1.3,3.3,1.2c1.4,0,2.3-0.3,3-0.7c0.9-0.7,0.9-0.7,2.7,0.1c2.2,1,2.8,1.1,4.7,0.1c2.3-1.1,3.3-3.3,2.4-5.8
	c-0.4-1.1-0.4-1.5-0.1-1.6c0.9-0.3,2.3-2.1,2.7-3.3C413.4-161.1,410.9-164.2,407.6-164.2z M402.4-154.3c-0.9,0.4-1.3,0.4-2.4-0.1
	c-2.5-1.2-2.9-4-0.8-5.7c1.2-1,2.3-1.1,3.8-0.4c1,0.5,1.8,1.9,1.8,3C404.8-156.5,403.5-154.7,402.4-154.3z"/>
<path class="st1" d="M501-164.2c-1,0-1.2-0.2-1.9-1.6c-0.4-0.9-1.2-1.9-1.9-2.3c-1.5-0.9-3.9-0.9-5.4,0c-0.7,0.4-1.4,1.3-1.8,2.3
	c-0.6,1.4-0.8,1.6-1.6,1.6c-0.5,0-1.6,0.2-2.4,0.6c-3.1,1.2-3.8,5.3-1.4,7.8c1.2,1.2,1.3,1.4,1.3,3.9c0,2.6,0,2.7,1.3,4
	c1.2,1.2,1.5,1.3,3.3,1.2c1.4,0,2.3-0.3,3-0.7c0.9-0.7,0.9-0.7,2.7,0.1c2.2,1,2.8,1.1,4.7,0.1c2.3-1.1,3.3-3.3,2.4-5.8
	c-0.4-1.1-0.4-1.5-0.1-1.6c0.9-0.3,2.3-2.1,2.7-3.3C506.8-161.1,504.3-164.2,501-164.2z M495.8-154.3c-0.9,0.4-1.3,0.4-2.4-0.1
	c-2.5-1.2-2.9-4-0.8-5.7c1.2-1,2.3-1.1,3.8-0.4c1,0.5,1.8,1.9,1.8,3C498.2-156.5,496.9-154.7,495.8-154.3z"/>
<path class="st1" d="M547.7-164.2c-1,0-1.2-0.2-1.9-1.6c-0.4-0.9-1.2-1.9-1.9-2.3c-1.5-0.9-3.9-0.9-5.4,0c-0.7,0.4-1.4,1.3-1.8,2.3
	c-0.6,1.4-0.8,1.6-1.6,1.6c-0.5,0-1.6,0.2-2.4,0.6c-3.1,1.2-3.8,5.3-1.4,7.8c1.2,1.2,1.3,1.4,1.3,3.9c0,2.6,0,2.7,1.3,4
	c1.2,1.2,1.5,1.3,3.3,1.2c1.4,0,2.3-0.3,3-0.7c0.9-0.7,0.9-0.7,2.7,0.1c2.2,1,2.8,1.1,4.7,0.1c2.3-1.1,3.3-3.3,2.4-5.8
	c-0.4-1.1-0.4-1.5-0.1-1.6c0.9-0.3,2.3-2.1,2.7-3.3C553.5-161.1,551-164.2,547.7-164.2z M542.5-154.3c-0.9,0.4-1.3,0.4-2.4-0.1
	c-2.5-1.2-2.9-4-0.8-5.7c1.2-1,2.3-1.1,3.8-0.4c1,0.5,1.8,1.9,1.8,3C544.9-156.5,543.6-154.7,542.5-154.3z"/>
<path class="st1" d="M594.4-164.2c-1,0-1.2-0.2-1.9-1.6c-0.4-0.9-1.2-1.9-1.9-2.3c-1.5-0.9-3.9-0.9-5.4,0c-0.7,0.4-1.4,1.3-1.8,2.3
	c-0.6,1.4-0.8,1.6-1.6,1.6c-0.5,0-1.6,0.2-2.4,0.6c-3.1,1.2-3.8,5.3-1.4,7.8c1.3,1.2,1.3,1.4,1.3,3.9c0,2.6,0,2.7,1.3,4
	c1.2,1.2,1.5,1.3,3.3,1.2c1.4,0,2.3-0.3,3-0.7c0.9-0.7,0.9-0.7,2.7,0.1c2.2,1,2.8,1.1,4.7,0.1c2.3-1.1,3.3-3.3,2.4-5.8
	c-0.4-1.1-0.4-1.5-0.1-1.6c0.9-0.3,2.3-2.1,2.7-3.3C600.2-161.1,597.7-164.2,594.4-164.2z M589.2-154.3c-0.9,0.4-1.3,0.4-2.4-0.1
	c-2.5-1.2-2.9-4-0.8-5.7c1.2-1,2.3-1.1,3.8-0.4c1,0.5,1.8,1.9,1.8,3C591.6-156.5,590.3-154.7,589.2-154.3z"/>
<path class="st1" d="M687.8-164.2c-1,0-1.2-0.2-1.9-1.6c-0.4-0.9-1.2-1.9-1.9-2.3c-1.5-0.9-3.9-0.9-5.4,0c-0.7,0.4-1.4,1.3-1.8,2.3
	c-0.6,1.4-0.8,1.6-1.6,1.6c-0.5,0-1.6,0.2-2.4,0.6c-3.1,1.2-3.8,5.3-1.4,7.8c1.3,1.2,1.3,1.4,1.3,3.9c0,2.6,0,2.7,1.3,4
	c1.2,1.2,1.5,1.3,3.3,1.2c1.4,0,2.3-0.3,3-0.7c0.9-0.7,0.9-0.7,2.7,0.1c2.2,1,2.8,1.1,4.7,0.1c2.3-1.1,3.3-3.3,2.4-5.8
	c-0.4-1.1-0.4-1.5-0.1-1.6c0.9-0.3,2.3-2.1,2.7-3.3C693.6-161.1,691.1-164.2,687.8-164.2z M682.6-154.3c-0.9,0.4-1.3,0.4-2.4-0.1
	c-2.5-1.2-2.9-4-0.8-5.7c1.2-1,2.3-1.1,3.8-0.4c1,0.5,1.8,1.9,1.8,3C685-156.5,683.7-154.7,682.6-154.3z"/>
<path class="st1" d="M641.1-164.2c-1,0-1.2-0.2-1.9-1.6c-0.4-0.9-1.2-1.9-1.9-2.3c-1.5-0.9-3.9-0.9-5.4,0c-0.7,0.4-1.4,1.3-1.8,2.3
	c-0.6,1.4-0.8,1.6-1.6,1.6c-0.5,0-1.6,0.2-2.4,0.6c-3.1,1.2-3.8,5.3-1.4,7.8c1.3,1.2,1.3,1.4,1.3,3.9c0,2.6,0,2.7,1.3,4
	c1.2,1.2,1.5,1.3,3.3,1.2c1.4,0,2.3-0.3,3-0.7c0.9-0.7,0.9-0.7,2.7,0.1c2.2,1,2.8,1.1,4.7,0.1c2.3-1.1,3.3-3.3,2.4-5.8
	c-0.4-1.1-0.4-1.5-0.1-1.6c0.9-0.3,2.3-2.1,2.7-3.3C646.9-161.1,644.4-164.2,641.1-164.2z M635.9-154.3c-0.9,0.4-1.3,0.4-2.4-0.1
	c-2.5-1.2-2.9-4-0.8-5.7c1.2-1,2.3-1.1,3.8-0.4c1,0.5,1.8,1.9,1.8,3C638.3-156.5,637-154.7,635.9-154.3z"/>
<path class="st1" d="M734.5-164.2c-1,0-1.2-0.2-1.9-1.6c-0.4-0.9-1.2-1.9-1.9-2.3c-1.5-0.9-3.9-0.9-5.4,0c-0.7,0.4-1.4,1.3-1.8,2.3
	c-0.6,1.4-0.8,1.6-1.6,1.6c-0.5,0-1.6,0.2-2.4,0.6c-3.1,1.2-3.8,5.3-1.4,7.8c1.3,1.2,1.3,1.4,1.3,3.9c0,2.6,0,2.7,1.3,4
	c1.2,1.2,1.5,1.3,3.3,1.2c1.4,0,2.3-0.3,3-0.7c0.9-0.7,0.9-0.7,2.7,0.1c2.2,1,2.8,1.1,4.7,0.1c2.3-1.1,3.3-3.3,2.4-5.8
	c-0.4-1.1-0.4-1.5-0.1-1.6c0.9-0.3,2.3-2.1,2.7-3.3C740.3-161.1,737.8-164.2,734.5-164.2z M729.3-154.3c-0.9,0.4-1.3,0.4-2.4-0.1
	c-2.5-1.2-2.9-4-0.8-5.7c1.2-1,2.3-1.1,3.8-0.4c1,0.5,1.8,1.9,1.8,3C731.7-156.5,730.4-154.7,729.3-154.3z"/>
<path class="st1" d="M781.2-164.2c-1,0-1.2-0.2-1.9-1.6c-0.4-0.9-1.2-1.9-1.9-2.3c-1.5-0.9-3.9-0.9-5.4,0c-0.7,0.4-1.4,1.3-1.8,2.3
	c-0.6,1.4-0.8,1.6-1.6,1.6c-0.5,0-1.6,0.2-2.4,0.6c-3.1,1.2-3.8,5.3-1.4,7.8c1.3,1.2,1.3,1.4,1.3,3.9c0,2.6,0,2.7,1.3,4
	c1.2,1.2,1.5,1.3,3.3,1.2c1.4,0,2.3-0.3,3-0.7c0.9-0.7,0.9-0.7,2.7,0.1c2.2,1,2.8,1.1,4.7,0.1c2.3-1.1,3.3-3.3,2.4-5.8
	c-0.4-1.1-0.4-1.5-0.1-1.6c0.9-0.3,2.3-2.1,2.7-3.3C787-161.1,784.5-164.2,781.2-164.2z M776-154.3c-0.9,0.4-1.3,0.4-2.4-0.1
	c-2.5-1.2-2.9-4-0.8-5.7c1.2-1,2.3-1.1,3.8-0.4c1,0.5,1.8,1.9,1.8,3C778.4-156.5,777.1-154.7,776-154.3z"/>
<path class="st1" d="M312.6-585c-1,0-1.2-0.2-1.9-1.6c-0.4-0.9-1.2-1.9-1.9-2.3c-1.5-0.9-3.9-0.9-5.4,0c-0.7,0.4-1.4,1.3-1.8,2.3
	c-0.6,1.4-0.8,1.6-1.6,1.6c-0.5,0-1.6,0.2-2.4,0.6c-3.1,1.2-3.8,5.3-1.4,7.8c1.2,1.3,1.3,1.5,1.3,3.9c0,2.6,0,2.7,1.3,4
	c1.2,1.2,1.5,1.3,3.3,1.2c1.4,0,2.3-0.3,3-0.7c0.9-0.7,0.9-0.7,2.7,0.1c2.2,1,2.8,1.1,4.7,0.1c2.3-1.1,3.3-3.3,2.4-5.8
	c-0.4-1.1-0.4-1.5-0.1-1.6c0.9-0.3,2.3-2.1,2.7-3.3C318.4-581.9,315.9-585,312.6-585z M307.4-575c-0.9,0.4-1.3,0.4-2.4-0.1
	c-2.5-1.3-2.9-4-0.8-5.7c1.2-1,2.3-1.1,3.8-0.4c1,0.5,1.8,1.9,1.8,3C309.8-577.2,308.5-575.4,307.4-575z"/>
<path class="st1" d="M312.6-538.2c-1,0-1.2-0.2-1.9-1.6c-0.4-0.9-1.2-1.9-1.9-2.3c-1.5-0.9-3.9-0.9-5.4,0c-0.7,0.4-1.4,1.3-1.8,2.3
	c-0.6,1.4-0.8,1.6-1.6,1.6c-0.5,0-1.6,0.2-2.4,0.6c-3.1,1.2-3.8,5.3-1.4,7.8c1.2,1.2,1.3,1.4,1.3,3.9c0,2.6,0,2.7,1.3,4
	c1.2,1.2,1.5,1.3,3.3,1.2c1.4,0,2.3-0.3,3-0.7c0.9-0.7,0.9-0.7,2.7,0.1c2.2,1,2.8,1.1,4.7,0.1c2.3-1.1,3.3-3.3,2.4-5.8
	c-0.4-1.1-0.4-1.5-0.1-1.6c0.9-0.3,2.3-2.1,2.7-3.3C318.4-535.1,315.9-538.2,312.6-538.2z M307.4-528.3c-0.9,0.4-1.3,0.4-2.4-0.1
	c-2.5-1.2-2.9-4-0.8-5.7c1.2-1,2.3-1.1,3.8-0.4c1,0.5,1.8,1.9,1.8,3C309.8-530.5,308.5-528.7,307.4-528.3z"/>
<path class="st1" d="M312.6-491.5c-1,0-1.2-0.2-1.9-1.6c-0.4-0.9-1.2-1.9-1.9-2.3c-1.5-0.9-3.9-0.9-5.4,0c-0.7,0.4-1.4,1.3-1.8,2.3
	c-0.6,1.4-0.8,1.6-1.6,1.6c-0.5,0-1.6,0.2-2.4,0.6c-3.1,1.2-3.8,5.3-1.4,7.8c1.2,1.3,1.3,1.4,1.3,3.9c0,2.6,0,2.7,1.3,4
	c1.2,1.2,1.5,1.3,3.3,1.2c1.4,0,2.3-0.3,3-0.7c0.9-0.7,0.9-0.7,2.7,0.1c2.2,1,2.8,1.1,4.7,0.1c2.3-1.1,3.3-3.3,2.4-5.8
	c-0.4-1.1-0.4-1.5-0.1-1.6c0.9-0.3,2.3-2.1,2.7-3.3C318.4-488.4,315.9-491.5,312.6-491.5z M307.4-481.5c-0.9,0.4-1.3,0.4-2.4-0.1
	c-2.5-1.3-2.9-4-0.8-5.7c1.2-1,2.3-1.1,3.8-0.4c1,0.5,1.8,1.9,1.8,3C309.8-483.7,308.5-481.9,307.4-481.5z"/>
<path class="st1" d="M312.6-444.7c-1,0-1.2-0.2-1.9-1.6c-0.4-0.9-1.2-1.9-1.9-2.3c-1.5-0.9-3.9-0.9-5.4,0c-0.7,0.4-1.4,1.3-1.8,2.3
	c-0.6,1.4-0.8,1.6-1.6,1.6c-0.5,0-1.6,0.2-2.4,0.6c-3.1,1.2-3.8,5.3-1.4,7.8c1.2,1.2,1.3,1.4,1.3,3.9c0,2.6,0,2.7,1.3,4
	c1.2,1.2,1.5,1.3,3.3,1.2c1.4,0,2.3-0.3,3-0.7c0.9-0.7,0.9-0.7,2.7,0.1c2.2,1,2.8,1.1,4.7,0.1c2.3-1.1,3.3-3.3,2.4-5.8
	c-0.4-1.1-0.4-1.5-0.1-1.6c0.9-0.3,2.3-2.1,2.7-3.3C318.4-441.6,315.9-444.7,312.6-444.7z M307.4-434.8c-0.9,0.4-1.3,0.4-2.4-0.1
	c-2.5-1.2-2.9-4-0.8-5.7c1.2-1,2.3-1.1,3.8-0.4c1,0.5,1.8,1.9,1.8,3C309.8-437,308.5-435.2,307.4-434.8z"/>
<path class="st1" d="M312.6-398c-1,0-1.2-0.2-1.9-1.6c-0.4-0.9-1.2-1.9-1.9-2.3c-1.5-0.9-3.9-0.9-5.4,0c-0.7,0.4-1.4,1.3-1.8,2.3
	c-0.6,1.4-0.8,1.6-1.6,1.6c-0.5,0-1.6,0.2-2.4,0.6c-3.1,1.2-3.8,5.3-1.4,7.8c1.2,1.3,1.3,1.4,1.3,3.9c0,2.6,0,2.7,1.3,4
	c1.2,1.2,1.5,1.3,3.3,1.2c1.4,0,2.3-0.3,3-0.7c0.9-0.7,0.9-0.7,2.7,0.1c2.2,1,2.8,1.1,4.7,0.1c2.3-1.1,3.3-3.3,2.4-5.8
	c-0.4-1.1-0.4-1.5-0.1-1.6c0.9-0.3,2.3-2.1,2.7-3.3C318.4-394.9,315.9-398,312.6-398z M307.4-388c-0.9,0.4-1.3,0.4-2.4-0.1
	c-2.5-1.3-2.9-4-0.8-5.7c1.2-1,2.3-1.1,3.8-0.4c1,0.5,1.8,1.9,1.8,3C309.8-390.2,308.5-388.4,307.4-388z"/>
<path class="st1" d="M312.6-351.2c-1,0-1.2-0.2-1.9-1.6c-0.4-0.9-1.2-1.9-1.9-2.3c-1.5-0.9-3.9-0.9-5.4,0c-0.7,0.4-1.4,1.3-1.8,2.3
	c-0.6,1.4-0.8,1.6-1.6,1.6c-0.5,0-1.6,0.2-2.4,0.6c-3.1,1.2-3.8,5.3-1.4,7.8c1.2,1.2,1.3,1.4,1.3,3.9c0,2.6,0,2.7,1.3,4
	c1.2,1.2,1.5,1.3,3.3,1.2c1.4,0,2.3-0.3,3-0.7c0.9-0.7,0.9-0.7,2.7,0.1c2.2,1,2.8,1.1,4.7,0.1c2.3-1.1,3.3-3.3,2.4-5.8
	c-0.4-1.1-0.4-1.5-0.1-1.6c0.9-0.3,2.3-2.1,2.7-3.3C318.4-348.1,315.9-351.2,312.6-351.2z M307.4-341.3c-0.9,0.4-1.3,0.4-2.4-0.1
	c-2.5-1.2-2.9-4-0.8-5.7c1.2-1,2.3-1.1,3.8-0.4c1,0.5,1.8,1.9,1.8,3C309.8-343.5,308.5-341.7,307.4-341.3z"/>
<path class="st1" d="M312.6-304.5c-1,0-1.2-0.2-1.9-1.6c-0.4-0.9-1.2-1.9-1.9-2.3c-1.5-0.9-3.9-0.9-5.4,0c-0.7,0.4-1.4,1.3-1.8,2.3
	c-0.6,1.4-0.8,1.6-1.6,1.6c-0.5,0-1.6,0.2-2.4,0.6c-3.1,1.2-3.8,5.3-1.4,7.8c1.2,1.3,1.3,1.4,1.3,3.9c0,2.6,0,2.7,1.3,4
	c1.2,1.2,1.5,1.3,3.3,1.2c1.4,0,2.3-0.3,3-0.7c0.9-0.7,0.9-0.7,2.7,0.1c2.2,1,2.8,1.1,4.7,0.1c2.3-1.1,3.3-3.3,2.4-5.8
	c-0.4-1.1-0.4-1.5-0.1-1.6c0.9-0.3,2.3-2.1,2.7-3.3C318.4-301.4,315.9-304.5,312.6-304.5z M307.4-294.5c-0.9,0.4-1.3,0.4-2.4-0.1
	c-2.5-1.3-2.9-4-0.8-5.7c1.2-1,2.3-1.1,3.8-0.4c1,0.5,1.8,1.9,1.8,3C309.8-296.7,308.5-294.9,307.4-294.5z"/>
<path class="st1" d="M312.6-257.7c-1,0-1.2-0.2-1.9-1.6c-0.4-0.9-1.2-1.9-1.9-2.3c-1.5-0.9-3.9-0.9-5.4,0c-0.7,0.4-1.4,1.3-1.8,2.3
	c-0.6,1.4-0.8,1.6-1.6,1.6c-0.5,0-1.6,0.2-2.4,0.6c-3.1,1.2-3.8,5.3-1.4,7.8c1.2,1.2,1.3,1.4,1.3,3.9c0,2.6,0,2.7,1.3,4
	c1.2,1.2,1.5,1.3,3.3,1.2c1.4,0,2.3-0.3,3-0.7c0.9-0.7,0.9-0.7,2.7,0.1c2.2,1,2.8,1.1,4.7,0.1c2.3-1.1,3.3-3.3,2.4-5.8
	c-0.4-1.1-0.4-1.5-0.1-1.6c0.9-0.3,2.3-2.1,2.7-3.3C318.4-254.6,315.9-257.7,312.6-257.7z M307.4-247.8c-0.9,0.4-1.3,0.4-2.4-0.1
	c-2.5-1.2-2.9-4-0.8-5.7c1.2-1,2.3-1.1,3.8-0.4c1,0.5,1.8,1.9,1.8,3C309.8-250,308.5-248.2,307.4-247.8z"/>
<path class="st1" d="M312.6-211c-1,0-1.2-0.2-1.9-1.6c-0.4-0.9-1.2-1.9-1.9-2.3c-1.5-0.9-3.9-0.9-5.4,0c-0.7,0.4-1.4,1.3-1.8,2.3
	c-0.6,1.4-0.8,1.6-1.6,1.6c-0.5,0-1.6,0.2-2.4,0.6c-3.1,1.2-3.8,5.3-1.4,7.8c1.2,1.3,1.3,1.4,1.3,3.9c0,2.6,0,2.7,1.3,4
	c1.2,1.2,1.5,1.3,3.3,1.2c1.4,0,2.3-0.3,3-0.7c0.9-0.7,0.9-0.7,2.7,0.1c2.2,1,2.8,1.1,4.7,0.1c2.3-1.1,3.3-3.3,2.4-5.8
	c-0.4-1.1-0.4-1.5-0.1-1.6c0.9-0.3,2.3-2.1,2.7-3.3C318.4-207.9,315.9-211,312.6-211z M307.4-201.1c-0.9,0.4-1.3,0.4-2.4-0.1
	c-2.5-1.2-2.9-3.9-0.8-5.7c1.2-1,2.3-1.1,3.8-0.4c1,0.5,1.8,1.9,1.8,3C309.8-203.3,308.5-201.5,307.4-201.1z"/>
<path class="st1" d="M783.8-585c-1,0-1.2-0.2-1.9-1.6c-0.4-0.9-1.2-1.9-1.9-2.3c-1.5-0.9-3.9-0.9-5.4,0c-0.7,0.4-1.4,1.3-1.8,2.3
	c-0.6,1.4-0.8,1.6-1.6,1.6c-0.5,0-1.6,0.2-2.4,0.6c-3.1,1.2-3.8,5.3-1.4,7.8c1.3,1.3,1.3,1.5,1.3,3.9c0,2.6,0,2.7,1.3,4
	c1.2,1.2,1.5,1.3,3.3,1.2c1.4,0,2.3-0.3,3-0.7c0.9-0.7,0.9-0.7,2.7,0.1c2.2,1,2.8,1.1,4.7,0.1c2.3-1.1,3.3-3.3,2.4-5.8
	c-0.4-1.1-0.4-1.5-0.1-1.6c0.9-0.3,2.3-2.1,2.7-3.3C789.6-581.9,787.1-585,783.8-585z M778.6-575c-0.9,0.4-1.3,0.4-2.4-0.1
	c-2.5-1.3-2.9-4-0.8-5.7c1.2-1,2.3-1.1,3.8-0.4c1,0.5,1.8,1.9,1.8,3C781-577.2,779.7-575.4,778.6-575z"/>
<path class="st1" d="M783.8-538.2c-1,0-1.2-0.2-1.9-1.6c-0.4-0.9-1.2-1.9-1.9-2.3c-1.5-0.9-3.9-0.9-5.4,0c-0.7,0.4-1.4,1.3-1.8,2.3
	c-0.6,1.4-0.8,1.6-1.6,1.6c-0.5,0-1.6,0.2-2.4,0.6c-3.1,1.2-3.8,5.3-1.4,7.8c1.3,1.2,1.3,1.4,1.3,3.9c0,2.6,0,2.7,1.3,4
	c1.2,1.2,1.5,1.3,3.3,1.2c1.4,0,2.3-0.3,3-0.7c0.9-0.7,0.9-0.7,2.7,0.1c2.2,1,2.8,1.1,4.7,0.1c2.3-1.1,3.3-3.3,2.4-5.8
	c-0.4-1.1-0.4-1.5-0.1-1.6c0.9-0.3,2.3-2.1,2.7-3.3C789.6-535.1,787.1-538.2,783.8-538.2z M778.6-528.3c-0.9,0.4-1.3,0.4-2.4-0.1
	c-2.5-1.2-2.9-4-0.8-5.7c1.2-1,2.3-1.1,3.8-0.4c1,0.5,1.8,1.9,1.8,3C781-530.5,779.7-528.7,778.6-528.3z"/>
<path class="st1" d="M783.8-491.5c-1,0-1.2-0.2-1.9-1.6c-0.4-0.9-1.2-1.9-1.9-2.3c-1.5-0.9-3.9-0.9-5.4,0c-0.7,0.4-1.4,1.3-1.8,2.3
	c-0.6,1.4-0.8,1.6-1.6,1.6c-0.5,0-1.6,0.2-2.4,0.6c-3.1,1.2-3.8,5.3-1.4,7.8c1.3,1.3,1.3,1.4,1.3,3.9c0,2.6,0,2.7,1.3,4
	c1.2,1.2,1.5,1.3,3.3,1.2c1.4,0,2.3-0.3,3-0.7c0.9-0.7,0.9-0.7,2.7,0.1c2.2,1,2.8,1.1,4.7,0.1c2.3-1.1,3.3-3.3,2.4-5.8
	c-0.4-1.1-0.4-1.5-0.1-1.6c0.9-0.3,2.3-2.1,2.7-3.3C789.6-488.4,787.1-491.5,783.8-491.5z M778.6-481.5c-0.9,0.4-1.3,0.4-2.4-0.1
	c-2.5-1.3-2.9-4-0.8-5.7c1.2-1,2.3-1.1,3.8-0.4c1,0.5,1.8,1.9,1.8,3C781-483.7,779.7-481.9,778.6-481.5z"/>
<path class="st1" d="M783.8-444.7c-1,0-1.2-0.2-1.9-1.6c-0.4-0.9-1.2-1.9-1.9-2.3c-1.5-0.9-3.9-0.9-5.4,0c-0.7,0.4-1.4,1.3-1.8,2.3
	c-0.6,1.4-0.8,1.6-1.6,1.6c-0.5,0-1.6,0.2-2.4,0.6c-3.1,1.2-3.8,5.3-1.4,7.8c1.3,1.2,1.3,1.4,1.3,3.9c0,2.6,0,2.7,1.3,4
	c1.2,1.2,1.5,1.3,3.3,1.2c1.4,0,2.3-0.3,3-0.7c0.9-0.7,0.9-0.7,2.7,0.1c2.2,1,2.8,1.1,4.7,0.1c2.3-1.1,3.3-3.3,2.4-5.8
	c-0.4-1.1-0.4-1.5-0.1-1.6c0.9-0.3,2.3-2.1,2.7-3.3C789.6-441.6,787.1-444.7,783.8-444.7z M778.6-434.8c-0.9,0.4-1.3,0.4-2.4-0.1
	c-2.5-1.2-2.9-4-0.8-5.7c1.2-1,2.3-1.1,3.8-0.4c1,0.5,1.8,1.9,1.8,3C781-437,779.7-435.2,778.6-434.8z"/>
<path class="st1" d="M783.8-398c-1,0-1.2-0.2-1.9-1.6c-0.4-0.9-1.2-1.9-1.9-2.3c-1.5-0.9-3.9-0.9-5.4,0c-0.7,0.4-1.4,1.3-1.8,2.3
	c-0.6,1.4-0.8,1.6-1.6,1.6c-0.5,0-1.6,0.2-2.4,0.6c-3.1,1.2-3.8,5.3-1.4,7.8c1.3,1.3,1.3,1.4,1.3,3.9c0,2.6,0,2.7,1.3,4
	c1.2,1.2,1.5,1.3,3.3,1.2c1.4,0,2.3-0.3,3-0.7c0.9-0.7,0.9-0.7,2.7,0.1c2.2,1,2.8,1.1,4.7,0.1c2.3-1.1,3.3-3.3,2.4-5.8
	c-0.4-1.1-0.4-1.5-0.1-1.6c0.9-0.3,2.3-2.1,2.7-3.3C789.6-394.9,787.1-398,783.8-398z M778.6-388c-0.9,0.4-1.3,0.4-2.4-0.1
	c-2.5-1.3-2.9-4-0.8-5.7c1.2-1,2.3-1.1,3.8-0.4c1,0.5,1.8,1.9,1.8,3C781-390.2,779.7-388.4,778.6-388z"/>
<path class="st1" d="M783.8-351.2c-1,0-1.2-0.2-1.9-1.6c-0.4-0.9-1.2-1.9-1.9-2.3c-1.5-0.9-3.9-0.9-5.4,0c-0.7,0.4-1.4,1.3-1.8,2.3
	c-0.6,1.4-0.8,1.6-1.6,1.6c-0.5,0-1.6,0.2-2.4,0.6c-3.1,1.2-3.8,5.3-1.4,7.8c1.3,1.2,1.3,1.4,1.3,3.9c0,2.6,0,2.7,1.3,4
	c1.2,1.2,1.5,1.3,3.3,1.2c1.4,0,2.3-0.3,3-0.7c0.9-0.7,0.9-0.7,2.7,0.1c2.2,1,2.8,1.1,4.7,0.1c2.3-1.1,3.3-3.3,2.4-5.8
	c-0.4-1.1-0.4-1.5-0.1-1.6c0.9-0.3,2.3-2.1,2.7-3.3C789.6-348.1,787.1-351.2,783.8-351.2z M778.6-341.3c-0.9,0.4-1.3,0.4-2.4-0.1
	c-2.5-1.2-2.9-4-0.8-5.7c1.2-1,2.3-1.1,3.8-0.4c1,0.5,1.8,1.9,1.8,3C781-343.5,779.7-341.7,778.6-341.3z"/>
<path class="st1" d="M783.8-304.5c-1,0-1.2-0.2-1.9-1.6c-0.4-0.9-1.2-1.9-1.9-2.3c-1.5-0.9-3.9-0.9-5.4,0c-0.7,0.4-1.4,1.3-1.8,2.3
	c-0.6,1.4-0.8,1.6-1.6,1.6c-0.5,0-1.6,0.2-2.4,0.6c-3.1,1.2-3.8,5.3-1.4,7.8c1.3,1.3,1.3,1.4,1.3,3.9c0,2.6,0,2.7,1.3,4
	c1.2,1.2,1.5,1.3,3.3,1.2c1.4,0,2.3-0.3,3-0.7c0.9-0.7,0.9-0.7,2.7,0.1c2.2,1,2.8,1.1,4.7,0.1c2.3-1.1,3.3-3.3,2.4-5.8
	c-0.4-1.1-0.4-1.5-0.1-1.6c0.9-0.3,2.3-2.1,2.7-3.3C789.6-301.4,787.1-304.5,783.8-304.5z M778.6-294.5c-0.9,0.4-1.3,0.4-2.4-0.1
	c-2.5-1.3-2.9-4-0.8-5.7c1.2-1,2.3-1.1,3.8-0.4c1,0.5,1.8,1.9,1.8,3C781-296.7,779.7-294.9,778.6-294.5z"/>
<path class="st1" d="M783.8-257.7c-1,0-1.2-0.2-1.9-1.6c-0.4-0.9-1.2-1.9-1.9-2.3c-1.5-0.9-3.9-0.9-5.4,0c-0.7,0.4-1.4,1.3-1.8,2.3
	c-0.6,1.4-0.8,1.6-1.6,1.6c-0.5,0-1.6,0.2-2.4,0.6c-3.1,1.2-3.8,5.3-1.4,7.8c1.3,1.2,1.3,1.4,1.3,3.9c0,2.6,0,2.7,1.3,4
	c1.2,1.2,1.5,1.3,3.3,1.2c1.4,0,2.3-0.3,3-0.7c0.9-0.7,0.9-0.7,2.7,0.1c2.2,1,2.8,1.1,4.7,0.1c2.3-1.1,3.3-3.3,2.4-5.8
	c-0.4-1.1-0.4-1.5-0.1-1.6c0.9-0.3,2.3-2.1,2.7-3.3C789.6-254.6,787.1-257.7,783.8-257.7z M778.6-247.8c-0.9,0.4-1.3,0.4-2.4-0.1
	c-2.5-1.2-2.9-4-0.8-5.7c1.2-1,2.3-1.1,3.8-0.4c1,0.5,1.8,1.9,1.8,3C781-250,779.7-248.2,778.6-247.8z"/>
<path class="st1" d="M783.8-211c-1,0-1.2-0.2-1.9-1.6c-0.4-0.9-1.2-1.9-1.9-2.3c-1.5-0.9-3.9-0.9-5.4,0c-0.7,0.4-1.4,1.3-1.8,2.3
	c-0.6,1.4-0.8,1.6-1.6,1.6c-0.5,0-1.6,0.2-2.4,0.6c-3.1,1.2-3.8,5.3-1.4,7.8c1.3,1.3,1.3,1.4,1.3,3.9c0,2.6,0,2.7,1.3,4
	c1.2,1.2,1.5,1.3,3.3,1.2c1.4,0,2.3-0.3,3-0.7c0.9-0.7,0.9-0.7,2.7,0.1c2.2,1,2.8,1.1,4.7,0.1c2.3-1.1,3.3-3.3,2.4-5.8
	c-0.4-1.1-0.4-1.5-0.1-1.6c0.9-0.3,2.3-2.1,2.7-3.3C789.6-207.9,787.1-211,783.8-211z M778.6-201.1c-0.9,0.4-1.3,0.4-2.4-0.1
	c-2.5-1.2-2.9-3.9-0.8-5.7c1.2-1,2.3-1.1,3.8-0.4c1,0.5,1.8,1.9,1.8,3C781-203.3,779.7-201.5,778.6-201.1z"/>
<path class="st1" d="M312.6-164.2c-1,0-1.2-0.2-1.9-1.6c-0.4-0.9-1.2-1.9-1.9-2.3c-1.5-0.9-3.9-0.9-5.4,0c-0.7,0.4-1.4,1.3-1.8,2.3
	c-0.6,1.4-0.8,1.6-1.6,1.6c-0.5,0-1.6,0.2-2.4,0.6c-3.1,1.2-3.8,5.3-1.4,7.8c1.2,1.2,1.3,1.4,1.3,3.9c0,2.6,0,2.7,1.3,4
	c1.2,1.2,1.5,1.3,3.3,1.2c1.4,0,2.3-0.3,3-0.7c0.9-0.7,0.9-0.7,2.7,0.1c2.2,1,2.8,1.1,4.7,0.1c2.3-1.1,3.3-3.3,2.4-5.8
	c-0.4-1.1-0.4-1.5-0.1-1.6c0.9-0.3,2.3-2.1,2.7-3.3C318.4-161.1,315.9-164.2,312.6-164.2z M307.4-154.3c-0.9,0.4-1.3,0.4-2.4-0.1
	c-2.5-1.2-2.9-4-0.8-5.7c1.2-1,2.3-1.1,3.8-0.4c1,0.5,1.8,1.9,1.8,3C309.8-156.5,308.5-154.7,307.4-154.3z"/>
<g>
	<path d="M-1.8,0.5v500.1h501.2h0V0.5H-1.8z M473,10.5c0.8-0.4,1.9-0.6,2.4-0.6c0.8,0,1-0.2,1.6-1.6c0.4-1,1.1-1.9,1.8-2.3
		c1.5-0.9,3.9-0.9,5.4,0c0.7,0.4,1.5,1.4,1.9,2.3c0.7,1.4,0.9,1.6,1.9,1.6c3.3,0,5.8,3.1,4.9,6.3c-0.4,1.2-1.8,3-2.7,3.3
		c-0.3,0.1-0.3,0.5,0.1,1.6c0.9,2.5-0.1,4.7-2.4,5.8c-1.9,1-2.5,0.9-4.7-0.1c-1.8-0.8-1.8-0.8-2.7-0.1c-0.7,0.4-1.6,0.7-3,0.7
		c-1.8,0.1-2.1,0-3.3-1.2c-1.3-1.3-1.3-1.4-1.3-4c0-2.5,0-2.7-1.3-3.9C469.2,15.8,469.9,11.7,473,10.5z M426.3,10.5
		c0.8-0.4,1.9-0.6,2.4-0.6c0.8,0,1-0.2,1.6-1.6c0.4-1,1.1-1.9,1.8-2.3c1.5-0.9,3.9-0.9,5.4,0c0.7,0.4,1.5,1.4,1.9,2.3
		c0.7,1.4,0.9,1.6,1.9,1.6c3.3,0,5.8,3.1,4.9,6.3c-0.4,1.2-1.8,3-2.7,3.3c-0.3,0.1-0.3,0.5,0.1,1.6c0.9,2.5-0.1,4.7-2.4,5.8
		c-1.9,1-2.5,0.9-4.7-0.1c-1.8-0.8-1.8-0.8-2.7-0.1c-0.7,0.4-1.6,0.7-3,0.7c-1.8,0.1-2.1,0-3.3-1.2c-1.3-1.3-1.3-1.4-1.3-4
		c0-2.5,0-2.7-1.3-3.9C422.5,15.8,423.2,11.7,426.3,10.5z M379.6,10.5c0.8-0.4,1.9-0.6,2.4-0.6c0.8,0,1-0.2,1.6-1.6
		c0.4-1,1.1-1.9,1.8-2.3c1.5-0.9,3.9-0.9,5.4,0c0.7,0.4,1.5,1.4,1.9,2.3c0.7,1.4,0.9,1.6,1.9,1.6c3.3,0,5.8,3.1,4.9,6.3
		c-0.4,1.2-1.8,3-2.7,3.3c-0.3,0.1-0.3,0.5,0.1,1.6c0.9,2.5-0.1,4.7-2.4,5.8c-1.9,1-2.5,0.9-4.7-0.1c-1.8-0.8-1.8-0.8-2.7-0.1
		c-0.7,0.4-1.6,0.7-3,0.7c-1.8,0.1-2.1,0-3.3-1.2c-1.3-1.3-1.3-1.4-1.3-4c0-2.5,0-2.7-1.3-3.9C375.8,15.8,376.5,11.7,379.6,10.5z
		 M333.1,10.5c0.8-0.4,1.9-0.6,2.4-0.6c0.8,0,1-0.2,1.6-1.6c0.4-1,1.1-1.9,1.6-2.3c1.5-0.9,3.9-0.9,5.4,0c0.7,0.4,1.5,1.4,1.9,2.3
		c0.7,1.4,0.9,1.6,1.9,1.6c3.3,0,5.8,3.1,4.9,6.3c-0.4,1.2-1.8,3-2.7,3.3c-0.3,0.1-0.3,0.5,0.1,1.6c0.9,2.5-0.1,4.7-2.4,5.8
		c-1.9,1-2.5,0.9-4.7-0.1c-1.8-0.8-1.8-0.8-2.7-0.1c-0.7,0.4-1.6,0.7-3,0.7c-1.8,0.1-2.1,0-3.3-1.2c-1.3-1.3-1.3-1.4-1.3-4
		c0-2.5,0-2.7-1.1-3.9C329.3,15.8,330,11.7,333.1,10.5z M286.2,10.5c0.8-0.4,1.9-0.6,2.4-0.6c0.8,0,1-0.2,1.6-1.6
		c0.4-1,1.1-1.9,1.8-2.3c1.5-0.9,3.9-0.9,5.4,0c0.7,0.4,1.5,1.4,1.9,2.3c0.7,1.4,0.9,1.6,1.9,1.6c3.3,0,5.8,3.1,4.9,6.3
		c-0.4,1.2-1.8,3-2.7,3.3c-0.3,0.1-0.3,0.5,0.1,1.6c0.9,2.5-0.1,4.7-2.4,5.8c-1.9,1-2.5,0.9-4.7-0.1c-1.8-0.8-1.8-0.8-2.7-0.1
		c-0.7,0.4-1.6,0.7-3,0.7c-1.8,0.1-2.1,0-3.3-1.2c-1.3-1.3-1.3-1.4-1.3-4c0-2.5,0-2.7-1.3-3.9C282.4,15.8,283.1,11.7,286.2,10.5z
		 M239.7,10.5c0.8-0.4,1.9-0.6,2.4-0.6c0.8,0,1-0.2,1.6-1.6c0.4-1,1.1-1.9,1.6-2.3c1.5-0.9,3.9-0.9,5.4,0c0.7,0.4,1.5,1.4,1.9,2.3
		c0.7,1.4,0.9,1.6,1.9,1.6c3.3,0,5.8,3.1,4.9,6.3c-0.4,1.2-1.8,3-2.7,3.3c-0.3,0.1-0.3,0.5,0.1,1.6c0.9,2.5-0.1,4.7-2.4,5.8
		c-1.9,1-2.5,0.9-4.7-0.1c-1.8-0.8-1.8-0.8-2.7-0.1c-0.7,0.4-1.6,0.7-3,0.7c-1.8,0.1-2.1,0-3.3-1.2c-1.3-1.3-1.3-1.4-1.3-4
		c0-2.5-0.1-2.7-1.1-3.9C235.9,15.8,236.6,11.7,239.7,10.5z M192.9,10.5c0.8-0.4,1.9-0.6,2.4-0.6c0.8,0,1-0.2,1.6-1.6
		c0.5-1,1.2-1.9,1.7-2.3c1.5-0.9,3.9-0.9,5.4,0c0.7,0.4,1.5,1.4,1.9,2.3c0.7,1.4,0.9,1.6,1.9,1.6c3.3,0,5.8,3.1,4.9,6.3
		c-0.4,1.2-1.8,3-2.7,3.3c-0.3,0.1-0.3,0.5,0.1,1.6c0.9,2.5-0.1,4.7-2.4,5.8c-1.9,1-2.5,0.9-4.7-0.1c-1.8-0.8-1.8-0.8-2.7-0.1
		c-0.7,0.4-1.6,0.7-3,0.7c-1.8,0.1-2.1,0-3.3-1.2c-1.3-1.3-1.3-1.4-1.3-4c0-2.5-0.1-2.7-1.2-3.9C189.1,15.8,189.8,11.7,192.9,10.5z
		 M146.1,10.5c0.8-0.4,1.9-0.6,2.4-0.6c0.8,0,1-0.2,1.6-1.6c0.4-1,1.1-1.9,1.8-2.3c1.5-0.9,3.9-0.9,5.4,0c0.7,0.4,1.5,1.4,1.9,2.3
		c0.7,1.4,0.9,1.6,1.9,1.6c3.3,0,5.8,3.1,4.9,6.3c-0.4,1.2-1.8,3-2.7,3.3c-0.3,0.1-0.3,0.5,0.1,1.6c0.9,2.5-0.1,4.7-2.4,5.8
		c-1.9,1-2.5,0.9-4.7-0.1c-1.8-0.8-1.8-0.8-2.7-0.1c-0.7,0.4-1.6,0.7-3,0.7c-1.8,0.1-2.1,0-3.3-1.2c-1.3-1.3-1.3-1.4-1.3-4
		c0-2.5-0.1-2.7-1.3-3.9C142.3,15.8,143,11.7,146.1,10.5z M99.4,10.5c0.8-0.4,1.9-0.6,2.4-0.6c0.8,0,1-0.2,1.6-1.6
		c0.4-1,1.1-1.9,1.8-2.3c1.5-0.9,3.9-0.9,5.4,0c0.7,0.4,1.5,1.4,1.9,2.3c0.7,1.4,0.9,1.6,1.9,1.6c3.3,0,5.8,3.1,4.9,6.3
		c-0.4,1.2-1.8,3-2.7,3.3c-0.3,0.1-0.3,0.5,0.1,1.6c0.9,2.5-0.1,4.7-2.4,5.8c-1.9,1-2.5,0.9-4.7-0.1c-1.8-0.8-1.8-0.8-2.7-0.1
		c-0.7,0.4-1.6,0.7-3,0.7c-1.8,0.1-2.1,0-3.3-1.2c-1.3-1.3-1.3-1.4-1.3-4c0-2.5-0.1-2.7-1.3-3.9C95.6,15.8,96.3,11.7,99.4,10.5z
		 M52.8,10.5c0.8-0.4,1.9-0.6,2.4-0.6c0.8,0,1-0.2,1.6-1.6c0.5-1,1.1-1.9,1.7-2.3c1.5-0.9,3.9-0.9,5.4,0c0.7,0.4,1.5,1.4,1.9,2.3
		c0.7,1.4,0.9,1.6,1.9,1.6c3.3,0,5.8,3.1,4.9,6.3c-0.4,1.2-1.8,3-2.7,3.3c-0.3,0.1-0.3,0.5,0.1,1.6c0.9,2.5-0.1,4.7-2.4,5.8
		c-1.9,1-2.5,0.9-4.7-0.1c-1.8-0.8-1.8-0.8-2.7-0.1c-0.7,0.4-1.6,0.7-3,0.7c-1.8,0.1-2.1,0-3.3-1.2c-1.3-1.3-1.3-1.4-1.3-4
		c0-2.5-0.1-2.7-1.2-3.9C49,15.8,49.7,11.7,52.8,10.5z M24.3,483.7c-0.4,1.2-1.8,3-2.7,3.3c-0.3,0.1-0.3,0.5,0.1,1.6
		c0.9,2.5-0.1,4.7-2.4,5.8c-1.9,1-2.5,0.9-4.7-0.1c-1.8-0.8-1.8-0.8-2.7-0.1c-0.7,0.4-1.6,0.7-3,0.7c-1.8,0.1-2.1,0-3.3-1.2
		c-1.3-1.3-1.3-1.4-1.3-4c0-2.5-0.1-2.7-1.3-3.9c-2.4-2.5-1.7-6.6,1.4-7.8c0.8-0.4,1.9-0.6,2.4-0.6c0.8,0,1-0.2,1.6-1.6
		c0.4-1,1.1-1.9,1.8-2.3c1.5-0.9,3.9-0.9,5.4,0c0.7,0.4,1.5,1.4,1.9,2.3c0.7,1.4,0.9,1.6,1.9,1.6C22.7,477.4,25.2,480.5,24.3,483.7z
		 M24.3,436.9c-0.4,1.2-1.8,3-2.7,3.3c-0.3,0.1-0.3,0.5,0.1,1.6c0.9,2.5-0.1,4.7-2.4,5.8c-1.9,1-2.5,0.9-4.7-0.1
		c-1.8-0.8-1.8-0.8-2.7-0.1c-0.7,0.4-1.6,0.7-3,0.7c-1.8,0.1-2.1,0-3.3-1.2c-1.3-1.3-1.3-1.4-1.3-4c0-2.5-0.1-2.6-1.3-3.9
		c-2.4-2.5-1.7-6.6,1.4-7.8c0.8-0.4,1.9-0.6,2.4-0.6c0.8,0,1-0.2,1.6-1.6c0.4-1,1.1-1.9,1.8-2.3c1.5-0.9,3.9-0.9,5.4,0
		c0.7,0.4,1.5,1.4,1.9,2.3c0.7,1.4,0.9,1.6,1.9,1.6C22.7,430.6,25.2,433.7,24.3,436.9z M24.3,390.2c-0.4,1.2-1.8,3-2.7,3.3
		c-0.3,0.1-0.3,0.5,0.1,1.6c0.9,2.5-0.1,4.7-2.4,5.8c-1.9,1-2.5,0.9-4.7-0.1c-1.8-0.8-1.8-0.8-2.7-0.1c-0.7,0.4-1.6,0.7-3,0.7
		c-1.8,0.1-2.1,0-3.3-1.2c-1.3-1.3-1.3-1.4-1.3-4c0-2.5-0.1-2.7-1.3-3.9c-2.4-2.5-1.7-6.6,1.4-7.8c0.8-0.4,1.9-0.6,2.4-0.6
		c0.8,0,1-0.2,1.6-1.6c0.4-1,1.1-1.9,1.8-2.3c1.5-0.9,3.9-0.9,5.4,0c0.7,0.4,1.5,1.4,1.9,2.3c0.7,1.4,0.9,1.6,1.9,1.6
		C22.7,383.9,25.2,387,24.3,390.2z M24.3,343.4c-0.4,1.2-1.8,3-2.7,3.3c-0.3,0.1-0.3,0.5,0.1,1.6c0.9,2.5-0.1,4.7-2.4,5.8
		c-1.9,1-2.5,0.9-4.7-0.1c-1.8-0.8-1.8-0.8-2.7-0.1c-0.7,0.4-1.6,0.7-3,0.7c-1.8,0.1-2.1,0-3.3-1.2c-1.3-1.3-1.3-1.4-1.3-4
		c0-2.5-0.1-2.6-1.3-3.9c-2.4-2.5-1.7-6.6,1.4-7.8c0.8-0.4,1.9-0.6,2.4-0.6c0.8,0,1-0.2,1.6-1.6c0.4-1,1.1-1.9,1.8-2.3
		c1.5-0.9,3.9-0.9,5.4,0c0.7,0.4,1.5,1.4,1.9,2.3c0.7,1.4,0.9,1.6,1.9,1.6C22.7,337.1,25.2,340.2,24.3,343.4z M24.3,296.7
		c-0.4,1.2-1.8,3-2.7,3.3c-0.3,0.1-0.3,0.5,0.1,1.6c0.9,2.5-0.1,4.7-2.4,5.8c-1.9,1-2.5,0.9-4.7-0.1c-1.8-0.8-1.8-0.8-2.7-0.1
		c-0.7,0.4-1.6,0.7-3,0.7c-1.8,0.1-2.1,0-3.3-1.2c-1.3-1.3-1.3-1.4-1.3-4c0-2.5-0.1-2.7-1.3-3.9c-2.4-2.5-1.7-6.6,1.4-7.8
		c0.8-0.4,1.9-0.6,2.4-0.6c0.8,0,1-0.2,1.6-1.6c0.4-1,1.1-1.9,1.8-2.3c1.5-0.9,3.9-0.9,5.4,0c0.7,0.4,1.5,1.4,1.9,2.3
		c0.7,1.4,0.9,1.6,1.9,1.6C22.7,290.4,25.2,293.5,24.3,296.7z M24.3,249.9c-0.4,1.2-1.8,3-2.7,3.3c-0.3,0.1-0.3,0.5,0.1,1.6
		c0.9,2.5-0.1,4.7-2.4,5.8c-1.9,1-2.5,0.9-4.7-0.1c-1.8-0.8-1.8-0.8-2.7-0.1c-0.7,0.4-1.6,0.7-3,0.7c-1.8,0.1-2.1,0-3.3-1.2
		c-1.3-1.3-1.3-1.4-1.3-4c0-2.5-0.1-2.6-1.3-3.9c-2.4-2.5-1.7-6.6,1.4-7.8c0.8-0.4,1.9-0.6,2.4-0.6c0.8,0,1-0.2,1.6-1.6
		c0.4-1,1.1-1.9,1.8-2.3c1.5-0.9,3.9-0.9,5.4,0c0.7,0.4,1.5,1.4,1.9,2.3c0.7,1.4,0.9,1.6,1.9,1.6C22.7,243.6,25.2,246.7,24.3,249.9z
		 M24.3,203.2c-0.4,1.2-1.8,3-2.7,3.3c-0.3,0.1-0.3,0.5,0.1,1.6c0.9,2.5-0.1,4.7-2.4,5.8c-1.9,1-2.5,0.9-4.7-0.1
		c-1.8-0.8-1.8-0.8-2.7-0.1c-0.7,0.4-1.6,0.7-3,0.7c-1.8,0.1-2.1,0-3.3-1.2c-1.3-1.3-1.3-1.4-1.3-4c0-2.5-0.1-2.7-1.3-3.9
		c-2.4-2.5-1.7-6.6,1.4-7.8c0.8-0.4,1.9-0.6,2.4-0.6c0.8,0,1-0.2,1.6-1.6c0.4-1,1.1-1.9,1.8-2.3c1.5-0.9,3.9-0.9,5.4,0
		c0.7,0.4,1.5,1.4,1.9,2.3c0.7,1.4,0.9,1.6,1.9,1.6C22.7,196.9,25.2,200,24.3,203.2z M24.3,156.4c-0.4,1.2-1.8,3-2.7,3.3
		c-0.3,0.1-0.3,0.5,0.1,1.6c0.9,2.5-0.1,4.7-2.4,5.8c-1.9,1-2.5,0.9-4.7-0.1c-1.8-0.8-1.8-0.8-2.7-0.1c-0.7,0.4-1.6,0.7-3,0.7
		c-1.8,0.1-2.1,0-3.3-1.2c-1.3-1.3-1.3-1.4-1.3-4c0-2.5-0.1-2.6-1.3-3.9c-2.4-2.5-1.7-6.6,1.4-7.8c0.8-0.4,1.9-0.6,2.4-0.6
		c0.8,0,1-0.2,1.6-1.6c0.4-1,1.1-1.9,1.8-2.3c1.5-0.9,3.9-0.9,5.4,0c0.7,0.4,1.5,1.4,1.9,2.3c0.7,1.4,0.9,1.6,1.9,1.6
		C22.7,150.1,25.2,153.2,24.3,156.4z M24.3,109.7c-0.4,1.2-1.8,3-2.7,3.3c-0.3,0.1-0.3,0.5,0.1,1.6c0.9,2.5-0.1,4.7-2.4,5.8
		c-1.9,1-2.5,0.9-4.7-0.1c-1.8-0.8-1.8-0.8-2.7-0.1c-0.7,0.4-1.6,0.7-3,0.7c-1.8,0.1-2.1,0-3.3-1.2c-1.3-1.3-1.3-1.4-1.3-4
		c0-2.5-0.1-2.7-1.3-3.9c-2.4-2.5-1.7-6.6,1.4-7.8c0.8-0.4,1.9-0.6,2.4-0.6c0.8,0,1-0.2,1.6-1.6c0.4-1,1.1-1.9,1.8-2.3
		c1.5-0.9,3.9-0.9,5.4,0c0.7,0.4,1.5,1.4,1.9,2.3c0.7,1.4,0.9,1.6,1.9,1.6C22.7,103.4,25.2,106.5,24.3,109.7z M24.3,62.9
		c-0.4,1.2-1.8,3-2.7,3.3c-0.3,0.1-0.3,0.5,0.1,1.6c0.9,2.5-0.1,4.7-2.4,5.8c-1.9,1-2.5,0.9-4.7-0.1c-1.8-0.8-1.8-0.8-2.7-0.1
		c-0.7,0.4-1.6,0.7-3,0.7c-1.8,0.1-2.1,0-3.3-1.2c-1.3-1.3-1.3-1.4-1.3-4c0-2.4-0.1-2.6-1.3-3.9c-2.4-2.5-1.7-6.6,1.4-7.8
		c0.8-0.4,1.9-0.6,2.4-0.6c0.8,0,1-0.2,1.6-1.6c0.4-1,1.1-1.9,1.8-2.3c1.5-0.9,3.9-0.9,5.4,0c0.7,0.4,1.5,1.4,1.9,2.3
		c0.7,1.4,0.9,1.6,1.9,1.6C22.7,56.6,25.2,59.7,24.3,62.9z M25.9,16.2c-0.4,1.2-1.8,3-2.7,3.3c-0.3,0.1-0.3,0.5,0.1,1.6
		c0.9,2.5-0.1,4.7-2.4,5.8c-1.9,1-2.5,0.9-4.7-0.1c-1.8-0.8-1.8-0.8-2.7-0.1c-0.7,0.4-1.6,0.7-3,0.7c-1.8,0.1-2.1,0-3.3-1.2
		c-1.3-1.3-1.3-1.4-1.3-4c0-2.5-0.1-2.7-1.2-3.9c-2.4-2.5-1.7-6.6,1.4-7.8C6.9,10.1,8,9.9,8.5,9.9c0.8,0,1-0.2,1.6-1.6
		c0.5-1,1.1-1.9,1.7-2.3c1.5-0.9,3.9-0.9,5.4,0c0.7,0.4,1.5,1.4,1.9,2.3C19.8,9.7,20,9.9,21,9.9C24.3,9.9,26.8,13,25.9,16.2z
		 M72.6,483.7c-0.4,1.2-1.8,3-2.7,3.3c-0.3,0.1-0.3,0.5,0.1,1.6c0.9,2.5-0.1,4.7-2.4,5.8c-1.9,1-2.5,0.9-4.7-0.1
		c-1.8-0.8-1.8-0.8-2.7-0.1c-0.7,0.4-1.6,0.7-3,0.7c-1.8,0.1-2.1,0-3.3-1.2c-1.3-1.3-1.3-1.4-1.3-4c0-2.5-0.1-2.7-1.3-3.9
		c-2.4-2.5-1.7-6.6,1.4-7.8c0.8-0.4,1.9-0.6,2.4-0.6c0.8,0,1-0.2,1.6-1.6c0.4-1,1.1-1.9,1.8-2.3c1.5-0.9,3.9-0.9,5.4,0
		c0.7,0.4,1.5,1.4,1.9,2.3c0.7,1.4,0.9,1.6,1.9,1.6C71,477.4,73.5,480.5,72.6,483.7z M119.3,483.7c-0.4,1.2-1.8,3-2.7,3.3
		c-0.3,0.1-0.3,0.5,0.1,1.6c0.9,2.5-0.1,4.7-2.4,5.8c-1.9,1-2.5,0.9-4.7-0.1c-1.8-0.8-1.8-0.8-2.7-0.1c-0.7,0.4-1.6,0.7-3,0.7
		c-1.8,0.1-2.1,0-3.3-1.2c-1.3-1.3-1.3-1.4-1.3-4c0-2.5-0.1-2.7-1.3-3.9c-2.4-2.5-1.7-6.6,1.4-7.8c0.8-0.4,1.9-0.6,2.4-0.6
		c0.8,0,1-0.2,1.6-1.6c0.4-1,1.1-1.9,1.8-2.3c1.5-0.9,3.9-0.9,5.4,0c0.7,0.4,1.5,1.4,1.9,2.3c0.7,1.4,0.9,1.6,1.9,1.6
		C117.7,477.4,120.2,480.5,119.3,483.7z M166,483.7c-0.4,1.2-1.8,3-2.7,3.3c-0.3,0.1-0.3,0.5,0.1,1.6c0.9,2.5-0.1,4.7-2.4,5.8
		c-1.9,1-2.5,0.9-4.7-0.1c-1.8-0.8-1.8-0.8-2.7-0.1c-0.7,0.4-1.6,0.7-3,0.7c-1.8,0.1-2.1,0-3.3-1.2c-1.3-1.3-1.3-1.4-1.3-4
		c0-2.5-0.1-2.7-1.3-3.9c-2.4-2.5-1.7-6.6,1.4-7.8c0.8-0.4,1.9-0.6,2.4-0.6c0.8,0,1-0.2,1.6-1.6c0.4-1,1.1-1.9,1.8-2.3
		c1.5-0.9,3.9-0.9,5.4,0c0.7,0.4,1.5,1.4,1.9,2.3c0.7,1.4,0.9,1.6,1.9,1.6C164.4,477.4,166.9,480.5,166,483.7z M212.7,483.7
		c-0.4,1.2-1.8,3-2.7,3.3c-0.3,0.1-0.3,0.5,0.1,1.6c0.9,2.5-0.1,4.7-2.4,5.8c-1.9,1-2.5,0.9-4.7-0.1c-1.8-0.8-1.8-0.8-2.7-0.1
		c-0.7,0.4-1.6,0.7-3,0.7c-1.8,0.1-2.1,0-3.3-1.2c-1.3-1.3-1.3-1.4-1.3-4c0-2.5-0.1-2.7-1.3-3.9c-2.4-2.5-1.7-6.6,1.4-7.8
		c0.8-0.4,1.9-0.6,2.4-0.6c0.8,0,1-0.2,1.6-1.6c0.4-1,1.1-1.9,1.8-2.3c1.5-0.9,3.9-0.9,5.4,0c0.7,0.4,1.5,1.4,1.9,2.3
		c0.7,1.4,0.9,1.6,1.9,1.6C211.1,477.4,213.6,480.5,212.7,483.7z M259.4,483.7c-0.4,1.2-1.8,3-2.7,3.3c-0.3,0.1-0.3,0.5,0.1,1.6
		c0.9,2.5-0.1,4.7-2.4,5.8c-1.9,1-2.5,0.9-4.7-0.1c-1.8-0.8-1.8-0.8-2.7-0.1c-0.7,0.4-1.6,0.7-3,0.7c-1.8,0.1-2.1,0-3.3-1.2
		c-1.3-1.3-1.3-1.4-1.3-4c0-2.5-0.1-2.7-1.3-3.9c-2.4-2.5-1.7-6.6,1.4-7.8c0.8-0.4,1.9-0.6,2.4-0.6c0.8,0,1-0.2,1.6-1.6
		c0.4-1,1.1-1.9,1.8-2.3c1.5-0.9,3.9-0.9,5.4,0c0.7,0.4,1.5,1.4,1.9,2.3c0.7,1.4,0.9,1.6,1.9,1.6
		C257.8,477.4,260.3,480.5,259.4,483.7z M306.1,483.7c-0.4,1.2-1.8,3-2.7,3.3c-0.3,0.1-0.3,0.5,0.1,1.6c0.9,2.5-0.1,4.7-2.4,5.8
		c-1.9,1-2.5,0.9-4.7-0.1c-1.8-0.8-1.8-0.8-2.7-0.1c-0.7,0.4-1.6,0.7-3,0.7c-1.8,0.1-2.1,0-3.3-1.2c-1.3-1.3-1.3-1.4-1.3-4
		c0-2.5,0-2.7-1.3-3.9c-2.4-2.5-1.7-6.6,1.4-7.8c0.8-0.4,1.9-0.6,2.4-0.6c0.8,0,1-0.2,1.6-1.6c0.4-1,1.1-1.9,1.8-2.3
		c1.5-0.9,3.9-0.9,5.4,0c0.7,0.4,1.5,1.4,1.9,2.3c0.7,1.4,0.9,1.6,1.9,1.6C304.5,477.4,307,480.5,306.1,483.7z M352.8,483.7
		c-0.4,1.2-1.8,3-2.7,3.3c-0.3,0.1-0.3,0.5,0.1,1.6c0.9,2.5-0.1,4.7-2.4,5.8c-1.9,1-2.5,0.9-4.7-0.1c-1.8-0.8-1.8-0.8-2.7-0.1
		c-0.7,0.4-1.6,0.7-3,0.7c-1.8,0.1-2.1,0-3.3-1.2c-1.3-1.3-1.3-1.4-1.3-4c0-2.5,0-2.7-1.3-3.9c-2.4-2.5-1.7-6.6,1.4-7.8
		c0.8-0.4,1.9-0.6,2.4-0.6c0.8,0,1-0.2,1.6-1.6c0.4-1,1.1-1.9,1.8-2.3c1.5-0.9,3.9-0.9,5.4,0c0.7,0.4,1.5,1.4,1.9,2.3
		c0.7,1.4,0.9,1.6,1.9,1.6C351.2,477.4,353.7,480.5,352.8,483.7z M399.5,483.7c-0.4,1.2-1.8,3-2.7,3.3c-0.3,0.1-0.3,0.5,0.1,1.6
		c0.9,2.5-0.1,4.7-2.4,5.8c-1.9,1-2.5,0.9-4.7-0.1c-1.8-0.8-1.8-0.8-2.7-0.1c-0.7,0.4-1.6,0.7-3,0.7c-1.8,0.1-2.1,0-3.3-1.2
		c-1.3-1.3-1.3-1.4-1.3-4c0-2.5,0-2.7-1.3-3.9c-2.4-2.5-1.7-6.6,1.4-7.8c0.8-0.4,1.9-0.6,2.4-0.6c0.8,0,1-0.2,1.6-1.6
		c0.4-1,1.1-1.9,1.8-2.3c1.5-0.9,3.9-0.9,5.4,0c0.7,0.4,1.5,1.4,1.9,2.3c0.7,1.4,0.9,1.6,1.9,1.6
		C397.9,477.4,400.4,480.5,399.5,483.7z M446.2,483.7c-0.4,1.2-1.8,3-2.7,3.3c-0.3,0.1-0.3,0.5,0.1,1.6c0.9,2.5-0.1,4.7-2.4,5.8
		c-1.9,1-2.5,0.9-4.7-0.1c-1.8-0.8-1.8-0.8-2.7-0.1c-0.7,0.4-1.6,0.7-3,0.7c-1.8,0.1-2.1,0-3.3-1.2c-1.3-1.3-1.3-1.4-1.3-4
		c0-2.5,0-2.7-1.3-3.9c-2.4-2.5-1.7-6.6,1.4-7.8c0.8-0.4,1.9-0.6,2.4-0.6c0.8,0,1-0.2,1.6-1.6c0.4-1,1.1-1.9,1.8-2.3
		c1.5-0.9,3.9-0.9,5.4,0c0.7,0.4,1.5,1.4,1.9,2.3c0.7,1.4,0.9,1.6,1.9,1.6C444.6,477.4,447.1,480.5,446.2,483.7z M466.4,467.8H31.2
		V33.3h435.2V467.8z M492.9,483.7c-0.4,1.2-1.8,3-2.7,3.3c-0.3,0.1-0.3,0.5,0.1,1.6c0.9,2.5-0.1,4.7-2.4,5.8c-1.9,1-2.5,0.9-4.7-0.1
		c-1.8-0.8-1.8-0.8-2.7-0.1c-0.7,0.4-1.6,0.7-3,0.7c-1.8,0.1-2.1,0-3.3-1.2c-1.3-1.3-1.3-1.4-1.3-4c0-2.5,0-2.7-1.3-3.9
		c-2.4-2.5-1.7-6.6,1.4-7.8c0.8-0.4,1.9-0.6,2.4-0.6c0.8,0,1-0.2,1.6-1.6c0.4-1,1.1-1.9,1.8-2.3c1.5-0.9,3.9-0.9,5.4,0
		c0.7,0.4,1.5,1.4,1.9,2.3c0.7,1.4,0.9,1.6,1.9,1.6C491.3,477.4,493.8,480.5,492.9,483.7z M495.5,436.9c-0.4,1.2-1.8,3-2.7,3.3
		c-0.3,0.1-0.3,0.5,0.1,1.6c0.9,2.5-0.1,4.7-2.4,5.8c-1.9,1-2.5,0.9-4.7-0.1c-1.8-0.8-1.8-0.8-2.7-0.1c-0.7,0.4-1.6,0.7-3,0.7
		c-1.8,0.1-2.1,0-3.3-1.2c-1.3-1.3-1.3-1.4-1.3-4c0-2.5,0-2.6-1.3-3.9c-2.4-2.5-1.7-6.6,1.4-7.8c0.8-0.4,1.9-0.6,2.4-0.6
		c0.8,0,1-0.2,1.6-1.6c0.4-1,1.1-1.9,1.8-2.3c1.5-0.9,3.9-0.9,5.4,0c0.7,0.4,1.5,1.4,1.9,2.3c0.7,1.4,0.9,1.6,1.9,1.6
		C493.9,430.6,496.4,433.7,495.5,436.9z M495.5,390.2c-0.4,1.2-1.8,3-2.7,3.3c-0.3,0.1-0.3,0.5,0.1,1.6c0.9,2.5-0.1,4.7-2.4,5.8
		c-1.9,1-2.5,0.9-4.7-0.1c-1.8-0.8-1.8-0.8-2.7-0.1c-0.7,0.4-1.6,0.7-3,0.7c-1.8,0.1-2.1,0-3.3-1.2c-1.3-1.3-1.3-1.4-1.3-4
		c0-2.5,0-2.7-1.3-3.9c-2.4-2.5-1.7-6.6,1.4-7.8c0.8-0.4,1.9-0.6,2.4-0.6c0.8,0,1-0.2,1.6-1.6c0.4-1,1.1-1.9,1.8-2.3
		c1.5-0.9,3.9-0.9,5.4,0c0.7,0.4,1.5,1.4,1.9,2.3c0.7,1.4,0.9,1.6,1.9,1.6C493.9,383.9,496.4,387,495.5,390.2z M495.5,343.4
		c-0.4,1.2-1.8,3-2.7,3.3c-0.3,0.1-0.3,0.5,0.1,1.6c0.9,2.5-0.1,4.7-2.4,5.8c-1.9,1-2.5,0.9-4.7-0.1c-1.8-0.8-1.8-0.8-2.7-0.1
		c-0.7,0.4-1.6,0.7-3,0.7c-1.8,0.1-2.1,0-3.3-1.2c-1.3-1.3-1.3-1.4-1.3-4c0-2.5,0-2.6-1.3-3.9c-2.4-2.5-1.7-6.6,1.4-7.8
		c0.8-0.4,1.9-0.6,2.4-0.6c0.8,0,1-0.2,1.6-1.6c0.4-1,1.1-1.9,1.8-2.3c1.5-0.9,3.9-0.9,5.4,0c0.7,0.4,1.5,1.4,1.9,2.3
		c0.7,1.4,0.9,1.6,1.9,1.6C493.9,337.1,496.4,340.2,495.5,343.4z M495.5,296.7c-0.4,1.2-1.8,3-2.7,3.3c-0.3,0.1-0.3,0.5,0.1,1.6
		c0.9,2.5-0.1,4.7-2.4,5.8c-1.9,1-2.5,0.9-4.7-0.1c-1.8-0.8-1.8-0.8-2.7-0.1c-0.7,0.4-1.6,0.7-3,0.7c-1.8,0.1-2.1,0-3.3-1.2
		c-1.3-1.3-1.3-1.4-1.3-4c0-2.5,0-2.7-1.3-3.9c-2.4-2.5-1.7-6.6,1.4-7.8c0.8-0.4,1.9-0.6,2.4-0.6c0.8,0,1-0.2,1.6-1.6
		c0.4-1,1.1-1.9,1.8-2.3c1.5-0.9,3.9-0.9,5.4,0c0.7,0.4,1.5,1.4,1.9,2.3c0.7,1.4,0.9,1.6,1.9,1.6
		C493.9,290.4,496.4,293.5,495.5,296.7z M495.5,249.9c-0.4,1.2-1.8,3-2.7,3.3c-0.3,0.1-0.3,0.5,0.1,1.6c0.9,2.5-0.1,4.7-2.4,5.8
		c-1.9,1-2.5,0.9-4.7-0.1c-1.8-0.8-1.8-0.8-2.7-0.1c-0.7,0.4-1.6,0.7-3,0.7c-1.8,0.1-2.1,0-3.3-1.2c-1.3-1.3-1.3-1.4-1.3-4
		c0-2.5,0-2.6-1.3-3.9c-2.4-2.5-1.7-6.6,1.4-7.8c0.8-0.4,1.9-0.6,2.4-0.6c0.8,0,1-0.2,1.6-1.6c0.4-1,1.1-1.9,1.8-2.3
		c1.5-0.9,3.9-0.9,5.4,0c0.7,0.4,1.5,1.4,1.9,2.3c0.7,1.4,0.9,1.6,1.9,1.6C493.9,243.6,496.4,246.7,495.5,249.9z M495.5,203.2
		c-0.4,1.2-1.8,3-2.7,3.3c-0.3,0.1-0.3,0.5,0.1,1.6c0.9,2.5-0.1,4.7-2.4,5.8c-1.9,1-2.5,0.9-4.7-0.1c-1.8-0.8-1.8-0.8-2.7-0.1
		c-0.7,0.4-1.6,0.7-3,0.7c-1.8,0.1-2.1,0-3.3-1.2c-1.3-1.3-1.3-1.4-1.3-4c0-2.5,0-2.7-1.3-3.9c-2.4-2.5-1.7-6.6,1.4-7.8
		c0.8-0.4,1.9-0.6,2.4-0.6c0.8,0,1-0.2,1.6-1.6c0.4-1,1.1-1.9,1.8-2.3c1.5-0.9,3.9-0.9,5.4,0c0.7,0.4,1.5,1.4,1.9,2.3
		c0.7,1.4,0.9,1.6,1.9,1.6C493.9,196.9,496.4,200,495.5,203.2z M495.5,156.4c-0.4,1.2-1.8,3-2.7,3.3c-0.3,0.1-0.3,0.5,0.1,1.6
		c0.9,2.5-0.1,4.7-2.4,5.8c-1.9,1-2.5,0.9-4.7-0.1c-1.8-0.8-1.8-0.8-2.7-0.1c-0.7,0.4-1.6,0.7-3,0.7c-1.8,0.1-2.1,0-3.3-1.2
		c-1.3-1.3-1.3-1.4-1.3-4c0-2.5,0-2.6-1.3-3.9c-2.4-2.5-1.7-6.6,1.4-7.8c0.8-0.4,1.9-0.6,2.4-0.6c0.8,0,1-0.2,1.6-1.6
		c0.4-1,1.1-1.9,1.8-2.3c1.5-0.9,3.9-0.9,5.4,0c0.7,0.4,1.5,1.4,1.9,2.3c0.7,1.4,0.9,1.6,1.9,1.6
		C493.9,150.1,496.4,153.2,495.5,156.4z M495.5,109.7c-0.4,1.2-1.8,3-2.7,3.3c-0.3,0.1-0.3,0.5,0.1,1.6c0.9,2.5-0.1,4.7-2.4,5.8
		c-1.9,1-2.5,0.9-4.7-0.1c-1.8-0.8-1.8-0.8-2.7-0.1c-0.7,0.4-1.6,0.7-3,0.7c-1.8,0.1-2.1,0-3.3-1.2c-1.3-1.3-1.3-1.4-1.3-4
		c0-2.5,0-2.7-1.3-3.9c-2.4-2.5-1.7-6.6,1.4-7.8c0.8-0.4,1.9-0.6,2.4-0.6c0.8,0,1-0.2,1.6-1.6c0.4-1,1.1-1.9,1.8-2.3
		c1.5-0.9,3.9-0.9,5.4,0c0.7,0.4,1.5,1.4,1.9,2.3c0.7,1.4,0.9,1.6,1.9,1.6C493.9,103.4,496.4,106.5,495.5,109.7z M495.5,62.9
		c-0.4,1.2-1.8,3-2.7,3.3c-0.3,0.1-0.3,0.5,0.1,1.6c0.9,2.5-0.1,4.7-2.4,5.8c-1.9,1-2.5,0.9-4.7-0.1c-1.8-0.8-1.8-0.8-2.7-0.1
		c-0.7,0.4-1.6,0.7-3,0.7c-1.8,0.1-2.1,0-3.3-1.2c-1.3-1.3-1.3-1.4-1.3-4c0-2.4,0-2.6-1.3-3.9c-2.4-2.5-1.7-6.6,1.4-7.8
		c0.8-0.4,1.9-0.6,2.4-0.6c0.8,0,1-0.2,1.6-1.6c0.4-1,1.1-1.9,1.8-2.3c1.5-0.9,3.9-0.9,5.4,0c0.7,0.4,1.5,1.4,1.9,2.3
		c0.7,1.4,0.9,1.6,1.9,1.6C493.9,56.6,496.4,59.7,495.5,62.9z"/>
	<path d="M16.1,14.2c-1.5-0.7-2.6-0.6-3.8,0.4c-2.1,1.8-1.7,4.5,0.8,5.7c1.1,0.5,1.5,0.5,2.4,0.1c1.1-0.4,2.4-2.2,2.4-3.2
		C17.9,16.1,17.1,14.7,16.1,14.2z"/>
	<path d="M60,20.3c1.1,0.5,1.5,0.5,2.4,0.1c1.1-0.4,2.4-2.2,2.4-3.2c0-1.1-0.8-2.5-1.8-3c-1.5-0.7-2.6-0.6-3.8,0.4
		C57.1,16.4,57.5,19.1,60,20.3z"/>
	<path d="M107.4,20.3c1.1,0.5,1.5,0.5,2.4,0.1c1.1-0.4,2.4-2.2,2.4-3.2c0-1.1-0.8-2.5-1.8-3c-1.5-0.7-2.6-0.6-3.8,0.4
		C104.5,16.4,104.9,19.1,107.4,20.3z"/>
	<path d="M154.3,20.3c1.1,0.5,1.5,0.5,2.4,0.1c1.1-0.4,2.4-2.2,2.4-3.2c0-1.1-0.8-2.5-1.8-3c-1.5-0.7-2.6-0.6-3.8,0.4
		C151.4,16.4,151.8,19.1,154.3,20.3z"/>
	<path d="M200.6,20.3c1.1,0.5,1.5,0.5,2.4,0.1c1.1-0.4,2.4-2.2,2.4-3.2c0-1.1-0.8-2.5-1.8-3c-1.5-0.7-2.6-0.6-3.8,0.4
		C197.7,16.4,198.1,19.1,200.6,20.3z"/>
	<path d="M247.5,20.3c1.1,0.5,1.5,0.5,2.4,0.1c1.1-0.4,2.4-2.2,2.4-3.2c0-1.1-0.8-2.5-1.8-3c-1.5-0.7-2.6-0.6-3.8,0.4
		C244.6,16.4,245,19.1,247.5,20.3z"/>
	<path d="M293.9,20.3c1.1,0.5,1.5,0.5,2.4,0.1c1.1-0.4,2.4-2.2,2.4-3.2c0-1.1-0.8-2.5-1.8-3c-1.5-0.7-2.6-0.6-3.8,0.4
		C291,16.4,291.4,19.1,293.9,20.3z"/>
	<path d="M340.8,20.3c1.1,0.5,1.5,0.5,2.4,0.1c1.1-0.4,2.4-2.2,2.4-3.2c0-1.1-0.8-2.5-1.8-3c-1.5-0.7-2.6-0.6-3.8,0.4
		C337.9,16.4,338.3,19.1,340.8,20.3z"/>
	<path d="M386.5,20.3c1.1,0.5,1.5,0.5,2.4,0.1c1.1-0.4,2.4-2.2,2.4-3.2c0-1.1-0.8-2.5-1.8-3c-1.5-0.7-2.6-0.6-3.8,0.4
		C383.6,16.4,384,19.1,386.5,20.3z"/>
	<path d="M433.9,20.3c1.1,0.5,1.5,0.5,2.4,0.1c1.1-0.4,2.4-2.2,2.4-3.2c0-1.1-0.8-2.5-1.8-3c-1.5-0.7-2.6-0.6-3.8,0.4
		C431,16.4,431.4,19.1,433.9,20.3z"/>
	<path d="M480.8,20.3c1.1,0.5,1.5,0.5,2.4,0.1c1.1-0.4,2.4-2.2,2.4-3.2c0-1.1-0.8-2.5-1.8-3c-1.5-0.7-2.6-0.6-3.8,0.4
		C477.9,16.4,478.3,19.1,480.8,20.3z"/>
	<path d="M15.1,482.3c-1.5-0.7-2.6-0.6-3.8,0.4c-2.1,1.8-1.7,4.5,0.8,5.7c1.1,0.5,1.5,0.5,2.4,0.1c1.1-0.4,2.4-2.2,2.4-3.2
		C16.9,484.2,16.1,482.8,15.1,482.3z"/>
	<path d="M63,482.3c-1.5-0.7-2.6-0.6-3.8,0.4c-2.1,1.8-1.7,4.5,0.8,5.7c1.1,0.5,1.5,0.5,2.4,0.1c1.1-0.4,2.4-2.2,2.4-3.2
		C64.8,484.2,64,482.8,63,482.3z"/>
	<path d="M110.4,482.3c-1.5-0.7-2.6-0.6-3.8,0.4c-2.1,1.8-1.7,4.5,0.8,5.7c1.1,0.5,1.5,0.5,2.4,0.1c1.1-0.4,2.4-2.2,2.4-3.2
		C112.2,484.2,111.4,482.8,110.4,482.3z"/>
	<path d="M157.3,482.3c-1.5-0.7-2.6-0.6-3.8,0.4c-2.1,1.8-1.7,4.5,0.8,5.7c1.1,0.5,1.5,0.5,2.4,0.1c1.1-0.4,2.4-2.2,2.4-3.2
		C159.1,484.2,158.3,482.8,157.3,482.3z"/>
	<path d="M203.6,482.3c-1.5-0.7-2.6-0.6-3.8,0.4c-2.1,1.8-1.7,4.5,0.8,5.7c1.1,0.5,1.5,0.5,2.4,0.1c1.1-0.4,2.4-2.2,2.4-3.2
		C205.4,484.2,204.6,482.8,203.6,482.3z"/>
	<path d="M250.5,482.3c-1.5-0.7-2.6-0.6-3.8,0.4c-2.1,1.8-1.7,4.5,0.8,5.7c1.1,0.5,1.5,0.5,2.4,0.1c1.1-0.4,2.4-2.2,2.4-3.2
		C252.3,484.2,251.5,482.8,250.5,482.3z"/>
	<path d="M296.9,482.3c-1.5-0.7-2.6-0.6-3.8,0.4c-2.1,1.8-1.7,4.5,0.8,5.7c1.1,0.5,1.5,0.5,2.4,0.1c1.1-0.4,2.4-2.2,2.4-3.2
		C298.7,484.2,297.9,482.8,296.9,482.3z"/>
	<path d="M343.8,482.3c-1.5-0.7-2.6-0.6-3.8,0.4c-2.1,1.8-1.7,4.5,0.8,5.7c1.1,0.5,1.5,0.5,2.4,0.1c1.1-0.4,2.4-2.2,2.4-3.2
		C345.6,484.2,344.8,482.8,343.8,482.3z"/>
	<path d="M389.5,482.3c-1.5-0.7-2.6-0.6-3.8,0.4c-2.1,1.8-1.7,4.5,0.8,5.7c1.1,0.5,1.5,0.5,2.4,0.1c1.1-0.4,2.4-2.2,2.4-3.2
		C391.3,484.2,390.5,482.8,389.5,482.3z"/>
	<path d="M436.9,482.3c-1.5-0.7-2.6-0.6-3.8,0.4c-2.1,1.8-1.7,4.5,0.8,5.7c1.1,0.5,1.5,0.5,2.4,0.1c1.1-0.4,2.4-2.2,2.4-3.2
		C438.7,484.2,437.9,482.8,436.9,482.3z"/>
	<path d="M483.8,482.3c-1.5-0.7-2.6-0.6-3.8,0.4c-2.1,1.8-1.7,4.5,0.8,5.7c1.1,0.5,1.5,0.5,2.4,0.1c1.1-0.4,2.4-2.2,2.4-3.2
		C485.6,484.2,484.8,482.8,483.8,482.3z"/>
	<path d="M9.8,62.7c-0.5,1.1-0.5,1.5-0.1,2.4c0.4,1.1,2.2,2.4,3.2,2.4c1.1,0,2.5-0.8,3-1.8c0.7-1.5,0.6-2.6-0.4-3.8
		C13.7,59.8,11,60.2,9.8,62.7z"/>
	<path d="M9.8,109.3c-0.5,1.1-0.5,1.5-0.1,2.4c0.4,1.1,2.2,2.4,3.2,2.4c1.1,0,2.5-0.8,3-1.8c0.7-1.5,0.6-2.6-0.4-3.8
		C13.7,106.4,11,106.8,9.8,109.3z"/>
	<path d="M9.8,156.5c-0.5,1.1-0.5,1.5-0.1,2.4c0.4,1.1,2.2,2.4,3.2,2.4c1.1,0,2.5-0.8,3-1.8c0.7-1.5,0.6-2.6-0.4-3.8
		C13.7,153.6,11,154,9.8,156.5z"/>
	<path d="M9.8,203.1c-0.5,1.1-0.5,1.5-0.1,2.4c0.4,1.1,2.2,2.4,3.2,2.4c1.1,0,2.5-0.8,3-1.8c0.7-1.5,0.6-2.6-0.4-3.8
		C13.7,200.2,11,200.6,9.8,203.1z"/>
	<path d="M9.8,250.1c-0.5,1.1-0.5,1.5-0.1,2.4c0.4,1.1,2.2,2.4,3.2,2.4c1.1,0,2.5-0.8,3-1.8c0.7-1.5,0.6-2.6-0.4-3.8
		C13.7,247.2,11,247.6,9.8,250.1z"/>
	<path d="M9.8,296.7c-0.5,1.1-0.5,1.5-0.1,2.4c0.4,1.1,2.2,2.4,3.2,2.4c1.1,0,2.5-0.8,3-1.8c0.7-1.5,0.6-2.6-0.4-3.8
		C13.7,293.8,11,294.2,9.8,296.7z"/>
	<path d="M9.8,342.9c-0.5,1.1-0.5,1.5-0.1,2.4c0.4,1.1,2.2,2.4,3.2,2.4c1.1,0,2.5-0.8,3-1.8c0.7-1.5,0.6-2.6-0.4-3.8
		C13.7,340,11,340.4,9.8,342.9z"/>
	<path d="M9.8,389.5c-0.5,1.1-0.5,1.5-0.1,2.4c0.4,1.1,2.2,2.4,3.2,2.4c1.1,0,2.5-0.8,3-1.8c0.7-1.5,0.6-2.6-0.4-3.8
		C13.7,386.6,11,387,9.8,389.5z"/>
	<path d="M9.8,435.9c-0.5,1.1-0.5,1.5-0.1,2.4c0.4,1.1,2.2,2.4,3.2,2.4c1.1,0,2.5-0.8,3-1.8c0.7-1.5,0.6-2.6-0.4-3.8
		C13.7,433,11,433.4,9.8,435.9z"/>
	<path d="M481.1,62.7c-0.5,1.1-0.5,1.5-0.1,2.4c0.4,1.1,2.2,2.4,3.2,2.4c1.1,0,2.5-0.8,3-1.8c0.7-1.5,0.6-2.6-0.4-3.8
		C485,59.8,482.3,60.2,481.1,62.7z"/>
	<path d="M481.1,109.3c-0.5,1.1-0.5,1.5-0.1,2.4c0.4,1.1,2.2,2.4,3.2,2.4c1.1,0,2.5-0.8,3-1.8c0.7-1.5,0.6-2.6-0.4-3.8
		C485,106.4,482.3,106.8,481.1,109.3z"/>
	<path d="M481.1,156.5c-0.5,1.1-0.5,1.5-0.1,2.4c0.4,1.1,2.2,2.4,3.2,2.4c1.1,0,2.5-0.8,3-1.8c0.7-1.5,0.6-2.6-0.4-3.8
		C485,153.6,482.3,154,481.1,156.5z"/>
	<path d="M481.1,203.1c-0.5,1.1-0.5,1.5-0.1,2.4c0.4,1.1,2.2,2.4,3.2,2.4c1.1,0,2.5-0.8,3-1.8c0.7-1.5,0.6-2.6-0.4-3.8
		C485,200.2,482.3,200.6,481.1,203.1z"/>
	<path d="M481.1,250.1c-0.5,1.1-0.5,1.5-0.1,2.4c0.4,1.1,2.2,2.4,3.2,2.4c1.1,0,2.5-0.8,3-1.8c0.7-1.5,0.6-2.6-0.4-3.8
		C485,247.2,482.3,247.6,481.1,250.1z"/>
	<path d="M481.1,296.7c-0.5,1.1-0.5,1.5-0.1,2.4c0.4,1.1,2.2,2.4,3.2,2.4c1.1,0,2.5-0.8,3-1.8c0.7-1.5,0.6-2.6-0.4-3.8
		C485,293.8,482.3,294.2,481.1,296.7z"/>
	<path d="M481.1,342.9c-0.5,1.1-0.5,1.5-0.1,2.4c0.4,1.1,2.2,2.4,3.2,2.4c1.1,0,2.5-0.8,3-1.8c0.7-1.5,0.6-2.6-0.4-3.8
		C485,340,482.3,340.4,481.1,342.9z"/>
	<path d="M481.1,389.5c-0.5,1.1-0.5,1.5-0.1,2.4c0.4,1.1,2.2,2.4,3.2,2.4c1.1,0,2.5-0.8,3-1.8c0.7-1.5,0.6-2.6-0.4-3.8
		C485,386.6,482.3,387,481.1,389.5z"/>
	<path d="M481.1,435.9c-0.5,1.1-0.5,1.5-0.1,2.4c0.4,1.1,2.2,2.4,3.2,2.4c1.1,0,2.5-0.8,3-1.8c0.7-1.5,0.6-2.6-0.4-3.8
		C485,433,482.3,433.4,481.1,435.9z"/>
</g>
</svg>
