<?xml version="1.0" encoding="utf-8"?>
<!-- Generator: Adobe Illustrator 24.1.0, SVG Export Plug-In . SVG Version: 6.00 Build 0)  -->
<svg version="1.1" id="Layer_1" xmlns="http://www.w3.org/2000/svg" xmlns:xlink="http://www.w3.org/1999/xlink" x="0px" y="0px"
	 viewBox="0 0 500 500" enable-background="new 0 0 500 500" xml:space="preserve">
<path d="M237.56,480.3c-31.12,0-61.32-6.1-89.74-18.11c-27.45-11.61-52.11-28.24-73.29-49.41c-21.17-21.17-37.79-45.83-49.41-73.29
	C13.1,311.06,7,280.87,7,249.74s6.1-61.32,18.11-89.74c11.61-27.45,28.24-52.11,49.41-73.29s45.83-37.79,73.29-49.41
	c28.42-12.02,58.62-18.11,89.74-18.11s61.32,6.1,89.74,18.11c27.45,11.61,52.11,28.24,73.29,49.41S438.38,132.55,450,160
	c12.02,28.42,18.11,58.62,18.11,89.74s-6.1,61.32-18.11,89.74c-11.61,27.45-28.24,52.11-49.41,73.29
	c-21.17,21.17-45.83,37.79-73.29,49.41C298.88,474.21,268.68,480.3,237.56,480.3z M237.56,20.66c-30.93,0-60.93,6.06-89.17,18
	c-27.28,11.54-51.78,28.06-72.82,49.1s-37.56,45.54-49.1,72.82c-11.95,28.24-18,58.24-18,89.17s6.06,60.93,18,89.17
	c11.54,27.28,28.06,51.78,49.1,72.82c21.04,21.04,45.54,37.56,72.82,49.1c28.24,11.95,58.24,18,89.17,18s60.93-6.06,89.17-18
	c27.28-11.54,51.78-28.06,72.82-49.1c21.04-21.04,37.56-45.54,49.1-72.82c11.95-28.24,18-58.24,18-89.17s-6.06-60.93-18-89.17
	c-11.54-27.28-28.06-51.78-49.1-72.82c-21.04-21.04-45.54-37.56-72.82-49.1C298.49,26.73,268.49,20.66,237.56,20.66z"/>
<path d="M262.44,480.3c-31.12,0-61.32-6.1-89.74-18.11c-27.45-11.61-52.11-28.24-73.29-49.41C78.24,391.6,61.62,366.94,50,339.49
	c-12.02-28.42-18.11-58.62-18.11-89.74S37.98,188.43,50,160c11.61-27.45,28.24-52.11,49.41-73.29s45.83-37.79,73.29-49.41
	c28.42-12.02,58.62-18.11,89.74-18.11s61.32,6.1,89.74,18.11c27.45,11.61,52.11,28.24,73.29,49.41
	c21.17,21.17,37.79,45.83,49.41,73.29C486.9,188.43,493,218.62,493,249.74s-6.1,61.32-18.11,89.74
	c-11.61,27.45-28.24,52.11-49.41,73.29c-21.17,21.17-45.83,37.79-73.29,49.41C323.76,474.21,293.57,480.3,262.44,480.3z
	 M262.44,20.66c-30.93,0-60.93,6.06-89.17,18c-27.28,11.54-51.78,28.06-72.82,49.1s-37.56,45.54-49.1,72.82
	c-11.95,28.24-18,58.24-18,89.17s6.06,60.93,18,89.17c11.54,27.28,28.06,51.78,49.1,72.82c21.04,21.04,45.54,37.56,72.82,49.1
	c28.24,11.95,58.24,18,89.17,18s60.93-6.06,89.17-18c27.28-11.54,51.78-28.06,72.82-49.1c21.04-21.04,37.56-45.54,49.1-72.82
	c11.95-28.24,18-58.24,18-89.17s-6.06-60.93-18-89.17c-11.54-27.28-28.06-51.78-49.1-72.82s-45.54-37.56-72.82-49.1
	C323.37,26.73,293.37,20.66,262.44,20.66z"/>
</svg>
