<?xml version="1.0" encoding="utf-8"?>
<!-- Generator: Adobe Illustrator 24.1.0, SVG Export Plug-In . SVG Version: 6.00 Build 0)  -->
<svg version="1.1" id="Layer_1" xmlns="http://www.w3.org/2000/svg" xmlns:xlink="http://www.w3.org/1999/xlink" x="0px" y="0px"
	 viewBox="0 0 500 500" enable-background="new 0 0 500 500" xml:space="preserve">
<path d="M499.9,18.4v-0.5h-29.5V-0.2h-0.5v18.1h-5.2V-0.2h-0.5v18.1H459V-0.2h-0.5v18.1h-51.3V-0.2h-0.5v18.1h-5.2V-0.2H401v18.1
	h-5.2V-0.2h-0.5v18.1H344V-0.2h-0.5v18.1h-5.2V-0.2h-0.5v18.1h-5.2V-0.2h-0.5v18.1h-51.3V-0.2h-0.5v18.1h-5.2V-0.2h-0.5v18.1h-5.2
	V-0.2h-0.5v18.1h-51.3V-0.2h-0.5v18.1h-5.2V-0.2h-0.5v18.1h-5.2V-0.2h-0.5v18.1h-51.3V-0.2H154v18.1h-5.2V-0.2h-0.5v18.1H143V-0.2
	h-0.5v18.1H91.3V-0.2h-0.5v18.1h-5.2V-0.2h-0.5v18.1h-5.2V-0.2h-0.5v18.1H28.1V-0.2h-0.5v18.1h-5.2V-0.2h-0.5v18.1h-5.2V-0.2h-0.5
	v18.1h-16v0.5h16v5.2h-16v0.5h16v5.2h-16v0.5h16v51.3h-16v0.5h16v5.2h-16v0.5h16v5.2h-16V93h16v51.3h-16v0.5h16v5.2h-16v0.5h16v5.2
	h-16v0.5h16v51.3h-16v0.5h16v5.2h-16v0.5h16v5.2h-16v0.5h16v51.3h-16v0.5h16v5.2h-16v0.5h16v5.2h-16v0.5h16v51.3h-16v0.5h16v5.2h-16
	v0.5h16v5.2h-16v0.5h16v51.3h-16v0.5h16v5.2h-16v0.5h16v5.2h-16v0.5h16v51.3h-16v0.5h16v5.2h-16v0.5h16v5.2h-16v0.5h16v27.4h0.5
	v-27.4h5.2v27.4h0.5v-27.4h5.2v27.4h0.5v-27.4h51.3v27.4h0.5v-27.4H85v27.4h0.5v-27.4h5.2v27.4h0.5v-27.4h51.3v27.4h0.5v-27.4h5.2
	v27.4h0.5v-27.4h5.2v27.4h0.5v-27.4h51.3v27.4h0.5v-27.4h5.2v27.4h0.5v-27.4h5.2v27.4h0.5v-27.4h51.3v27.4h0.5v-27.4h5.2v27.4h0.5
	v-27.4h5.2v27.4h0.5v-27.4h51.3v27.4h0.5v-27.4h5.2v27.4h0.5v-27.4h5.2v27.4h0.5v-27.4h51.3v27.4h0.5v-27.4h5.2v27.4h0.5v-27.4h5.2
	v27.4h0.5v-27.4h51.3v27.4h0.5v-27.4h5.2v27.4h0.5v-27.4h5.2v27.4h0.5v-27.4h29.5v-0.5h-29.5v-5.2h29.5V466h-29.5v-5.2h29.5v-0.5
	h-29.5V409h29.5v-0.5h-29.5v-5.2h29.5v-0.5h-29.5v-5.2h29.5v-0.5h-29.5v-51.3h29.5v-0.5h-29.5v-5.2h29.5v-0.5h-29.5v-5.2h29.5v-0.5
	h-29.5V283h29.5v-0.5h-29.5v-5.2h29.5v-0.5h-29.5v-5.2h29.5v-0.5h-29.5v-51.3h29.5v-0.5h-29.5V214h29.5v-0.5h-29.5v-5.2h29.5v-0.5
	h-29.5v-51.3h29.5V156h-29.5v-5.2h29.5v-0.5h-29.5V145h29.5v-0.5h-29.5V93.2h29.5v-0.5h-29.5v-5.2h29.5V87h-29.5v-5.2h29.5v-0.5
	h-29.5V29.9h29.5v-0.5h-29.5v-5.2h29.5v-0.5h-29.5v-5.2C470.4,18.4,499.9,18.4,499.9,18.4z M21.9,472.4h-5.2v-5.2h5.2
	C21.9,467.2,21.9,472.4,21.9,472.4z M21.9,466.6h-5.2v-5.2h5.2C21.9,461.4,21.9,466.6,21.9,466.6z M21.9,460.9h-5.2v-51.3h5.2
	C21.9,409.6,21.9,460.9,21.9,460.9z M21.9,409.1h-5.2v-5.2h5.2C21.9,403.9,21.9,409.1,21.9,409.1z M21.9,403.4h-5.2v-5.2h5.2
	C21.9,398.2,21.9,403.4,21.9,403.4z M21.9,397.6h-5.2v-51.3h5.2C21.9,346.3,21.9,397.6,21.9,397.6z M21.9,345.8h-5.2v-5.2h5.2
	C21.9,340.6,21.9,345.8,21.9,345.8z M21.9,340.1h-5.2v-5.2h5.2C21.9,334.9,21.9,340.1,21.9,340.1z M21.9,334.4h-5.2V283h5.2
	C21.9,283,21.9,334.4,21.9,334.4z M21.9,282.5h-5.2v-5.2h5.2C21.9,277.3,21.9,282.5,21.9,282.5z M21.9,276.8h-5.2v-5.2h5.2
	C21.9,271.6,21.9,276.8,21.9,276.8z M21.9,271.1h-5.2v-51.3h5.2C21.9,219.8,21.9,271.1,21.9,271.1z M21.9,219.2h-5.2V214h5.2
	C21.9,214,21.9,219.2,21.9,219.2z M21.9,213.5h-5.2v-5.2h5.2C21.9,208.3,21.9,213.5,21.9,213.5z M21.9,207.8h-5.2v-51.3h5.2
	C21.9,156.5,21.9,207.8,21.9,207.8z M21.9,155.9h-5.2v-5.2h5.2C21.9,150.7,21.9,155.9,21.9,155.9z M21.9,150.2h-5.2V145h5.2
	C21.9,145,21.9,150.2,21.9,150.2z M21.9,144.5h-5.2V93.2h5.2C21.9,93.2,21.9,144.5,21.9,144.5z M21.9,92.7h-5.2v-5.2h5.2
	C21.9,87.5,21.9,92.7,21.9,92.7z M21.9,86.9h-5.2v-5.2h5.2C21.9,81.7,21.9,86.9,21.9,86.9z M21.9,81.2h-5.2V29.9h5.2
	C21.9,29.9,21.9,81.2,21.9,81.2z M21.9,29.4h-5.2v-5.2h5.2C21.9,24.2,21.9,29.4,21.9,29.4z M21.9,23.6h-5.2v-5.2h5.2
	C21.9,18.4,21.9,23.6,21.9,23.6z M27.6,472.4h-5.2v-5.2h5.2C27.6,467.2,27.6,472.4,27.6,472.4z M27.6,466.6h-5.2v-5.2h5.2
	C27.6,461.4,27.6,466.6,27.6,466.6z M27.6,460.9h-5.2v-51.3h5.2C27.6,409.6,27.6,460.9,27.6,460.9z M27.6,409.1h-5.2v-5.2h5.2
	C27.6,403.9,27.6,409.1,27.6,409.1z M27.6,403.4h-5.2v-5.2h5.2C27.6,398.2,27.6,403.4,27.6,403.4z M27.6,397.6h-5.2v-51.3h5.2
	C27.6,346.3,27.6,397.6,27.6,397.6z M27.6,345.8h-5.2v-5.2h5.2C27.6,340.6,27.6,345.8,27.6,345.8z M27.6,340.1h-5.2v-5.2h5.2
	C27.6,334.9,27.6,340.1,27.6,340.1z M27.6,334.4h-5.2V283h5.2C27.6,283,27.6,334.4,27.6,334.4z M27.6,282.5h-5.2v-5.2h5.2
	C27.6,277.3,27.6,282.5,27.6,282.5z M27.6,276.8h-5.2v-5.2h5.2C27.6,271.6,27.6,276.8,27.6,276.8z M27.6,271.1h-5.2v-51.3h5.2
	C27.6,219.8,27.6,271.1,27.6,271.1z M27.6,219.2h-5.2V214h5.2C27.6,214,27.6,219.2,27.6,219.2z M27.6,213.5h-5.2v-5.2h5.2
	C27.6,208.3,27.6,213.5,27.6,213.5z M27.6,207.8h-5.2v-51.3h5.2C27.6,156.5,27.6,207.8,27.6,207.8z M27.6,155.9h-5.2v-5.2h5.2
	C27.6,150.7,27.6,155.9,27.6,155.9z M27.6,150.2h-5.2V145h5.2C27.6,145,27.6,150.2,27.6,150.2z M27.6,144.5h-5.2V93.2h5.2
	C27.6,93.2,27.6,144.5,27.6,144.5z M27.6,92.7h-5.2v-5.2h5.2C27.6,87.5,27.6,92.7,27.6,92.7z M27.6,86.9h-5.2v-5.2h5.2
	C27.6,81.7,27.6,86.9,27.6,86.9z M27.6,81.2h-5.2V29.9h5.2C27.6,29.9,27.6,81.2,27.6,81.2z M27.6,29.4h-5.2v-5.2h5.2
	C27.6,24.2,27.6,29.4,27.6,29.4z M27.6,23.6h-5.2v-5.2h5.2C27.6,18.4,27.6,23.6,27.6,23.6z M79.3,472.4H28.1v-5.2h51.3v5.2H79.3z
	 M79.3,466.6H28.1v-5.2h51.3v5.2H79.3z M79.3,460.9H28.1v-51.3h51.3v51.3H79.3z M79.3,409.1H28.1v-5.2h51.3v5.2H79.3z M79.3,403.4
	H28.1v-5.2h51.3v5.2H79.3z M79.3,397.6H28.1v-51.3h51.3v51.3H79.3z M79.3,345.8H28.1v-5.2h51.3v5.2H79.3z M79.3,340.1H28.1v-5.2
	h51.3v5.2H79.3z M79.3,334.4H28.1V283h51.3v51.4H79.3z M79.3,282.5H28.1v-5.2h51.3v5.2H79.3z M79.3,276.8H28.1v-5.2h51.3v5.2H79.3z
	 M79.3,271.1H28.1v-51.3h51.3v51.3H79.3z M79.3,219.2H28.1V214h51.3v5.2H79.3z M79.3,213.5H28.1v-5.2h51.3v5.2H79.3z M79.3,207.8
	H28.1v-51.3h51.3v51.3H79.3z M79.3,155.9H28.1v-5.2h51.3v5.2H79.3z M79.3,150.2H28.1V145h51.3v5.2H79.3z M79.3,144.5H28.1V93.2h51.3
	v51.3H79.3z M79.3,92.7H28.1v-5.2h51.3v5.2H79.3z M79.3,86.9H28.1v-5.2h51.3v5.2H79.3z M79.3,81.2H28.1V29.9h51.3v51.3H79.3z
	 M79.3,29.4H28.1v-5.2h51.3v5.2H79.3z M79.3,23.6H28.1v-5.2h51.3v5.2H79.3z M85.1,472.4h-5.2v-5.2h5.2V472.4z M85.1,466.6h-5.2v-5.2
	h5.2V466.6z M85.1,460.9h-5.2v-51.3h5.2V460.9z M85.1,409.1h-5.2v-5.2h5.2V409.1z M85.1,403.4h-5.2v-5.2h5.2V403.4z M85.1,397.6
	h-5.2v-51.3h5.2V397.6z M85.1,345.8h-5.2v-5.2h5.2V345.8z M85.1,340.1h-5.2v-5.2h5.2V340.1z M85.1,334.4h-5.2V283h5.2V334.4z
	 M85.1,282.5h-5.2v-5.2h5.2V282.5z M85.1,276.8h-5.2v-5.2h5.2V276.8z M85.1,271.1h-5.2v-51.3h5.2V271.1z M85.1,219.2h-5.2V214h5.2
	V219.2z M85.1,213.5h-5.2v-5.2h5.2V213.5z M85.1,207.8h-5.2v-51.3h5.2V207.8z M85.1,155.9h-5.2v-5.2h5.2V155.9z M85.1,150.2h-5.2
	V145h5.2V150.2z M85.1,144.5h-5.2V93.2h5.2V144.5z M85.1,92.7h-5.2v-5.2h5.2V92.7z M85.1,86.9h-5.2v-5.2h5.2V86.9z M85.1,81.2h-5.2
	V29.9h5.2V81.2z M85.1,29.4h-5.2v-5.2h5.2V29.4z M85.1,23.6h-5.2v-5.2h5.2V23.6z M90.8,472.4h-5.2v-5.2h5.2V472.4z M90.8,466.6h-5.2
	v-5.2h5.2V466.6z M90.8,460.9h-5.2v-51.3h5.2V460.9z M90.8,409.1h-5.2v-5.2h5.2V409.1z M90.8,403.4h-5.2v-5.2h5.2V403.4z
	 M90.8,397.6h-5.2v-51.3h5.2V397.6z M90.8,345.8h-5.2v-5.2h5.2V345.8z M90.8,340.1h-5.2v-5.2h5.2V340.1z M90.8,334.4h-5.2V283h5.2
	V334.4z M90.8,282.5h-5.2v-5.2h5.2V282.5z M90.8,276.8h-5.2v-5.2h5.2V276.8z M90.8,271.1h-5.2v-51.3h5.2V271.1z M90.8,219.2h-5.2
	V214h5.2V219.2z M90.8,213.5h-5.2v-5.2h5.2V213.5z M90.8,207.8h-5.2v-51.3h5.2V207.8z M90.8,155.9h-5.2v-5.2h5.2V155.9z M90.8,150.2
	h-5.2V145h5.2V150.2z M90.8,144.5h-5.2V93.2h5.2V144.5z M90.8,92.7h-5.2v-5.2h5.2V92.7z M90.8,86.9h-5.2v-5.2h5.2V86.9z M90.8,81.2
	h-5.2V29.9h5.2V81.2z M90.8,29.4h-5.2v-5.2h5.2V29.4z M90.8,23.6h-5.2v-5.2h5.2V23.6z M142.5,472.4H91.3v-5.2h51.3v5.2H142.5z
	 M142.5,466.6H91.3v-5.2h51.3v5.2H142.5z M142.5,460.9H91.3v-51.3h51.3v51.3H142.5z M142.5,409.1H91.3v-5.2h51.3v5.2H142.5z
	 M142.5,403.4H91.3v-5.2h51.3v5.2H142.5z M142.5,397.6H91.3v-51.3h51.3v51.3H142.5z M142.5,345.8H91.3v-5.2h51.3v5.2H142.5z
	 M142.5,340.1H91.3v-5.2h51.3v5.2H142.5z M142.5,334.4H91.3V283h51.3v51.4H142.5z M142.5,282.5H91.3v-5.2h51.3v5.2H142.5z
	 M142.5,276.8H91.3v-5.2h51.3v5.2H142.5z M142.5,271.1H91.3v-51.3h51.3v51.3H142.5z M142.5,219.2H91.3V214h51.3v5.2H142.5z
	 M142.5,213.5H91.3v-5.2h51.3v5.2H142.5z M142.5,207.8H91.3v-51.3h51.3v51.3H142.5z M142.5,155.9H91.3v-5.2h51.3v5.2H142.5z
	 M142.5,150.2H91.3V145h51.3v5.2H142.5z M142.5,144.5H91.3V93.2h51.3v51.3H142.5z M142.5,92.7H91.3v-5.2h51.3v5.2H142.5z
	 M142.5,86.9H91.3v-5.2h51.3v5.2H142.5z M142.5,81.2H91.3V29.9h51.3v51.3H142.5z M142.5,29.4H91.3v-5.2h51.3v5.2H142.5z M142.5,23.6
	H91.3v-5.2h51.3v5.2H142.5z M148.2,472.4H143v-5.2h5.2V472.4z M148.2,466.6H143v-5.2h5.2V466.6z M148.2,460.9H143v-51.3h5.2V460.9z
	 M148.2,409.1H143v-5.2h5.2V409.1z M148.2,403.4H143v-5.2h5.2V403.4z M148.2,397.6H143v-51.3h5.2V397.6z M148.2,345.8H143v-5.2h5.2
	V345.8z M148.2,340.1H143v-5.2h5.2V340.1z M148.2,334.4H143V283h5.2V334.4z M148.2,282.5H143v-5.2h5.2V282.5z M148.2,276.8H143v-5.2
	h5.2V276.8z M148.2,271.1H143v-51.3h5.2V271.1z M148.2,219.2H143V214h5.2V219.2z M148.2,213.5H143v-5.2h5.2V213.5z M148.2,207.8H143
	v-51.3h5.2V207.8z M148.2,155.9H143v-5.2h5.2V155.9z M148.2,150.2H143V145h5.2V150.2z M148.2,144.5H143V93.2h5.2V144.5z M148.2,92.7
	H143v-5.2h5.2V92.7z M148.2,86.9H143v-5.2h5.2V86.9z M148.2,81.2H143V29.9h5.2V81.2z M148.2,29.4H143v-5.2h5.2V29.4z M148.2,23.6
	H143v-5.2h5.2V23.6z M153.9,472.4h-5.2v-5.2h5.2V472.4z M153.9,466.6h-5.2v-5.2h5.2V466.6z M153.9,460.9h-5.2v-51.3h5.2V460.9z
	 M153.9,409.1h-5.2v-5.2h5.2V409.1z M153.9,403.4h-5.2v-5.2h5.2V403.4z M153.9,397.6h-5.2v-51.3h5.2V397.6z M153.9,345.8h-5.2v-5.2
	h5.2V345.8z M153.9,340.1h-5.2v-5.2h5.2V340.1z M153.9,334.4h-5.2V283h5.2V334.4z M153.9,282.5h-5.2v-5.2h5.2V282.5z M153.9,276.8
	h-5.2v-5.2h5.2V276.8z M153.9,271.1h-5.2v-51.3h5.2V271.1z M153.9,219.2h-5.2V214h5.2V219.2z M153.9,213.5h-5.2v-5.2h5.2V213.5z
	 M153.9,207.8h-5.2v-51.3h5.2V207.8z M153.9,155.9h-5.2v-5.2h5.2V155.9z M153.9,150.2h-5.2V145h5.2V150.2z M153.9,144.5h-5.2V93.2
	h5.2V144.5z M153.9,92.7h-5.2v-5.2h5.2V92.7z M153.9,86.9h-5.2v-5.2h5.2V86.9z M153.9,81.2h-5.2V29.9h5.2V81.2z M153.9,29.4h-5.2
	v-5.2h5.2V29.4z M153.9,23.6h-5.2v-5.2h5.2V23.6z M205.7,472.4h-51.3v-5.2h51.3V472.4z M205.7,466.6h-51.3v-5.2h51.3V466.6z
	 M205.7,460.9h-51.3v-51.3h51.3V460.9z M205.7,409.1h-51.3v-5.2h51.3V409.1z M205.7,403.4h-51.3v-5.2h51.3V403.4z M205.7,397.6
	h-51.3v-51.3h51.3V397.6z M205.7,345.8h-51.3v-5.2h51.3V345.8z M205.7,340.1h-51.3v-5.2h51.3V340.1z M205.7,334.4h-51.3V283h51.3
	V334.4z M205.7,282.5h-51.3v-5.2h51.3V282.5z M205.7,276.8h-51.3v-5.2h51.3V276.8z M205.7,271.1h-51.3v-51.3h51.3V271.1z
	 M205.7,219.2h-51.3V214h51.3V219.2z M205.7,213.5h-51.3v-5.2h51.3V213.5z M205.7,207.8h-51.3v-51.3h51.3V207.8z M205.7,155.9h-51.3
	v-5.2h51.3V155.9z M205.7,150.2h-51.3V145h51.3V150.2z M205.7,144.5h-51.3V93.2h51.3V144.5z M205.7,92.7h-51.3v-5.2h51.3V92.7z
	 M205.7,86.9h-51.3v-5.2h51.3V86.9z M205.7,81.2h-51.3V29.9h51.3V81.2z M205.7,29.4h-51.3v-5.2h51.3V29.4z M205.7,23.6h-51.3v-5.2
	h51.3V23.6z M211.4,472.4h-5.2v-5.2h5.2V472.4z M211.4,466.6h-5.2v-5.2h5.2V466.6z M211.4,460.9h-5.2v-51.3h5.2V460.9z M211.4,409.1
	h-5.2v-5.2h5.2V409.1z M211.4,403.4h-5.2v-5.2h5.2V403.4z M211.4,397.6h-5.2v-51.3h5.2V397.6z M211.4,345.8h-5.2v-5.2h5.2V345.8z
	 M211.4,340.1h-5.2v-5.2h5.2V340.1z M211.4,334.4h-5.2V283h5.2V334.4z M211.4,282.5h-5.2v-5.2h5.2V282.5z M211.4,276.8h-5.2v-5.2
	h5.2V276.8z M211.4,271.1h-5.2v-51.3h5.2V271.1z M211.4,219.2h-5.2V214h5.2V219.2z M211.4,213.5h-5.2v-5.2h5.2V213.5z M211.4,207.8
	h-5.2v-51.3h5.2V207.8z M211.4,155.9h-5.2v-5.2h5.2V155.9z M211.4,150.2h-5.2V145h5.2V150.2z M211.4,144.5h-5.2V93.2h5.2V144.5z
	 M211.4,92.7h-5.2v-5.2h5.2V92.7z M211.4,86.9h-5.2v-5.2h5.2V86.9z M211.4,81.2h-5.2V29.9h5.2V81.2z M211.4,29.4h-5.2v-5.2h5.2V29.4
	z M211.4,23.6h-5.2v-5.2h5.2V23.6z M217.1,472.4h-5.2v-5.2h5.2V472.4z M217.1,466.6h-5.2v-5.2h5.2V466.6z M217.1,460.9h-5.2v-51.3
	h5.2V460.9z M217.1,409.1h-5.2v-5.2h5.2V409.1z M217.1,403.4h-5.2v-5.2h5.2V403.4z M217.1,397.6h-5.2v-51.3h5.2V397.6z M217.1,345.8
	h-5.2v-5.2h5.2V345.8z M217.1,340.1h-5.2v-5.2h5.2V340.1z M217.1,334.4h-5.2V283h5.2V334.4z M217.1,282.5h-5.2v-5.2h5.2V282.5z
	 M217.1,276.8h-5.2v-5.2h5.2V276.8z M217.1,271.1h-5.2v-51.3h5.2V271.1z M217.1,219.2h-5.2V214h5.2V219.2z M217.1,213.5h-5.2v-5.2
	h5.2V213.5z M217.1,207.8h-5.2v-51.3h5.2V207.8z M217.1,155.9h-5.2v-5.2h5.2V155.9z M217.1,150.2h-5.2V145h5.2V150.2z M217.1,144.5
	h-5.2V93.2h5.2V144.5z M217.1,92.7h-5.2v-5.2h5.2V92.7z M217.1,86.9h-5.2v-5.2h5.2V86.9z M217.1,81.2h-5.2V29.9h5.2V81.2z
	 M217.1,29.4h-5.2v-5.2h5.2V29.4z M217.1,23.6h-5.2v-5.2h5.2V23.6z M268.9,472.4h-51.3v-5.2h51.3V472.4z M268.9,466.6h-51.3v-5.2
	h51.3V466.6z M268.9,460.9h-51.3v-51.3h51.3V460.9z M268.9,409.1h-51.3v-5.2h51.3V409.1z M268.9,403.4h-51.3v-5.2h51.3V403.4z
	 M268.9,397.6h-51.3v-51.3h51.3V397.6z M268.9,345.8h-51.3v-5.2h51.3V345.8z M268.9,340.1h-51.3v-5.2h51.3V340.1z M268.9,334.4
	h-51.3V283h51.3V334.4z M268.9,282.5h-51.3v-5.2h51.3V282.5z M268.9,276.8h-51.3v-5.2h51.3V276.8z M268.9,271.1h-51.3v-51.3h51.3
	V271.1z M268.9,219.2h-51.3V214h51.3V219.2z M268.9,213.5h-51.3v-5.2h51.3V213.5z M268.9,207.8h-51.3v-51.3h51.3V207.8z
	 M268.9,155.9h-51.3v-5.2h51.3V155.9z M268.9,150.2h-51.3V145h51.3V150.2z M268.9,144.5h-51.3V93.2h51.3V144.5z M268.9,92.7h-51.3
	v-5.2h51.3V92.7z M268.9,86.9h-51.3v-5.2h51.3V86.9z M268.9,81.2h-51.3V29.9h51.3V81.2z M268.9,29.4h-51.3v-5.2h51.3V29.4z
	 M268.9,23.6h-51.3v-5.2h51.3V23.6z M274.6,472.4h-5.2v-5.2h5.2V472.4z M274.6,466.6h-5.2v-5.2h5.2V466.6z M274.6,460.9h-5.2v-51.3
	h5.2V460.9z M274.6,409.1h-5.2v-5.2h5.2V409.1z M274.6,403.4h-5.2v-5.2h5.2V403.4z M274.6,397.6h-5.2v-51.3h5.2V397.6z M274.6,345.8
	h-5.2v-5.2h5.2V345.8z M274.6,340.1h-5.2v-5.2h5.2V340.1z M274.6,334.4h-5.2V283h5.2V334.4z M274.6,282.5h-5.2v-5.2h5.2V282.5z
	 M274.6,276.8h-5.2v-5.2h5.2V276.8z M274.6,271.1h-5.2v-51.3h5.2V271.1z M274.6,219.2h-5.2V214h5.2V219.2z M274.6,213.5h-5.2v-5.2
	h5.2V213.5z M274.6,207.8h-5.2v-51.3h5.2V207.8z M274.6,155.9h-5.2v-5.2h5.2V155.9z M274.6,150.2h-5.2V145h5.2V150.2z M274.6,144.5
	h-5.2V93.2h5.2V144.5z M274.6,92.7h-5.2v-5.2h5.2V92.7z M274.6,86.9h-5.2v-5.2h5.2V86.9z M274.6,81.2h-5.2V29.9h5.2V81.2z
	 M274.6,29.4h-5.2v-5.2h5.2V29.4z M274.6,23.6h-5.2v-5.2h5.2V23.6z M280.3,472.4h-5.2v-5.2h5.2V472.4z M280.3,466.6h-5.2v-5.2h5.2
	V466.6z M280.3,460.9h-5.2v-51.3h5.2V460.9z M280.3,409.1h-5.2v-5.2h5.2V409.1z M280.3,403.4h-5.2v-5.2h5.2V403.4z M280.3,397.6
	h-5.2v-51.3h5.2V397.6z M280.3,345.8h-5.2v-5.2h5.2V345.8z M280.3,340.1h-5.2v-5.2h5.2V340.1z M280.3,334.4h-5.2V283h5.2V334.4z
	 M280.3,282.5h-5.2v-5.2h5.2V282.5z M280.3,276.8h-5.2v-5.2h5.2V276.8z M280.3,271.1h-5.2v-51.3h5.2V271.1z M280.3,219.2h-5.2V214
	h5.2V219.2z M280.3,213.5h-5.2v-5.2h5.2V213.5z M280.3,207.8h-5.2v-51.3h5.2V207.8z M280.3,155.9h-5.2v-5.2h5.2V155.9z M280.3,150.2
	h-5.2V145h5.2V150.2z M280.3,144.5h-5.2V93.2h5.2V144.5z M280.3,92.7h-5.2v-5.2h5.2V92.7z M280.3,86.9h-5.2v-5.2h5.2V86.9z
	 M280.3,81.2h-5.2V29.9h5.2V81.2z M280.3,29.4h-5.2v-5.2h5.2V29.4z M280.3,23.6h-5.2v-5.2h5.2V23.6z M332.1,472.4h-51.3v-5.2h51.3
	V472.4z M332.1,466.6h-51.3v-5.2h51.3V466.6z M332.1,460.9h-51.3v-51.3h51.3V460.9z M332.1,409.1h-51.3v-5.2h51.3V409.1z
	 M332.1,403.4h-51.3v-5.2h51.3V403.4z M332.1,397.6h-51.3v-51.3h51.3V397.6z M332.1,345.8h-51.3v-5.2h51.3V345.8z M332.1,340.1
	h-51.3v-5.2h51.3V340.1z M332.1,334.4h-51.3V283h51.3V334.4z M332.1,282.5h-51.3v-5.2h51.3V282.5z M332.1,276.8h-51.3v-5.2h51.3
	V276.8z M332.1,271.1h-51.3v-51.3h51.3V271.1z M332.1,219.2h-51.3V214h51.3V219.2z M332.1,213.5h-51.3v-5.2h51.3V213.5z
	 M332.1,207.8h-51.3v-51.3h51.3V207.8z M332.1,155.9h-51.3v-5.2h51.3V155.9z M332.1,150.2h-51.3V145h51.3V150.2z M332.1,144.5h-51.3
	V93.2h51.3V144.5z M332.1,92.7h-51.3v-5.2h51.3V92.7z M332.1,86.9h-51.3v-5.2h51.3V86.9z M332.1,81.2h-51.3V29.9h51.3V81.2z
	 M332.1,29.4h-51.3v-5.2h51.3V29.4z M332.1,23.6h-51.3v-5.2h51.3V23.6z M337.8,472.4h-5.2v-5.2h5.2V472.4z M337.8,466.6h-5.2v-5.2
	h5.2V466.6z M337.8,460.9h-5.2v-51.3h5.2V460.9z M337.8,409.1h-5.2v-5.2h5.2V409.1z M337.8,403.4h-5.2v-5.2h5.2V403.4z M337.8,397.6
	h-5.2v-51.3h5.2V397.6z M337.8,345.8h-5.2v-5.2h5.2V345.8z M337.8,340.1h-5.2v-5.2h5.2V340.1z M337.8,334.4h-5.2V283h5.2V334.4z
	 M337.8,282.5h-5.2v-5.2h5.2V282.5z M337.8,276.8h-5.2v-5.2h5.2V276.8z M337.8,271.1h-5.2v-51.3h5.2V271.1z M337.8,219.2h-5.2V214
	h5.2V219.2z M337.8,213.5h-5.2v-5.2h5.2V213.5z M337.8,207.8h-5.2v-51.3h5.2V207.8z M337.8,155.9h-5.2v-5.2h5.2V155.9z M337.8,150.2
	h-5.2V145h5.2V150.2z M337.8,144.5h-5.2V93.2h5.2V144.5z M337.8,92.7h-5.2v-5.2h5.2V92.7z M337.8,86.9h-5.2v-5.2h5.2V86.9z
	 M337.8,81.2h-5.2V29.9h5.2V81.2z M337.8,29.4h-5.2v-5.2h5.2V29.4z M337.8,23.6h-5.2v-5.2h5.2V23.6z M343.5,472.4h-5.2v-5.2h5.2
	V472.4z M343.5,466.6h-5.2v-5.2h5.2V466.6z M343.5,460.9h-5.2v-51.3h5.2V460.9z M343.5,409.1h-5.2v-5.2h5.2V409.1z M343.5,403.4
	h-5.2v-5.2h5.2V403.4z M343.5,397.6h-5.2v-51.3h5.2V397.6z M343.5,345.8h-5.2v-5.2h5.2V345.8z M343.5,340.1h-5.2v-5.2h5.2V340.1z
	 M343.5,334.4h-5.2V283h5.2V334.4z M343.5,282.5h-5.2v-5.2h5.2V282.5z M343.5,276.8h-5.2v-5.2h5.2V276.8z M343.5,271.1h-5.2v-51.3
	h5.2V271.1z M343.5,219.2h-5.2V214h5.2V219.2z M343.5,213.5h-5.2v-5.2h5.2V213.5z M343.5,207.8h-5.2v-51.3h5.2V207.8z M343.5,155.9
	h-5.2v-5.2h5.2V155.9z M343.5,150.2h-5.2V145h5.2V150.2z M343.5,144.5h-5.2V93.2h5.2V144.5z M343.5,92.7h-5.2v-5.2h5.2V92.7z
	 M343.5,86.9h-5.2v-5.2h5.2V86.9z M343.5,81.2h-5.2V29.9h5.2V81.2z M343.5,29.4h-5.2v-5.2h5.2V29.4z M343.5,23.6h-5.2v-5.2h5.2V23.6
	z M395.3,472.4H344v-5.2h51.3V472.4z M395.3,466.6H344v-5.2h51.3V466.6z M395.3,460.9H344v-51.3h51.3V460.9z M395.3,409.1H344v-5.2
	h51.3V409.1z M395.3,403.4H344v-5.2h51.3V403.4z M395.3,397.6H344v-51.3h51.3V397.6z M395.3,345.8H344v-5.2h51.3V345.8z
	 M395.3,340.1H344v-5.2h51.3V340.1z M395.3,334.4H344V283h51.3V334.4z M395.3,282.5H344v-5.2h51.3V282.5z M395.3,276.8H344v-5.2
	h51.3V276.8z M395.3,271.1H344v-51.3h51.3V271.1z M395.3,219.2H344V214h51.3V219.2z M395.3,213.5H344v-5.2h51.3V213.5z M395.3,207.8
	H344v-51.3h51.3V207.8z M395.3,155.9H344v-5.2h51.3V155.9z M395.3,150.2H344V145h51.3V150.2z M395.3,144.5H344V93.2h51.3V144.5z
	 M395.3,92.7H344v-5.2h51.3V92.7z M395.3,86.9H344v-5.2h51.3V86.9z M395.3,81.2H344V29.9h51.3V81.2z M395.3,29.4H344v-5.2h51.3V29.4
	z M395.3,23.6H344v-5.2h51.3V23.6z M401,472.4h-5.2v-5.2h5.2V472.4z M401,466.6h-5.2v-5.2h5.2V466.6z M401,460.9h-5.2v-51.3h5.2
	V460.9z M401,409.1h-5.2v-5.2h5.2V409.1z M401,403.4h-5.2v-5.2h5.2V403.4z M401,397.6h-5.2v-51.3h5.2V397.6z M401,345.8h-5.2v-5.2
	h5.2V345.8z M401,340.1h-5.2v-5.2h5.2V340.1z M401,334.4h-5.2V283h5.2V334.4z M401,282.5h-5.2v-5.2h5.2V282.5z M401,276.8h-5.2v-5.2
	h5.2V276.8z M401,271.1h-5.2v-51.3h5.2V271.1z M401,219.2h-5.2V214h5.2V219.2z M401,213.5h-5.2v-5.2h5.2V213.5z M401,207.8h-5.2
	v-51.3h5.2V207.8z M401,155.9h-5.2v-5.2h5.2V155.9z M401,150.2h-5.2V145h5.2V150.2z M401,144.5h-5.2V93.2h5.2V144.5z M401,92.7h-5.2
	v-5.2h5.2V92.7z M401,86.9h-5.2v-5.2h5.2V86.9z M401,81.2h-5.2V29.9h5.2V81.2z M401,29.4h-5.2v-5.2h5.2V29.4z M401,23.6h-5.2v-5.2
	h5.2V23.6z M406.7,472.4h-5.2v-5.2h5.2V472.4z M406.7,466.6h-5.2v-5.2h5.2V466.6z M406.7,460.9h-5.2v-51.3h5.2V460.9z M406.7,409.1
	h-5.2v-5.2h5.2V409.1z M406.7,403.4h-5.2v-5.2h5.2V403.4z M406.7,397.6h-5.2v-51.3h5.2V397.6z M406.7,345.8h-5.2v-5.2h5.2V345.8z
	 M406.7,340.1h-5.2v-5.2h5.2V340.1z M406.7,334.4h-5.2V283h5.2V334.4z M406.7,282.5h-5.2v-5.2h5.2V282.5z M406.7,276.8h-5.2v-5.2
	h5.2V276.8z M406.7,271.1h-5.2v-51.3h5.2V271.1z M406.7,219.2h-5.2V214h5.2V219.2z M406.7,213.5h-5.2v-5.2h5.2V213.5z M406.7,207.8
	h-5.2v-51.3h5.2V207.8z M406.7,155.9h-5.2v-5.2h5.2V155.9z M406.7,150.2h-5.2V145h5.2V150.2z M406.7,144.5h-5.2V93.2h5.2V144.5z
	 M406.7,92.7h-5.2v-5.2h5.2V92.7z M406.7,86.9h-5.2v-5.2h5.2V86.9z M406.7,81.2h-5.2V29.9h5.2V81.2z M406.7,29.4h-5.2v-5.2h5.2V29.4
	z M406.7,23.6h-5.2v-5.2h5.2V23.6z M458.5,472.4h-51.3v-5.2h51.3V472.4z M458.5,466.6h-51.3v-5.2h51.3V466.6z M458.5,460.9h-51.3
	v-51.3h51.3V460.9z M458.5,409.1h-51.3v-5.2h51.3V409.1z M458.5,403.4h-51.3v-5.2h51.3V403.4z M458.5,397.6h-51.3v-51.3h51.3V397.6z
	 M458.5,345.8h-51.3v-5.2h51.3V345.8z M458.5,340.1h-51.3v-5.2h51.3V340.1z M458.5,334.4h-51.3V283h51.3V334.4z M458.5,282.5h-51.3
	v-5.2h51.3V282.5z M458.5,276.8h-51.3v-5.2h51.3V276.8z M458.5,271.1h-51.3v-51.3h51.3V271.1z M458.5,219.2h-51.3V214h51.3V219.2z
	 M458.5,213.5h-51.3v-5.2h51.3V213.5z M458.5,207.8h-51.3v-51.3h51.3V207.8z M458.5,155.9h-51.3v-5.2h51.3V155.9z M458.5,150.2
	h-51.3V145h51.3V150.2z M458.5,144.5h-51.3V93.2h51.3V144.5z M458.5,92.7h-51.3v-5.2h51.3V92.7z M458.5,86.9h-51.3v-5.2h51.3V86.9z
	 M458.5,81.2h-51.3V29.9h51.3V81.2z M458.5,29.4h-51.3v-5.2h51.3V29.4z M458.5,23.6h-51.3v-5.2h51.3V23.6z M464.2,472.4H459v-5.2
	h5.2V472.4z M464.2,466.6H459v-5.2h5.2V466.6z M464.2,460.9H459v-51.3h5.2V460.9z M464.2,409.1H459v-5.2h5.2V409.1z M464.2,403.4
	H459v-5.2h5.2V403.4z M464.2,397.6H459v-51.3h5.2V397.6z M464.2,345.8H459v-5.2h5.2V345.8z M464.2,340.1H459v-5.2h5.2V340.1z
	 M464.2,334.4H459V283h5.2V334.4z M464.2,282.5H459v-5.2h5.2V282.5z M464.2,276.8H459v-5.2h5.2V276.8z M464.2,271.1H459v-51.3h5.2
	V271.1z M464.2,219.2H459V214h5.2V219.2z M464.2,213.5H459v-5.2h5.2V213.5z M464.2,207.8H459v-51.3h5.2V207.8z M464.2,155.9H459
	v-5.2h5.2V155.9z M464.2,150.2H459V145h5.2V150.2z M464.2,144.5H459V93.2h5.2V144.5z M464.2,92.7H459v-5.2h5.2V92.7z M464.2,86.9
	H459v-5.2h5.2V86.9z M464.2,81.2H459V29.9h5.2V81.2z M464.2,29.4H459v-5.2h5.2V29.4z M464.2,23.6H459v-5.2h5.2V23.6z M469.9,472.4
	h-5.2v-5.2h5.2V472.4z M469.9,466.6h-5.2v-5.2h5.2V466.6z M469.9,460.9h-5.2v-51.3h5.2V460.9z M469.9,409.1h-5.2v-5.2h5.2V409.1z
	 M469.9,403.4h-5.2v-5.2h5.2V403.4z M469.9,397.6h-5.2v-51.3h5.2V397.6z M469.9,345.8h-5.2v-5.2h5.2V345.8z M469.9,340.1h-5.2v-5.2
	h5.2V340.1z M469.9,334.4h-5.2V283h5.2V334.4z M469.9,282.5h-5.2v-5.2h5.2V282.5z M469.9,276.8h-5.2v-5.2h5.2V276.8z M469.9,271.1
	h-5.2v-51.3h5.2V271.1z M469.9,219.2h-5.2V214h5.2V219.2z M469.9,213.5h-5.2v-5.2h5.2V213.5z M469.9,207.8h-5.2v-51.3h5.2V207.8z
	 M469.9,155.9h-5.2v-5.2h5.2V155.9z M469.9,150.2h-5.2V145h5.2V150.2z M469.9,144.5h-5.2V93.2h5.2V144.5z M469.9,92.7h-5.2v-5.2h5.2
	V92.7z M469.9,86.9h-5.2v-5.2h5.2V86.9z M469.9,81.2h-5.2V29.9h5.2V81.2z M469.9,29.4h-5.2v-5.2h5.2V29.4z M469.9,23.6h-5.2v-5.2
	h5.2V23.6z"/>
</svg>
