<?xml version="1.0" encoding="utf-8"?>
<!-- Generator: Adobe Illustrator 24.1.0, SVG Export Plug-In . SVG Version: 6.00 Build 0)  -->
<svg version="1.0" id="Layer_1" xmlns="http://www.w3.org/2000/svg" xmlns:xlink="http://www.w3.org/1999/xlink" x="0px" y="0px"
	 viewBox="0 0 500 500" enable-background="new 0 0 500 500" xml:space="preserve">
<path fill="none" d="M478.75,78.75C461.34,65.02,440,51.86,429.81,31.44c-34.25,0.57-68.49-0.03-102.7-1.76
	c-0.17,0.04-0.34,0.09-0.54,0.08c-1.18-0.07-2.44-0.14-3.73-0.23c-0.29,0.19-0.63,0.32-1.09,0.28c-5.45-0.51-10.78-0.1-15.99,1.69
	c-2.48,0.85-5.03,1.93-7.19,3.44c-2.19,1.3-3.57,3.25-4.14,5.84c0.72,4.9,5.89,6.46,7.78,0.71c-1.98,1.49-3.9-1.85-1.94-3.32
	c4.53-3.4,8.93,2.1,6.92,6.65c-2.27,5.12-9.25,5.75-13.3,2.5c-5.37-4.3-3.26-10.96,1.43-14.73c1.4-1.13,2.96-2.04,4.57-2.87
	c-15.87,1.38-44.2,2.6-48.79-7.35c-4.6,9.95-32.92,8.73-48.79,7.35c1.61,0.82,3.17,1.74,4.57,2.87c4.68,3.77,6.8,10.43,1.43,14.73
	c-4.05,3.24-11.03,2.62-13.3-2.5c-2.01-4.55,2.38-10.05,6.92-6.65c1.96,1.47,0.04,4.81-1.94,3.32c1.89,5.76,7.06,4.2,7.78-0.71
	c-0.57-2.59-1.95-4.53-4.14-5.84c-2.17-1.52-4.71-2.59-7.19-3.44c-5.21-1.79-10.54-2.2-15.99-1.69c-0.46,0.04-0.81-0.09-1.09-0.28
	c-1.29,0.09-2.55,0.17-3.73,0.23c-0.21,0.01-0.37-0.04-0.54-0.08c-34.21,1.74-68.45,2.33-102.7,1.76
	C62.2,51.86,40.86,65.02,23.45,78.75c1.26,56.98,0.3,113.97-2.9,170.87c3.2,56.9,4.16,113.89,2.9,170.87
	c17.41,13.73,38.75,26.89,48.93,47.31c34.25-0.57,68.49,0.03,102.7,1.76c0.17-0.04,0.34-0.09,0.54-0.08
	c1.18,0.07,2.44,0.14,3.73,0.23c0.29-0.19,0.63-0.32,1.09-0.28c5.45,0.51,10.78,0.1,15.99-1.69c2.48-0.85,5.03-1.93,7.19-3.44
	c2.19-1.3,3.57-3.25,4.14-5.84c-0.72-4.9-5.89-6.46-7.78-0.71c1.98-1.49,3.9,1.85,1.94,3.32c-4.53,3.4-8.93-2.1-6.92-6.65
	c2.27-5.12,9.25-5.75,13.3-2.5c5.37,4.3,3.26,10.96-1.43,14.73c-1.4,1.13-2.96,2.04-4.57,2.87c15.87-1.38,44.2-2.6,48.79,7.35
	c4.6-9.95,32.92-8.73,48.79-7.35c-1.61-0.82-3.17-1.74-4.57-2.87c-4.68-3.77-6.8-10.43-1.43-14.73c4.05-3.24,11.03-2.62,13.3,2.5
	c2.01,4.55-2.38,10.05-6.92,6.65c-1.96-1.47-0.04-4.81,1.94-3.32c-1.89-5.76-7.06-4.2-7.78,0.71c0.57,2.59,1.95,4.53,4.14,5.84
	c2.17,1.52,4.71,2.59,7.19,3.44c5.21,1.79,10.54,2.2,15.99,1.69c0.46-0.04,0.81,0.09,1.09,0.28c1.29-0.09,2.55-0.17,3.73-0.23
	c0.21-0.01,0.37,0.04,0.54,0.08c34.21-1.74,68.45-2.33,102.7-1.76c10.18-20.42,31.52-33.58,48.93-47.31
	c-1.26-56.98-0.3-113.97,2.9-170.87C478.45,192.72,477.49,135.73,478.75,78.75z"/>
<path d="M485.08,250.88c-3.22-57.24-4.18-114.57-2.88-171.89c0.02-0.94-0.51-1.51-1.19-1.74c-16.81-13.25-37.6-26.07-47.78-45.53
	c0.62-1.15,0.11-2.91-1.58-2.88c-36.25,0.65-72.5,0.02-108.71-1.91c-0.09-0.01-0.16,0.03-0.24,0.04c-4.12-0.29-8.58-0.87-12.02-2.74
	c-2.47-1.34-4.35-4.03-3.02-6.86c0.76-1.61,2.35-2.39,4.06-2.53c0.66-0.07,1.32-0.03,1.97,0.1c1.83-0.03,2.5,1.3,2.03,3.98
	c-2.44,0.38-1.4,4.09,1.02,3.71c5.26-0.82,5.34-7.3,1.54-10.04c-3.7-2.66-10.14-2.17-13.07,1.4c-3.14,3.82-1.99,9.44,1.72,12.38
	c-7.13,0.68-14.27,1.33-21.43,1.61c-4.3,0.16-8.6,0.22-12.9,0.05c-1.23-0.06-2.45-0.13-3.68-0.19c-4.03,0.63-9.77-2.02-9.14-5.89
	c0.27,0.16,4.67,1.28,5.06,1.27c6.2-0.12,7.15-6.68,3.57-10.96c-4.53-5.42-12.63-4.32-16.14,1.6c-0.71,1.2-1.24,2.32-1.61,3.37
	c-0.37-1.05-0.9-2.17-1.61-3.37c-3.51-5.92-11.61-7.02-16.14-1.6c-3.58,4.28-2.63,10.84,3.57,10.96c0.4,0.01,4.8-1.11,5.07-1.27
	c0.63,3.87-5.11,6.53-9.14,5.89c-1.23,0.06-2.45,0.13-3.68,0.19c-4.3,0.17-8.6,0.12-12.9-0.05c-7.16-0.27-14.29-0.93-21.43-1.61
	c3.71-2.95,4.87-8.56,1.72-12.38c-2.94-3.57-9.37-4.06-13.07-1.4c-3.81,2.73-3.72,9.22,1.54,10.04c2.42,0.38,3.47-3.33,1.02-3.71
	c-0.47-2.68,0.21-4,2.03-3.98c0.65-0.13,1.31-0.16,1.98-0.1c1.7,0.14,3.3,0.92,4.06,2.53c1.33,2.83-0.55,5.52-3.02,6.86
	c-3.45,1.87-7.9,2.45-12.02,2.74c-0.09-0.01-0.15-0.04-0.24-0.04c-36.21,1.93-72.45,2.56-108.71,1.91c-1.69-0.03-2.2,1.73-1.58,2.88
	C57.95,51.18,37.17,64,20.36,77.25c-0.68,0.23-1.21,0.81-1.19,1.74c1.3,57.32,0.33,114.65-2.89,171.89
	c3.22,57.24,4.18,114.57,2.89,171.89c-0.02,0.93,0.51,1.51,1.19,1.74c16.81,13.25,37.6,26.07,47.78,45.53
	c-0.62,1.15-0.11,2.91,1.58,2.88c36.25-0.65,72.5-0.02,108.71,1.91c0.09,0.01,0.16-0.03,0.24-0.04c4.12,0.29,8.58,0.87,12.02,2.74
	c2.47,1.34,4.35,4.03,3.02,6.86c-0.75,1.61-2.35,2.39-4.06,2.53c-0.66,0.07-1.32,0.03-1.98-0.1c-1.83,0.03-2.5-1.3-2.03-3.98
	c2.44-0.38,1.4-4.09-1.02-3.71c-5.26,0.82-5.34,7.3-1.54,10.04c3.7,2.66,10.14,2.17,13.07-1.4c3.14-3.82,1.99-9.44-1.72-12.38
	c7.13-0.68,14.27-1.33,21.43-1.61c4.3-0.16,8.6-0.22,12.9-0.05c1.23,0.06,2.45,0.13,3.68,0.19c4.03-0.63,9.77,2.02,9.14,5.89
	c-0.27-0.16-4.67-1.28-5.07-1.27c-6.2,0.12-7.15,6.68-3.57,10.96c4.53,5.42,12.63,4.32,16.14-1.6c0.71-1.2,1.24-2.32,1.61-3.37
	c0.37,1.05,0.9,2.17,1.61,3.37c3.51,5.92,11.61,7.02,16.14,1.6c3.58-4.28,2.63-10.84-3.57-10.96c-0.4-0.01-4.79,1.11-5.06,1.27
	c-0.63-3.87,5.11-6.53,9.14-5.89c1.23-0.06,2.45-0.13,3.68-0.19c4.3-0.17,8.6-0.12,12.9,0.05c7.16,0.27,14.29,0.93,21.43,1.61
	c-3.71,2.95-4.87,8.56-1.72,12.38c2.94,3.57,9.38,4.06,13.07,1.4c3.8-2.73,3.72-9.22-1.54-10.04c-2.42-0.38-3.47,3.33-1.02,3.71
	c0.47,2.68-0.21,4-2.03,3.98c-0.65,0.13-1.31,0.16-1.97,0.1c-1.7-0.14-3.3-0.92-4.06-2.53c-1.33-2.83,0.55-5.52,3.02-6.86
	c3.45-1.87,7.9-2.45,12.02-2.74c0.08,0.01,0.47-0.01,0.56-0.02c36.21-1.93,72.14-2.51,108.39-1.86c1.69,0.03,2.2-1.73,1.58-2.88
	c10.18-19.46,30.97-32.29,47.78-45.53c0.68-0.23,1.21-0.81,1.19-1.74C480.89,365.45,481.86,308.12,485.08,250.88z M257.33,14
	c3.92-3.41,8.42,0.55,8.19,2.54c-0.14,1.22-3.22,1.8-5.16,2.21C258.04,19.24,253.88,17,257.33,14z M240.05,18.76
	c-2.32,0.49-6.47-1.76-3.03-4.75c3.92-3.41,8.42,0.55,8.19,2.54C245.07,17.77,241.99,18.35,240.05,18.76z M244.28,487.02
	c-3.92,3.41-8.42-0.55-8.19-2.54c0.14-1.22,3.22-1.8,5.16-2.21C243.57,481.78,247.72,484.02,244.28,487.02z M261.56,482.26
	c2.32-0.49,6.47,1.76,3.03,4.75c-3.92,3.41-8.42-0.55-8.19-2.54C256.53,483.25,259.61,482.67,261.56,482.26z M321.3,470.84
	c-5.47,0.19-10.75-0.05-15.95-1.84c-2.48-0.85-5.03-1.93-7.19-3.44c-2.19-1.3-3.57-3.25-4.14-5.84c0.72-4.9,5.89-6.46,7.78-0.71
	c-1.98-1.49-3.9,1.85-1.94,3.32c4.53,3.4,8.93-2.1,6.92-6.65c-2.27-5.12-9.25-5.75-13.3-2.5c-5.37,4.3-3.26,10.96,1.43,14.73
	c1.4,1.13,2.96,2.04,4.57,2.87c-15.87-1.38-44.2-2.6-48.79,7.35c-4.6-9.95-32.92-8.73-48.79-7.35c1.61-0.82,3.17-1.74,4.57-2.87
	c4.68-3.77,6.8-10.43,1.43-14.73c-4.05-3.24-11.03-2.62-13.3,2.5c-2.01,4.55,2.38,10.05,6.92,6.65c1.96-1.47,0.04-4.81-1.94-3.32
	c1.89-5.76,7.06-4.2,7.78,0.71c-0.57,2.59-1.95,4.53-4.14,5.84c-2.17,1.52-4.71,2.59-7.19,3.44c-5.21,1.79-10.54,2.2-15.99,1.69
	c-0.46-0.04-0.81,0.09-1.09,0.28c-1.29-0.09-2.55-0.17-3.73-0.23c-0.21-0.01-0.37,0.04-0.54,0.08c-34.21-1.74-68.45-2.33-102.7-1.76
	c-10.18-20.42-31.52-33.58-48.93-47.31c1.26-56.98,0.3-113.97-2.9-170.87c3.2-56.9,4.16-113.89,2.9-170.87
	C40.44,66.28,61.78,53.12,71.96,32.7c34.25,0.57,68.49-0.03,102.7-1.76c0.17,0.04,0.34,0.09,0.54,0.08
	c1.18-0.07,2.44-0.14,3.73-0.23c0.29,0.19,0.63,0.32,1.09,0.28c5.45-0.51,10.78-0.1,15.99,1.69c2.48,0.85,5.03,1.93,7.19,3.44
	c2.19,1.3,3.57,3.25,4.14,5.84c-0.72,4.9-5.89,6.46-7.78,0.71c1.98,1.49,3.9-1.85,1.94-3.32c-4.53-3.4-8.93,2.1-6.92,6.65
	c2.27,5.12,9.25,5.75,13.3,2.5c5.37-4.3,3.26-10.96-1.43-14.73c-1.4-1.13-2.96-2.04-4.57-2.87c15.87,1.38,44.2,2.6,48.79-7.35
	c4.6,9.95,32.92,8.73,48.79,7.35c-1.61,0.82-3.17,1.74-4.57,2.87c-4.68,3.77-6.8,10.43-1.43,14.73c4.05,3.24,11.03,2.62,13.3-2.5
	c2.01-4.55-2.38-10.05-6.92-6.65c-1.96,1.47-0.04,4.81,1.94,3.32c-1.89,5.76-7.06,4.2-7.78-0.71c0.57-2.59,1.95-4.53,4.14-5.84
	c2.17-1.52,4.71-2.59,7.19-3.44c5.21-1.79,10.54-2.2,15.99-1.69c0.46,0.04,0.81-0.09,1.09-0.28c1.29,0.09,2.55,0.17,3.73,0.23
	c0.21,0.01,0.37-0.04,0.54-0.08c34.21,1.74,68.45,2.33,102.7,1.76c10.18,20.42,31.52,33.58,48.93,47.31
	c-1.26,56.98-0.3,113.97,2.9,170.87c-3.2,56.9-4.16,113.89-2.9,170.87c-17.41,13.73-38.75,26.89-48.93,47.31
	c-34.25-0.57-68.49,0.03-102.7,1.76C326.7,470.83,322.64,470.8,321.3,470.84z"/>
</svg>
