<?xml version="1.0" encoding="utf-8"?>
<!-- Generator: Adobe Illustrator 24.1.0, SVG Export Plug-In . SVG Version: 6.00 Build 0)  -->
<svg version="1.0" id="Layer_1" xmlns="http://www.w3.org/2000/svg" xmlns:xlink="http://www.w3.org/1999/xlink" x="0px" y="0px"
	 viewBox="0 0 500 500" enable-background="new 0 0 500 500" xml:space="preserve">
<path d="M239.38,476.62c-30.43,0-59.95-5.96-87.74-17.71c-26.84-11.35-50.95-27.61-71.65-48.31c-20.7-20.7-36.95-44.81-48.31-71.65
	c-11.75-27.79-17.71-57.31-17.71-87.74c0-30.43,5.96-59.95,17.71-87.74c11.35-26.84,27.61-50.95,48.31-71.65
	s44.81-36.95,71.65-48.31c27.79-11.75,57.31-17.71,87.74-17.71c30.43,0,59.95,5.96,87.74,17.71c26.84,11.35,50.95,27.61,71.65,48.31
	s36.95,44.81,48.31,71.65c11.75,27.79,17.71,57.31,17.71,87.74c0,30.43-5.96,59.95-17.71,87.74
	c-11.35,26.84-27.61,50.95-48.31,71.65c-20.7,20.7-44.81,36.95-71.65,48.31C299.33,470.66,269.81,476.62,239.38,476.62z
	 M239.38,27.24c-30.24,0-59.57,5.92-87.18,17.6c-26.67,11.28-50.62,27.43-71.19,48c-20.57,20.57-36.72,44.52-48,71.19
	c-11.68,27.61-17.6,56.94-17.6,87.18s5.92,59.57,17.6,87.18c11.28,26.67,27.43,50.62,48,71.19c20.57,20.57,44.52,36.72,71.19,48
	c27.61,11.68,56.94,17.6,87.18,17.6s59.57-5.92,87.18-17.6c26.67-11.28,50.62-27.43,71.19-48c20.57-20.57,36.72-44.52,48-71.19
	c11.68-27.61,17.6-56.94,17.6-87.18s-5.92-59.57-17.6-87.18c-11.28-26.67-27.43-50.62-48-71.19c-20.57-20.57-44.52-36.72-71.19-48
	C298.95,33.17,269.62,27.24,239.38,27.24z"/>
<path d="M263.71,476.62c-30.43,0-59.95-5.96-87.74-17.71c-26.84-11.35-50.95-27.61-71.65-48.31c-20.7-20.7-36.95-44.81-48.31-71.65
	c-11.75-27.79-17.71-57.31-17.71-87.74c0-30.43,5.96-59.95,17.71-87.74c11.35-26.84,27.61-50.95,48.31-71.65
	s44.81-36.95,71.65-48.31c27.79-11.75,57.31-17.71,87.74-17.71c30.43,0,59.95,5.96,87.74,17.71c26.84,11.35,50.95,27.61,71.65,48.31
	c20.7,20.7,36.95,44.81,48.31,71.65c11.75,27.79,17.71,57.31,17.71,87.74c0,30.43-5.96,59.95-17.71,87.74
	c-11.35,26.84-27.61,50.95-48.31,71.65c-20.7,20.7-44.81,36.95-71.65,48.31C323.66,470.66,294.14,476.62,263.71,476.62z
	 M263.71,27.24c-30.24,0-59.57,5.92-87.18,17.6c-26.67,11.28-50.62,27.43-71.19,48c-20.57,20.57-36.72,44.52-48,71.19
	c-11.68,27.61-17.6,56.94-17.6,87.18s5.92,59.57,17.6,87.18c11.28,26.67,27.43,50.62,48,71.19c20.57,20.57,44.52,36.72,71.19,48
	c27.61,11.68,56.94,17.6,87.18,17.6s59.57-5.92,87.18-17.6c26.67-11.28,50.62-27.43,71.19-48s36.72-44.52,48-71.19
	c11.68-27.61,17.6-56.94,17.6-87.18s-5.92-59.57-17.6-87.18c-11.28-26.67-27.43-50.62-48-71.19c-20.57-20.57-44.52-36.72-71.19-48
	C323.28,33.17,293.95,27.24,263.71,27.24z"/>
</svg>
