<?xml version="1.0" encoding="utf-8"?>
<!-- Generator: Adobe Illustrator 24.1.0, SVG Export Plug-In . SVG Version: 6.00 Build 0)  -->
<svg version="1.1" id="Layer_1" xmlns="http://www.w3.org/2000/svg" xmlns:xlink="http://www.w3.org/1999/xlink" x="0px" y="0px"
	 viewBox="0 0 500 500" style="enable-background:new 0 0 500 500;" xml:space="preserve">
<path d="M486.6,41.8c2.1,0,3.8-1.7,3.8-3.8V13.1c0-2.1-1.7-3.8-3.8-3.8h-24.9c-2.1,0-3.8,1.7-3.8,3.8c0,4.7-3.9,8.5-8.7,8.5
	c-4.8,0-8.7-3.8-8.7-8.5c0-2.1-1.7-3.8-3.8-3.8h-24.9c-2.1,0-3.8,1.7-3.8,3.8c0,4.7-3.9,8.5-8.7,8.5c-4.8,0-8.7-3.8-8.7-8.5
	c0-2.1-1.7-3.8-3.8-3.8h-24.9c-2.1,0-3.8,1.7-3.8,3.8c0,4.7-3.9,8.5-8.7,8.5c-4.8,0-8.7-3.8-8.7-8.5c0-2.1-1.7-3.8-3.9-3.8H312
	c-2.1,0-3.8,1.7-3.8,3.8c0,4.7-3.9,8.4-8.8,8.5l-0.7-0.1c-0.3,0-0.7,0-0.9-0.1c-0.5-0.1-1-0.2-1.6-0.5c-3.1-1.3-5.2-4.2-5.3-7.4
	v-0.5c0-2-1.8-3.8-3.9-3.8h-24.9c-2.1,0-3.8,1.7-3.8,3.8c0,4.7-3.9,8.5-8.6,8.5c-4.8,0-8.7-3.8-8.7-8.5c0-2-1.8-3.8-3.9-3.8h-24.9
	c-2.1,0-3.8,1.7-3.8,3.8l0,0.3c-0.1,3.3-2.3,6.3-5.4,7.6c-0.5,0.2-1,0.3-1.4,0.4c-0.2,0-0.5,0.1-1.1,0.1l-0.7,0.1
	c-4.7-0.1-8.6-3.9-8.6-8.5c0-2.1-1.7-3.8-3.8-3.8h-24.9c-2.1,0-3.8,1.7-3.8,3.8c0,4.7-3.9,8.5-8.6,8.5c-4.8,0-8.7-3.8-8.7-8.5
	c0-2.1-1.7-3.8-3.8-3.8h-24.9c-2.1,0-3.8,1.7-3.8,3.8c0,4.7-3.9,8.5-8.6,8.5c-4.8,0-8.7-3.8-8.7-8.5c0-2.1-1.7-3.8-3.9-3.8H62.6
	c-2.1,0-3.8,1.7-3.8,3.8l0,0.6c-0.3,4.4-4.1,7.9-8.6,7.9c-4.8,0-8.7-3.8-8.7-8.5c0-2.1-1.7-3.8-3.8-3.8H12.8C10.7,9.4,9,11,9,13.1
	v24.9c0,2.1,1.7,3.8,3.8,3.8c4.8,0,8.7,3.8,8.7,8.5s-3.9,8.5-8.7,8.5c-2.1,0-3.8,1.7-3.8,3.8v25.3c0,2.1,1.7,3.8,3.8,3.8
	c4.3,0,7.8,3,8.5,7.1c0,0.2,0,0.4,0,0.6c0.1,0.3,0.1,0.7,0.1,1.1c-0.2,4.6-4,8.2-8.7,8.2c-2.1,0-3.8,1.7-3.8,3.8v25.9
	c0,2.1,1.7,3.8,3.8,3.8c4.7,0,8.5,3.6,8.7,8.2c-0.2,4.6-4,8.2-8.7,8.2c-2.1,0-3.8,1.7-3.8,3.8v25.9c0,2.1,1.7,3.8,3.8,3.8
	c4.8,0,8.7,3.8,8.7,8.4c0,4.7-3.9,8.5-8.7,8.5c-2.3,0-3.8,2.1-3.8,4v25.1c0,2.1,1.7,3.8,3.8,3.8c4.8,0,8.7,3.8,8.7,8.5
	c0,4.7-3.9,8.5-8.7,8.5c-2.1,0-3.8,1.7-3.8,3.8v25.3c0,2.1,1.7,3.8,3.8,3.8c4.8,0,8.7,3.8,8.7,8.5c0,4.7-3.9,8.5-8.7,8.5
	c-2.1,0-3.8,1.7-3.8,3.8v25.3c0,2.1,1.7,3.8,3.8,3.8c4.8,0,8.7,3.8,8.7,8.5c0,4.7-3.9,8.5-8.7,8.5c-2.1,0-3.8,1.7-3.8,3.8v25.3
	c0,2.1,1.7,3.8,3.8,3.8c4.8,0,8.7,3.8,8.7,8.5c0,4.7-3.9,8.5-8.7,8.5c-2.1,0-3.8,1.7-3.8,3.8v25.3c0,2.1,1.7,3.8,3.8,3.8
	c4.8,0,8.7,3.8,8.7,8.5c0,4.7-3.9,8.5-8.7,8.5c-2.1,0-3.8,1.7-3.8,3.8v24.9c0,2.1,1.7,3.8,3.8,3.8h24.9c2.1,0,3.8-1.7,3.8-3.8
	c0-4.7,3.9-8.5,8.7-8.5c4.5,0,8.3,3.4,8.6,7.8v0.7c0,2.1,1.7,3.8,3.8,3.8h24.9c2.1,0,3.8-1.7,3.8-3.8c0-4.7,3.9-8.5,8.6-8.5
	c4.8,0,8.7,3.8,8.7,8.5c0,2.1,1.7,3.8,3.9,3.8h24.9c2.1,0,3.8-1.7,3.8-3.8c0-4.7,3.9-8.5,8.7-8.5c4.8,0,8.7,3.8,8.7,8.5
	c0,2.1,1.7,3.8,3.9,3.8h24.9c2.1,0,3.8-1.7,3.8-3.8c0-4.7,3.9-8.4,8.8-8.5l0.6,0.1c0,0,0.1,0,0.1,0c0.3,0,0.6,0,0.8,0.1
	c0.5,0.1,1,0.2,1.6,0.5c3.1,1.3,5.2,4.2,5.3,7.4v0.5c0,2,1.8,3.8,3.9,3.8h24.9c2.1,0,3.8-1.7,3.8-3.8c0-4.7,3.9-8.5,8.6-8.5
	c4.8,0,8.7,3.8,8.7,8.5c0,2.1,1.7,3.8,3.8,3.8h24.9c2.1,0,3.8-1.7,3.8-3.8c0-4,2.9-7.5,6.9-8.3c0.2,0,0.4,0,0.4,0
	c0.5-0.1,0.9-0.1,1.3-0.1c4.8,0,8.7,3.8,8.7,8.5c0,2.1,1.7,3.8,3.8,3.8H337c2.1,0,3.8-1.7,3.8-3.8c0-4.7,3.9-8.5,8.7-8.5
	c4.8,0,8.7,3.8,8.7,8.5c0,2.1,1.7,3.8,3.8,3.8h24.9c2.1,0,3.8-1.7,3.8-3.8c0-4.7,3.9-8.5,8.7-8.5c4.8,0,8.7,3.8,8.7,8.5
	c0,2.1,1.7,3.8,3.8,3.8h24.9c2.1,0,3.8-1.7,3.8-3.8c0-4.7,3.9-8.5,8.7-8.5c4.8,0,8.7,3.8,8.7,8.5c0,2.1,1.7,3.8,3.8,3.8h24.9
	c2.1,0,3.8-1.7,3.8-3.8v-24.9c0-2.1-1.7-3.8-3.8-3.8c-4.8,0-8.7-3.8-8.7-8.5c0-4.7,3.9-8.5,8.7-8.5c2.1,0,3.8-1.7,3.8-3.8v-25.3
	c0-2.1-1.7-3.8-3.8-3.8c-4.8,0-8.7-3.8-8.7-8.5c0-4.7,3.9-8.5,8.7-8.5c2.1,0,3.8-1.7,3.8-3.8v-25.3c0-2.1-1.7-3.8-3.8-3.8
	c-4.8,0-8.7-3.8-8.7-8.5c0-4.7,3.9-8.5,8.7-8.5c2.1,0,3.8-1.7,3.8-3.8v-25.3c0-2.1-1.7-3.8-3.8-3.8c-4.8,0-8.7-3.8-8.7-8.5
	c0-4.7,3.9-8.5,8.7-8.5c2.1,0,3.8-1.7,3.8-3.8v-25.3c0-2.1-1.7-3.8-3.8-3.8c-4.8,0-8.7-3.8-8.7-8.5c0-4.7,3.9-8.5,8.7-8.5
	c2.1,0,3.8-1.7,3.8-3.8v-25.3c0-2.1-1.7-3.8-3.8-3.8c-4.8,0-8.7-3.8-8.7-8.4c0-4.7,3.9-8.5,8.7-8.5c2.3,0,3.8-2.1,3.8-4v-25.7
	c0-2.1-1.7-3.8-3.8-3.8c-4.7,0-8.5-3.6-8.7-8.2c0.2-4.6,4-8.2,8.7-8.2c2.1,0,3.8-1.7,3.8-3.8v-25.9c0-2.1-1.7-3.8-3.8-3.8
	c-4.7,0-8.5-3.6-8.7-8.2c0-1.1,0.3-2.2,0.8-3.2c0.1-0.3,0.2-0.6,0.2-1c1.5-2.8,4.4-4.6,7.7-4.6c2.1,0,3.8-1.7,3.8-3.8V62.6
	c0-2.1-1.7-3.8-3.8-3.8c-4.8,0-8.7-3.8-8.7-8.5S481.8,41.8,486.6,41.8z M482.8,66v18.6c-7.2,1.7-12.5,8.1-12.5,15.6
	c0,0.1,0,0.2,0,0.3c0,0.1,0,0.2,0,0.3c0,7.5,5.2,13.9,12.5,15.6v18c-7.2,1.7-12.5,8.1-12.5,15.6c0,0.1,0,0.2,0,0.3
	c0,0.1,0,0.2,0,0.3c0,7.5,5.2,13.9,12.5,15.6v18c-3.9,0.9-7.3,3.3-9.6,6.6c-0.2,0.4-0.4,0.8-0.4,1.2c-1.6,2.5-2.4,5.4-2.5,8.4
	c0.1,7.4,5.3,13.8,12.5,15.5v18.6c-7.2,1.7-12.5,8.1-12.5,15.6c0,7.5,5.2,13.9,12.5,15.6v18.6c-7.2,1.7-12.5,8.1-12.5,15.6
	c0,7.5,5.2,13.9,12.5,15.6v18.6c-7.2,1.7-12.5,8.1-12.5,15.6c0,7.5,5.2,13.9,12.5,15.6v18.6c-7.2,1.7-12.5,8.1-12.5,15.6
	c0,7.5,5.2,13.9,12.5,15.6V434c-7.2,1.7-12.5,8.1-12.5,15.6c0,7.5,5.2,13.9,12.5,15.6v17.8h-17.9c-1.7-7.1-8.2-12.3-15.8-12.3
	c-7.6,0-14.1,5.2-15.8,12.3h-18.3c-1.7-7.1-8.2-12.3-15.8-12.3c-7.5,0-14,5.2-15.7,12.3h-18.4c-1.7-7.1-8.2-12.3-15.8-12.3
	c-7.5,0-14,5.2-15.7,12.3h-18.4c-1.7-7.1-8.2-12.3-15.8-12.3c-0.9,0-1.7,0.1-2.5,0.2c-0.2,0-0.6,0.1-0.7,0.1c-6.1,1.2-11,6-12.5,12
	h-18.4c-1.7-7.1-8.2-12.2-15.7-12.3c-7.5,0-14,5.2-15.7,12.3h-18.4c-1.2-5-4.8-9.1-9.8-11.2c-0.9-0.4-1.8-0.6-2.8-0.8
	c-0.7-0.1-1.3-0.2-1.9-0.2l-0.3,0c-0.3,0-0.6-0.1-1-0.1c-7.5,0-14,5.2-15.7,12.3h-18.4c-1.7-7.1-8.2-12.3-15.8-12.3
	c-7.5,0-14,5.2-15.7,12.3h-18.4c-1.7-7.1-8.2-12.3-15.8-12.3c-7.5,0-14,5.2-15.7,12.3H66c-1.7-7.1-8.2-12.3-15.7-12.3
	c-7.6,0-14.1,5.2-15.8,12.3H16.6v-17.8c7.2-1.7,12.5-8.1,12.5-15.6c0-7.5-5.2-13.9-12.5-15.6v-18.6c7.2-1.7,12.5-8.1,12.5-15.6
	c0-7.5-5.2-13.9-12.5-15.6v-18.6c7.2-1.7,12.5-8.1,12.5-15.6c0-7.5-5.2-13.9-12.5-15.6v-18.6c7.2-1.7,12.5-8.1,12.5-15.6
	c0-7.5-5.2-13.9-12.5-15.6v-18.6c7.2-1.7,12.5-8.1,12.5-15.6c0-7.5-5.2-13.9-12.5-15.6V216c7.2-1.7,12.4-8.1,12.5-15.6
	c0-1.8-0.4-3.7-1.1-5.5c0-0.3,0-0.7-0.1-1c-2-4.8-6.2-8.4-11.3-9.6v-18c7.2-1.7,12.5-8.1,12.5-15.6c0-0.1,0-0.2,0-0.3
	c0-0.1,0-0.2,0-0.3c0-7.5-5.2-13.9-12.5-15.6v-18c7.2-1.7,12.5-8.1,12.5-15.6c0-0.1,0-0.2,0-0.3c0-0.1,0-0.2,0-0.3
	c0-7.5-5.2-13.9-12.5-15.6V66C23.8,64.3,29,57.9,29,50.3s-5.2-13.9-12.5-15.6V16.9h17.9c1.7,7.1,8.2,12.3,15.8,12.3
	c7.5,0,14-5.2,15.7-12.3h18.4c1.7,7.1,8.2,12.3,15.8,12.3c7.5,0,14-5.2,15.7-12.3h18.4c1.7,7.1,8.2,12.3,15.8,12.3
	c7.5,0,14-5.2,15.7-12.3h18.4c1.7,7.1,8.2,12.3,15.7,12.3c0.3,0,0.6,0,0.9-0.1l0.3,0c0.6,0,1.3-0.1,2-0.2c0.9-0.2,1.8-0.4,3-0.9
	c4.8-2,8.3-6.1,9.6-11.1H234c1.7,7.1,8.2,12.2,15.7,12.3c7.5,0,14-5.2,15.7-12.3h18.4c1.2,5,4.8,9.2,9.8,11.2
	c0.9,0.4,1.9,0.6,2.8,0.8c0.7,0.1,1.4,0.2,1.9,0.2l0.3,0c0.3,0,0.6,0.1,1,0.1c7.5,0,14-5.2,15.7-12.3h18.4
	c1.7,7.1,8.2,12.3,15.8,12.3c7.5,0,14-5.2,15.7-12.3h18.4c1.7,7.1,8.2,12.3,15.8,12.3c7.5,0,14-5.2,15.7-12.3h18.3
	c1.7,7.1,8.2,12.3,15.8,12.3c7.6,0,14.1-5.2,15.8-12.3h17.9v17.8c-7.2,1.7-12.5,8.1-12.5,15.6S475.6,64.3,482.8,66z"/>
</svg>
