<?xml version="1.0" encoding="utf-8"?>
<!-- Generator: Adobe Illustrator 24.1.0, SVG Export Plug-In . SVG Version: 6.00 Build 0)  -->
<svg version="1.0" id="Layer_1" xmlns="http://www.w3.org/2000/svg" xmlns:xlink="http://www.w3.org/1999/xlink" x="0px" y="0px"
	 viewBox="0 0 500 500" enable-background="new 0 0 500 500" xml:space="preserve">
<g>
	<path d="M488.18,209.89c0.53-0.52,1.05-1.04,1.86-1.83c-0.71-0.62-1.16-1.01-1.61-1.4c-0.5,0.59-1.23,1.11-1.42,1.79
		C486.91,208.79,487.76,209.4,488.18,209.89z"/>
	<path d="M487.54,314.79c1.42-0.49,1.92-1.64,1.8-2.84c-0.06-0.6-0.92-1.28-1.58-1.59c-0.3-0.14-1.21,0.42-1.46,0.88
		C485.46,312.7,486.03,313.87,487.54,314.79z"/>
	<path d="M489.36,169.2c2.26-2.26,2.25-3.02,0.02-3.64C487.7,167.59,487.7,167.86,489.36,169.2z"/>
	<path d="M489.3,292.35c-0.64-0.58-1.21-1.54-1.94-1.67c-1.41-0.25-1.67,1.2-2.04,2.15c-0.08,0.2,0.9,0.81,1.75,1.53
		C487.97,293.56,488.63,292.95,489.3,292.35z"/>
	<path d="M486.74,230.44c0,0.47,1.01,1.39,1.16,1.32c0.79-0.38,1.45-1.03,2.54-1.88c-0.96-0.8-1.49-1.62-2.08-1.66
		C486.91,228.12,486.73,229.43,486.74,230.44z"/>
	<path d="M487.03,275.19c1.03-1.24,1.28-2.96,0.4-3.65c-0.32-0.25-1.3-0.27-1.37-0.12c-0.36,0.79-0.74,1.68-0.66,2.49
		C485.44,274.35,486.38,274.71,487.03,275.19z"/>
	<path d="M487.56,253.5c0.67-0.13,1.18-1.03,2.08-1.9c-0.9-0.83-1.42-1.31-1.94-1.79c-0.59,0.72-1.45,1.37-1.69,2.19
		C485.73,252.98,486.76,253.66,487.56,253.5z"/>
	<path d="M487.68,187.8c1.36,0.2,2.62,0.32,2.57-1.33c-0.01-0.45-1.02-1.29-1.49-1.23C487.24,185.42,487.63,186.66,487.68,187.8z"/>
	<path d="M488.18,439.61c-0.42,0.49-1.27,1.1-1.17,1.44c0.19,0.67,0.92,1.2,1.42,1.79c0.45-0.39,0.9-0.78,1.61-1.4
		C489.23,440.65,488.71,440.13,488.18,439.61z"/>
	<path d="M487.54,334.71c-1.5,0.92-2.08,2.09-1.24,3.55c0.26,0.45,1.16,1.02,1.46,0.88c0.66-0.3,1.52-0.99,1.58-1.59
		C489.46,336.35,488.95,335.2,487.54,334.71z"/>
	<path d="M489.39,483.93c2.22-0.61,2.24-1.38-0.02-3.64C487.7,481.64,487.7,481.9,489.39,483.93z"/>
	<path d="M487.37,358.82c0.72-0.13,1.3-1.08,1.94-1.67c-0.67-0.6-1.34-1.21-2.23-2.02c-0.85,0.72-1.83,1.34-1.75,1.53
		C485.7,357.61,485.95,359.07,487.37,358.82z"/>
	<path d="M486.74,419.06c-0.01,1.01,0.17,2.32,1.62,2.22c0.59-0.04,1.12-0.86,2.08-1.66c-1.09-0.85-1.75-1.5-2.54-1.88
		C487.75,417.66,486.75,418.59,486.74,419.06z"/>
	<path d="M485.4,375.59c-0.08,0.81,0.31,1.71,0.66,2.49c0.07,0.15,1.05,0.12,1.37-0.12c0.88-0.69,0.62-2.41-0.4-3.65
		C486.38,374.79,485.44,375.15,485.4,375.59z"/>
	<path d="M487.71,399.69c0.52-0.48,1.04-0.96,1.94-1.79c-0.91-0.88-1.42-1.77-2.08-1.9c-0.8-0.16-1.83,0.53-1.54,1.5
		C486.26,398.32,487.12,398.96,487.71,399.69z"/>
	<path d="M490.25,463.03c0.05-1.65-1.21-1.53-2.57-1.33c-0.05,1.14-0.44,2.38,1.08,2.56C489.23,464.31,490.24,463.48,490.25,463.03z
		"/>
	<path d="M488.18,92.16c-0.42,0.49-1.27,1.1-1.17,1.44c0.19,0.67,0.92,1.2,1.42,1.79c0.45-0.39,0.9-0.78,1.61-1.4
		C489.23,93.19,488.71,92.68,488.18,92.16z"/>
	<path d="M489.39,136.48c2.22-0.61,2.24-1.38-0.02-3.64C487.7,134.19,487.7,134.45,489.39,136.48z"/>
	<path d="M487.37,11.36c0.72-0.13,1.3-1.08,1.94-1.67c-0.67-0.6-1.34-1.21-2.23-2.02c-0.85,0.72-1.83,1.34-1.75,1.53
		C485.7,10.16,485.95,11.61,487.37,11.36z"/>
	<path d="M486.74,71.6c-0.01,1.01,0.17,2.32,1.62,2.22c0.59-0.04,1.12-0.86,2.08-1.66c-1.09-0.85-1.75-1.5-2.54-1.88
		C487.75,70.21,486.75,71.13,486.74,71.6z"/>
	<path d="M485.4,28.14c-0.08,0.81,0.31,1.71,0.66,2.49c0.07,0.15,1.05,0.12,1.37-0.12c0.88-0.69,0.62-2.41-0.4-3.65
		C486.38,27.34,485.44,27.7,485.4,28.14z"/>
	<path d="M487.71,52.23c0.52-0.48,1.04-0.96,1.94-1.79c-0.91-0.88-1.42-1.77-2.08-1.9c-0.8-0.16-1.83,0.53-1.54,1.5
		C486.26,50.87,487.12,51.51,487.71,52.23z"/>
	<path d="M490.25,115.57c0.05-1.65-1.21-1.53-2.57-1.33c-0.05,1.14-0.44,2.38,1.08,2.56C489.23,116.86,490.24,116.02,490.25,115.57z
		"/>
	<path d="M493.98-22.75L493.98-22.75h-0.16c0-0.01,0,0.01,0,0c-0.2,0.01-0.38-0.01-0.56,0h-0.94l0,0c-0.56,0.05-1.03,0.18-1.47,0.06
		c-6.7-1.79-12.3,0.74-14.44,7.66c-0.22,0.72-0.64,1.44-0.66,2.17c-0.12,4.52,2.23,7.68,5.87,10.05c1.16,0.75,2.43,1.34,3.49,1.93
		c-2.08,1.16-4.4,1.97-6.09,3.48c-4.03,3.61-3.61,7.04-1.9,11.67c0.14,0.38,0.58,0.71,0.95,0.93c1.83,1.08,3.68,2.11,5.61,3.2
		c-0.77,0.5-1.53,0.85-2.11,1.39c-2.82,2.59-4.36,5.89-4.99,9.59c-0.62,3.66,1.68,7.77,4.22,8.74c1.46,0.56,2.98,0.98,4.55,1.49
		c-3.07,2.05-5.97,4.16-7.78,7.6c-1.81,3.44-0.89,8.62,2.5,10.65c1.49,0.89,3.03,1.68,4.37,2.42c-1.88,1.74-3.89,3.42-5.7,5.29
		c-2.18,2.25-2.62,8.05-0.74,10.5c1.37,1.78,3.08,3.31,4.62,4.97c0.33,0.36,0.58,0.8,0.78,1.1c-3.71,3.38-6.97,7.1-6.42,12.14
		c0.56,5.09,4.09,8.43,8.92,10.21c-3.45,3-6.81,6.04-6.93,11.12c-0.12,5.27,2.89,8.35,7.8,10.17c-3.15,3.26-6.02,5.92-6.72,10.06
		c-0.51,3.04-0.92,5.94,0.67,8.84c1.72,3.13,4.91,4.15,7.74,5.71c0.56,0.31,1.13,0.51,1.7,0.62c-0.57,0.12-1.13,0.31-1.7,0.62
		c-2.83,1.56-6.02,2.58-7.74,5.71c-1.59,2.9-1.19,5.81-0.67,8.84c0.7,4.14,3.57,6.79,6.72,10.06c-4.91,1.82-7.92,4.9-7.8,10.17
		c0.11,5.08,3.48,8.13,6.93,11.12c-4.82,1.78-8.36,5.13-8.92,10.21c-0.55,5.04,2.71,8.76,6.42,12.14c-0.21,0.29-0.45,0.73-0.78,1.1
		c-1.54,1.66-3.25,3.18-4.62,4.97c-1.88,2.45-1.43,8.25,0.74,10.5c1.81,1.87,3.82,3.56,5.7,5.29c-1.34,0.74-2.89,1.53-4.37,2.42
		c-3.38,2.03-4.31,7.21-2.5,10.65c1.81,3.44,4.71,5.55,7.78,7.6c-1.57,0.51-3.09,0.93-4.55,1.49c-2.54,0.97-4.84,5.08-4.22,8.74
		c0.62,3.7,2.16,6.99,4.99,9.59c0.59,0.54,1.34,0.89,2.11,1.39c-1.93,1.1-3.79,2.13-5.61,3.2c-0.38,0.22-0.81,0.55-0.95,0.93
		c-1.71,4.64-2.13,8.06,1.9,11.67c1.68,1.51,4,2.32,6.09,3.48c-1.07,0.58-2.33,1.17-3.49,1.93c-3.64,2.37-6,5.54-5.87,10.05
		c0.02,0.73,0.43,1.45,0.66,2.17c1.26,4.08,3.72,6.63,6.9,7.67c-3.18,1.04-5.64,3.6-6.9,7.67c-0.22,0.72-0.64,1.44-0.66,2.17
		c-0.12,4.52,2.23,7.68,5.87,10.05c1.16,0.75,2.43,1.34,3.49,1.93c-2.08,1.16-4.4,1.97-6.09,3.48c-4.03,3.61-3.61,7.04-1.9,11.67
		c0.14,0.38,0.58,0.71,0.95,0.93c1.83,1.08,3.68,2.11,5.61,3.2c-0.77,0.5-1.53,0.85-2.11,1.39c-2.82,2.59-4.36,5.89-4.99,9.59
		c-0.62,3.66,1.68,7.77,4.22,8.74c1.46,0.56,2.98,0.98,4.55,1.49c-3.07,2.05-5.97,4.16-7.78,7.6c-1.81,3.44-0.89,8.62,2.5,10.65
		c1.49,0.89,3.03,1.68,4.37,2.42c-1.88,1.74-3.89,3.42-5.7,5.29c-2.18,2.25-2.62,8.05-0.74,10.5c1.37,1.78,3.08,3.31,4.62,4.97
		c0.33,0.36,0.58,0.8,0.78,1.1c-3.71,3.38-6.97,7.1-6.42,12.14c0.56,5.09,4.09,8.43,8.92,10.21c-3.45,3-6.81,6.04-6.93,11.12
		c-0.12,5.27,2.89,8.35,7.8,10.17c-3.15,3.26-6.02,5.92-6.72,10.06c-0.51,3.04-0.92,5.94,0.67,8.84c1.72,3.13,4.91,4.15,7.74,5.71
		c1.81,1,3.66,1.57,5.51,1.2l0,0h18.48V-22.75H493.98z M477.69-13.92c1.83-5.73,7.05-9.22,11.39-7.55c-1.7,1.49-3.4,2.89-5.01,4.4
		c-2.18,2.05-3.6,4.48-3.7,7.59c-0.07,2.03,0.67,3.61,2.35,5.03C479.75-5.49,476.56-10.36,477.69-13.92z M484.03-5.14
		c-3.45-3.34-2.18-6.84,0.37-9.98c1.7-2.09,4.26-3.5,6.44-5.22c0.17,0.16,0.35,0.32,0.52,0.48c0.17,5.86,0.34,11.72,0.52,17.72
		C488.91-2.59,486.26-2.98,484.03-5.14z M477.71,8.81c0.14-3.39,3.52-6.51,7.09-6.92c-3.34,3.74-5.56,7.72-3.81,12.8
		C478.45,14.35,477.59,11.8,477.71,8.81z M481.85,11.14c0.3-1.73,1.15-3.4,1.97-4.99c1.6-3.07,4.25-4.99,8.01-6.35
		c-0.29,6-0.57,11.72-0.86,17.81c-1.96-0.51-3.54-0.81-5.03-1.33C483.63,15.46,481.52,13.04,481.85,11.14z M491.53,80.29
		c0,0.45-0.46,1.27-0.7,1.27c-0.66-0.01-1.7,0.65-1.97-0.67c-0.04-0.22-0.44-0.57-0.57-0.53c-2.15,0.67-2.48-1.23-3.07-2.35
		c-0.81-1.52-1.4-3.22-1.75-4.92c-0.52-2.49,0.23-4.72,2.03-6.61c1.48-1.55,2.88-3.17,4.34-4.74c0.15-0.16,0.4-0.23,0.62-0.31
		c0.1-0.03,0.23,0.03,0.53,0.08c0.12,4.07,0.23,8.17,0.36,12.28C491.4,75.96,491.53,78.12,491.53,80.29z M478.59,28.7
		c0.97-3.86,2.68-6.94,6.27-8.86c0.24-0.13,0.51-0.21,1.17-0.46c-1.21,1.52-2.08,2.77-3.12,3.89c-2.21,2.38-2.79,5.28-2.55,8.29
		c0.19,2.32,2.02,3.84,3.65,5.34c0.19,0.17,0.43,0.29,0.81,0.53C480.19,37.42,477.76,32.02,478.59,28.7z M482.08,31.68
		c-0.22-1.7,0.05-3.67,0.76-5.23c1.23-2.71,3.39-4.83,5.82-6.6c0.49-0.36,1.14-0.49,2.11-0.9c0.07,2.5,0.16,4.56,0.19,6.63
		c0.03,3.21-0.04,6.43,0.06,9.64c0.04,1.39-0.78,1.76-1.82,1.81C486.53,37.15,482.42,34.26,482.08,31.68z M478.98,53.67
		c-0.54-1.75-1.1-3.48-0.06-5.19c1-1.64,2.14-3.19,3.21-4.79c0.06,0.08,0.11,0.16,0.17,0.24c-0.41,2.41-1.32,4.87-1.09,7.21
		c0.23,2.36,1.59,4.61,2.37,6.7C481.9,57.65,479.58,55.63,478.98,53.67z M483.02,52.39c-1.4-4.92,2.24-10.63,7.75-12.22
		c0.18,6.28,0.36,12.37,0.54,18.47C488.15,59.23,484.07,56.09,483.02,52.39z M479.09,68.27c0.48-1.24,1.53-2.37,2.57-3.27
		c1.78-1.55,3.76-2.87,5.66-4.29c0.06,0.07,0.12,0.14,0.18,0.21c-1.79,2.36-3.96,4.53-5.28,7.13c-1.79,3.51-0.28,7.03,1.2,10.37
		c0.13,0.3,0.31,0.58,0.53,1C480.21,77.9,477.62,72.04,479.09,68.27z M485.31,102.63c-1.07-0.82-2.29-1.5-3.19-2.48
		c-3.77-4.08-5.01-7.38-0.95-12.87c0.92-1.24,1.97-2.38,3.07-3.47c0.83-0.82,1.84-1.25,2.81-0.63c-1.61,2.84-3.38,5.52-4.71,8.4
		c-1.01,2.18-0.79,4.54,0.68,6.63c0.92,1.31,1.81,2.64,2.72,3.96C485.59,102.34,485.45,102.49,485.31,102.63z M484.42,97.07
		c-0.73-1.14-1-3.12-0.51-4.33c1.26-3.12,2.32-6.52,5.43-8.53c0.65-0.42,1.36-0.74,2.39-1.3c0.15,5.25,0.28,10.02,0.44,14.78
		c0.05,1.44,0.23,2.88,0.25,4.33c0.01,0.56-0.2,1.58-0.42,1.61c-0.75,0.1-1.85,0.14-2.28-0.3
		C487.82,101.36,485.88,99.35,484.42,97.07z M480.85,116.37c-0.22-4,3.18-9.01,7.24-10.38c-6.44,7.82-7.4,9.71-1.92,17.22
		C483.35,122.65,481.03,119.67,480.85,116.37z M484.48,115.51c-0.01-3.32,4.74-9.04,7.65-9.26c0.18,6.31,0.37,12.6,0.55,18.92
		C488.24,124.99,484.49,118.31,484.48,115.51z M481.72,141.3c-0.23-4.06,0.12-8.23,3.4-11.36c1.23-1.17,2.58-2.22,3.87-3.32
		c0.12,0.12,0.23,0.24,0.35,0.36c-2.64,2.9-6.31,5.06-6.48,9.62c-0.16,4.25,2.34,7.36,4.32,10.99
		C484.31,146.15,481.89,144.31,481.72,141.3z M484.76,138.29c-0.49-4.45,3.22-8.9,7.63-10.74c0.2,6.83,0.4,13.57,0.59,20.38
		C489.31,147.23,485.17,142.06,484.76,138.29z M492.98,154.11c-0.2,6.81-0.4,13.56-0.59,20.38c-4.41-1.85-8.12-6.29-7.63-10.74
		C485.17,159.98,489.31,154.81,492.98,154.11z M485.11,172.11c-3.28-3.14-3.63-7.3-3.4-11.36c0.17-3.01,2.6-4.85,5.45-6.29
		c-1.98,3.63-4.48,6.74-4.32,10.99c0.17,4.57,3.85,6.72,6.48,9.62c-0.12,0.12-0.23,0.24-0.35,0.36
		C487.69,174.32,486.34,173.28,485.11,172.11z M492.69,176.87c-0.18,6.31-0.37,12.61-0.55,18.92c-2.91-0.22-7.66-5.94-7.65-9.26
		C484.49,183.73,488.24,177.06,492.69,176.87z M480.85,185.67c0.18-3.29,2.5-6.28,5.32-6.84c-5.48,7.51-4.52,9.4,1.92,17.22
		C484.03,194.68,480.63,189.67,480.85,185.67z M489.72,198.72c0.43-0.44,1.53-0.4,2.28-0.3c0.22,0.03,0.43,1.05,0.42,1.61
		c-0.02,1.44-0.2,2.88-0.25,4.33c-0.16,4.77-0.29,9.53-0.44,14.78c-1.04-0.56-1.75-0.88-2.39-1.3c-3.11-2.02-4.17-5.41-5.43-8.53
		c-0.49-1.22-0.21-3.2,0.51-4.33C485.88,202.69,487.82,200.69,489.72,198.72z M491.53,221.76c0,2.16-0.13,4.33-0.19,6.49
		c-0.13,4.1-0.24,8.21-0.36,12.28c-0.3,0.05-0.43,0.12-0.53,0.08c-0.22-0.07-0.47-0.15-0.62-0.31c-1.45-1.57-2.86-3.19-4.34-4.74
		c-1.8-1.88-2.54-4.12-2.03-6.61c0.35-1.69,0.94-3.39,1.75-4.92c0.59-1.12,0.92-3.01,3.07-2.35c0.13,0.04,0.53-0.32,0.57-0.53
		c0.27-1.33,1.3-0.67,1.97-0.67C491.07,220.48,491.53,221.31,491.53,221.76z M481.17,214.75c-4.06-5.48-2.82-8.79,0.95-12.87
		c0.9-0.97,2.12-1.66,3.19-2.48c0.14,0.15,0.28,0.3,0.42,0.45c-0.91,1.32-1.8,2.65-2.72,3.96c-1.47,2.09-1.68,4.45-0.68,6.63
		c1.33,2.88,3.09,5.57,4.71,8.4c-0.97,0.62-1.99,0.19-2.81-0.63C483.14,217.13,482.08,215.99,481.17,214.75z M481.66,237.04
		c-1.04-0.9-2.09-2.03-2.57-3.27c-1.46-3.77,1.13-9.63,4.87-11.14c-0.22,0.42-0.4,0.7-0.53,1c-1.48,3.34-2.98,6.86-1.2,10.37
		c1.32,2.59,3.49,4.77,5.28,7.13c-0.06,0.07-0.12,0.14-0.18,0.21C485.42,239.91,483.44,238.59,481.66,237.04z M482.14,258.35
		c-1.08-1.59-2.21-3.15-3.21-4.79c-1.05-1.71-0.48-3.44,0.06-5.19c0.6-1.96,2.92-3.98,4.61-4.18c-0.79,2.09-2.14,4.34-2.37,6.7
		c-0.23,2.35,0.68,4.81,1.09,7.21C482.25,258.19,482.19,258.27,482.14,258.35z M483.02,249.65c1.05-3.7,5.12-6.84,8.29-6.24
		c-0.18,6.09-0.36,12.19-0.54,18.47C485.26,260.28,481.63,254.58,483.02,249.65z M489.19,265.02c1.04,0.05,1.86,0.42,1.82,1.81
		c-0.1,3.21-0.02,6.42-0.06,9.64c-0.02,2.06-0.11,4.13-0.19,6.63c-0.97-0.4-1.62-0.54-2.11-0.9c-2.43-1.77-4.59-3.89-5.82-6.6
		c-0.71-1.56-0.98-3.53-0.76-5.23C482.42,267.78,486.53,264.89,489.19,265.02z M478.59,273.34c-0.83-3.31,1.59-8.71,6.24-8.74
		c-0.37,0.24-0.62,0.36-0.81,0.53c-1.64,1.51-3.46,3.02-3.65,5.34c-0.24,3.02,0.34,5.92,2.55,8.29c1.03,1.11,1.91,2.37,3.12,3.89
		c-0.66-0.26-0.93-0.33-1.17-0.46C481.28,280.28,479.56,277.2,478.59,273.34z M477.71,293.23c-0.13-2.99,0.74-5.54,3.28-5.89
		c-1.75,5.08,0.47,9.06,3.81,12.8C481.23,299.75,477.85,296.62,477.71,293.23z M483.82,295.89c-0.83-1.59-1.67-3.26-1.97-4.99
		c-0.33-1.9,1.77-4.33,4.09-5.14c1.49-0.52,3.07-0.82,5.03-1.33c0.3,6.09,0.57,11.81,0.86,17.81
		C488.07,300.88,485.42,298.97,483.82,295.89z M491.88,304.2c-0.17,5.99-0.35,11.85-0.52,17.72c-0.17,0.16-0.35,0.32-0.52,0.48
		c-2.18-1.72-4.74-3.13-6.44-5.22c-2.55-3.14-3.82-6.65-0.37-9.98C486.26,305.03,488.91,304.63,491.88,304.2z M477.69,315.96
		c-1.14-3.56,2.06-8.42,5.02-9.47c-1.68,1.42-2.41,3-2.35,5.03c0.1,3.11,1.52,5.53,3.7,7.59c1.6,1.51,3.3,2.91,5.01,4.4
		C484.74,325.18,479.52,321.69,477.69,315.96z M477.69,333.54c1.83-5.73,7.05-9.22,11.39-7.55c-1.7,1.49-3.4,2.89-5.01,4.4
		c-2.18,2.05-3.6,4.48-3.7,7.59c-0.07,2.03,0.67,3.61,2.35,5.03C479.75,341.96,476.56,337.1,477.69,333.54z M484.03,342.31
		c-3.45-3.34-2.18-6.84,0.37-9.98c1.7-2.09,4.26-3.5,6.44-5.22c0.17,0.16,0.35,0.32,0.52,0.48c0.17,5.86,0.34,11.72,0.52,17.72
		C488.91,344.87,486.26,344.47,484.03,342.31z M477.71,356.27c0.14-3.39,3.52-6.51,7.09-6.92c-3.34,3.74-5.56,7.72-3.81,12.8
		C478.45,361.81,477.59,359.25,477.71,356.27z M481.85,358.59c0.3-1.73,1.15-3.4,1.97-4.99c1.6-3.07,4.25-4.99,8.01-6.35
		c-0.29,6-0.57,11.72-0.86,17.81c-1.96-0.51-3.54-0.81-5.03-1.33C483.63,362.92,481.52,360.49,481.85,358.59z M491.53,427.74
		c0,0.45-0.46,1.27-0.7,1.27c-0.66-0.01-1.7,0.65-1.97-0.67c-0.04-0.22-0.44-0.57-0.57-0.53c-2.15,0.67-2.48-1.23-3.07-2.35
		c-0.81-1.52-1.4-3.22-1.75-4.92c-0.52-2.49,0.23-4.72,2.03-6.61c1.48-1.55,2.88-3.17,4.34-4.74c0.15-0.16,0.4-0.23,0.62-0.31
		c0.1-0.03,0.23,0.03,0.53,0.08c0.12,4.07,0.23,8.17,0.36,12.28C491.4,423.41,491.53,425.58,491.53,427.74z M478.59,376.16
		c0.97-3.86,2.68-6.94,6.27-8.86c0.24-0.13,0.51-0.21,1.17-0.46c-1.21,1.52-2.08,2.77-3.12,3.89c-2.21,2.38-2.79,5.28-2.55,8.29
		c0.19,2.32,2.02,3.84,3.65,5.34c0.19,0.17,0.43,0.29,0.81,0.53C480.19,384.87,477.76,379.47,478.59,376.16z M482.08,379.13
		c-0.22-1.7,0.05-3.67,0.76-5.23c1.23-2.71,3.39-4.83,5.82-6.6c0.49-0.36,1.14-0.49,2.11-0.9c0.07,2.5,0.16,4.56,0.19,6.63
		c0.03,3.21-0.04,6.43,0.06,9.64c0.04,1.39-0.78,1.76-1.82,1.81C486.53,384.61,482.42,381.72,482.08,379.13z M478.98,401.12
		c-0.54-1.75-1.1-3.48-0.06-5.19c1-1.64,2.14-3.19,3.21-4.79c0.06,0.08,0.11,0.16,0.17,0.24c-0.41,2.41-1.32,4.87-1.09,7.21
		c0.23,2.36,1.59,4.61,2.37,6.7C481.9,405.11,479.58,403.08,478.98,401.12z M483.02,399.84c-1.4-4.92,2.24-10.63,7.75-12.22
		c0.18,6.28,0.36,12.37,0.54,18.47C488.15,406.69,484.07,403.54,483.02,399.84z M479.09,415.73c0.48-1.24,1.53-2.37,2.57-3.27
		c1.78-1.55,3.76-2.87,5.66-4.29c0.06,0.07,0.12,0.14,0.18,0.21c-1.79,2.36-3.96,4.53-5.28,7.13c-1.79,3.51-0.28,7.03,1.2,10.37
		c0.13,0.3,0.31,0.58,0.53,1C480.21,425.36,477.62,419.49,479.09,415.73z M485.31,450.09c-1.07-0.82-2.29-1.5-3.19-2.48
		c-3.77-4.08-5.01-7.38-0.95-12.87c0.92-1.24,1.97-2.38,3.07-3.47c0.83-0.82,1.84-1.25,2.81-0.63c-1.61,2.84-3.38,5.52-4.71,8.4
		c-1.01,2.18-0.79,4.54,0.68,6.63c0.92,1.31,1.81,2.64,2.72,3.96C485.59,449.79,485.45,449.94,485.31,450.09z M484.42,444.52
		c-0.73-1.14-1-3.12-0.51-4.33c1.26-3.12,2.32-6.52,5.43-8.53c0.65-0.42,1.36-0.74,2.39-1.3c0.15,5.25,0.28,10.02,0.44,14.78
		c0.05,1.44,0.23,2.88,0.25,4.33c0.01,0.56-0.2,1.58-0.42,1.61c-0.75,0.1-1.85,0.14-2.28-0.3
		C487.82,448.81,485.88,446.81,484.42,444.52z M480.85,463.83c-0.22-4,3.18-9.01,7.24-10.38c-6.44,7.82-7.4,9.71-1.92,17.22
		C483.35,470.11,481.03,467.12,480.85,463.83z M484.48,462.97c-0.01-3.32,4.74-9.04,7.65-9.26c0.18,6.31,0.37,12.6,0.55,18.92
		C488.24,472.44,484.49,465.77,484.48,462.97z M481.72,488.75c-0.23-4.06,0.12-8.23,3.4-11.36c1.23-1.17,2.58-2.22,3.87-3.32
		c0.12,0.12,0.23,0.24,0.35,0.36c-2.64,2.9-6.31,5.06-6.48,9.62c-0.16,4.25,2.34,7.36,4.32,10.99
		C484.31,493.6,481.89,491.76,481.72,488.75z M484.76,485.74c-0.49-4.45,3.22-8.9,7.63-10.74c0.2,6.83,0.4,13.57,0.59,20.38
		C489.31,494.69,485.17,489.51,484.76,485.74z M493.98,326.16c-0.05-0.47-0.11-0.94-0.16-1.41c0.05-0.47,0.1-0.94,0.16-1.41V326.16z
		"/>
</g>
<g>
	<path d="M15.65,265.04c-0.53,0.52-1.05,1.04-1.86,1.84c0.71,0.62,1.16,1.01,1.61,1.41c0.5-0.59,1.23-1.12,1.42-1.8
		C16.92,266.14,16.07,265.53,15.65,265.04z"/>
	<path d="M16.29,159.69c-1.42,0.49-1.92,1.65-1.8,2.86c0.06,0.6,0.92,1.29,1.58,1.59c0.3,0.14,1.21-0.43,1.46-0.88
		C18.37,161.78,17.79,160.61,16.29,159.69z"/>
	<path d="M14.47,305.9c-2.26,2.27-2.25,3.04-0.02,3.65C16.12,307.51,16.13,307.25,14.47,305.9z"/>
	<path d="M14.53,182.22c0.64,0.58,1.21,1.55,1.94,1.67c1.41,0.25,1.66-1.21,2.04-2.16c0.08-0.2-0.9-0.81-1.75-1.54
		C15.86,181.01,15.19,181.62,14.53,182.22z"/>
	<path d="M17.08,244.4c0-0.47-1.01-1.4-1.16-1.32c-0.79,0.39-1.45,1.03-2.54,1.89c0.96,0.81,1.49,1.62,2.08,1.66
		C16.91,246.73,17.09,245.41,17.08,244.4z"/>
	<path d="M16.8,199.46c-1.03,1.25-1.28,2.97-0.4,3.67c0.32,0.25,1.3,0.27,1.37,0.13c0.36-0.79,0.74-1.69,0.66-2.5
		C18.39,200.3,17.45,199.94,16.8,199.46z"/>
	<path d="M16.27,221.23c-0.67,0.13-1.18,1.03-2.08,1.91c0.9,0.84,1.42,1.32,1.94,1.8c0.59-0.73,1.45-1.37,1.69-2.2
		C18.1,221.76,17.07,221.07,16.27,221.23z"/>
	<path d="M16.15,287.22c-1.36-0.2-2.62-0.33-2.57,1.33c0.01,0.45,1.02,1.29,1.49,1.24C16.59,289.61,16.2,288.36,16.15,287.22z"/>
	<path d="M15.65,34.33c0.42-0.49,1.27-1.11,1.17-1.45c-0.19-0.68-0.92-1.21-1.42-1.8c-0.45,0.39-0.9,0.79-1.61,1.41
		C14.59,33.29,15.12,33.81,15.65,34.33z"/>
	<path d="M16.29,139.68c1.5-0.92,2.08-2.1,1.24-3.57c-0.26-0.45-1.16-1.02-1.46-0.88c-0.66,0.31-1.52,0.99-1.58,1.59
		C14.37,138.03,14.87,139.19,16.29,139.68z"/>
	<path d="M16.46,115.47c-0.72,0.13-1.3,1.09-1.94,1.67c0.67,0.61,1.34,1.21,2.23,2.03c0.85-0.73,1.83-1.34,1.75-1.54
		C18.13,116.68,17.87,115.22,16.46,115.47z"/>
	<path d="M17.08,54.97c0.01-1.01-0.17-2.33-1.62-2.23c-0.59,0.04-1.12,0.86-2.08,1.66c1.09,0.86,1.75,1.5,2.54,1.89
		C16.08,56.37,17.08,55.44,17.08,54.97z"/>
	<path d="M18.43,98.62c0.08-0.82-0.31-1.71-0.66-2.5c-0.07-0.15-1.05-0.12-1.37,0.13c-0.88,0.69-0.62,2.42,0.4,3.67
		C17.45,99.43,18.39,99.07,18.43,98.62z"/>
	<path d="M16.12,74.43c-0.52,0.48-1.04,0.96-1.94,1.8c0.91,0.88,1.42,1.78,2.08,1.91c0.8,0.16,1.83-0.53,1.54-1.51
		C17.57,75.8,16.71,75.15,16.12,74.43z"/>
	<path d="M13.58,10.82c-0.05,1.66,1.21,1.53,2.57,1.33c0.05-1.14,0.44-2.39-1.08-2.57C14.6,9.52,13.59,10.36,13.58,10.82z"/>
	<path d="M15.65,383.27c0.42-0.49,1.27-1.11,1.17-1.45c-0.19-0.68-0.92-1.21-1.42-1.8c-0.45,0.39-0.9,0.79-1.61,1.41
		C14.59,382.23,15.12,382.75,15.65,383.27z"/>
	<path d="M16.29,488.62c1.5-0.92,2.08-2.1,1.24-3.57c-0.26-0.45-1.16-1.02-1.46-0.88c-0.66,0.31-1.52,0.99-1.58,1.59
		C14.37,486.97,14.87,488.13,16.29,488.62z"/>
	<path d="M14.44,338.76c-2.22,0.61-2.24,1.38,0.02,3.65C16.13,341.06,16.12,340.8,14.44,338.76z"/>
	<path d="M16.46,464.41c-0.72,0.13-1.3,1.09-1.94,1.67c0.67,0.61,1.34,1.21,2.23,2.03c0.85-0.73,1.83-1.34,1.75-1.54
		C18.13,465.62,17.87,464.16,16.46,464.41z"/>
	<path d="M17.08,403.91c0.01-1.01-0.17-2.33-1.62-2.23c-0.59,0.04-1.12,0.86-2.08,1.66c1.09,0.86,1.75,1.5,2.54,1.89
		C16.08,405.31,17.08,404.38,17.08,403.91z"/>
	<path d="M18.43,447.56c0.08-0.82-0.31-1.71-0.66-2.5c-0.07-0.15-1.05-0.12-1.37,0.13c-0.88,0.69-0.62,2.42,0.4,3.67
		C17.45,448.37,18.39,448.01,18.43,447.56z"/>
	<path d="M16.12,423.37c-0.52,0.48-1.04,0.96-1.94,1.8c0.91,0.88,1.42,1.78,2.08,1.91c0.8,0.16,1.83-0.53,1.54-1.51
		C17.57,424.74,16.71,424.09,16.12,423.37z"/>
	<path d="M13.58,359.76c-0.05,1.66,1.21,1.53,2.57,1.33c0.05-1.14,0.44-2.39-1.08-2.57C14.6,358.46,13.59,359.3,13.58,359.76z"/>
	<path d="M9.84,498.67L9.84,498.67H10c0,0.01,0-0.01,0,0c0.2-0.01,0.38,0.01,0.56,0h0.94l0,0c0.56-0.05,1.03-0.18,1.47-0.06
		c6.7,1.8,12.3-0.74,14.44-7.69c0.22-0.73,0.64-1.45,0.66-2.18c0.12-4.54-2.23-7.71-5.87-10.09c-1.16-0.76-2.43-1.35-3.49-1.94
		c2.08-1.16,4.4-1.98,6.09-3.49c4.03-3.63,3.61-7.07,1.9-11.72c-0.14-0.38-0.58-0.71-0.95-0.93c-1.83-1.08-3.68-2.12-5.61-3.22
		c0.77-0.5,1.53-0.86,2.11-1.4c2.82-2.6,4.36-5.91,4.99-9.63c0.62-3.67-1.68-7.8-4.22-8.78c-1.46-0.56-2.98-0.98-4.55-1.49
		c3.07-2.06,5.97-4.18,7.78-7.63c1.81-3.45,0.89-8.65-2.5-10.7c-1.49-0.9-3.03-1.69-4.37-2.43c1.88-1.74,3.89-3.44,5.7-5.32
		c2.18-2.26,2.62-8.09,0.74-10.55c-1.37-1.79-3.08-3.32-4.62-4.99c-0.33-0.36-0.58-0.81-0.78-1.1c3.71-3.39,6.97-7.14,6.42-12.19
		c-0.56-5.11-4.09-8.47-8.92-10.26c3.45-3.01,6.81-6.07,6.93-11.17c0.12-5.3-2.89-8.39-7.8-10.21c3.15-3.28,6.02-5.94,6.72-10.1
		c0.51-3.05,0.92-5.97-0.67-8.88c-1.72-3.14-4.91-4.17-7.74-5.73c-0.56-0.31-1.13-0.51-1.7-0.62c0.57-0.12,1.13-0.31,1.7-0.62
		c2.83-1.57,6.02-2.59,7.74-5.73c1.59-2.91,1.19-5.83,0.67-8.88c-0.7-4.16-3.57-6.82-6.72-10.1c4.91-1.82,7.92-4.92,7.8-10.21
		c-0.11-5.1-3.48-8.16-6.93-11.17c4.82-1.79,8.36-5.15,8.92-10.26c0.55-5.06-2.71-8.8-6.42-12.19c0.21-0.29,0.45-0.74,0.78-1.1
		c1.54-1.67,3.25-3.2,4.62-4.99c1.88-2.46,1.43-8.29-0.74-10.55c-1.81-1.88-3.82-3.57-5.7-5.32c1.34-0.74,2.89-1.53,4.37-2.43
		c3.38-2.04,4.31-7.25,2.5-10.7c-1.81-3.45-4.71-5.57-7.78-7.63c1.57-0.51,3.09-0.93,4.55-1.49c2.54-0.97,4.84-5.11,4.22-8.78
		c-0.62-3.71-2.16-7.02-4.99-9.63c-0.59-0.54-1.34-0.9-2.11-1.4c1.93-1.1,3.79-2.14,5.61-3.22c0.38-0.22,0.81-0.56,0.95-0.93
		c1.71-4.66,2.13-8.09-1.9-11.72c-1.68-1.52-4-2.33-6.09-3.49c1.07-0.59,2.33-1.18,3.49-1.94c3.64-2.38,6-5.56,5.87-10.09
		c-0.02-0.73-0.43-1.45-0.66-2.18c-1.26-4.1-3.72-6.66-6.9-7.71c3.18-1.05,5.64-3.61,6.9-7.71c0.22-0.73,0.64-1.45,0.66-2.18
		c0.12-4.54-2.23-7.71-5.87-10.09c-1.16-0.76-2.43-1.35-3.49-1.94c2.08-1.16,4.4-1.98,6.09-3.49c4.03-3.63,3.61-7.07,1.9-11.72
		c-0.14-0.38-0.58-0.71-0.95-0.93c-1.83-1.08-3.68-2.12-5.61-3.22c0.77-0.5,1.53-0.86,2.11-1.4c2.82-2.6,4.36-5.91,4.99-9.63
		c0.62-3.67-1.68-7.8-4.22-8.78c-1.46-0.56-2.98-0.98-4.55-1.49c3.07-2.06,5.97-4.18,7.78-7.63c1.81-3.45,0.89-8.65-2.5-10.7
		c-1.49-0.9-3.03-1.69-4.37-2.43c1.88-1.74,3.89-3.44,5.7-5.32c2.18-2.26,2.62-8.09,0.74-10.55c-1.37-1.79-3.08-3.32-4.62-4.99
		c-0.33-0.36-0.58-0.81-0.78-1.1c3.71-3.39,6.97-7.14,6.42-12.19c-0.56-5.11-4.09-8.47-8.92-10.26c3.45-3.01,6.81-6.07,6.93-11.17
		c0.12-5.3-2.89-8.39-7.8-10.21c3.15-3.28,6.02-5.94,6.72-10.1c0.51-3.05,0.92-5.97-0.67-8.88c-1.72-3.14-4.91-4.17-7.74-5.73
		c-1.81-1-3.66-1.58-5.51-1.21l0,0H-8.63v524.04H9.84z M26.14,489.8c-1.83,5.76-7.05,9.26-11.39,7.58c1.7-1.49,3.4-2.9,5.01-4.42
		c2.18-2.06,3.6-4.49,3.7-7.62c0.07-2.04-0.67-3.63-2.35-5.06C24.08,481.34,27.27,486.22,26.14,489.8z M19.8,480.98
		c3.45,3.35,2.18,6.87-0.37,10.03c-1.7,2.1-4.26,3.52-6.44,5.24c-0.17-0.16-0.35-0.32-0.52-0.48c-0.17-5.89-0.34-11.77-0.52-17.79
		C14.92,478.42,17.57,478.82,19.8,480.98z M26.12,466.97c-0.14,3.4-3.52,6.54-7.09,6.95c3.34-3.76,5.56-7.75,3.81-12.86
		C25.38,461.41,26.24,463.97,26.12,466.97z M21.98,464.63c-0.3,1.73-1.15,3.42-1.97,5.01c-1.6,3.09-4.25,5.01-8.01,6.38
		c0.29-6.02,0.57-11.77,0.86-17.88c1.96,0.51,3.54,0.81,5.03,1.34C20.2,460.29,22.31,462.73,21.98,464.63z M12.3,395.19
		c0-0.45,0.46-1.28,0.7-1.28c0.66,0.01,1.7-0.66,1.97,0.68c0.04,0.22,0.44,0.58,0.57,0.54c2.15-0.67,2.48,1.23,3.07,2.36
		c0.81,1.53,1.4,3.24,1.75,4.94c0.52,2.5-0.23,4.74-2.03,6.64c-1.48,1.56-2.88,3.18-4.34,4.76c-0.15,0.16-0.4,0.23-0.62,0.31
		c-0.1,0.03-0.23-0.03-0.53-0.08c-0.12-4.09-0.23-8.21-0.36-12.33C12.43,399.54,12.3,397.37,12.3,395.19z M25.23,446.99
		c-0.97,3.88-2.68,6.97-6.27,8.89c-0.24,0.13-0.51,0.21-1.17,0.46c1.21-1.52,2.08-2.79,3.12-3.9c2.21-2.39,2.79-5.3,2.55-8.33
		c-0.19-2.33-2.02-3.85-3.65-5.36c-0.19-0.17-0.43-0.29-0.81-0.53C23.64,438.24,26.07,443.67,25.23,446.99z M21.74,444.01
		c0.22,1.71-0.05,3.69-0.76,5.25c-1.23,2.72-3.39,4.85-5.82,6.63c-0.49,0.36-1.14,0.5-2.11,0.9c-0.07-2.51-0.16-4.58-0.19-6.65
		c-0.03-3.23,0.04-6.45-0.06-9.68c-0.04-1.39,0.78-1.77,1.82-1.82C17.29,438.51,21.41,441.41,21.74,444.01z M24.85,421.92
		c0.54,1.76,1.1,3.5,0.06,5.21c-1,1.64-2.14,3.21-3.21,4.81c-0.06-0.08-0.11-0.16-0.17-0.24c0.41-2.42,1.32-4.89,1.09-7.25
		c-0.23-2.37-1.59-4.63-2.37-6.73C21.93,417.92,24.25,419.96,24.85,421.92z M20.8,423.21c1.4,4.94-2.24,10.67-7.75,12.28
		c-0.18-6.3-0.36-12.43-0.54-18.54C15.68,416.34,19.75,419.49,20.8,423.21z M24.74,407.26c-0.48,1.25-1.53,2.38-2.57,3.29
		c-1.78,1.55-3.76,2.88-5.66,4.3c-0.06-0.07-0.12-0.14-0.18-0.21c1.79-2.37,3.96-4.55,5.28-7.16c1.79-3.53,0.28-7.06-1.2-10.41
		c-0.13-0.3-0.31-0.58-0.53-1C23.61,397.59,26.2,403.47,24.74,407.26z M18.52,372.75c1.07,0.82,2.29,1.51,3.19,2.49
		c3.77,4.1,5.01,7.42,0.95,12.92c-0.92,1.24-1.97,2.39-3.07,3.49c-0.83,0.83-1.84,1.26-2.81,0.64c1.61-2.85,3.38-5.55,4.71-8.44
		c1.01-2.19,0.79-4.56-0.68-6.66c-0.92-1.32-1.81-2.65-2.72-3.98C18.24,373.05,18.38,372.9,18.52,372.75z M19.41,378.34
		c0.73,1.14,1,3.13,0.51,4.35c-1.26,3.14-2.32,6.54-5.43,8.57c-0.65,0.42-1.36,0.74-2.39,1.3c-0.15-5.27-0.28-10.06-0.44-14.85
		c-0.05-1.45-0.23-2.9-0.25-4.34c-0.01-0.56,0.2-1.59,0.42-1.62c0.75-0.1,1.85-0.15,2.28,0.3
		C16.01,374.03,17.95,376.04,19.41,378.34z M22.98,358.95c0.22,4.02-3.18,9.05-7.24,10.42c6.44-7.85,7.4-9.75,1.92-17.29
		C20.47,352.65,22.8,355.64,22.98,358.95z M19.35,359.81c0.01,3.34-4.74,9.08-7.65,9.3c-0.18-6.33-0.37-12.66-0.55-19
		C15.59,350.3,19.34,357,19.35,359.81z M22.11,333.92c0.23,4.08-0.12,8.26-3.4,11.41c-1.23,1.18-2.58,2.23-3.87,3.33
		c-0.12-0.12-0.23-0.24-0.35-0.36c2.64-2.91,6.31-5.08,6.48-9.67c0.16-4.27-2.34-7.4-4.32-11.04
		C19.52,329.05,21.94,330.9,22.11,333.92z M19.07,336.94c0.49,4.47-3.22,8.93-7.63,10.79c-0.2-6.86-0.4-13.63-0.59-20.47
		C14.51,327.96,18.66,333.16,19.07,336.94z M10.85,321.05c0.2-6.84,0.4-13.61,0.59-20.47c4.41,1.86,8.12,6.32,7.63,10.79
		C18.66,315.15,14.51,320.35,10.85,321.05z M18.72,302.98c3.28,3.15,3.63,7.33,3.4,11.41c-0.17,3.02-2.6,4.87-5.45,6.32
		c1.98-3.64,4.48-6.77,4.32-11.04c-0.17-4.59-3.85-6.75-6.48-9.67c0.12-0.12,0.23-0.24,0.35-0.36
		C16.14,300.75,17.49,301.8,18.72,302.98z M11.14,298.19c0.18-6.34,0.37-12.67,0.55-19c2.91,0.22,7.66,5.97,7.65,9.3
		C19.34,291.31,15.59,298.01,11.14,298.19z M22.98,289.36c-0.18,3.31-2.5,6.3-5.32,6.87c5.48-7.55,4.52-9.44-1.92-17.29
		C19.8,280.31,23.2,285.34,22.98,289.36z M14.11,276.25c-0.43,0.45-1.53,0.4-2.28,0.3c-0.22-0.03-0.43-1.05-0.42-1.62
		c0.02-1.45,0.2-2.89,0.25-4.34c0.16-4.79,0.29-9.58,0.44-14.85c1.04,0.56,1.75,0.88,2.39,1.3c3.11,2.02,4.17,5.43,5.43,8.57
		c0.49,1.22,0.21,3.21-0.51,4.35C17.95,272.26,16.01,274.28,14.11,276.25z M12.3,253.12c0-2.17,0.13-4.35,0.19-6.52
		c0.13-4.12,0.24-8.24,0.36-12.33c0.3-0.05,0.43-0.12,0.53-0.08c0.22,0.08,0.47,0.15,0.62,0.31c1.45,1.58,2.86,3.2,4.34,4.76
		c1.8,1.89,2.54,4.14,2.03,6.64c-0.35,1.7-0.94,3.41-1.75,4.94c-0.59,1.12-0.92,3.03-3.07,2.36c-0.13-0.04-0.53,0.32-0.57,0.54
		c-0.27,1.33-1.3,0.67-1.97,0.68C12.76,254.4,12.3,253.57,12.3,253.12z M22.66,260.15c4.06,5.5,2.82,8.82-0.95,12.92
		c-0.9,0.98-2.12,1.67-3.19,2.49c-0.14-0.15-0.28-0.3-0.42-0.45c0.91-1.33,1.8-2.66,2.72-3.98c1.47-2.1,1.68-4.47,0.68-6.66
		c-1.33-2.89-3.09-5.59-4.71-8.44c0.97-0.62,1.99-0.19,2.81,0.64C20.69,257.76,21.74,258.91,22.66,260.15z M22.17,237.76
		c1.04,0.9,2.09,2.04,2.57,3.29c1.46,3.78-1.13,9.67-4.87,11.19c0.22-0.42,0.4-0.7,0.53-1c1.48-3.36,2.98-6.89,1.2-10.41
		c-1.32-2.61-3.49-4.79-5.28-7.16c0.06-0.07,0.12-0.14,0.18-0.21C18.4,234.88,20.38,236.21,22.17,237.76z M21.69,216.37
		c1.08,1.6,2.21,3.16,3.21,4.81c1.05,1.71,0.48,3.45-0.06,5.21c-0.6,1.97-2.92,4-4.61,4.19c0.79-2.1,2.14-4.36,2.37-6.73
		c0.23-2.36-0.68-4.83-1.09-7.25C21.58,216.52,21.63,216.44,21.69,216.37z M20.8,225.1c-1.05,3.72-5.12,6.87-8.29,6.27
		c0.18-6.12,0.36-12.24,0.54-18.54C18.57,214.43,22.2,220.16,20.8,225.1z M14.63,209.67c-1.04-0.05-1.86-0.43-1.82-1.82
		c0.1-3.22,0.02-6.45,0.06-9.68c0.02-2.07,0.11-4.14,0.19-6.65c0.97,0.4,1.62,0.54,2.11,0.9c2.43,1.78,4.59,3.91,5.82,6.63
		c0.71,1.56,0.98,3.54,0.76,5.25C21.41,206.9,17.29,209.8,14.63,209.67z M25.23,201.31c0.83,3.33-1.59,8.75-6.24,8.77
		c0.37-0.25,0.62-0.36,0.81-0.53c1.64-1.51,3.46-3.04,3.65-5.36c0.24-3.03-0.34-5.94-2.55-8.33c-1.03-1.12-1.91-2.38-3.12-3.9
		c0.66,0.26,0.93,0.34,1.17,0.46C22.55,194.35,24.27,197.43,25.23,201.31z M26.12,181.34c0.13,3-0.74,5.56-3.28,5.91
		c1.75-5.1-0.47-9.1-3.81-12.86C22.6,174.79,25.97,177.93,26.12,181.34z M20,178.66c0.83,1.59,1.67,3.28,1.97,5.01
		c0.33,1.91-1.77,4.34-4.09,5.16c-1.49,0.53-3.07,0.82-5.03,1.34c-0.3-6.11-0.57-11.86-0.86-17.88
		C15.76,173.66,18.4,175.58,20,178.66z M11.95,170.32c0.17-6.02,0.35-11.91,0.52-17.79c0.17-0.16,0.35-0.32,0.52-0.48
		c2.18,1.72,4.74,3.14,6.44,5.24c2.55,3.15,3.82,6.67,0.37,10.03C17.57,169.49,14.92,169.89,11.95,170.32z M26.14,158.51
		c1.14,3.57-2.06,8.46-5.02,9.51c1.68-1.43,2.41-3.01,2.35-5.06c-0.1-3.12-1.52-5.56-3.7-7.62c-1.6-1.51-3.3-2.92-5.01-4.42
		C19.09,149.25,24.31,152.76,26.14,158.51z M26.14,140.86c-1.83,5.76-7.05,9.26-11.39,7.58c1.7-1.49,3.4-2.9,5.01-4.42
		c2.18-2.06,3.6-4.49,3.7-7.62c0.07-2.04-0.67-3.63-2.35-5.06C24.08,132.4,27.27,137.28,26.14,140.86z M19.8,132.04
		c3.45,3.35,2.18,6.87-0.37,10.03c-1.7,2.1-4.26,3.52-6.44,5.24c-0.17-0.16-0.35-0.32-0.52-0.48c-0.17-5.89-0.34-11.77-0.52-17.79
		C14.92,129.48,17.57,129.88,19.8,132.04z M26.12,118.03c-0.14,3.4-3.52,6.54-7.09,6.95c3.34-3.76,5.56-7.75,3.81-12.86
		C25.38,112.47,26.24,115.03,26.12,118.03z M21.98,115.69c-0.3,1.73-1.15,3.42-1.97,5.01c-1.6,3.09-4.25,5.01-8.01,6.38
		c0.29-6.02,0.57-11.77,0.86-17.88c1.96,0.51,3.54,0.81,5.03,1.34C20.2,111.35,22.31,113.79,21.98,115.69z M12.3,46.25
		c0-0.45,0.46-1.28,0.7-1.28c0.66,0.01,1.7-0.66,1.97,0.68c0.04,0.22,0.44,0.58,0.57,0.54c2.15-0.67,2.48,1.23,3.07,2.36
		c0.81,1.53,1.4,3.24,1.75,4.94c0.52,2.5-0.23,4.74-2.03,6.64c-1.48,1.56-2.88,3.18-4.34,4.76c-0.15,0.16-0.4,0.23-0.62,0.31
		c-0.1,0.03-0.23-0.03-0.53-0.08c-0.12-4.09-0.23-8.21-0.36-12.33C12.43,50.6,12.3,48.43,12.3,46.25z M25.23,98.05
		c-0.97,3.88-2.68,6.97-6.27,8.89c-0.24,0.13-0.51,0.21-1.17,0.46c1.21-1.52,2.08-2.79,3.12-3.9c2.21-2.39,2.79-5.3,2.55-8.33
		c-0.19-2.33-2.02-3.85-3.65-5.36c-0.19-0.17-0.43-0.29-0.81-0.53C23.64,89.3,26.07,94.73,25.23,98.05z M21.74,95.07
		c0.22,1.71-0.05,3.69-0.76,5.25c-1.23,2.72-3.39,4.85-5.82,6.63c-0.49,0.36-1.14,0.5-2.11,0.9c-0.07-2.51-0.16-4.58-0.19-6.65
		c-0.03-3.23,0.04-6.45-0.06-9.68c-0.04-1.39,0.78-1.77,1.82-1.82C17.29,89.57,21.41,92.47,21.74,95.07z M24.85,72.98
		c0.54,1.76,1.1,3.5,0.06,5.21c-1,1.64-2.14,3.21-3.21,4.81c-0.06-0.08-0.11-0.16-0.17-0.24c0.41-2.42,1.32-4.89,1.09-7.25
		c-0.23-2.37-1.59-4.63-2.37-6.73C21.93,68.98,24.25,71.02,24.85,72.98z M20.8,74.27c1.4,4.94-2.24,10.67-7.75,12.28
		c-0.18-6.3-0.36-12.43-0.54-18.54C15.68,67.4,19.75,70.55,20.8,74.27z M24.74,58.32c-0.48,1.25-1.53,2.38-2.57,3.29
		c-1.78,1.55-3.76,2.88-5.66,4.3c-0.06-0.07-0.12-0.14-0.18-0.21c1.79-2.37,3.96-4.55,5.28-7.16c1.79-3.53,0.28-7.06-1.2-10.41
		c-0.13-0.3-0.31-0.58-0.53-1C23.61,48.65,26.2,54.53,24.74,58.32z M18.52,23.81c1.07,0.82,2.29,1.51,3.19,2.49
		c3.77,4.1,5.01,7.42,0.95,12.92c-0.92,1.24-1.97,2.39-3.07,3.49c-0.83,0.83-1.84,1.26-2.81,0.64c1.61-2.85,3.38-5.55,4.71-8.44
		c1.01-2.19,0.79-4.56-0.68-6.66c-0.92-1.32-1.81-2.65-2.72-3.98C18.24,24.11,18.38,23.96,18.52,23.81z M19.41,29.4
		c0.73,1.14,1,3.13,0.51,4.35c-1.26,3.14-2.32,6.54-5.43,8.57c-0.65,0.42-1.36,0.74-2.39,1.3c-0.15-5.27-0.28-10.06-0.44-14.85
		c-0.05-1.45-0.23-2.9-0.25-4.34c-0.01-0.56,0.2-1.59,0.42-1.62c0.75-0.1,1.85-0.15,2.28,0.3C16.01,25.09,17.95,27.1,19.41,29.4z
		 M22.98,10.01c0.22,4.02-3.18,9.05-7.24,10.42c6.44-7.85,7.4-9.75,1.92-17.29C20.47,3.71,22.8,6.7,22.98,10.01z M19.35,10.87
		c0.01,3.34-4.74,9.08-7.65,9.3c-0.18-6.33-0.37-12.66-0.55-19C15.59,1.36,19.34,8.06,19.35,10.87z M22.11-15.02
		c0.23,4.08-0.12,8.26-3.4,11.41c-1.23,1.18-2.58,2.23-3.87,3.33c-0.12-0.12-0.23-0.24-0.35-0.36c2.64-2.91,6.31-5.08,6.48-9.67
		c0.16-4.27-2.34-7.4-4.32-11.04C19.52-19.89,21.94-18.04,22.11-15.02z M19.07-12c0.49,4.47-3.22,8.93-7.63,10.79
		c-0.2-6.86-0.4-13.63-0.59-20.47C14.51-20.98,18.66-15.78,19.07-12z M9.84,148.27c0.05,0.47,0.11,0.95,0.16,1.42
		c-0.05,0.47-0.1,0.95-0.16,1.42V148.27z"/>
</g>
</svg>
