<?xml version="1.0" encoding="utf-8"?>
<!-- Generator: Adobe Illustrator 24.1.0, SVG Export Plug-In . SVG Version: 6.00 Build 0)  -->
<svg version="1.1" id="Layer_1" xmlns="http://www.w3.org/2000/svg" xmlns:xlink="http://www.w3.org/1999/xlink" x="0px" y="0px"
	 viewBox="0 0 449.74 437.32" enable-background="new 0 0 449.74 437.32" xml:space="preserve">
<path fill="none" stroke="#000000" stroke-width="4.5" stroke-miterlimit="10" d="M385.61,298.59c-3.62-6.59-8.04-12.72-13.15-18.26
	c50.03-9.48,82.86-57.7,73.41-107.72c-9.49-50.01-57.7-82.86-107.73-73.39c-7.38,1.41-14.58,3.72-21.41,6.85
	C323.16,55.58,287.45,9.43,236.96,3c-50.49-6.43-96.64,29.27-103.09,79.75c-0.95,7.48-0.98,15.02-0.09,22.51
	c-46.02-21.73-100.96-2.04-122.69,43.99c-21.71,46.04-2.02,100.97,44.02,122.68c6.8,3.22,13.98,5.58,21.35,7.04
	c-34.88,37.07-33.12,95.4,3.94,130.3c37.07,34.88,95.4,33.12,130.28-3.95c5.16-5.48,9.63-11.56,13.31-18.15
	c24.46,44.64,80.48,60.99,125.13,36.51C393.73,399.23,410.07,343.21,385.61,298.59z"/>
</svg>
