<?xml version="1.0" encoding="utf-8"?>
<!-- Generator: Adobe Illustrator 24.1.0, SVG Export Plug-In . SVG Version: 6.00 Build 0)  -->
<svg version="1.1" id="Layer_1" xmlns="http://www.w3.org/2000/svg" xmlns:xlink="http://www.w3.org/1999/xlink" x="0px" y="0px"
	 viewBox="0 0 454 441.1" style="enable-background:new 0 0 454 441.1;" xml:space="preserve">
<style type="text/css">
	.st0{fill:none;stroke:#000000;stroke-width:3;stroke-miterlimit:10;}
	.st1{fill:none;stroke:#000000;stroke-miterlimit:10;}
</style>
<path class="st0" d="M390.4,301c-3.7-6.7-8.2-12.9-13.4-18.4c50.6-9.8,83.7-58.8,73.9-109.5C441,122.4,392,89.4,341.3,99.2
	c-7.5,1.5-14.8,3.8-21.7,7c6.3-51.2-30.1-97.8-81.3-104c-51.2-6.3-97.8,30.1-104.1,81.3c-0.9,7.6-0.9,15.2,0,22.8
	c-46.7-21.8-102.3-1.6-124.1,45.1c-21.8,46.7-1.6,102.3,45.2,124.1c6.9,3.2,14.2,5.6,21.7,7c-35.2,37.7-33.1,96.8,4.6,132
	c37.7,35.2,96.8,33.1,132-4.6c5.2-5.6,9.7-11.8,13.4-18.4c25,45.1,81.8,61.4,126.9,36.4C399.1,402.9,415.4,346,390.4,301z"/>
</svg>
