<?xml version="1.0" encoding="utf-8"?>
<!-- Generator: Adobe Illustrator 24.1.0, SVG Export Plug-In . SVG Version: 6.00 Build 0)  -->
<svg version="1.1" id="Layer_1" xmlns="http://www.w3.org/2000/svg" xmlns:xlink="http://www.w3.org/1999/xlink" x="0px" y="0px"
	 viewBox="0 0 399.98 161.77" enable-background="new 0 0 399.98 161.77" xml:space="preserve">
<g>
	<path fill="#231D1E" d="M0,0v161.77h399.98V0H0z M397.01,158.81H2.96V2.96h394.05V158.81z"/>
	<path fill="#231D1E" d="M130.46,16.44h2.98c0.61,0,1.11-0.5,1.11-1.11c0-0.61-0.5-1.11-1.11-1.11h-2.98c-0.61,0-1.11,0.5-1.11,1.11
		C129.35,15.95,129.84,16.44,130.46,16.44z"/>
	<path fill="#231D1E" d="M203.43,16.44h2.98c0.61,0,1.11-0.5,1.11-1.11c0-0.61-0.5-1.11-1.11-1.11h-2.98c-0.61,0-1.11,0.5-1.11,1.11
		C202.32,15.95,202.82,16.44,203.43,16.44z"/>
	<path fill="#231D1E" d="M224.28,16.44h2.98c0.61,0,1.11-0.5,1.11-1.11c0-0.61-0.5-1.11-1.11-1.11h-2.98c-0.61,0-1.11,0.5-1.11,1.11
		C223.17,15.95,223.67,16.44,224.28,16.44z"/>
	<path fill="#231D1E" d="M245.13,16.44h2.98c0.61,0,1.11-0.5,1.11-1.11c0-0.61-0.5-1.11-1.11-1.11h-2.98c-0.61,0-1.11,0.5-1.11,1.11
		C244.02,15.95,244.51,16.44,245.13,16.44z"/>
	<path fill="#231D1E" d="M193,16.44h2.98c0.61,0,1.11-0.5,1.11-1.11c0-0.61-0.5-1.11-1.11-1.11H193c-0.61,0-1.11,0.5-1.11,1.11
		C191.89,15.95,192.39,16.44,193,16.44z"/>
	<path fill="#231D1E" d="M234.7,16.44h2.98c0.61,0,1.11-0.5,1.11-1.11c0-0.61-0.5-1.11-1.11-1.11h-2.98c-0.61,0-1.11,0.5-1.11,1.11
		C233.59,15.95,234.09,16.44,234.7,16.44z"/>
	<path fill="#231D1E" d="M140.88,16.44h2.98c0.61,0,1.11-0.5,1.11-1.11c0-0.61-0.5-1.11-1.11-1.11h-2.98c-0.61,0-1.11,0.5-1.11,1.11
		C139.77,15.95,140.27,16.44,140.88,16.44z"/>
	<path fill="#231D1E" d="M151.31,16.44h2.98c0.61,0,1.11-0.5,1.11-1.11c0-0.61-0.5-1.11-1.11-1.11h-2.98c-0.61,0-1.11,0.5-1.11,1.11
		C150.2,15.95,150.69,16.44,151.31,16.44z"/>
	<path fill="#231D1E" d="M255.55,16.44h2.98c0.61,0,1.11-0.5,1.11-1.11c0-0.61-0.5-1.11-1.11-1.11h-2.98c-0.61,0-1.11,0.5-1.11,1.11
		C254.44,15.95,254.94,16.44,255.55,16.44z"/>
	<path fill="#231D1E" d="M161.73,16.44h2.98c0.61,0,1.11-0.5,1.11-1.11c0-0.61-0.5-1.11-1.11-1.11h-2.98c-0.61,0-1.11,0.5-1.11,1.11
		C160.62,15.95,161.12,16.44,161.73,16.44z"/>
	<path fill="#231D1E" d="M182.58,16.44h2.98c0.61,0,1.11-0.5,1.11-1.11c0-0.61-0.5-1.11-1.11-1.11h-2.98c-0.61,0-1.11,0.5-1.11,1.11
		C181.47,15.95,181.97,16.44,182.58,16.44z"/>
	<path fill="#231D1E" d="M172.15,16.44h2.98c0.61,0,1.11-0.5,1.11-1.11c0-0.61-0.5-1.11-1.11-1.11h-2.98c-0.61,0-1.11,0.5-1.11,1.11
		C171.05,15.95,171.54,16.44,172.15,16.44z"/>
	<path fill="#231D1E" d="M213.85,16.44h2.98c0.61,0,1.11-0.5,1.11-1.11c0-0.61-0.5-1.11-1.11-1.11h-2.98c-0.61,0-1.11,0.5-1.11,1.11
		C212.74,15.95,213.24,16.44,213.85,16.44z"/>
	<path fill="#231D1E" d="M349.37,16.44h2.98c0.61,0,1.11-0.5,1.11-1.11c0-0.61-0.5-1.11-1.11-1.11h-2.98c-0.61,0-1.11,0.5-1.11,1.11
		C348.26,15.95,348.76,16.44,349.37,16.44z"/>
	<path fill="#231D1E" d="M338.95,16.44h2.98c0.61,0,1.11-0.5,1.11-1.11c0-0.61-0.5-1.11-1.11-1.11h-2.98c-0.61,0-1.11,0.5-1.11,1.11
		C337.84,15.95,338.34,16.44,338.95,16.44z"/>
	<path fill="#231D1E" d="M359.8,16.44h2.98c0.61,0,1.11-0.5,1.11-1.11c0-0.61-0.5-1.11-1.11-1.11h-2.98c-0.61,0-1.11,0.5-1.11,1.11
		C358.69,15.95,359.19,16.44,359.8,16.44z"/>
	<path fill="#231D1E" d="M380.65,16.44h2.98c0.61,0,1.11-0.5,1.11-1.11c0-0.61-0.5-1.11-1.11-1.11h-2.98c-0.61,0-1.11,0.5-1.11,1.11
		C379.54,15.95,380.03,16.44,380.65,16.44z"/>
	<path fill="#231D1E" d="M370.22,16.44h2.98c0.61,0,1.11-0.5,1.11-1.11c0-0.61-0.5-1.11-1.11-1.11h-2.98c-0.61,0-1.11,0.5-1.11,1.11
		C369.11,15.95,369.61,16.44,370.22,16.44z"/>
	<path fill="#231D1E" d="M328.52,16.44h2.98c0.61,0,1.11-0.5,1.11-1.11c0-0.61-0.5-1.11-1.11-1.11h-2.98c-0.61,0-1.11,0.5-1.11,1.11
		C327.41,15.95,327.91,16.44,328.52,16.44z"/>
	<path fill="#231D1E" d="M307.67,16.44h2.98c0.61,0,1.11-0.5,1.11-1.11c0-0.61-0.5-1.11-1.11-1.11h-2.98c-0.61,0-1.11,0.5-1.11,1.11
		C306.57,15.95,307.06,16.44,307.67,16.44z"/>
	<path fill="#231D1E" d="M276.4,16.44h2.98c0.61,0,1.11-0.5,1.11-1.11c0-0.61-0.5-1.11-1.11-1.11h-2.98c-0.61,0-1.11,0.5-1.11,1.11
		C275.29,15.95,275.79,16.44,276.4,16.44z"/>
	<path fill="#231D1E" d="M286.82,16.44h2.98c0.61,0,1.11-0.5,1.11-1.11c0-0.61-0.5-1.11-1.11-1.11h-2.98c-0.61,0-1.11,0.5-1.11,1.11
		C285.72,15.95,286.21,16.44,286.82,16.44z"/>
	<path fill="#231D1E" d="M318.1,16.44h2.98c0.61,0,1.11-0.5,1.11-1.11c0-0.61-0.5-1.11-1.11-1.11h-2.98c-0.61,0-1.11,0.5-1.11,1.11
		C316.99,15.95,317.49,16.44,318.1,16.44z"/>
	<path fill="#231D1E" d="M265.98,16.44h2.98c0.61,0,1.11-0.5,1.11-1.11c0-0.61-0.5-1.11-1.11-1.11h-2.98c-0.61,0-1.11,0.5-1.11,1.11
		C264.87,15.95,265.36,16.44,265.98,16.44z"/>
	<path fill="#231D1E" d="M297.25,16.44h2.98c0.61,0,1.11-0.5,1.11-1.11c0-0.61-0.5-1.11-1.11-1.11h-2.98c-0.61,0-1.11,0.5-1.11,1.11
		C296.14,15.95,296.64,16.44,297.25,16.44z"/>
	<path fill="#231D1E" d="M5.36,16.44h2.98c0.61,0,1.11-0.5,1.11-1.11c0-0.61-0.5-1.11-1.11-1.11H5.36c-0.61,0-1.11,0.5-1.11,1.11
		C4.25,15.95,4.75,16.44,5.36,16.44z"/>
	<path fill="#231D1E" d="M57.48,16.44h2.98c0.61,0,1.11-0.5,1.11-1.11c0-0.61-0.5-1.11-1.11-1.11h-2.98c-0.61,0-1.11,0.5-1.11,1.11
		C56.38,15.95,56.87,16.44,57.48,16.44z"/>
	<path fill="#231D1E" d="M67.91,16.44h2.98c0.61,0,1.11-0.5,1.11-1.11c0-0.61-0.5-1.11-1.11-1.11h-2.98c-0.61,0-1.11,0.5-1.11,1.11
		C66.8,15.95,67.3,16.44,67.91,16.44z"/>
	<path fill="#231D1E" d="M47.06,16.44h2.98c0.61,0,1.11-0.5,1.11-1.11c0-0.61-0.5-1.11-1.11-1.11h-2.98c-0.61,0-1.11,0.5-1.11,1.11
		C45.95,15.95,46.45,16.44,47.06,16.44z"/>
	<path fill="#231D1E" d="M88.76,16.44h2.98c0.61,0,1.11-0.5,1.11-1.11c0-0.61-0.5-1.11-1.11-1.11h-2.98c-0.61,0-1.11,0.5-1.11,1.11
		C87.65,15.95,88.15,16.44,88.76,16.44z"/>
	<path fill="#231D1E" d="M36.64,16.44h2.98c0.61,0,1.11-0.5,1.11-1.11c0-0.61-0.5-1.11-1.11-1.11h-2.98c-0.61,0-1.11,0.5-1.11,1.11
		C35.53,15.95,36.02,16.44,36.64,16.44z"/>
	<path fill="#231D1E" d="M99.18,16.44h2.98c0.61,0,1.11-0.5,1.11-1.11c0-0.61-0.5-1.11-1.11-1.11h-2.98c-0.61,0-1.11,0.5-1.11,1.11
		C98.07,15.95,98.57,16.44,99.18,16.44z"/>
	<path fill="#231D1E" d="M15.79,16.44h2.98c0.61,0,1.11-0.5,1.11-1.11c0-0.61-0.5-1.11-1.11-1.11h-2.98c-0.61,0-1.11,0.5-1.11,1.11
		C14.68,15.95,15.17,16.44,15.79,16.44z"/>
	<path fill="#231D1E" d="M26.21,16.44h2.98c0.61,0,1.11-0.5,1.11-1.11c0-0.61-0.5-1.11-1.11-1.11h-2.98c-0.61,0-1.11,0.5-1.11,1.11
		C25.1,15.95,25.6,16.44,26.21,16.44z"/>
	<path fill="#231D1E" d="M78.33,16.44h2.98c0.61,0,1.11-0.5,1.11-1.11c0-0.61-0.5-1.11-1.11-1.11h-2.98c-0.61,0-1.11,0.5-1.11,1.11
		C77.23,15.95,77.72,16.44,78.33,16.44z"/>
	<path fill="#231D1E" d="M109.61,16.44h2.98c0.61,0,1.11-0.5,1.11-1.11c0-0.61-0.5-1.11-1.11-1.11h-2.98c-0.61,0-1.11,0.5-1.11,1.11
		C108.5,15.95,108.99,16.44,109.61,16.44z"/>
	<path fill="#231D1E" d="M120.03,16.44h2.98c0.61,0,1.11-0.5,1.11-1.11c0-0.61-0.5-1.11-1.11-1.11h-2.98c-0.61,0-1.11,0.5-1.11,1.11
		C118.92,15.95,119.42,16.44,120.03,16.44z"/>
	<path fill="#231D1E" d="M391.07,16.44h1.48c0.61,0,1.11-0.5,1.11-1.11c0-0.61-0.5-1.11-1.11-1.11h-1.48c-0.61,0-1.11,0.5-1.11,1.11
		C389.96,15.95,390.46,16.44,391.07,16.44z"/>
	<path fill="#231D1E" d="M36.64,147.38h2.98c0.61,0,1.11-0.5,1.11-1.11c0-0.61-0.5-1.11-1.11-1.11h-2.98c-0.61,0-1.11,0.5-1.11,1.11
		C35.53,146.88,36.02,147.38,36.64,147.38z"/>
	<path fill="#231D1E" d="M328.52,147.38h2.98c0.61,0,1.11-0.5,1.11-1.11c0-0.61-0.5-1.11-1.11-1.11h-2.98
		c-0.61,0-1.11,0.5-1.11,1.11C327.41,146.88,327.91,147.38,328.52,147.38z"/>
	<path fill="#231D1E" d="M297.25,147.38h2.98c0.61,0,1.11-0.5,1.11-1.11c0-0.61-0.5-1.11-1.11-1.11h-2.98
		c-0.61,0-1.11,0.5-1.11,1.11C296.14,146.88,296.64,147.38,297.25,147.38z"/>
	<path fill="#231D1E" d="M151.31,147.38h2.98c0.61,0,1.11-0.5,1.11-1.11c0-0.61-0.5-1.11-1.11-1.11h-2.98
		c-0.61,0-1.11,0.5-1.11,1.11C150.2,146.88,150.69,147.38,151.31,147.38z"/>
	<path fill="#231D1E" d="M307.67,147.38h2.98c0.61,0,1.11-0.5,1.11-1.11c0-0.61-0.5-1.11-1.11-1.11h-2.98
		c-0.61,0-1.11,0.5-1.11,1.11C306.57,146.88,307.06,147.38,307.67,147.38z"/>
	<path fill="#231D1E" d="M318.1,147.38h2.98c0.61,0,1.11-0.5,1.11-1.11c0-0.61-0.5-1.11-1.11-1.11h-2.98c-0.61,0-1.11,0.5-1.11,1.11
		C316.99,146.88,317.49,147.38,318.1,147.38z"/>
	<path fill="#231D1E" d="M161.73,147.38h2.98c0.61,0,1.11-0.5,1.11-1.11c0-0.61-0.5-1.11-1.11-1.11h-2.98
		c-0.61,0-1.11,0.5-1.11,1.11C160.62,146.88,161.12,147.38,161.73,147.38z"/>
	<path fill="#231D1E" d="M182.58,147.38h2.98c0.61,0,1.11-0.5,1.11-1.11c0-0.61-0.5-1.11-1.11-1.11h-2.98
		c-0.61,0-1.11,0.5-1.11,1.11C181.47,146.88,181.97,147.38,182.58,147.38z"/>
	<path fill="#231D1E" d="M338.95,147.38h2.98c0.61,0,1.11-0.5,1.11-1.11c0-0.61-0.5-1.11-1.11-1.11h-2.98
		c-0.61,0-1.11,0.5-1.11,1.11C337.84,146.88,338.34,147.38,338.95,147.38z"/>
	<path fill="#231D1E" d="M380.65,147.38h2.98c0.61,0,1.11-0.5,1.11-1.11c0-0.61-0.5-1.11-1.11-1.11h-2.98
		c-0.61,0-1.11,0.5-1.11,1.11C379.54,146.88,380.03,147.38,380.65,147.38z"/>
	<path fill="#231D1E" d="M5.36,147.38h2.98c0.61,0,1.11-0.5,1.11-1.11c0-0.61-0.5-1.11-1.11-1.11H5.36c-0.61,0-1.11,0.5-1.11,1.11
		C4.25,146.88,4.75,147.38,5.36,147.38z"/>
	<path fill="#231D1E" d="M109.61,147.38h2.98c0.61,0,1.11-0.5,1.11-1.11c0-0.61-0.5-1.11-1.11-1.11h-2.98
		c-0.61,0-1.11,0.5-1.11,1.11C108.5,146.88,108.99,147.38,109.61,147.38z"/>
	<path fill="#231D1E" d="M15.79,147.38h2.98c0.61,0,1.11-0.5,1.11-1.11c0-0.61-0.5-1.11-1.11-1.11h-2.98c-0.61,0-1.11,0.5-1.11,1.11
		C14.68,146.88,15.17,147.38,15.79,147.38z"/>
	<path fill="#231D1E" d="M370.22,147.38h2.98c0.61,0,1.11-0.5,1.11-1.11c0-0.61-0.5-1.11-1.11-1.11h-2.98
		c-0.61,0-1.11,0.5-1.11,1.11C369.11,146.88,369.61,147.38,370.22,147.38z"/>
	<path fill="#231D1E" d="M26.21,147.38h2.98c0.61,0,1.11-0.5,1.11-1.11c0-0.61-0.5-1.11-1.11-1.11h-2.98c-0.61,0-1.11,0.5-1.11,1.11
		C25.1,146.88,25.6,147.38,26.21,147.38z"/>
	<path fill="#231D1E" d="M359.8,147.38h2.98c0.61,0,1.11-0.5,1.11-1.11c0-0.61-0.5-1.11-1.11-1.11h-2.98c-0.61,0-1.11,0.5-1.11,1.11
		C358.69,146.88,359.19,147.38,359.8,147.38z"/>
	<path fill="#231D1E" d="M349.37,147.38h2.98c0.61,0,1.11-0.5,1.11-1.11c0-0.61-0.5-1.11-1.11-1.11h-2.98
		c-0.61,0-1.11,0.5-1.11,1.11C348.26,146.88,348.76,147.38,349.37,147.38z"/>
	<path fill="#231D1E" d="M130.46,147.38h2.98c0.61,0,1.11-0.5,1.11-1.11c0-0.61-0.5-1.11-1.11-1.11h-2.98
		c-0.61,0-1.11,0.5-1.11,1.11C129.35,146.88,129.84,147.38,130.46,147.38z"/>
	<path fill="#231D1E" d="M47.06,147.38h2.98c0.61,0,1.11-0.5,1.11-1.11c0-0.61-0.5-1.11-1.11-1.11h-2.98c-0.61,0-1.11,0.5-1.11,1.11
		C45.95,146.88,46.45,147.38,47.06,147.38z"/>
	<path fill="#231D1E" d="M88.76,147.38h2.98c0.61,0,1.11-0.5,1.11-1.11c0-0.61-0.5-1.11-1.11-1.11h-2.98c-0.61,0-1.11,0.5-1.11,1.11
		C87.65,146.88,88.15,147.38,88.76,147.38z"/>
	<path fill="#231D1E" d="M234.7,147.38h2.98c0.61,0,1.11-0.5,1.11-1.11c0-0.61-0.5-1.11-1.11-1.11h-2.98c-0.61,0-1.11,0.5-1.11,1.11
		C233.59,146.88,234.09,147.38,234.7,147.38z"/>
	<path fill="#231D1E" d="M224.28,147.38h2.98c0.61,0,1.11-0.5,1.11-1.11c0-0.61-0.5-1.11-1.11-1.11h-2.98
		c-0.61,0-1.11,0.5-1.11,1.11C223.17,146.88,223.67,147.38,224.28,147.38z"/>
	<path fill="#231D1E" d="M140.88,147.38h2.98c0.61,0,1.11-0.5,1.11-1.11c0-0.61-0.5-1.11-1.11-1.11h-2.98
		c-0.61,0-1.11,0.5-1.11,1.11C139.77,146.88,140.27,147.38,140.88,147.38z"/>
	<path fill="#231D1E" d="M57.48,147.38h2.98c0.61,0,1.11-0.5,1.11-1.11c0-0.61-0.5-1.11-1.11-1.11h-2.98c-0.61,0-1.11,0.5-1.11,1.11
		C56.38,146.88,56.87,147.38,57.48,147.38z"/>
	<path fill="#231D1E" d="M99.18,147.38h2.98c0.61,0,1.11-0.5,1.11-1.11c0-0.61-0.5-1.11-1.11-1.11h-2.98c-0.61,0-1.11,0.5-1.11,1.11
		C98.07,146.88,98.57,147.38,99.18,147.38z"/>
	<path fill="#231D1E" d="M193,147.38h2.98c0.61,0,1.11-0.5,1.11-1.11c0-0.61-0.5-1.11-1.11-1.11H193c-0.61,0-1.11,0.5-1.11,1.11
		C191.89,146.88,192.39,147.38,193,147.38z"/>
	<path fill="#231D1E" d="M245.13,147.38h2.98c0.61,0,1.11-0.5,1.11-1.11c0-0.61-0.5-1.11-1.11-1.11h-2.98
		c-0.61,0-1.11,0.5-1.11,1.11C244.02,146.88,244.51,147.38,245.13,147.38z"/>
	<path fill="#231D1E" d="M213.85,147.38h2.98c0.61,0,1.11-0.5,1.11-1.11c0-0.61-0.5-1.11-1.11-1.11h-2.98
		c-0.61,0-1.11,0.5-1.11,1.11C212.74,146.88,213.24,147.38,213.85,147.38z"/>
	<path fill="#231D1E" d="M203.43,147.38h2.98c0.61,0,1.11-0.5,1.11-1.11c0-0.61-0.5-1.11-1.11-1.11h-2.98
		c-0.61,0-1.11,0.5-1.11,1.11C202.32,146.88,202.82,147.38,203.43,147.38z"/>
	<path fill="#231D1E" d="M276.4,147.38h2.98c0.61,0,1.11-0.5,1.11-1.11c0-0.61-0.5-1.11-1.11-1.11h-2.98c-0.61,0-1.11,0.5-1.11,1.11
		C275.29,146.88,275.79,147.38,276.4,147.38z"/>
	<path fill="#231D1E" d="M120.03,147.38h2.98c0.61,0,1.11-0.5,1.11-1.11c0-0.61-0.5-1.11-1.11-1.11h-2.98
		c-0.61,0-1.11,0.5-1.11,1.11C118.92,146.88,119.42,147.38,120.03,147.38z"/>
	<path fill="#231D1E" d="M67.91,147.38h2.98c0.61,0,1.11-0.5,1.11-1.11c0-0.61-0.5-1.11-1.11-1.11h-2.98c-0.61,0-1.11,0.5-1.11,1.11
		C66.8,146.88,67.3,147.38,67.91,147.38z"/>
	<path fill="#231D1E" d="M286.82,147.38h2.98c0.61,0,1.11-0.5,1.11-1.11c0-0.61-0.5-1.11-1.11-1.11h-2.98
		c-0.61,0-1.11,0.5-1.11,1.11C285.72,146.88,286.21,147.38,286.82,147.38z"/>
	<path fill="#231D1E" d="M78.33,147.38h2.98c0.61,0,1.11-0.5,1.11-1.11c0-0.61-0.5-1.11-1.11-1.11h-2.98c-0.61,0-1.11,0.5-1.11,1.11
		C77.23,146.88,77.72,147.38,78.33,147.38z"/>
	<path fill="#231D1E" d="M265.98,147.38h2.98c0.61,0,1.11-0.5,1.11-1.11c0-0.61-0.5-1.11-1.11-1.11h-2.98
		c-0.61,0-1.11,0.5-1.11,1.11C264.87,146.88,265.36,147.38,265.98,147.38z"/>
	<path fill="#231D1E" d="M255.55,147.38h2.98c0.61,0,1.11-0.5,1.11-1.11c0-0.61-0.5-1.11-1.11-1.11h-2.98
		c-0.61,0-1.11,0.5-1.11,1.11C254.44,146.88,254.94,147.38,255.55,147.38z"/>
	<path fill="#231D1E" d="M172.15,147.38h2.98c0.61,0,1.11-0.5,1.11-1.11c0-0.61-0.5-1.11-1.11-1.11h-2.98
		c-0.61,0-1.11,0.5-1.11,1.11C171.05,146.88,171.54,147.38,172.15,147.38z"/>
	<path fill="#231D1E" d="M391.07,147.38h1.48c0.61,0,1.11-0.5,1.11-1.11c0-0.61-0.5-1.11-1.11-1.11h-1.48
		c-0.61,0-1.11,0.5-1.11,1.11C389.96,146.88,390.46,147.38,391.07,147.38z"/>
</g>
</svg>
