<?xml version="1.0" encoding="utf-8"?>
<!-- Generator: Adobe Illustrator 24.1.0, SVG Export Plug-In . SVG Version: 6.00 Build 0)  -->
<svg version="1.1" id="Layer_1" xmlns="http://www.w3.org/2000/svg" xmlns:xlink="http://www.w3.org/1999/xlink" x="0px" y="0px"
	 viewBox="0 0 120 71.47" enable-background="new 0 0 120 71.47" xml:space="preserve">
<g>
	<g>
		<g>
			<path fill="#020203" d="M106.64,17.14c-2.1,0-3.8-1.71-3.8-3.8s1.71-3.8,3.8-3.8s3.8,1.71,3.8,3.8S108.74,17.14,106.64,17.14z
				 M106.64,11.7c-0.9,0-1.63,0.73-1.63,1.63c0,0.9,0.73,1.63,1.63,1.63c0.9,0,1.63-0.73,1.63-1.63
				C108.27,12.43,107.53,11.7,106.64,11.7z"/>
		</g>
		<g>
			<path fill="#020203" d="M106.64,61.97c-2.1,0-3.8-1.71-3.8-3.8c0-2.1,1.71-3.8,3.8-3.8s3.8,1.71,3.8,3.8
				C110.44,60.26,108.74,61.97,106.64,61.97z M106.64,56.53c-0.9,0-1.63,0.73-1.63,1.63c0,0.9,0.73,1.63,1.63,1.63
				c0.9,0,1.63-0.73,1.63-1.63C108.27,57.26,107.53,56.53,106.64,56.53z"/>
		</g>
	</g>
	<g>
		<g>
			<path fill="#020203" d="M13.32,17.14c-2.1,0-3.8-1.71-3.8-3.8s1.71-3.8,3.8-3.8s3.8,1.71,3.8,3.8S15.42,17.14,13.32,17.14z
				 M13.32,11.7c-0.9,0-1.63,0.73-1.63,1.63c0,0.9,0.73,1.63,1.63,1.63s1.63-0.73,1.63-1.63C14.95,12.43,14.22,11.7,13.32,11.7z"/>
		</g>
		<g>
			<path fill="#020203" d="M13.32,61.97c-2.1,0-3.8-1.71-3.8-3.8c0-2.1,1.71-3.8,3.8-3.8s3.8,1.71,3.8,3.8
				C17.12,60.26,15.42,61.97,13.32,61.97z M13.32,56.53c-0.9,0-1.63,0.73-1.63,1.63c0,0.9,0.73,1.63,1.63,1.63s1.63-0.73,1.63-1.63
				C14.95,57.26,14.22,56.53,13.32,56.53z"/>
		</g>
	</g>
</g>
<path fill="#020203" d="M104.2,2.2c7.5,0,13.6,6.1,13.6,13.6v39.86c0,7.5-6.1,13.6-13.6,13.6H15.8c-7.5,0-13.6-6.1-13.6-13.6V15.8
	c0-7.5,6.1-13.6,13.6-13.6H104.2 M104.2,0H15.8C7.11,0,0,7.11,0,15.8v39.86c0,8.69,7.11,15.8,15.8,15.8h88.4
	c8.69,0,15.8-7.11,15.8-15.8V15.8C120,7.11,112.89,0,104.2,0L104.2,0z"/>
</svg>
