<?xml version="1.0" encoding="utf-8"?>
<!-- Generator: Adobe Illustrator 24.1.0, SVG Export Plug-In . SVG Version: 6.00 Build 0)  -->
<svg version="1.0" id="Layer_1" xmlns="http://www.w3.org/2000/svg" xmlns:xlink="http://www.w3.org/1999/xlink" x="0px" y="0px"
	 viewBox="0 0 315.51 262.33" enable-background="new 0 0 315.51 262.33" xml:space="preserve">
<g>
	<g>
		<polygon points="315.51,187.23 311.04,187.23 311.04,182.76 308.06,182.76 308.06,187.23 303.59,187.23 303.59,190.21 
			308.06,190.21 308.06,194.68 311.04,194.68 311.04,190.21 315.51,190.21 		"/>
		<g>
			<g>
				<g>
					
						<rect x="235.26" y="255.57" transform="matrix(0.7071 -0.7071 0.7071 0.7071 -111.1165 245.8561)" width="11.92" height="2.98"/>
				</g>
			</g>
			<g>
				<g>
					
						<rect x="239.73" y="251.1" transform="matrix(0.7071 -0.7071 0.7071 0.7071 -111.1163 245.8567)" width="2.98" height="11.92"/>
				</g>
			</g>
		</g>
		<polygon points="276.6,88.56 274.49,86.45 271.33,89.61 268.17,86.45 266.06,88.56 269.22,91.72 266.06,94.88 268.17,96.99 
			271.33,93.83 274.49,96.99 276.6,94.88 273.44,91.72 		"/>
		<polygon points="32.29,43.14 27.82,43.14 27.82,38.67 24.84,38.67 24.84,43.14 20.37,43.14 20.37,46.12 24.84,46.12 24.84,50.59 
			27.82,50.59 27.82,46.12 32.29,46.12 		"/>
		<g>
			<g>
				<path d="M145.78,61.28c-3.83,0-6.95-3.12-6.95-6.95c0-3.83,3.12-6.95,6.95-6.95s6.95,3.12,6.95,6.95
					C152.73,58.17,149.61,61.28,145.78,61.28z M145.78,50.37c-2.19,0-3.97,1.78-3.97,3.97c0,2.19,1.78,3.97,3.97,3.97
					c2.19,0,3.97-1.78,3.97-3.97C149.75,52.15,147.97,50.37,145.78,50.37z"/>
			</g>
		</g>
		<g>
			<g>
				<path d="M21.67,200.83c-3.39,0-6.15-2.76-6.15-6.15c0-3.39,2.76-6.15,6.15-6.15s6.15,2.76,6.15,6.15
					C27.82,198.07,25.06,200.83,21.67,200.83z M21.67,191.51c-1.75,0-3.17,1.42-3.17,3.17c0,1.75,1.42,3.17,3.17,3.17
					s3.17-1.42,3.17-3.17C24.84,192.94,23.42,191.51,21.67,191.51z"/>
			</g>
		</g>
		<g>
			<g>
				<g>
					<rect x="204.24" y="52.08" transform="matrix(0.9976 -0.0695 0.0695 0.9976 -3.2026 15.0994)" width="22.22" height="2.98"/>
				</g>
			</g>
			<g>
				<g>
					<rect x="228.72" y="51.04" transform="matrix(0.9976 -0.0695 0.0695 0.9976 -3.0948 16.1319)" width="3.03" height="2.98"/>
				</g>
			</g>
			<g>
				<g>
					<rect x="234.12" y="50.67" transform="matrix(0.9976 -0.0695 0.0695 0.9976 -3.0555 16.5057)" width="3.03" height="2.98"/>
				</g>
			</g>
			<g>
				<g>
					<rect x="239.52" y="50.29" transform="matrix(0.9976 -0.0688 0.0688 0.9976 -2.99 16.6958)" width="3.03" height="2.98"/>
				</g>
			</g>
		</g>
		<g>
			<g>
				<g>
					<rect x="84.42" y="200.77" transform="matrix(0.9976 -0.0696 0.0696 0.9976 -13.8367 7.1348)" width="22.22" height="2.98"/>
				</g>
			</g>
			<g>
				<g>
					<rect x="79.14" y="201.8" transform="matrix(0.9976 -0.0695 0.0695 0.9976 -13.9368 6.0986)" width="3.03" height="2.98"/>
				</g>
			</g>
			<g>
				<g>
					<rect x="73.74" y="202.18" transform="matrix(0.9976 -0.0695 0.0695 0.9976 -13.9754 5.7238)" width="3.03" height="2.98"/>
				</g>
			</g>
			<g>
				<g>
					<rect x="68.34" y="202.55" transform="matrix(0.9976 -0.0696 0.0696 0.9976 -14.0225 5.3527)" width="3.03" height="2.98"/>
				</g>
			</g>
		</g>
		<path d="M305.41,85.89l-14.06-0.97l4.94-20.43L146.15,74.87L12.31,65.61l-0.68-0.05l4.43,18.3L0,84.98l22.51,94.49l16.96,1.23
			l3.57,14.78l0.1,0.41l103.32-7.46l117.81,8.51l4.19-17.33l14.88-1.08L305.41,85.89z M292.44,67.74l-4.1,16.97l-120.6-8.34
			L292.44,67.74z M12.93,66.66l125.98,8.71L17.07,83.8L12.93,66.66z M24.9,176.65L3.71,87.71l13.06-0.9l21.96,90.85L24.9,176.65z
			 M43.91,194.83l-3.4-14.06l99,7.15L43.91,194.83z M261.96,193.78l-94.84-6.85l98.21-7.1L261.96,193.78z M160.19,186.43
			l-120.41-8.7l-22-90.99l142.71-9.87l143.67,9.94l-21.63,90.79L160.19,186.43z"/>
		<g>
			<g>
				<path d="M79.92,10.02c-2.76,0-5.01-2.25-5.01-5.01c0-2.76,2.25-5.01,5.01-5.01c2.76,0,5.01,2.25,5.01,5.01
					C84.93,7.77,82.68,10.02,79.92,10.02z M79.92,2.15c-1.58,0-2.86,1.28-2.86,2.86c0,1.58,1.28,2.86,2.86,2.86
					c1.58,0,2.86-1.28,2.86-2.86C82.78,3.43,81.5,2.15,79.92,2.15z"/>
			</g>
		</g>
		<g>
			<g>
				<path d="M149.95,225.41c-2.76,0-5.01-2.25-5.01-5.01c0-2.76,2.25-5.01,5.01-5.01c2.76,0,5.01,2.25,5.01,5.01
					C154.96,223.16,152.71,225.41,149.95,225.41z M149.95,217.54c-1.58,0-2.86,1.28-2.86,2.86c0,1.58,1.28,2.86,2.86,2.86
					c1.58,0,2.86-1.28,2.86-2.86C152.81,218.82,151.53,217.54,149.95,217.54z"/>
			</g>
		</g>
		<g>
			<g>
				<g>
					<rect x="245.68" y="16.46" transform="matrix(0.7071 -0.7071 0.7071 0.7071 61.0112 183.1919)" width="11.92" height="2.98"/>
				</g>
			</g>
			<g>
				<g>
					<rect x="250.15" y="11.99" transform="matrix(0.7071 -0.7071 0.7071 0.7071 61.0114 183.1925)" width="2.98" height="11.92"/>
				</g>
			</g>
		</g>
	</g>
</g>
</svg>
