<?xml version="1.0" encoding="utf-8"?>
<!-- Generator: Adobe Illustrator 24.1.0, SVG Export Plug-In . SVG Version: 6.00 Build 0)  -->
<svg version="1.1" id="Layer_1" xmlns="http://www.w3.org/2000/svg" xmlns:xlink="http://www.w3.org/1999/xlink" x="0px" y="0px"
	 viewBox="0 0 493.45 447.6" enable-background="new 0 0 493.45 447.6" xml:space="preserve">
<g id="SPLINE_21_">
	<g id="XMLID_3_">
		<g>
			<path fill="none" stroke="#000000" stroke-width="3" stroke-miterlimit="10" d="M246.72,445.64
				c-42.02-35.55-84.9-70.18-126.25-107.01c-34.63-30.9-68.16-63.4-91.49-102.61c-18.69-31.45-30.9-67.25-26.63-104.87
				C6.02,98.97,21.72,65.37,45.6,41.61c24-23.88,56.31-37.93,88.32-39.88c19.3-1.16,38.48,2.08,56.98,9.28
				c16.31,6.41,32.07,17.9,44.46,29.68c4.15,3.97,7.94,8.25,11.36,13.31c3.42-5.07,7.21-9.34,11.42-13.31
				c12.4-11.79,28.1-23.27,44.4-29.68c18.51-7.21,37.68-10.44,57.05-9.28c31.94,1.95,64.25,16,88.26,39.88
				c23.94,23.76,39.58,57.35,43.24,89.54c4.28,37.62-7.88,73.41-26.63,104.87c-23.33,39.21-56.86,71.7-91.49,102.61
				C331.68,375.46,288.74,410.09,246.72,445.64z"/>
		</g>
	</g>
</g>
</svg>
