<?xml version="1.0" encoding="utf-8"?>
<!-- Generator: Adobe Illustrator 24.1.0, SVG Export Plug-In . SVG Version: 6.00 Build 0)  -->
<svg version="1.0" id="Layer_1" xmlns="http://www.w3.org/2000/svg" xmlns:xlink="http://www.w3.org/1999/xlink" x="0px" y="0px"
	 viewBox="0 0 498.99 80.93" enable-background="new 0 0 498.99 80.93" xml:space="preserve">
<path d="M498.49,0c-1.49,0.7-3,1.37-4.47,2.11c-0.59,0.29-1.07,0.84-1.67,1.07c-4,1.5-7.97,3.08-12.04,4.37
	c-4.2,1.34-8.76,1.82-12.69,3.69c-7.24,3.45-10.62,10.6-14.66,17.04c-0.83,1.33-2.06,2.94-3.42,3.33
	c-8.89,2.53-17.79,5.12-26.84,6.98c-11.86,2.43-23.84,4.25-35.79,6.19c-3.56,0.58-7.19,0.7-10.79,1.04
	c1.13-1.57,2.43-2.23,3.74-2.87c4.85-2.33,9.53-4.83,12.74-9.43c5-7.15,8.08-14.86,7.54-23.73c-0.18-2.92-1.42-3.86-4.2-2.25
	c-3.56,2.06-7.41,3.69-10.81,5.99c-7.33,4.96-14.6,10.04-17.46,19.18c-0.87,2.76-1.99,5.58-3.66,7.9c-1.31,1.81-1.76,4.54-5.32,4.7
	c-5.39,0.24-10.7,1.88-16.09,2.35c-10.72,0.94-21.46,1.68-32.21,2.13c-5.85,0.24-11.73-0.28-16.32-0.42
	c1.89-2.36,4.85-4.66,5.86-7.62c2.32-6.77,5.33-13.46,4.65-21.02c-0.32-3.54-1.52-5.26-4.92-4.1c-3.75,1.28-8,2.5-10.69,5.13
	c-5.39,5.28-10.03,11.37-14.64,17.39c-2.68,3.49-5.22,7.09-9.7,8.02c-5,1.03-10.09,1.61-15.16,2.37
	c-5.06-0.75-10.15-1.33-15.16-2.37c-4.48-0.93-7.02-4.53-9.7-8.02c-4.61-6.02-9.25-12.1-14.64-17.39
	c-2.68-2.63-6.94-3.86-10.69-5.13c-3.4-1.16-4.6,0.56-4.92,4.1c-0.68,7.56,2.33,14.25,4.65,21.02c1.02,2.96,3.98,5.26,5.86,7.62
	c-4.59,0.14-10.47,0.66-16.32,0.42c-10.75-0.45-21.49-1.19-32.21-2.13c-5.39-0.47-10.7-2.11-16.09-2.35
	c-3.56-0.16-4.01-2.88-5.32-4.7c-1.67-2.31-2.8-5.14-3.66-7.9c-2.87-9.14-10.14-14.22-17.46-19.18c-3.4-2.3-7.24-3.92-10.81-5.99
	c-2.78-1.61-4.02-0.66-4.2,2.25c-0.55,8.88,2.54,16.59,7.54,23.73c3.22,4.6,7.89,7.1,12.74,9.43c1.31,0.63,2.61,1.3,3.74,2.87
	c-3.6-0.33-7.23-0.46-10.79-1.04c-11.95-1.95-23.93-3.77-35.79-6.19c-9.05-1.85-17.95-4.45-26.84-6.98c-1.36-0.39-2.58-2-3.42-3.33
	c-4.04-6.44-7.42-13.59-14.66-17.04c-3.92-1.87-8.49-2.35-12.69-3.69c-4.07-1.3-8.04-2.87-12.04-4.37C6.03,2.95,5.56,2.4,4.97,2.11
	C3.49,1.37,1.99,0.7,0.5,0C0.36,1.58-0.32,3.36,0.18,4.7c3.52,9.29,6.83,18.96,15.41,24.91c3.58,2.49,8.21,4.29,12.53,4.72
	c9.93,1,20.04-0.02,29.64,3.94c2.94,1.21,6.35,1.27,9.51,2.69c-6.26,2.89-12.52,5.8-18.8,8.65c-6.11,2.77-12.28,5.42-18.34,8.29
	c-0.88,0.42-1.6,1.74-1.81,2.76c-0.09,0.41,1.3,1.5,2.15,1.69c7.44,1.67,14.88,3.33,22.37,4.76c11.2,2.13,21.13-1.53,30.43-7.3
	c4.7-2.92,9.2-6.17,13.65-9.47c0.91-0.67,1.18-2.21,1.37-2.59c24.64,1.8,48.99,3.57,73.34,5.35c-11.17,4.08-20.55,10.63-29.51,17.94
	c-1.5,1.22-3.53,1.76-5.17,2.83c-0.96,0.62-1.63,1.68-2.43,2.55c0.82,0.72,1.57,1.94,2.47,2.07c6.71,0.97,13.43,2.15,20.18,2.43
	c7.99,0.33,14.62-3.68,20.12-8.98c4.2-4.04,7.62-8.91,11.16-13.58c0.8-1.05,0.7-2.8,1.07-4.5c9.79-0.46,19.3-1.13,28.82-1.28
	c9.4-0.14,18.8,0.3,28.21,0.39c0.97,0.01,1.94-0.11,2.91-0.27c0.97,0.16,1.94,0.28,2.91,0.27c9.4-0.09,18.81-0.53,28.21-0.39
	c9.52,0.14,19.04,0.82,28.82,1.28c0.37,1.7,0.27,3.45,1.07,4.5c3.55,4.67,6.97,9.54,11.16,13.58c5.5,5.3,12.13,9.31,20.12,8.98
	c6.75-0.28,13.47-1.46,20.18-2.43c0.91-0.13,1.65-1.35,2.47-2.07c-0.8-0.86-1.47-1.92-2.43-2.55c-1.64-1.07-3.67-1.61-5.17-2.83
	c-8.96-7.31-18.34-13.86-29.51-17.94c24.35-1.78,48.7-3.55,73.34-5.35c0.19,0.39,0.46,1.92,1.37,2.59
	c4.45,3.29,8.95,6.55,13.65,9.47c9.3,5.77,19.24,9.43,30.43,7.3c7.49-1.42,14.93-3.09,22.37-4.76c0.85-0.19,2.24-1.27,2.15-1.69
	c-0.21-1.02-0.93-2.34-1.81-2.76c-6.06-2.87-12.23-5.51-18.34-8.29c-6.28-2.85-12.53-5.76-18.8-8.65c3.16-1.41,6.57-1.47,9.51-2.69
	c9.6-3.97,19.71-2.94,29.64-3.94c4.32-0.44,8.95-2.24,12.53-4.72c8.58-5.95,11.89-15.62,15.41-24.91
	C499.31,3.36,498.62,1.58,498.49,0z M5.79,8.14C14.72,15.59,21.69,25.45,33.9,30C19.32,33.31,8.6,19.41,5.79,8.14z M14.18,10.73
	c13.07,1,23.05,5.38,27.88,18.77C30.6,25.82,22.01,19.38,14.18,10.73z M40.74,57.68c1.36-1.07,1.97-1.79,2.74-2.12
	c9.46-4.08,18.77-8.64,28.52-11.89c3.93-1.31,8.82,0.31,13.28,0.59c-0.02,0.46-0.04,0.93-0.06,1.39
	C70.12,47.51,57.57,58.63,40.74,57.68z M86.37,53.69c-12.9,10.03-26.97,13.72-41.41,8.06c6.56-1.92,14.26-4.11,21.92-6.45
	c5.88-1.79,11.68-3.87,17.59-5.57c1.14-0.33,2.63,0.55,3.96,0.88C87.76,51.66,87.29,52.97,86.37,53.69z M103.8,18.36
	c7.79,7.73,15.75,15.64,23.97,23.79C115.81,39.54,102.74,27.4,103.8,18.36z M108.61,16.34c6.69-0.06,18.12,12.65,19.28,21.11
	C121.19,30.11,115.17,23.52,108.61,16.34z M174.2,57.34c-9.42,5.23-16.81,14.26-28.41,15.4C154.04,65.32,163.09,59.39,174.2,57.34z
	 M151.22,76.28c9.93-5.89,20.01-11.88,30.09-17.87C179.76,70.6,158.53,81.48,151.22,76.28z M203.76,21.16
	c4.47,4.08,8.95,8.17,13.42,12.25c-0.44,0.45-0.88,0.9-1.32,1.35c-4.45-4.09-8.89-8.18-13.34-12.26
	C202.94,22.06,203.35,21.61,203.76,21.16z M198.68,23.85c9.69,8.53,19.01,16.73,28.54,25.12C208.56,48.63,198.38,42.42,198.68,23.85
	z M295.22,21.16c0.41,0.45,0.83,0.9,1.24,1.34c-4.45,4.09-8.89,8.18-13.34,12.26c-0.44-0.45-0.88-0.9-1.32-1.35
	C286.27,29.33,290.75,25.25,295.22,21.16z M271.76,48.97c9.54-8.39,18.85-16.6,28.54-25.12C300.6,42.42,290.42,48.63,271.76,48.97z
	 M317.68,58.41c10.08,5.99,20.17,11.97,30.09,17.87C340.45,81.48,319.23,70.6,317.68,58.41z M353.19,72.74
	c-11.6-1.15-18.99-10.17-28.41-15.4C335.9,59.39,344.94,65.32,353.19,72.74z M390.38,16.34c-6.56,7.18-12.58,13.77-19.28,21.11
	C372.25,29,383.69,16.28,390.38,16.34z M395.18,18.36c1.06,9.04-12,21.18-23.97,23.79C379.43,33.99,387.4,26.09,395.18,18.36z
	 M412.62,53.69c-0.93-0.72-1.39-2.03-2.07-3.07c1.33-0.32,2.82-1.21,3.96-0.88c5.91,1.69,11.71,3.77,17.59,5.57
	c7.66,2.33,15.36,4.52,21.92,6.45C439.59,67.41,425.51,63.72,412.62,53.69z M455.51,55.56c0.77,0.33,1.37,1.04,2.74,2.12
	c-16.83,0.95-29.38-10.16-44.48-12.02c-0.02-0.46-0.04-0.93-0.06-1.39c4.46-0.28,9.35-1.89,13.28-0.59
	C436.74,46.92,446.05,51.48,455.51,55.56z M484.81,10.73c-7.84,8.64-16.42,15.09-27.88,18.77
	C461.76,16.11,471.74,11.73,484.81,10.73z M465.09,30c12.2-4.55,19.17-14.41,28.11-21.86C490.38,19.41,479.67,33.31,465.09,30z"/>
</svg>
