<?xml version="1.0" encoding="utf-8"?>
<!-- Generator: Adobe Illustrator 24.1.0, SVG Export Plug-In . SVG Version: 6.00 Build 0)  -->
<svg version="1.1" id="Layer_1" xmlns="http://www.w3.org/2000/svg" xmlns:xlink="http://www.w3.org/1999/xlink" x="0px" y="0px"
	 viewBox="0 0 448.24 435.82" enable-background="new 0 0 448.24 435.82" xml:space="preserve">
<path fill="none" stroke="#000000" stroke-width="3" stroke-miterlimit="10" d="M384.86,297.84c-3.62-6.59-8.04-12.72-13.15-18.26
	c50.03-9.48,82.86-57.7,73.41-107.72c-9.49-50.01-57.7-82.86-107.73-73.39c-7.38,1.41-14.58,3.72-21.41,6.85
	c6.43-50.49-29.27-96.64-79.76-103.07C185.72-4.18,139.57,31.52,133.12,82c-0.95,7.48-0.98,15.02-0.09,22.51
	C87,82.78,32.07,102.48,10.33,148.5c-21.71,46.04-2.02,100.97,44.02,122.68c6.8,3.22,13.98,5.58,21.35,7.04
	c-34.88,37.07-33.12,95.4,3.94,130.3c37.07,34.88,95.4,33.12,130.28-3.95c5.16-5.48,9.63-11.56,13.31-18.15
	c24.46,44.64,80.48,60.99,125.13,36.51C392.98,398.48,409.32,342.46,384.86,297.84z"/>
</svg>
