<?xml version="1.0" encoding="utf-8"?>
<!-- Generator: Adobe Illustrator 24.1.0, SVG Export Plug-In . SVG Version: 6.00 Build 0)  -->
<svg version="1.1" id="Layer_1" xmlns="http://www.w3.org/2000/svg" xmlns:xlink="http://www.w3.org/1999/xlink" x="0px" y="0px"
	 viewBox="0 0 493.4 447.6" style="enable-background:new 0 0 493.4 447.6;" xml:space="preserve">
<style type="text/css">
	.st0{fill:none;stroke:#000000;stroke-width:3;stroke-miterlimit:10;}
</style>
<g id="SPLINE_21_">
	<g id="XMLID_3_">
		<g>
			<path class="st0" d="M246.7,445.6c-42-35.5-84.9-70.2-126.2-107C85.8,307.7,52.3,275.2,29,236C10.3,204.6-1.9,168.8,2.4,131.2
				C6,99,21.7,65.4,45.6,41.6c24-23.9,56.3-37.9,88.3-39.9c19.3-1.2,38.5,2.1,57,9.3c16.3,6.4,32.1,17.9,44.5,29.7
				c4.2,4,7.9,8.2,11.4,13.3c3.4-5.1,7.2-9.3,11.4-13.3c12.4-11.8,28.1-23.3,44.4-29.7c18.5-7.2,37.7-10.4,57-9.3
				c31.9,2,64.3,16,88.3,39.9c23.9,23.8,39.6,57.4,43.2,89.5c4.3,37.6-7.9,73.4-26.6,104.9c-23.3,39.2-56.9,71.7-91.5,102.6
				C331.7,375.5,288.7,410.1,246.7,445.6z"/>
		</g>
	</g>
</g>
</svg>
