<?xml version="1.0" encoding="utf-8"?>
<!-- Generator: Adobe Illustrator 24.1.0, SVG Export Plug-In . SVG Version: 6.00 Build 0)  -->
<svg version="1.0" id="Layer_1" xmlns="http://www.w3.org/2000/svg" xmlns:xlink="http://www.w3.org/1999/xlink" x="0px" y="0px"
	 viewBox="0 0 284.65 284.65" enable-background="new 0 0 284.65 284.65" xml:space="preserve">
<g>
	<g>
		<path d="M82.59,80.05c0,1.33-0.24,2.33-0.73,3.02s-1.2,1.03-2.15,1.03c-0.93,0-1.64-0.34-2.14-1.01
			c-0.49-0.67-0.75-1.65-0.76-2.94v-1.68c0-1.32,0.25-2.32,0.74-3c0.49-0.68,1.21-1.02,2.15-1.02c0.93,0,1.64,0.33,2.13,0.98
			c0.49,0.66,0.74,1.62,0.76,2.9V80.05z M81.81,78.37c0-1.08-0.18-1.89-0.53-2.44c-0.35-0.55-0.88-0.83-1.59-0.83
			c-0.7,0-1.22,0.27-1.57,0.81c-0.35,0.54-0.53,1.33-0.54,2.38v1.85c0,1.07,0.18,1.89,0.55,2.46c0.36,0.57,0.89,0.85,1.58,0.85
			c0.69,0,1.21-0.28,1.57-0.83s0.53-1.37,0.54-2.44V78.37z"/>
		<path d="M87.84,83.97h-0.77V75.5l-2.56,0.95v-0.72l3.2-1.19h0.13V83.97z"/>
		<path d="M97.46,83.97h-5.89v-0.59l3.22-3.65c0.53-0.62,0.9-1.12,1.11-1.52c0.21-0.4,0.31-0.79,0.31-1.17
			c0-0.59-0.17-1.06-0.52-1.41c-0.35-0.35-0.83-0.52-1.44-0.52c-0.63,0-1.14,0.2-1.53,0.61c-0.39,0.4-0.58,0.93-0.58,1.57h-0.77
			c0-0.53,0.12-1.01,0.36-1.45c0.24-0.43,0.58-0.78,1.02-1.02c0.44-0.25,0.94-0.37,1.51-0.37c0.86,0,1.53,0.23,2.02,0.68
			c0.48,0.45,0.73,1.07,0.73,1.85c0,0.44-0.14,0.92-0.41,1.44c-0.27,0.52-0.75,1.17-1.44,1.95l-2.62,2.96h4.94V83.97z"/>
		<path d="M103.64,80.94h1.46v0.65h-1.46v2.38h-0.77V81.6h-4.42v-0.44l4.35-6.58h0.85V80.94z M99.4,80.94h3.47v-5.37l-0.34,0.59
			L99.4,80.94z"/>
	</g>
	<g>
		<path d="M185.86,80.05c0,1.33-0.24,2.33-0.73,3.02c-0.49,0.69-1.2,1.03-2.15,1.03c-0.93,0-1.64-0.34-2.14-1.01
			c-0.49-0.67-0.75-1.65-0.76-2.94v-1.68c0-1.32,0.25-2.32,0.74-3c0.49-0.68,1.21-1.02,2.15-1.02c0.93,0,1.64,0.33,2.13,0.98
			c0.49,0.66,0.74,1.62,0.76,2.9V80.05z M185.09,78.37c0-1.08-0.18-1.89-0.53-2.44c-0.35-0.55-0.88-0.83-1.59-0.83
			c-0.7,0-1.22,0.27-1.57,0.81c-0.35,0.54-0.53,1.33-0.54,2.38v1.85c0,1.07,0.18,1.89,0.55,2.46c0.36,0.57,0.89,0.85,1.58,0.85
			c0.69,0,1.21-0.28,1.57-0.83c0.36-0.55,0.53-1.37,0.54-2.44V78.37z"/>
		<path d="M191.11,83.97h-0.77V75.5l-2.56,0.95v-0.72l3.2-1.19h0.13V83.97z"/>
		<path d="M200.73,83.97h-5.89v-0.59l3.22-3.65c0.53-0.62,0.9-1.12,1.11-1.52c0.21-0.4,0.31-0.79,0.31-1.17
			c0-0.59-0.17-1.06-0.52-1.41c-0.35-0.35-0.83-0.52-1.44-0.52c-0.63,0-1.14,0.2-1.53,0.61c-0.39,0.4-0.58,0.93-0.58,1.57h-0.77
			c0-0.53,0.12-1.01,0.36-1.45c0.24-0.43,0.58-0.78,1.02-1.02c0.44-0.25,0.94-0.37,1.51-0.37c0.86,0,1.53,0.23,2.02,0.68
			c0.48,0.45,0.73,1.07,0.73,1.85c0,0.44-0.14,0.92-0.41,1.44c-0.27,0.52-0.75,1.17-1.44,1.95l-2.62,2.96h4.94V83.97z"/>
		<path d="M206.91,80.94h1.46v0.65h-1.46v2.38h-0.77V81.6h-4.42v-0.44l4.35-6.58h0.85V80.94z M202.67,80.94h3.47v-5.37l-0.34,0.59
			L202.67,80.94z"/>
	</g>
</g>
<g>
	<path d="M142.33,0.56C64.15,0.56,0.56,64.15,0.56,142.33s63.6,141.77,141.77,141.77c78.17,0,141.77-63.6,141.77-141.77
		S220.5,0.56,142.33,0.56z M142.33,277.48c-74.65,0-135.16-60.51-135.16-135.16C7.17,67.68,67.68,7.17,142.33,7.17
		c74.65,0,135.16,60.51,135.16,135.16C277.48,216.97,216.97,277.48,142.33,277.48z"/>
	<path d="M81.93,41.69c0.57,0,1.14-0.13,1.65-0.44c1.59-0.93,2.11-2.93,1.19-4.52c-0.9-1.59-2.93-2.11-4.52-1.19
		c-1.56,0.9-2.09,2.93-1.19,4.52C79.69,41.12,80.79,41.69,81.93,41.69z"/>
	<path d="M62.68,232.4c-1.17,1.39-0.99,3.48,0.42,4.65c0.62,0.51,1.37,0.77,2.11,0.77c0.95,0,1.87-0.4,2.53-1.19
		c1.17-1.39,0.99-3.48-0.42-4.65C65.94,230.81,63.85,230.99,62.68,232.4z"/>
	<path d="M64.82,53.77c0.75,0,1.52-0.24,2.14-0.77c1.39-1.19,1.56-3.26,0.4-4.65c-1.19-1.41-3.26-1.59-4.65-0.4
		c-1.41,1.17-1.59,3.26-0.4,4.65C62.94,53.37,63.89,53.77,64.82,53.77z"/>
	<path d="M48.25,217.19c-1.39,1.19-1.56,3.26-0.4,4.67c0.66,0.77,1.59,1.17,2.53,1.17c0.75,0,1.5-0.26,2.14-0.77
		c1.39-1.19,1.56-3.26,0.4-4.67C51.73,216.2,49.66,216.03,48.25,217.19z"/>
	<path d="M84.03,243.65c-1.59-0.93-3.61-0.37-4.52,1.21c-0.9,1.56-0.37,3.59,1.21,4.52c0.53,0.29,1.1,0.44,1.65,0.44
		c1.15,0,2.25-0.59,2.87-1.65C86.14,246.58,85.61,244.56,84.03,243.65z"/>
	<path d="M50.05,68.62c0.95,0,1.87-0.4,2.53-1.19c1.17-1.39,0.99-3.48-0.42-4.65c-1.39-1.17-3.48-0.99-4.65,0.42
		c-1.17,1.39-0.99,3.48,0.42,4.65C48.56,68.37,49.31,68.62,50.05,68.62z"/>
	<path d="M121.06,27.33c0.2,0,0.4-0.02,0.59-0.07c1.81-0.31,3-2.03,2.67-3.83c-0.31-1.78-2.03-3-3.83-2.67
		c-1.79,0.31-3,2.03-2.67,3.83C118.11,26.21,119.5,27.33,121.06,27.33z"/>
	<path d="M102.49,252.25c-1.72-0.64-3.61,0.26-4.23,1.98c-0.62,1.7,0.26,3.59,1.98,4.23c0.37,0.13,0.75,0.2,1.12,0.2
		c1.34,0,2.62-0.84,3.11-2.18C105.09,254.76,104.21,252.86,102.49,252.25z"/>
	<path d="M100.86,32.79c0.4,0,0.77-0.07,1.14-0.2c1.72-0.64,2.6-2.53,1.96-4.25c-0.62-1.72-2.53-2.6-4.23-1.96
		c-1.72,0.64-2.6,2.53-1.96,4.25C98.26,31.96,99.51,32.79,100.86,32.79z"/>
	<path d="M122.16,257.47c-1.81-0.31-3.5,0.88-3.81,2.69c-0.33,1.81,0.88,3.5,2.69,3.83c0.17,0.02,0.37,0.04,0.55,0.04
		c1.59,0,2.99-1.12,3.26-2.73C125.16,259.49,123.95,257.78,122.16,257.47z"/>
	<path d="M141.95,25.46c1.83-0.02,3.3-1.5,3.28-3.33c0-1.83-1.48-3.3-3.3-3.28c-1.83,0-3.3,1.48-3.3,3.3
		C138.64,23.98,140.12,25.46,141.95,25.46z"/>
	<path d="M25.45,142.57c0-1.83-1.48-3.28-3.3-3.28c-1.83,0-3.3,1.48-3.3,3.3c0,1.83,1.5,3.3,3.3,3.3
		C23.97,145.9,25.45,144.4,25.45,142.57z"/>
	<path d="M28.13,104.59c0.38,0.13,0.75,0.2,1.13,0.2c1.34,0,2.62-0.84,3.11-2.18c0.62-1.72-0.26-3.61-1.98-4.23
		c-1.72-0.62-3.61,0.26-4.23,1.98C25.53,102.08,26.42,103.98,28.13,104.59z"/>
	<path d="M28.31,180.56c-1.72,0.62-2.6,2.53-1.96,4.23c-0.02,0-0.02,0-0.02,0c0.51,1.34,1.76,2.18,3.11,2.18
		c0.4,0,0.77-0.07,1.14-0.2c1.72-0.64,2.6-2.53,1.96-4.25C31.92,180.8,30.03,179.94,28.31,180.56z"/>
	<path d="M27.25,162.87c-0.33-1.81-2.05-3-3.83-2.67c-1.81,0.31-3,2.03-2.67,3.81c0.26,1.61,1.67,2.73,3.24,2.73
		c0.2,0,0.37,0,0.57-0.04C26.37,166.37,27.56,164.67,27.25,162.87z"/>
	<path d="M162.24,27.13c0.18,0.04,0.37,0.07,0.55,0.07c1.59,0,3-1.15,3.26-2.75c0.31-1.81-0.9-3.5-2.69-3.81
		c-1.81-0.31-3.53,0.88-3.83,2.69C159.22,25.13,160.43,26.82,162.24,27.13z"/>
	<path d="M36.42,85.36c0.53,0.29,1.1,0.44,1.65,0.44c1.14,0,2.25-0.59,2.86-1.65c0.93-1.59,0.37-3.61-1.21-4.52
		c-1.59-0.93-3.61-0.37-4.52,1.21C34.3,82.43,34.83,84.43,36.42,85.36z"/>
	<path d="M36.68,199.75c-1.59,0.93-2.11,2.95-1.21,4.52c0.62,1.06,1.72,1.65,2.87,1.65c0.57,0,1.12-0.15,1.65-0.46
		c1.59-0.9,2.11-2.93,1.21-4.52C40.27,199.37,38.25,198.82,36.68,199.75z"/>
	<path d="M23.33,124.99c0.2,0.02,0.4,0.04,0.57,0.04c1.59,0,2.97-1.15,3.26-2.75c0.31-1.78-0.9-3.5-2.69-3.81
		c-1.81-0.31-3.52,0.9-3.83,2.69C20.33,122.97,21.55,124.66,23.33,124.99z"/>
	<path d="M246.18,85.12c0.57,0,1.14-0.13,1.67-0.44c1.59-0.93,2.11-2.95,1.19-4.52c-0.93-1.59-2.95-2.11-4.52-1.19
		c-1.59,0.93-2.11,2.93-1.19,4.52C243.95,84.55,245.05,85.12,246.18,85.12z"/>
	<path d="M257.37,121.54c0.29,1.59,1.67,2.71,3.24,2.71c0.2,0,0.4,0,0.59-0.04c1.79-0.33,2.98-2.03,2.67-3.83
		c-0.33-1.81-2.05-3-3.83-2.67C258.23,118.01,257.04,119.73,257.37,121.54z"/>
	<path d="M234.1,68.02c0.75,0,1.5-0.24,2.11-0.77c1.41-1.19,1.59-3.28,0.4-4.67c-1.17-1.39-3.26-1.56-4.65-0.37
		c-1.41,1.17-1.56,3.26-0.4,4.65C232.23,67.63,233.15,68.02,234.1,68.02z"/>
	<path d="M248.09,199.53c-1.59-0.9-3.59-0.37-4.52,1.21c-0.9,1.59-0.37,3.59,1.21,4.52c0.53,0.29,1.08,0.44,1.65,0.44
		c1.14,0,2.25-0.59,2.86-1.65C250.21,202.46,249.68,200.45,248.09,199.53z"/>
	<path d="M231.9,217.41c-1.19,1.39-0.99,3.48,0.4,4.65c0.62,0.53,1.36,0.77,2.11,0.77c0.95,0,1.89-0.4,2.53-1.17
		c1.19-1.41,0.99-3.48-0.4-4.67C235.14,215.83,233.07,216,231.9,217.41z"/>
	<path d="M142.45,259.21c-1.83,0-3.3,1.48-3.3,3.3c0,1.81,1.48,3.3,3.3,3.3s3.3-1.5,3.3-3.3
		C145.76,260.68,144.28,259.21,142.45,259.21z"/>
	<path d="M261.27,159.94c-1.78-0.33-3.5,0.88-3.81,2.67v0.02c-0.33,1.78,0.88,3.5,2.67,3.81c0.2,0.04,0.4,0.04,0.57,0.04
		c1.59,0,2.97-1.12,3.26-2.73C264.26,161.96,263.07,160.24,261.27,159.94z"/>
	<path d="M256.42,180.29c-1.72-0.62-3.61,0.26-4.23,1.98c-0.62,1.72,0.26,3.61,1.98,4.23c0.37,0.13,0.75,0.2,1.12,0.2
		c1.34,0,2.62-0.82,3.11-2.16C259.02,182.83,258.14,180.93,256.42,180.29z"/>
	<path d="M255.12,104.04c0.37,0,0.77-0.07,1.15-0.2c1.72-0.64,2.58-2.53,1.96-4.25c-0.64-1.7-2.53-2.58-4.25-1.94
		c-1.72,0.62-2.6,2.53-1.96,4.23C252.52,103.23,253.78,104.04,255.12,104.04z"/>
	<path d="M262.48,138.5c-1.81,0-3.28,1.5-3.28,3.33c0,0.09,0,0.18,0.02,0.26c-0.02,0.09-0.02,0.15-0.02,0.24
		c0,1.83,1.48,3.3,3.3,3.3c1.83,0,3.3-1.48,3.3-3.3c0-0.09,0-0.18,0-0.26s0-0.2,0-0.29C265.81,139.95,264.31,138.48,262.48,138.5z"
		/>
	<path d="M181.91,32.33c0.37,0.13,0.75,0.2,1.12,0.2c1.37,0,2.62-0.84,3.11-2.18c0.62-1.74-0.26-3.61-1.98-4.23
		c-1.72-0.64-3.61,0.26-4.23,1.98C179.31,29.82,180.19,31.72,181.91,32.33z"/>
	<path d="M162.74,257.42c-1.81,0.31-3,2.03-2.69,3.83c0.29,1.61,1.67,2.73,3.26,2.73c0.18,0,0.37-0.02,0.57-0.04
		c1.79-0.33,3-2.05,2.67-3.83C166.25,258.3,164.53,257.11,162.74,257.42z"/>
	<path d="M182.39,252.16c-1.72,0.62-2.6,2.51-1.96,4.23c0.48,1.34,1.74,2.18,3.1,2.18c0.38,0,0.75-0.07,1.13-0.22
		c1.72-0.62,2.6-2.51,1.96-4.23C186.01,252.4,184.11,251.52,182.39,252.16z"/>
	<path d="M217.49,231.82c-1.39,1.17-1.56,3.26-0.4,4.65c0.66,0.79,1.59,1.19,2.53,1.19c0.75,0,1.5-0.26,2.11-0.77
		c1.41-1.19,1.59-3.26,0.42-4.67C220.97,230.83,218.9,230.65,217.49,231.82z"/>
	<path d="M219.23,53.28c0.95,0,1.9-0.42,2.53-1.19c1.17-1.41,0.99-3.48-0.42-4.65c-1.41-1.17-3.48-0.99-4.65,0.42
		c-1.17,1.39-0.97,3.48,0.42,4.65C217.73,53.02,218.48,53.28,219.23,53.28z"/>
	<path d="M200.39,40.88c0.53,0.29,1.08,0.44,1.65,0.44c1.15,0,2.25-0.59,2.86-1.67c0.9-1.57,0.35-3.59-1.21-4.49
		c-1.59-0.93-3.61-0.38-4.52,1.21C198.28,37.95,198.81,39.98,200.39,40.88z"/>
	<path d="M200.84,243.52c-1.59,0.93-2.11,2.95-1.21,4.52c0.62,1.06,1.72,1.65,2.86,1.65c0.57,0,1.14-0.15,1.65-0.44
		c1.59-0.93,2.11-2.95,1.21-4.52C204.43,243.15,202.4,242.62,200.84,243.52z"/>
	<path d="M144.06,84.7c0.68-6.21,1.43-14.43,2.04-21.56l18.26,9.05v-5.24l-17.49-13.32c0.24-3.2,0.39-5.43,0.39-5.98
		c0-2.73-2.21-7.18-4.94-7.18c-2.73,0-4.94,4.45-4.94,7.18c0,0.55,0.15,2.78,0.39,5.98l-17.49,13.32v5.24l18.26-9.05
		c0.61,7.13,1.36,15.35,2.04,21.56l-6.18,4.4l-0.5,3.41l8.21-3.25l0.41,0c0,0,0,0,0,0l8.21,3.25l-0.5-3.41L144.06,84.7z"/>
</g>
</svg>
