<?xml version="1.0" encoding="utf-8"?>
<!-- Generator: Adobe Illustrator 24.1.0, SVG Export Plug-In . SVG Version: 6.00 Build 0)  -->
<svg version="1.0" id="Layer_1" xmlns="http://www.w3.org/2000/svg" xmlns:xlink="http://www.w3.org/1999/xlink" x="0px" y="0px"
	 viewBox="0 0 500 500" enable-background="new 0 0 500 500" xml:space="preserve">
<g>
	<path d="M445.27,480.65c0.38-1.34,0.76-2.68,1.14-4.02c0.19-0.66-0.25-1.02-0.67-1.35c-1.31-1.04-2.7-1.99-3.95-3.1
		c-1.21-1.07-2.36-2.23-3.37-3.48c-0.82-1-0.36-1.84,0.94-2.02c1.3-0.18,2.49,0.05,3.46,0.99c1.32,1.29,2.59,2.62,3.11,4.48
		c0.18,0.65,0.52,1.26,1.13,1.91c0.49-1.57,1.06-3.11,1.42-4.71c0.19-0.84-0.14-1.7-0.89-2.3c-1.1-0.88-2.16-1.81-3.29-2.65
		c-1.46-1.07-2.72-2.31-3.67-3.85c-0.42-0.68-0.63-1.33-0.02-2.08c0.61-0.73,1.28-0.99,2.12-0.56c0.66,0.34,1.44,0.63,1.86,1.18
		c1.51,1.96,3.18,3.84,3.94,6.29c0.04,0.13,0.18,0.23,0.48,0.58c0.74-2.5,1.5-4.77,1.16-7.21c-0.07-0.51-0.56-1.05-1-1.4
		c-1.18-0.94-2.46-1.76-3.67-2.68c-0.86-0.66-1.73-1.32-2.46-2.11c-0.99-1.07-0.67-2.01,0.71-2.42c1.49-0.43,2.68-0.07,3.54,1.23
		c1.07,1.62,2.04,3.3,3.1,5.01c0.06-0.37,0.16-0.76,0.17-1.16c0.04-2,0.03-4.01,0.1-6.01c0.04-1.4-0.57-2.26-1.9-2.62
		c-0.88-0.24-1.79-0.42-2.66-0.71c-0.81-0.27-1.62-0.6-2.37-1.01c-0.53-0.29-0.66-0.83-0.34-1.4c0.74-1.34,2.44-1.82,3.79-1.04
		c0.56,0.32,1.12,0.67,1.62,1.08c0.43,0.36,0.77,0.83,1.24,1.35c-0.38-1.99-0.68-3.83-1.11-5.64c-0.2-0.84-0.85-1.35-1.8-1.33
		c-0.75,0.02-1.52,0.03-2.27-0.04c-0.94-0.09-1.8-0.37-2.33-1.25c-0.69-1.15-0.43-1.81,0.83-2.17c0.9-0.26,1.71,0,2.51,0.35
		c0.44,0.19,0.84,0.48,1.59,0.93c-1.13-2.38-2.21-4.36-3.92-6.09c-0.37,0.37-0.67,0.66-0.96,0.96c-1.04,1.08-2.25,1.85-3.74,2.13
		c-0.83,0.16-1.71-0.12-2.02-0.67c-0.34-0.6-0.08-1.57,0.61-2.17c1.19-1.04,2.59-1.53,4.52-1.61c-1.58-1.48-3.01-2.55-4.9-2.98
		c-1.57-0.36-3.16-0.72-4.67-1.29c-0.75-0.29-1.44-0.95-1.96-1.6c-0.74-0.92-0.44-1.9,0.62-2.37c0.92-0.41,1.84-0.56,2.78,0.09
		c1.07,0.74,2.12,1.46,2.77,2.65c0.61,1.11,1.5,1.94,2.62,2.58c0.93,0.53,1.75,1.25,2.75,1.79c-1.22-2.21-1.31-4.45-0.82-6.76
		c1.68,0.05,2.39,0.52,2.66,1.91c0.19,1,0.36,2.07,0.21,3.06c-0.31,2.15-0.12,4.05,1.52,5.68c0.66,0.66,1.08,1.56,1.77,2.6
		c0.3-1.4,0.54-2.48,0.74-3.57c0.13-0.71,0.38-1.16,1.22-1.24c0.87-0.09,1.61,0.12,1.86,0.91c0.26,0.79,0.41,1.73,0.23,2.51
		c-0.28,1.19-0.81,2.35-1.41,3.42c-0.56,1.01-0.81,1.94-0.39,3.07c0.32,0.85,0.42,1.79,0.65,2.67c0.13,0.49,0.34,0.96,0.59,1.65
		c0.65-1.37,1.16-2.48,1.72-3.58c0.46-0.91,1.22-1.52,2.23-1.73c1.28-0.27,2.01,0.31,1.99,1.63c-0.04,1.76-0.99,3.04-2.3,4.12
		c-0.75,0.62-1.49,1.25-2.19,1.91c-0.74,0.71-0.98,1.56-0.89,2.64c0.17,2.04,0.14,4.09,0.19,6.22c1.09-1.56,2.07-3.07,3.16-4.49
		c0.69-0.9,1.5-1.68,2.72-1.92c0.72-0.14,1.27-0.08,1.74,0.49c0.47,0.55,0.58,1.15,0.28,1.81c-1.06,2.3-2.47,4.31-4.68,5.66
		c-4.06,2.5-3.31,1.54-3.86,5.83c-0.09,0.74-0.21,1.48-0.33,2.27c1.23-1.26,2.31-2.56,3.58-3.65c1.37-1.18,3-1.67,4.89-0.91
		c0.1,1.45-0.49,2.6-1.38,3.67c-1.19,1.44-2.83,2.12-4.48,2.81c-0.94,0.39-1.88,0.84-2.75,1.36c-0.38,0.23-0.74,0.68-0.86,1.09
		c-0.53,1.91-0.98,3.85-1.53,6.1c0.51-0.45,0.85-0.73,1.17-1.03c1.62-1.5,3.02-3.3,5.04-4.31c0.85-0.42,1.81-0.69,2.75-0.81
		c0.85-0.11,1.21,0.38,1.28,1.26c0.17,2.17-1.16,3.48-2.83,4.32c-1.48,0.74-3.14,1.13-4.75,1.58c-1.03,0.29-2.1,0.42-3.2,0.64
		c-0.55,2.17-1.06,4.19-1.56,6.21c0.09,0.06,0.18,0.11,0.27,0.17c0.42-0.36,0.83-0.73,1.26-1.07c1.32-1.03,2.62-2.09,3.98-3.06
		c1.34-0.96,2.8-1.39,4.41-0.58c0.13,0.07,0.31,0.03,0.47,0.04c-0.49,2.02-1.77,3.43-3.52,4.34c-1.18,0.61-2.51,0.95-3.79,1.32
		c-0.72,0.21-1.5,0.21-2.25,0.31c-0.6,0.08-0.95,0.38-1.08,1.02c-0.46,2.4-0.5,4.8-0.19,7.33c1-1.12,1.95-2.12,2.84-3.17
		c1.11-1.33,2.61-1.87,4.22-2.22c0.73-0.16,1.32,0.12,1.71,0.66c0.43,0.61,0.17,1.24-0.24,1.8c-1.01,1.39-2.28,2.41-3.93,3.01
		c-1.46,0.53-2.87,1.22-4.17,1.78c0.39,2.02,0.74,3.85,1.1,5.68c0.11,0.01,0.21,0.01,0.32,0.02c0.14-0.3,0.28-0.61,0.42-0.91
		c0.85-1.73,1.9-3.29,3.8-4.02c0.55-0.21,1.14-0.49,1.66,0.06c0.51,0.54,0.49,1.21,0.19,1.82c-0.26,0.52-0.6,1.04-1.03,1.43
		c-1.01,0.9-2.08,1.73-3.13,2.58c-1.37,1.1-1.44,1.41-0.65,3.01c0.67,1.35,1.26,2.74,2.34,3.72c0.5-1.66,0.97-3.32,1.5-4.95
		c0.38-1.17,1.24-2.01,2.18-2.75c1.03-0.81,2.33-0.31,2.34,0.99c0.01,0.86-0.34,1.8-0.75,2.58c-0.81,1.53-1.78,2.96-2.67,4.45
		c-0.11,0.18-0.15,0.4-0.31,0.81c0.61,0.04,1.12,0.1,1.63,0.09c1.24-0.01,2.33,0.45,3.38,1.04c0.9,0.5,1.64,1.9,1.42,2.56
		c-0.25,0.74-1.51,1.29-2.68,1.1c-1.44-0.23-2.62-1.02-3.65-1.99c-0.47-0.44-0.91-0.61-1.55-0.64c-2.05-0.07-4.09-0.22-6.13-0.4
		c-0.8-0.07-1.61-0.23-2.38-0.46c-1.04-0.31-1.44-0.85-1.33-1.57c0.1-0.67,0.93-1.47,1.73-1.48c0.91-0.01,1.85,0.04,2.74,0.22
		c1.16,0.23,2.28,0.63,3.51,0.98c-0.87-1.6-1.68-3.16-2.55-4.69c-0.56-1-1.55-1.47-2.56-1.89c-1.75-0.73-3.5-1.46-5.24-2.19
		c-0.3-0.13-0.61-0.24-0.88-0.41c-0.86-0.55-1.26-1.53-0.92-2.2c0.39-0.77,1.62-1.35,2.43-1.14c1.71,0.45,3.14,1.41,4.52,2.47
		c0.37,0.29,0.7,0.61,1.15,1.01c-0.26-1.33-0.4-2.51-0.72-3.63c-0.33-1.16-1-2.13-2.09-2.77c-1.45-0.85-2.92-1.68-4.28-2.65
		c-0.91-0.64-1.75-1.44-2.44-2.31c-0.46-0.57-0.63-1.41-0.06-2.12c0.57-0.7,1.33-0.83,2.35-0.38c1.83,0.81,3.33,1.97,4.19,3.86
		c0.44,0.98,1.04,1.88,1.52,2.75c0.09-1.93,0.2-3.93,0.28-5.93c0.06-1.51-0.63-2.74-1.67-3.72c-1.1-1.04-2.33-1.94-3.5-2.9
		c-0.46-0.38-0.94-0.74-1.36-1.15c-0.61-0.6-0.73-1.34-0.36-2.09c0.38-0.77,0.98-1.27,1.92-1.27c1.18,0.01,2.08,0.59,2.8,1.43
		c1.16,1.37,2.2,2.82,2.48,4.69C445.05,480.63,445.16,480.64,445.27,480.65z M457.65,469.97c-2.56,1.48-4.92,2.84-7.27,4.2
		c0.05,0.12,0.1,0.25,0.15,0.37c1.87-0.03,3.59-0.73,5.18-1.66C456.65,472.34,457.52,471.56,457.65,469.97z M447.89,466.12
		c-1.83-2.65-4.1-4.85-6.87-6.86C441.32,461.21,444.47,464.32,447.89,466.12z M452.61,456.07c3.29-1.39,6.04-4.52,5.94-6.79
		C456.16,451.19,454.51,453.61,452.61,456.07z M451.4,465.48c3.36-0.52,6.26-2.37,6.51-4.74C455.5,462,453.3,463.4,451.4,465.48z
		 M445.36,474.02c-0.84-1.93-4.85-5.71-6.75-6.29C440.36,470.51,442.74,472.27,445.36,474.02z M450.95,472.81
		c2.13-1.24,4.62-1.93,6.33-3.88C454.36,468.85,452.67,470.84,450.95,472.81z M448.91,482.51c2.31-0.26,4.35-1,5.67-3.06
		C452.45,480.03,450.55,481.03,448.91,482.51z M438.59,497.15c1.7,1.99,4.12,2.55,6.48,3.21
		C443.15,498.84,440.97,497.82,438.59,497.15z M455.39,500.03c-2.36,1.58-3.69,4.6-3.05,6.73
		C453.35,504.54,454.34,502.35,455.39,500.03z M436.7,485.97c0.83,2.93,3.18,3.57,5.21,4.6
		C440.57,488.74,438.75,487.47,436.7,485.97z M442.69,480.67c0.09-0.06,0.18-0.12,0.27-0.19c-1.33-1.6-2.19-3.63-4.36-4.66
		c-0.39,1.18,0.25,1.75,0.84,2.25C440.49,478.98,441.6,479.81,442.69,480.67z M447.74,491.99c2.3-0.44,4.46-1.16,5.9-3.58
		C451.28,489.26,449.46,490.5,447.74,491.99z M446.51,463.09c0.07-0.09,0.15-0.18,0.22-0.26c-0.82-1.17-1.61-2.38-2.48-3.51
		c-0.58-0.76-1.44-0.94-2.31-0.93c-0.06,0.11-0.13,0.21-0.19,0.32C443.33,460.16,444.92,461.62,446.51,463.09z M435.64,423.29
		c-0.96-2.53-2.77-3.47-4.38-2.39C432.8,421.73,434.22,422.51,435.64,423.29z M453.45,509.38c1.84,0.93,3.2,2.15,5.4,1.57
		C457.34,509.3,455.69,509.02,453.45,509.38z M455.35,438.67c-1.51-0.43-3.06,1.65-3.3,4.43
		C453.57,441.84,454.25,440.12,455.35,438.67z M450.38,429.48c-0.63,1.92-1.35,3.62-1.02,5.65
		C451.07,432.72,451.33,431.41,450.38,429.48z M452.6,463.17c1.66-1.09,3.31-2.18,4.97-3.27c-0.08-0.12-0.16-0.24-0.25-0.37
		C455.21,459.96,453.5,460.97,452.6,463.17z M449.22,481.09c2.05-1.05,3.89-1.98,5.78-2.95
		C453.29,477.56,451.04,478.69,449.22,481.09z M447.64,455.15c-1.11-1.59-2.16-3.25-4.57-3.71
		C444.23,453.44,445.98,454.26,447.64,455.15z M457.87,448.66c-1.86,0.3-4.43,3.18-4.49,5.02
		C454.89,451.99,456.35,450.35,457.87,448.66z M441.99,489.28c0.09-0.07,0.18-0.14,0.27-0.21c-0.83-1.94-2.44-2.98-4.41-3.81
		c0.01,0.3-0.03,0.45,0.02,0.49C439.24,486.93,440.61,488.1,441.99,489.28z M444.96,471.75c-1.03-2.62-2.97-4.38-4.72-4.34
		C441.79,468.83,443.24,470.16,444.96,471.75z M443.94,480.37c-0.34-2.32-2.31-4.7-3.85-4.82
		C441.33,477.11,442.63,478.73,443.94,480.37z M448.28,490.47c1.65-0.98,3.3-1.95,4.95-2.93c-0.06-0.1-0.12-0.2-0.18-0.3
		C450.91,487.45,449.29,488.53,448.28,490.47z M444.22,450.66c1.39,1.22,2.69,2.35,3.98,3.49c-0.23-0.85-0.69-1.54-1.1-2.26
		C446.46,450.77,445.56,450.3,444.22,450.66z M435.95,424.2c-1.67-0.87-3.34-1.73-5.33-2.76
		C431.9,423.81,434.02,423.89,435.95,424.2z M456.22,500.82c-1.04,1.02-2.23,3.54-2.28,4.83
		C455.68,503.5,456.45,501.87,456.22,500.82z M445.04,443.17c0.68,0.33,1.32,0.73,2.01,0.94c0.64,0.2,1.01,1.14,1.94,0.8
		C447.33,442.68,446.27,442.22,445.04,443.17z M442.95,508.36c1.44,1.29,3.24,1.52,5.14,0.74
		C446.16,508.82,444.56,508.59,442.95,508.36z M437.63,431.11c1.23-0.23,2.86-1.13,3.51-1.93
		C439.31,429.08,438.14,429.72,437.63,431.11z M439.44,496.13c1.37,0.87,2.74,1.75,4.39,1.99
		C442.42,497.33,441.33,495.84,439.44,496.13z M449.14,498.29c1.14-0.98,2.28-1.96,3.42-2.94
		C450.69,495.49,449.74,496.68,449.14,498.29z M456.01,439.79c-1.06,0.56-1.95,1.81-2.31,3.28
		C454.83,442.17,455.8,441.28,456.01,439.79z M443.56,434.99c1.17,1.15,2.05,1.48,3.21,1.24
		C445.85,435.41,444.95,434.73,443.56,434.99z M452.61,497.01c-0.12-0.15-0.24-0.3-0.36-0.44c-0.92,0.84-2.14,1.35-2.44,2.86
		C450.75,498.62,451.68,497.82,452.61,497.01z M444.24,443.81c-0.05,0.1-0.1,0.2-0.16,0.3c0.92,1.01,1.79,1.34,3.3,0.97
		C446.33,444.66,445.28,444.23,444.24,443.81z M447.89,508.35c-1.49-0.92-3.12-1.17-4.4-0.62
		C444.96,507.93,446.43,508.14,447.89,508.35z M449.54,429.43c-1.44,0.8-1.06,2.07-0.93,3.28
		C448.92,431.62,449.23,430.53,449.54,429.43z M455.8,511.64c0.78,0.83,1.68,1.1,3.04,0.51C457.61,511.95,456.7,511.79,455.8,511.64
		z M441.86,422.49c-0.27,1.1-0.37,2.16,0.62,3.2C442.24,424.47,442.05,423.48,441.86,422.49z M440.83,430.57
		c-0.67,0.39-1.34,0.78-2,1.18C440.27,431.69,440.27,431.69,440.83,430.57z M442.97,424.32c0.12-0.02,0.24-0.04,0.36-0.05
		c0.21-0.86,0.04-1.66-0.7-2.37C442.75,422.7,442.86,423.51,442.97,424.32z M445.45,436.93c-0.68-0.28-1.37-0.56-2.05-0.85
		C443.83,437.01,444.54,437.23,445.45,436.93z"/>
	<g>
		<path d="M462.83,366.33c-0.07,0.03-0.05,0.6,0.07,0.66c0.81,0.41,0.9,1.23,1.19,1.93c0.49,1.16,0.87,2.38,1.47,3.48
			c0.43,0.79,0.83,1.92,2.2,1.44c0.12-0.04,0.37,0.17,0.5,0.31c0.83,0.93,1.6,1.94,2.49,2.8c0.58,0.56,1.18,1.06,1.5,1.84
			c0.25,0.6,0.67,1.14,0.99,1.72c0.18,0.32,0.33,0.67,0.56,1.15c-1.06-0.51-1.94-0.93-2.82-1.35c-0.77-0.37-1.6-0.65-2.3-1.14
			c-0.54-0.37-0.71-0.16-0.83,0.26c-0.2,0.71,0.98,2.82,1.69,3.09c1.07,0.4,2.14,0.78,3.21,1.19c0.51,0.19,1.03,0.67,1.48,0.6
			c0.81-0.12,0.99,0.35,1.24,0.85c0.42,0.86,0.88,1.72,1.23,2.61c0.36,0.91,0.62,1.85,0.96,2.86c-0.24-0.04-0.32-0.03-0.34-0.06
			c-0.94-1.51-2.53-2.2-3.96-3.09c-0.2-0.12-0.54-0.02-0.82-0.02c0.04,0.24,0.05,0.49,0.14,0.71c0.1,0.24,0.35,0.44,0.43,0.68
			c0.61,1.94,1.96,3.03,3.85,3.71c0.81,0.29,1.73,0.73,1.93,1.91c0.29,1.69,0.78,3.34,1.14,5.01c0.25,1.2,0.42,2.41,0.64,3.71
			c-1.05-0.69-1.98-1.33-2.94-1.93c-0.2-0.13-0.52-0.23-0.71-0.15c-0.14,0.06-0.21,0.42-0.22,0.64c-0.09,2.71,1.97,4.06,3.59,5.71
			c0.15,0.15,0.35,0.37,0.34,0.55c-0.09,1.14-0.18,2.27-0.36,3.4c-0.27,1.73-0.61,3.45-0.92,5.17c-0.67-1.92-2.08-3.16-3.61-4.31
			c-0.18-0.13-0.4-0.2-0.61-0.29c-0.06,0.24-0.18,0.49-0.17,0.73c0.01,0.23,0.13,0.46,0.22,0.67c0.58,1.38,1.11,2.78,1.78,4.11
			c0.4,0.78,1.06,1.42,1.55,2.16c0.19,0.28,0.37,0.66,0.33,0.96c-0.35,2.65-0.7,5.3-1.16,7.94c-0.31,1.77-0.79,3.51-1.19,5.27
			c-0.35-0.55-0.46-1.08-0.68-1.55c-0.76-1.65-2.17-2.77-3.41-4.03c-0.14-0.14-0.54-0.15-0.73-0.05c-0.19,0.1-0.32,0.41-0.35,0.65
			c-0.03,0.22,0.06,0.48,0.17,0.69c1.18,2.32,2.32,4.67,3.61,6.93c0.28,0.5,0.33,0.83,0.18,1.29c-0.36,1.18-0.71,2.36-1.1,3.54
			c-0.75,2.26-1.53,4.52-2.37,7c-0.84-1.68-1.53-3.13-2.29-4.54c-0.19-0.36-0.57-0.63-0.86-0.95c-0.13,0.05-0.26,0.11-0.39,0.16
			c0.01,0.9-0.09,1.81,0.05,2.68c0.25,1.49,0.63,2.96,1,4.43c0.14,0.54,0.42,1.04,0.6,1.57c0.1,0.29,0.24,0.64,0.16,0.9
			c-0.63,2.11-1.32,4.2-1.98,6.29c-0.48,1.52-0.94,3.05-1.41,4.58c-0.23-0.51-0.18-1.05-0.35-1.49c-0.43-1.1-0.86-2.24-1.5-3.22
			c-0.38-0.58-1.19-0.87-1.93-0.35c-0.66,0.46-0.56,1.1-0.28,1.7c0.98,2.12,1.99,4.23,2.99,6.33c0.15,0.32,0.5,0.62,0.49,0.92
			c-0.02,0.65-0.2,1.3-0.34,1.95c-0.71,3.43-1.05,6.89-0.81,10.4c0.03,0.43,0.01,0.87,0.02,1.3c-0.08,0-0.16,0-0.23,0
			c-0.09-0.64-0.16-1.29-0.29-1.92c-0.37-1.86-1.08-3.5-2.93-4.37c-0.58-0.28-1.11-0.1-1.02,0.46c0.23,1.38,0.29,2.92,0.97,4.07
			c0.85,1.42,1.76,2.95,3.32,3.83c0.15,0.09,0.28,0.3,0.33,0.48c0.61,2.47,1.16,4.96,1.81,7.42c0.24,0.9,0.7,1.73,1.13,2.73
			c-0.35-0.17-0.57-0.25-0.76-0.37c-1.9-1.29-3.95-1.94-6.26-1.5c-0.32,0.06-0.62,0.28-0.92,0.43c0.03,0.09,0.07,0.19,0.1,0.28
			c0.43,0.1,0.88,0.15,1.29,0.3c1.55,0.55,2.83,1.52,4.01,2.65c0.98,0.95,2.12,1.55,3.58,1.35c0.32-0.04,0.76,0.18,1.02,0.42
			c1.01,0.93,1.95,1.95,2.98,2.86c0.24,0.21,0.73,0.16,1.1,0.22c0.01-0.08,0.02-0.16,0.03-0.24c-1.58-0.5-2.38-1.91-3.44-3
			c-0.47-0.48-0.36-1.11-0.01-1.74c0.92-1.67,1.91-3.36,1.51-5.4c-0.06-0.3-0.35-0.76-0.57-0.78c-0.31-0.03-0.8,0.2-0.96,0.46
			c-0.47,0.83-0.85,1.71-1.21,2.6c-0.21,0.53-0.31,1.11-0.47,1.71c-1.3-2.4-2.09-4.9-2.63-7.48c-0.23-1.1-0.46-2.2-0.69-3.29
			c0.59,0.09,1.04-0.03,1.24-0.69c0.1-0.33,0.29-0.65,0.51-0.93c1.13-1.48,1.43-3.21,1.49-4.99c0.01-0.29-0.27-0.67-0.52-0.87
			c-0.1-0.08-0.56,0.14-0.74,0.33c-0.38,0.41-0.71,0.88-1.01,1.36c-0.31,0.49-0.57,1.02-0.85,1.54c-0.08-0.02-0.16-0.03-0.24-0.05
			c0.04-0.91,0.05-1.82,0.11-2.73c0.12-1.66,0.22-3.32,0.42-4.97c0.12-0.97,0.43-1.92,0.59-2.89c0.13-0.74,0.13-1.49,0.25-2.23
			c0.02-0.12,0.3-0.2,0.48-0.3c0.01,0.2,0.01,0.41,0.01,0.82c0.39-0.33,0.63-0.46,0.77-0.67c0.68-0.95,1.36-1.9,1.99-2.88
			c0.45-0.7,0.87-1.44,1.16-2.21c0.13-0.35-0.08-0.82-0.14-1.24c-0.38,0.1-0.87,0.08-1.12,0.32c-0.91,0.89-1.73,1.86-2.6,2.82
			c0.38-1.15,0.79-2.32,1.16-3.51c0.47-1.54,0.87-3.09,1.37-4.62c0.25-0.79,0.5-1.65,1.01-2.26c0.49-0.59,1.32-0.88,1.97-1.36
			c1.09-0.79,2.21-1.55,3.2-2.46c0.71-0.65,1.33-1.46,1.82-2.3c0.46-0.79-0.05-1.34-0.99-1.33c-1.19,0.02-1.89,0.85-2.62,1.55
			c-0.75,0.72-1.34,1.62-1.99,2.44c0.26-1.03,0.63-2,0.95-2.99c0.32-0.97,0.57-1.95,0.89-2.92c0.49-1.48,1.01-2.96,1.52-4.43
			c0.07-0.2,0.11-0.44,0.24-0.58c1.01-1.02,2.08-1.98,3.04-3.04c0.47-0.52,0.81-1.2,1.03-1.86c0.11-0.31-0.19-0.77-0.3-1.16
			c-0.3,0.13-0.64,0.21-0.89,0.4c-0.5,0.37-0.96,0.79-1.6,1.33c0.47-2.41,0.94-4.57,1.3-6.74c0.36-2.2,0.61-4.41,0.89-6.44
			c0.49-0.26,0.96-0.41,1.29-0.71c2.2-2.01,3.18-4.66,3.84-7.47c0.06-0.24-0.2-0.56-0.32-0.85c-1.52,1.85-2.91,3.55-4.4,5.37
			c0.42-2.4,0.83-4.69,1.23-6.99c0.08-0.47,0.11-0.96,0.21-1.42c0.07-0.33,0.12-0.8,0.35-0.96c3.03-2.13,3.54-5.32,3.7-8.66
			c0.01-0.14-0.14-0.29-0.22-0.44c-0.17,0.1-0.39,0.15-0.49,0.29c-1.09,1.63-2.16,3.27-3.34,5.07c-0.18-0.72-0.33-1.26-0.44-1.81
			c-0.46-2.23-0.95-4.46-1.36-6.7c-0.27-1.47-1.25-2.84-0.56-4.46c0.51-1.2,0.89-2.45,1.33-3.68c0.11,0.03,0.23,0.07,0.34,0.1
			c-0.09,0.85-0.13,1.71-0.28,2.56c-0.1,0.58-0.19,1.36-0.59,1.64c-0.64,0.46-0.31,0.64,0.1,1.23c0.36-0.64,0.8-1.11,0.89-1.63
			c0.25-1.5,0.37-3.03,0.51-4.55c0.06-0.66,0.12-1.33,0.06-1.99c-0.03-0.27-0.38-0.51-0.59-0.76c-0.08,0.29-0.2,0.57-0.24,0.86
			c-0.05,0.38,0.09,0.82-0.05,1.15c-0.74,1.66-1.54,3.3-2.32,4.94c-0.06-0.14-0.14-0.32-0.21-0.51c-0.45-1.27-0.78-2.6-1.39-3.79
			c-0.65-1.27-0.98-2.32-0.5-3.84c0.71-2.27,0.61-4.68-0.32-6.98c-0.24-0.59-0.53-0.82-1.05-0.48c0.5,2.1-0.4,4-0.49,6
			c-0.82-1.19-1.46-2.43-2.2-3.61c-0.6-0.96-1.32-1.83-1.95-2.77c-0.28-0.41-0.57-0.86-0.69-1.33c-0.38-1.61-0.86-3.19-2.15-4.29
			c-1.18-1.01-2.49-1.86-3.78-2.73C463.46,366.12,463.07,366.22,462.83,366.33z M471.48,489.93c0.92,0.8-0.2,4.75-1.61,5.43
			C470.32,492.15,470.68,490.95,471.48,489.93z M469.14,495.96c-0.9,0.34-1.66-0.01-2.33-0.51c-0.84-0.62-1.61-1.35-2.45-1.97
			c-0.44-0.33-0.97-0.53-1.46-0.79C464.49,492.18,468.19,494.1,469.14,495.96z M461.53,475.42c1.43,0.4,2.03,2.28,2.66,5.94
			C462.45,480.34,461,477,461.53,475.42z M467.72,477.23c0.17-0.25,0.39-0.48,0.66-0.67c0.03,2.55-1.12,4.62-2.49,6.62
			C466.17,481.09,466.49,479.02,467.72,477.23z M463.41,460.19c-0.16-0.31,0.04-0.8,0.08-1.21c0.42,0.13,1.09,0.14,1.23,0.42
			c0.51,0.99,0.92,2.06,1.21,3.14c0.17,0.61,0.04,1.3,0.05,1.95c-0.05,0.01-0.09,0.03-0.14,0.04
			C465.02,463.09,464.17,461.67,463.41,460.19z M470.35,460.51c0.18-0.13,0.37-0.25,0.67-0.27c-0.63,2.14-1.88,3.89-3.39,5.47
			c-0.09-0.18-0.28-0.41-0.23-0.5C468.38,463.64,468.76,461.69,470.35,460.51z M477.88,445.55c-1.2,2.23-3.05,3.64-5.2,4.93
			C473.43,448.12,476.32,445.34,477.88,445.55z M470.34,450.96c-0.93-2.24-1.76-4.4-1.43-6.81
			C470.59,446.61,471.72,448.86,470.34,450.96z M472.13,429.14c1.92,0.71,4.01,4.39,3.66,6.61
			C474.23,433.62,472.79,431.63,472.13,429.14z M479.44,432.98c-0.07,0.85-0.95,2.1-2.19,3.12
			C477.18,435.25,478.19,433.82,479.44,432.98z M483.53,413.73c0.1,1.62-1.89,4.9-3.47,5.5
			C480.82,417.17,481.79,415.23,483.53,413.73z M479.1,419.26c-1.74-1.61-1.9-3.82-3.22-5.68
			C477.56,414.29,479.26,417.37,479.1,419.26z M484.61,400.7c0.33,1.27-1.17,4.63-2.51,5.56
			C481.49,405.11,483.03,401.78,484.61,400.7z M480.71,406.46c-1.72-0.85-2.82-2.13-3.11-4.16
			C479.88,402.95,481.15,404.67,480.71,406.46z M477.03,391.75c-1.52-0.27-2.82-1.52-3.07-2.91
			C475.06,389.01,476.34,390.2,477.03,391.75z M473.58,383.13c-1.61-0.69-3.59-0.66-4.59-2.44
			C470.77,381.03,472.47,381.53,473.58,383.13z M475.47,377.65c0.71,1.03,0.55,3.46-0.28,4.87
			C475.29,380.89,475.38,379.27,475.47,377.65z M468.66,372.93c-1.76,0.37-2.09,0.25-2.83-1.41c-0.46-1.01-0.75-2.1-1.15-3.27
			C466.63,368.65,467.91,369.91,468.66,372.93z"/>
		<path d="M483.44,420.68c0.07,0.35,0.25,0.68,0.28,1.03c0.12,1.58,0.2,3.17,0.3,4.81c-1.26-0.39-2.27-0.21-2.49,0.44
			c-0.25,0.75,0.52,1.75,1.67,2.3c-0.63,1.21-1.33,2.39-1.86,3.65c-0.18,0.42,0.05,1.02,0.09,1.54c0.51-0.07,1.02-0.13,1.53-0.22
			c0.14-0.02,0.27-0.14,0.38-0.24c0.79-0.7,1.57-1.42,2.35-2.11c0.51,1.62,0.89,2.27,1.76,2.57c0.46,0.16,1.11,0.28,1.47,0.07
			c0.7-0.41,0.84-1.19,0.66-1.99c-0.1-0.42-0.18-0.84-0.28-1.3c0.76,0.05,1.44,0.2,2.07,0.09c0.4-0.07,0.98-0.47,1.06-0.82
			c0.29-1.28-0.83-2.86-2.11-3.17c-0.68-0.17-1.36,0.1-1.59,0.65c0.11,0.03,0.23,0.1,0.34,0.09c1.25-0.09,2.04,0.36,2.52,1.45
			c0.32,0.72,0.16,1.11-0.61,1.05c-0.78-0.06-1.56-0.33-2.3-0.59c-0.71-0.25-1.17-0.67-1.13-1.58c0.03-0.55-0.19-1.14-1.1-1.07
			c-0.42,0.03-1.1-0.42-1.28-0.82c-0.69-1.58-0.86-3.26-0.59-5.09c0.38,0.15,0.68,0.21,0.91,0.37c1.8,1.21,1.8,3.24,2.3,5.13
			c0.27-0.27,0.55-0.6,0.48-0.82c-0.36-1.22-0.74-2.44-1.24-3.61c-0.56-1.3-1.94-1.69-3.02-2.41c-0.11-0.07-0.41-0.03-0.47,0.06
			C483.42,420.26,483.4,420.5,483.44,420.68z M488.5,431.35c0.18,0.4,0.38,0.84,0.38,1.27c0.01,0.42-0.22,0.85-0.34,1.27
			c-0.49-0.22-1.14-0.33-1.44-0.71c-0.38-0.49-0.5-1.2-0.69-1.82c-0.1-0.32-0.1-0.66-0.15-1
			C487.53,429.94,487.92,430.09,488.5,431.35z M485.1,430.83c-0.33,1.04-1.78,2.47-2.92,2.96c-0.06-0.33-0.25-0.7-0.14-0.9
			c0.56-1.01,1.15-2,1.84-2.92c0.17-0.23,0.74-0.17,1.12-0.25C485.05,430.09,485.21,430.5,485.1,430.83z M485.03,427.68
			c0.11,0.06,0.11,0.34,0.16,0.52c-0.62,0.1-1.27,0.33-1.87,0.25c-0.39-0.06-0.71-0.59-1.06-0.91c0.02-0.11,0.04-0.22,0.06-0.33
			c0.29-0.1,0.63-0.34,0.88-0.27C483.83,427.1,484.44,427.39,485.03,427.68z"/>
		<path d="M476.43,473.75c-0.15,0.47-0.3,0.95-0.48,1.51c-0.18-0.2-0.29-0.33-0.41-0.45c-0.58-0.58-1.1-1.26-1.77-1.71
			c-0.34-0.23-1.02-0.2-1.41-0.01c-0.26,0.12-0.45,0.78-0.37,1.12c0.19,0.77,0.5,1.53,0.89,2.22c0.31,0.56,0.8,1.02,1.27,1.6
			c-0.4,0.22-0.77,0.38-1.07,0.61c-0.32,0.24-0.66,0.52-0.84,0.86c-0.37,0.68-0.67,1.4-0.93,2.13c-0.38,1.03,0.24,1.76,1.32,1.51
			c0.47-0.11,0.95-0.39,1.31-0.72c0.54-0.5,0.98-1.11,1.61-1.85c0.16,1.4,0.88,2.31,1.95,2.97c0.67,0.41,1.36,0.71,2.1,0.26
			c0.69-0.42,0.95-1.46,0.69-2.36c-0.36-1.19-0.84-2.29-2.17-2.75c0.25-0.3,0.45-0.53,0.64-0.76c1.07-1.27,1.25-2.7,0.69-4.21
			c-0.21-0.56-0.42-1.22-1.29-1.13C477.34,472.67,476.7,472.91,476.43,473.75z M478.35,479.55c0.82,0.21,1.72,2.3,1.34,3.05
			c-0.3,0.6-0.73,0.81-1.39,0.5c-1.07-0.5-1.73-1.32-1.93-2.32c0.57-0.43,0.96-0.75,1.37-1.03
			C477.91,479.65,478.17,479.51,478.35,479.55z M475.26,478.79c-0.39,1.53-1.12,2.74-2.41,3.54c-0.21,0.13-0.65,0.13-0.83-0.01
			c-0.15-0.12-0.15-0.56-0.06-0.8c0.44-1.19,0.94-2.36,2.36-2.72c0.17-0.04,0.34-0.1,0.52-0.13
			C474.93,478.66,475.01,478.71,475.26,478.79z M473.94,476.58c-0.5-0.52-0.84-1.22-1.15-1.89c-0.12-0.26,0.04-0.65,0.08-0.98
			c0.32,0.08,0.75,0.06,0.95,0.26c0.5,0.5,0.97,1.06,1.34,1.67c0.44,0.73,0.75,1.53,1.11,2.3c-0.09,0.07-0.17,0.14-0.26,0.21
			C475.31,477.63,474.53,477.19,473.94,476.58z M478.89,474.53c0.23,1.3-0.1,2.49-1.34,3.68c-0.28-0.71-0.6-1.27-0.71-1.87
			c-0.1-0.58-0.01-1.2,0.06-1.79c0.09-0.71,0.6-1.2,1.25-1.17C478.43,473.4,478.81,474.1,478.89,474.53z"/>
		<path d="M468.44,401.99c0.58-0.91,1.09-1.87,1.61-2.79c0.41,0.17,0.89,0.43,1.4,0.55c1.34,0.33,2.23-0.62,1.89-1.95
			c-0.32-1.23-0.95-2.2-2.37-2.52c0.75-1.47,0.94-2.86,0.19-4.36c-0.31-0.62-0.71-0.97-1.25-0.96c-0.39,0-0.84,0.37-1.14,0.7
			c-0.77,0.85-0.57,1.88-0.28,3.14c-1.27-1.28-2.61-1.57-4.01-1.62c-1.07-0.03-1.71,1.04-1.25,2.01c0.41,0.88,1.06,1.51,1.99,1.85
			c0.47,0.17,0.92,0.38,1.3,0.55c-0.55,0.94-1.12,1.75-1.52,2.65c-0.9,2.02,1.13,3.57,2.63,3.22
			C467.93,402.37,468.29,402.22,468.44,401.99z M468.99,391.75c-0.03-0.32,0.49-0.76,0.86-0.97c0.11-0.06,0.66,0.4,0.82,0.71
			c0.21,0.41,0.23,0.92,0.38,1.62c-0.16,0.47-0.34,1.12-0.62,1.73c-0.24,0.53-0.67,0.47-0.82-0.03
			C469.33,393.81,469.08,392.78,468.99,391.75z M464.7,394.79c-0.17-0.17-0.38-0.33-0.46-0.54c-0.11-0.3-0.26-0.71-0.14-0.93
			c0.12-0.23,0.56-0.44,0.85-0.43c1.61,0.06,2.74,0.95,3.5,2.69C467.19,396.23,465.79,395.93,464.7,394.79z M470.94,396.05
			c0.84,0.09,1.99,1.63,1.76,2.47c-0.05,0.18-0.29,0.35-0.49,0.43c-0.71,0.29-1.93-0.26-2.15-0.98c-0.06-0.21,0.04-0.51,0.15-0.73
			C470.4,396.86,470.66,396.5,470.94,396.05z M467.03,401.72c-0.56-0.32-1.25-0.76-1.45-1.31c-0.51-1.39,1.29-3.59,3-3.58
			c0.05,0.04,0.35,0.16,0.4,0.35c0.47,1.55,0.02,2.93-0.91,4.16C467.88,401.6,467.25,401.84,467.03,401.72z"/>
	</g>
	<g>
		<path d="M431.59,397.15c-0.39,0.66-0.78,1.11-0.93,1.63c-0.21,0.7-0.23,1.45-0.35,2.18c-0.17,0.99,0.2,1.84,0.68,2.66
			c0.44,0.75,0.79,0.84,1.59,0.5c0.99-0.42,1.51-1.42,1.14-2.72C433.32,399.98,432.83,398.58,431.59,397.15z"/>
		<path d="M424.67,398.42c-0.08,0.18-0.15,0.37-0.18,0.56c-0.2,0.98,0.33,1.63,1.34,1.66c0.77,0.02,1.49-0.17,2-0.78
			c0.6-0.72,1.19-1.45,1.69-2.24c0.26-0.42,0.32-0.97,0.47-1.47C428.22,395.67,425.31,396.98,424.67,398.42z"/>
		<path d="M425.65,391.63c-0.9-0.1-2.07,0.58-2.14,1.19c-0.08,0.69,0.57,1.43,1.58,1.71c0.42,0.11,0.88,0.17,1.31,0.13
			c1.16-0.09,2.31-0.25,3.61-0.39c-0.11-0.28-0.12-0.46-0.22-0.54C428.58,392.69,427.28,391.81,425.65,391.63z"/>
		<path d="M431.81,391.61c0.27-0.06,0.65-0.34,0.7-0.59c0.26-1.14,0.46-2.3,0.61-3.47c0.04-0.31-0.14-0.66-0.27-0.98
			c-0.27-0.65-0.8-1.06-1.47-1c-0.66,0.05-0.95,0.63-1.08,1.24c-0.07,0.33-0.07,0.68-0.1,1.02c0.02,1.2,0.3,2.34,0.93,3.36
			C431.27,391.41,431.62,391.65,431.81,391.61z"/>
		<path d="M433.7,396.54c0,0.57-0.14,1.02,0.02,1.28c0.63,1.05,1.29,2.1,2.08,3.03c0.68,0.8,1.68,0.76,2.35,0.1
			c0.51-0.51,0.44-1.05-0.19-1.98C436.99,397.54,435.48,397.12,433.7,396.54z"/>
		<path d="M440.28,393.98c-0.41-0.33-0.94-0.57-1.45-0.68c-1.67-0.36-3.09,0.19-4.4,1.3c0.08,0.22,0.09,0.34,0.15,0.4
			c0.9,0.97,4.53,1.35,5.58,0.6C440.76,395.16,440.86,394.45,440.28,393.98z"/>
		<path d="M437.88,390.13c0.17-0.15,0.2-0.44,0.29-0.67c0.22-0.54,0.05-0.94-0.45-1.23c-0.56-0.32-1.11-0.37-1.66-0.01
			c-1.51,0.97-2.13,2.44-2.53,4.44c0.72-0.09,1.24,0,1.54-0.21C436.05,391.74,436.96,390.93,437.88,390.13z"/>
		<path d="M427.68,387.86c-0.25-0.23-1.05-0.23-1.3-0.01c-0.39,0.36-0.76,1-0.37,1.58c0.32,0.48,0.76,0.91,1.22,1.26
			c0.78,0.59,1.61,1.11,2.43,1.64c0.14,0.09,0.35,0.09,0.53,0.13c0.11-0.1,0.21-0.19,0.32-0.29
			C429.75,390.63,428.98,389.07,427.68,387.86z"/>
		<path d="M430.37,394.37c0,0.91,0.85,2.03,1.57,2.06c0.74,0.03,1.77-1.06,1.76-1.88c0-1.01-0.72-1.64-1.85-1.61
			C430.92,392.96,430.37,393.49,430.37,394.37z"/>
	</g>
	<g>
		<path d="M110.33,470.97c-0.24,0.4-0.47,0.67-0.56,0.98c-0.13,0.42-0.14,0.87-0.21,1.31c-0.1,0.59,0.12,1.11,0.41,1.6
			c0.26,0.45,0.47,0.5,0.96,0.3c0.6-0.25,0.9-0.85,0.68-1.63C111.37,472.67,111.08,471.83,110.33,470.97z"/>
		<path d="M106.18,471.73c-0.05,0.11-0.09,0.22-0.11,0.34c-0.12,0.59,0.2,0.98,0.8,1c0.46,0.01,0.89-0.1,1.2-0.47
			c0.36-0.43,0.72-0.87,1.01-1.34c0.16-0.25,0.19-0.58,0.28-0.88C108.3,470.08,106.56,470.87,106.18,471.73z"/>
		<path d="M106.76,467.66c-0.54-0.06-1.24,0.35-1.28,0.72c-0.05,0.42,0.34,0.86,0.95,1.03c0.25,0.07,0.53,0.1,0.78,0.08
			c0.7-0.06,1.39-0.15,2.17-0.24c-0.07-0.17-0.07-0.28-0.13-0.32C108.52,468.3,107.74,467.77,106.76,467.66z"/>
		<path d="M110.46,467.64c0.16-0.04,0.39-0.2,0.42-0.35c0.16-0.69,0.28-1.38,0.37-2.08c0.02-0.19-0.09-0.4-0.16-0.59
			c-0.16-0.39-0.48-0.63-0.88-0.6c-0.39,0.03-0.57,0.38-0.65,0.74c-0.04,0.2-0.04,0.41-0.06,0.61c0.01,0.72,0.18,1.4,0.56,2.02
			C110.13,467.52,110.35,467.67,110.46,467.64z"/>
		<path d="M111.59,470.6c0,0.34-0.08,0.61,0.01,0.77c0.38,0.63,0.77,1.26,1.25,1.82c0.41,0.48,1.01,0.45,1.41,0.06
			c0.31-0.3,0.26-0.63-0.12-1.19C113.57,471.21,112.66,470.95,111.59,470.6z"/>
		<path d="M115.54,469.07c-0.24-0.2-0.56-0.34-0.87-0.41c-1-0.22-1.86,0.11-2.64,0.78c0.05,0.13,0.05,0.2,0.09,0.24
			c0.54,0.58,2.72,0.81,3.35,0.36C115.84,469.78,115.9,469.35,115.54,469.07z"/>
		<path d="M114.1,466.75c0.1-0.09,0.12-0.26,0.18-0.4c0.13-0.33,0.03-0.56-0.27-0.74c-0.34-0.19-0.67-0.22-1-0.01
			c-0.91,0.58-1.28,1.47-1.52,2.66c0.43-0.05,0.74,0,0.92-0.13C113,467.72,113.55,467.24,114.1,466.75z"/>
		<path d="M107.98,465.39c-0.15-0.14-0.63-0.14-0.78,0c-0.24,0.21-0.46,0.6-0.22,0.95c0.19,0.29,0.45,0.54,0.73,0.76
			c0.47,0.35,0.97,0.67,1.46,0.98c0.09,0.06,0.21,0.05,0.32,0.08c0.06-0.06,0.13-0.12,0.19-0.17
			C109.22,467.05,108.76,466.12,107.98,465.39z"/>
		<path d="M109.6,469.3c0,0.54,0.51,1.22,0.94,1.24c0.45,0.02,1.06-0.64,1.06-1.13c0-0.61-0.43-0.98-1.11-0.97
			C109.93,468.45,109.6,468.77,109.6,469.3z"/>
	</g>
	<g>
		<g>
			<path d="M414.73,458.28c-1.4,0.58-2.56,1.71-3.92,2.66c-3.02-1.36-5.07-0.62-7.15,2.83c1.21,1.61,2.27,3.22,3.53,4.65
				c2.34,2.67,4.45,5.58,7.49,7.59c0.39,0.26,0.6,1.04,0.63,1.58c0.2,4.73,0.48,9.46,0.46,14.18c-0.02,4.8-0.39,9.59-0.52,14.39
				c-0.04,1.43,0.15,2.87,0.3,4.3c0.03,0.28,0.39,0.52,0.73,0.96c0-1.93-0.05-3.56,0.01-5.19c0.16-4.24,0.49-8.48,0.51-12.73
				c0.02-5.06-0.15-10.13-0.36-15.2c-0.05-1.34,0.35-2.14,1.44-2.88c1.35-0.92,2.77-1.88,3.79-3.12c1.86-2.27,3.47-4.75,5.14-7.18
				c0.29-0.43,0.52-1.03,0.49-1.53c-0.14-2.34-2.72-4.62-5.09-4.43c-1.25,0.1-2.48,0.55-3.77,0.85
				C417.59,458.65,416.35,457.6,414.73,458.28z M418.1,461.61c1.14-0.51,2.23-1.18,3.41-1.48c1.8-0.46,3.62,0.65,4.27,2.39
				c0.3,0.79,0.34,1.57-0.16,2.35c-2.29,3.65-4.5,7.35-8.27,9.76c-0.87,0.56-1.6,0.71-2.43,0.12c-0.78-0.56-1.63-1.07-2.25-1.77
				c-2.43-2.78-4.8-5.62-7.14-8.47c-0.82-0.99-0.66-1.57,0.41-2.32c2.33-1.65,3.44-1.47,5.84,1.08c0.5-2.6,1.61-4.02,3.17-4.22
				C416.41,458.88,416.98,459.35,418.1,461.61z"/>
			<path d="M414.31,463.66c0.06,0.82,0.1,1.64,0.2,2.45c0.15,1.2,0.34,2.4,0.51,3.6c-0.65-0.58-0.94-1.27-1.28-1.92
				c-0.44-0.84-0.8-1.79-1.43-2.46c-0.56-0.58-1.43-1.09-2.21-1.19c-1.34-0.16-2.04,0.85-1.52,2.11c0.33,0.8,0.79,1.62,1.4,2.23
				c1.89,1.92,3.88,3.74,6.04,5.81c1.98-1.75,3.98-3.3,5.7-5.11c1-1.06,1.6-2.52,2.27-3.84c0.37-0.73,0.21-1.5-0.5-2.01
				c-0.77-0.56-1.6-0.52-2.25,0.12c-0.61,0.61-1.1,1.35-1.59,2.08c-0.53,0.8-1,1.64-1.49,2.46c-0.32-0.51-0.27-0.85-0.32-1.18
				c-0.2-1.27-0.33-2.55-0.68-3.78c-0.21-0.71-0.83-1.36-1.72-1.11C414.62,462.13,414.25,462.8,414.31,463.66z"/>
		</g>
		<g>
			<path d="M372.37,471.88c-1,0.42-1.84,1.23-2.81,1.91c-2.17-0.98-3.64-0.45-5.13,2.03c0.87,1.16,1.63,2.31,2.53,3.34
				c1.68,1.92,3.19,4.01,5.38,5.44c0.28,0.19,0.43,0.74,0.45,1.14c0.14,3.39,0.34,6.78,0.33,10.17c-0.01,3.44-0.28,6.88-0.38,10.32
				c-0.03,1.03,0.1,2.06,0.21,3.08c0.02,0.2,0.28,0.37,0.52,0.69c0-1.38-0.04-2.55,0.01-3.72c0.11-3.04,0.35-6.09,0.37-9.13
				c0.02-3.63-0.11-7.27-0.26-10.9c-0.04-0.96,0.25-1.54,1.03-2.07c0.97-0.66,1.99-1.35,2.72-2.24c1.34-1.63,2.49-3.41,3.69-5.15
				c0.21-0.31,0.38-0.74,0.35-1.1c-0.1-1.68-1.95-3.32-3.65-3.18c-0.9,0.07-1.78,0.39-2.71,0.61
				C374.42,472.14,373.54,471.39,372.37,471.88z M374.79,474.27c0.82-0.36,1.6-0.84,2.45-1.06c1.29-0.33,2.6,0.47,3.07,1.72
				c0.21,0.57,0.24,1.12-0.11,1.69c-1.65,2.62-3.23,5.27-5.93,7c-0.63,0.4-1.15,0.51-1.74,0.09c-0.56-0.4-1.17-0.76-1.61-1.27
				c-1.74-2-3.44-4.03-5.12-6.07c-0.58-0.71-0.48-1.12,0.29-1.67c1.67-1.18,2.47-1.06,4.19,0.77c0.36-1.87,1.16-2.89,2.27-3.03
				C373.58,472.31,373.99,472.64,374.79,474.27z"/>
			<path d="M372.07,475.74c0.04,0.59,0.07,1.18,0.15,1.76c0.11,0.86,0.24,1.72,0.37,2.58c-0.46-0.42-0.67-0.91-0.92-1.38
				c-0.32-0.6-0.57-1.28-1.03-1.76c-0.4-0.42-1.02-0.78-1.59-0.85c-0.96-0.12-1.46,0.61-1.09,1.51c0.24,0.58,0.57,1.16,1,1.6
				c1.36,1.38,2.78,2.69,4.33,4.16c1.42-1.25,2.86-2.36,4.09-3.67c0.72-0.76,1.14-1.8,1.63-2.76c0.27-0.52,0.15-1.07-0.36-1.44
				c-0.55-0.4-1.15-0.37-1.61,0.09c-0.44,0.44-0.79,0.97-1.14,1.49c-0.38,0.57-0.72,1.17-1.07,1.76c-0.23-0.36-0.2-0.61-0.23-0.84
				c-0.14-0.91-0.23-1.83-0.49-2.71c-0.15-0.51-0.6-0.97-1.24-0.8C372.29,474.64,372.03,475.12,372.07,475.74z"/>
		</g>
		<g>
			<path d="M390.94,442.89c-1.7,0.71-3.13,2.09-4.78,3.24c-3.69-1.66-6.19-0.76-8.73,3.46c1.48,1.97,2.77,3.93,4.31,5.68
				c2.86,3.26,5.43,6.81,9.15,9.26c0.48,0.32,0.74,1.26,0.77,1.93c0.25,5.77,0.58,11.54,0.56,17.31c-0.02,5.85-0.47,11.7-0.64,17.56
				c-0.05,1.74,0.18,3.5,0.36,5.24c0.04,0.34,0.47,0.64,0.89,1.17c0-2.35-0.06-4.34,0.01-6.33c0.19-5.18,0.6-10.35,0.62-15.53
				c0.03-6.18-0.18-12.37-0.43-18.54c-0.07-1.63,0.43-2.61,1.75-3.52c1.65-1.12,3.38-2.29,4.62-3.81c2.27-2.77,4.24-5.8,6.27-8.76
				c0.36-0.52,0.64-1.25,0.6-1.87c-0.17-2.85-3.32-5.64-6.22-5.41c-1.53,0.12-3.03,0.67-4.6,1.04
				C394.43,443.34,392.93,442.06,390.94,442.89z M395.06,446.96c1.39-0.62,2.72-1.43,4.17-1.8c2.2-0.56,4.42,0.8,5.21,2.92
				c0.36,0.97,0.41,1.91-0.19,2.87c-2.8,4.45-5.49,8.97-10.09,11.92c-1.07,0.68-1.96,0.86-2.96,0.15c-0.95-0.68-1.99-1.3-2.74-2.16
				c-2.96-3.39-5.85-6.86-8.72-10.33c-0.99-1.21-0.81-1.91,0.5-2.84c2.85-2.02,4.2-1.8,7.13,1.32c0.61-3.18,1.97-4.91,3.87-5.15
				C393,443.62,393.7,444.19,395.06,446.96z"/>
			<path d="M390.43,449.45c0.07,1,0.13,2,0.25,2.99c0.18,1.47,0.41,2.93,0.62,4.39c-0.79-0.71-1.15-1.54-1.57-2.34
				c-0.54-1.03-0.97-2.19-1.75-3c-0.68-0.71-1.74-1.33-2.7-1.45c-1.64-0.2-2.48,1.04-1.86,2.57c0.4,0.98,0.97,1.97,1.71,2.72
				c2.31,2.34,4.73,4.57,7.37,7.08c2.42-2.13,4.86-4.02,6.96-6.24c1.22-1.29,1.95-3.07,2.78-4.69c0.45-0.89,0.26-1.83-0.61-2.46
				c-0.93-0.69-1.96-0.63-2.75,0.15c-0.75,0.74-1.34,1.65-1.94,2.53c-0.65,0.97-1.22,2-1.82,3c-0.39-0.62-0.33-1.04-0.4-1.44
				c-0.24-1.54-0.4-3.12-0.83-4.61c-0.25-0.87-1.02-1.65-2.1-1.35C390.81,447.59,390.36,448.41,390.43,449.45z"/>
		</g>
	</g>
	<g>
		<path d="M79.91,509.92c0.36-0.82,1.02-1.57,1.71-2.16c1.2-1.02,2.53-1.87,3.78-2.83c0.62-0.47,0.94-0.18,1.34,0.33
			c0.79,0.98,1.59,1.96,2.49,2.84c0.6,0.59,1.42,0.52,1.88,0.05c0.52-0.53,0.52-1.33,0.04-2.03c-0.77-1.13-1.61-2.18-3.11-2.7
			c0.78-0.55,1.46-1.01,2.12-1.49c1.09-0.8,1.75-1.81,1.73-3.22c-0.01-1.13-0.88-1.37-1.65-1.69c-0.65-0.27-1.21,0.01-1.58,0.57
			c-0.55,0.82-1.07,1.66-1.62,2.52c-0.3-0.75-0.56-1.55-0.93-2.29c-0.55-1.08-1.3-1.1-1.99-0.09c-0.81,1.2-0.75,2.45-0.15,3.7
			c0.41,0.84,0.88,1.65,1.35,2.52c-2.09,1.75-4.66,2.96-6.31,5.41c-0.35-1.48-0.68-2.81-0.97-4.15c-0.94-4.24-1.88-8.49-2.81-12.74
			c-0.15-0.67-0.37-1.38-0.28-2.04c0.07-0.53,0.45-1.12,0.87-1.49c0.75-0.65,1.63-1.14,2.44-1.72c0.41-0.3,0.62-0.12,0.85,0.25
			c0.36,0.57,0.68,1.2,1.16,1.66c0.84,0.81,2.01,0.87,2.81,0.28c0.85-0.62,0.92-1.75,0.09-2.41c-0.53-0.42-1.16-0.71-1.72-1.05
			c1.11-0.68,2.25-1.34,3.35-2.06c0.48-0.31,0.93-0.7,1.33-1.11c0.72-0.73,0.52-1.63-0.49-1.82c-0.8-0.15-1.77-0.17-2.48,0.16
			c-0.86,0.39-1.54,1.2-2.28,1.85c-0.17,0.15-0.29,0.38-0.53,0.71c0.01-0.64,0-1.09,0.04-1.55c0.05-0.6,0.04-1.11-0.73-1.23
			c-0.85-0.14-1.54,0.15-1.73,0.89c-0.11,0.42-0.14,0.89-0.07,1.31c0.17,1,0.42,1.99,0.65,3.05c-1.2,0.78-2.49,1.62-3.9,2.54
			c-0.15-1.22-0.37-2.41-0.42-3.6c-0.12-2.9-0.26-5.81-0.21-8.71c0.02-1.24,0.49-2.48,0.75-3.69c0.88,0,1.7,0.01,2.53,0.01
			c1.33-0.01,2.09-0.85,2.76-1.84c0.09-0.14,0.15-0.3,0.24-0.44c0.38-0.57,0.81-1.35,0.25-1.8c-0.52-0.41-1.47-0.61-2.13-0.46
			c-1.03,0.23-1.99,0.83-2.97,1.27c0.02-1.01,0.11-2.13,0.05-3.24c-0.05-0.91-0.23-1.81-0.42-2.7c-0.19-0.87-1.08-1.48-1.99-1.45
			c-0.9,0.03-1.83,0.86-1.93,1.94c-0.14,1.64-0.14,3.3-0.21,4.97c-0.59-0.1-1.28-0.26-1.97-0.31c-1.21-0.1-1.98,0.25-2.19,0.93
			c-0.21,0.68,0.32,1.99,1.17,2.4c1.28,0.62,2.62,1.13,3.96,1.59c0.43,0.15,0.97,0.02,1.54,0.01c-0.03,0.31-0.06,0.57-0.1,0.84
			c-0.19,1.32-0.46,2.59-0.29,3.99c0.29,2.33,0.05,4.72,0.33,7.05c0.41,3.44,1.07,6.84,1.63,10.26c0.12,0.76,0.26,1.52,0.32,2.35
			c-2.23-4.34-5.63-7.35-10.26-9.05c0.22-0.59,0.42-1.12,0.63-1.65c0.38-0.98,0.58-1.97,0.21-3c-0.34-0.95-1.18-1.14-1.73-0.31
			c-0.6,0.92-1.01,1.98-1.52,3.01c-0.92-0.43-1.94-0.02-2.99,0.24c-0.63,0.15-0.88,0.62-0.61,1.12c0.47,0.89,0.99,1.81,1.7,2.49
			c0.37,0.35,1.21,0.21,1.77,0.28c0.02,0.69,0.01,1.51,0.08,2.33c0.05,0.57,0.4,1.11,0.97,1.05c0.44-0.05,1.08-0.44,1.19-0.82
			c0.29-0.96,0.35-2,0.49-3.01c0.03-0.21,0.02-0.43,0.05-0.9c1.28,0.68,2.46,1.25,3.58,1.93c2.96,1.8,4.6,4.68,6.23,7.6
			c1.38,2.46,1.85,5.17,2.57,7.81c0.44,1.62,0.49,3.34,0.84,4.99"/>
		<path d="M85.39,502.24c-0.59-0.94-1.26-1.86-0.81-3.07C84.86,500.19,85.12,501.21,85.39,502.24z"/>
	</g>
	<path d="M27.68,499.65c-0.16-1.8,0.37-3.36,1.56-4.72c1.88-2.16,4.1-3.84,6.68-5.13c1.15,1.22,1.79,2.87,3.6,3.29
		c1.62,0.38,3.21,1.14,5.03,0.12c-0.89-1.23-2.13-1.83-3.22-2.53c-1.14-0.73-2.44-1.19-3.7-1.79c1.22-0.67,2.56-1.22,3.67-2.06
		c1.28-0.97,2.46-1.78,4.16-1.13c0.4,0.15,0.94,0.03,1.4-0.07c2.34-0.52,4.83-3.53,5.09-6.09c-1.52,0.5-3.08,0.96-4.59,1.52
		c-1.54,0.57-3.44,0.73-3.8,2.89c-0.01,0.04-0.09,0.07-0.13,0.11c-1.59,1.27-3.15,2.58-5.04,3.21c-0.04-1.36,0.2-2.7-0.18-3.85
		c-0.41-1.22-1.3-2.37-2.89-2.89c-0.1,0.44-0.32,0.85-0.24,1.17c0.31,1.22,0.04,2.32-0.39,3.44c-0.23,0.59-0.4,1.28-0.33,1.9
		c0.07,0.65,0.47,1.26,0.78,2.03c-2.79,1.56-5.33,3.52-7.37,6.43c0.06-1.85-0.01-3.39,0.18-4.88c0.74-5.65,1.29-11.31,2.85-16.84
		c0.73-2.62,2.01-4.73,3.86-6.59c1.17-1.17,2.61-1.83,4.3-1.76c0.99,0.04,1.98,0.2,2.75,0.29c0.66,0.89,1.12,1.65,1.71,2.28
		c1.7,1.82,3.55,1.96,5.49,0.46c0.86-0.67,1.65-1.43,2.64-2.29c-2-0.78-3.87-1.58-5.8-2.2c-0.53-0.17-1.31,0.03-1.83,0.32
		c-1.59,0.89-3.37,1-5.32,0.08c2.62-1.81,5.17-3.59,7.75-5.32c0.41-0.27,0.99-0.42,1.49-0.42c3.75-0.02,5.93-2.59,5.25-6.46
		c-1.71,0.86-3.39,1.65-5.01,2.55c-0.8,0.44-1.32,1.22-1.27,2.19c0.04,0.69-0.26,1.09-0.79,1.45c-2.24,1.53-4.46,3.08-6.69,4.62
		c-0.22,0.15-0.51,0.23-1.01,0.44c0.51-1.46,0.94-2.67,1.36-3.88c1.66-0.4,3.16-2.3,3.39-4.26c0.22-1.88-0.99-4.51-2.3-5.19
		c-0.55,1.03-1.08,2.06-1.66,3.06c-0.29,0.51-0.65,0.98-1,1.45c-0.54,0.73-0.71,1.54-0.22,2.31c1.22,1.96,0.73,3.83-0.19,5.71
		c-0.44,0.89-0.7,1.86-1.61,2.47c-1.63,1.09-3.03,2.44-4.1,4.1c-0.06,0.09-0.24,0.1-0.53,0.21c0.11-0.5,0.17-0.84,0.26-1.17
		c1.01-3.45,2.11-6.88,3.02-10.36c1.54-5.93,2.96-11.9,4.45-17.85c0.11-0.42,0.35-0.85,0.64-1.17c0.43-0.48,0.95-0.86,1.43-1.29
		c0.95-0.84,2.07-1,3.11-0.37c1.06,0.64,2.56,0.91,2.47,2.78c-0.09,1.89,1.72,3.75,3.54,3.72c1.49-0.02,2.82-0.62,4.04-1.99
		c-2.28-1.04-3.49-3.84-6.28-2.94c-1.37-1-2.57-1.87-4.1-2.99c0.88-0.13,1.41-0.25,1.94-0.28c2.09-0.14,3.88-0.97,5.3-2.48
		c1.07-1.14,1.15-2.47,0.47-3.62c-1.61,0.69-3.23,1.35-4.82,2.09c-1.15,0.54-2.1,1.3-2.4,2.65c-0.07,0.32-0.25,0.72-0.5,0.88
		c-1.31,0.83-2.67,1.59-4.05,2.39c-0.05-0.2-0.08-0.26-0.07-0.31c0.72-4.47,1.2-8.97,1.11-13.51c-0.01-0.28,0.11-0.58,0.25-0.83
		c0.81-1.45,3.85-2.66,5.54-2.3c1.67,0.36,3.3,0.21,4.71-0.86c0.45-0.34,0.99-0.86,1.04-1.35c0.13-1.19-0.01-2.4-0.05-3.85
		c-1.55,0.72-2.83,1.29-4.08,1.92c-1,0.5-1.92,1.04-2.42,2.19c-0.22,0.51-0.92,0.87-1.46,1.19c-0.71,0.42-1.47,0.74-2.23,1.07
		c-0.28,0.12-0.59,0.15-0.81,0.2c0.49-2.21,0.95-4.34,1.45-6.45c0.07-0.31,0.36-0.6,0.61-0.84c0.43-0.41,0.92-0.74,1.35-1.14
		c1.38-1.3,2.47-2.8,1.99-4.8c-0.24-0.99-0.89-1.9-1.42-2.8c-0.13-0.23-0.51-0.31-0.63-0.38c-0.66,1.26-1.15,2.45-1.86,3.5
		c-0.98,1.46-1.32,3.01-1.1,4.7c0.37,2.73-0.86,5.12-1.41,8.01c-1.11-1.31-2.29-2.01-2.33-3.66c-0.02-0.96-0.41-1.98-0.87-2.84
		c-0.36-0.68-1.01-1.47-1.69-1.65c-1.05-0.29-2.23-0.84-3.44-0.09c0.44,1.1,0.92,2.1,1.22,3.15c0.32,1.11,0.97,1.85,2.01,2.29
		c0.44,0.18,0.89,0.34,1.3,0.57c1.9,1.06,3.29,2.52,3.31,4.84c0.01,1.57-0.23,3.15-0.17,4.72c0.21,5.09-1.26,9.92-2.18,14.82
		c-0.43,2.26-1.07,4.47-1.67,6.69c-0.46,1.72-1,3.42-1.5,5.13c-0.41-0.42-0.49-0.8-0.58-1.18c-0.43-1.83-0.77-3.7-1.34-5.49
		c-0.4-1.26-0.35-2.25,0.56-3.25c1.27-1.38,1.48-3.18,1.68-4.93c0.11-0.97-0.94-2.78-1.93-3.58c-1.06,2.22-2.11,4.42-3.22,6.74
		c-1.49-1.26-3.05-2.5-4.51-3.85c-0.36-0.33-0.48-1-0.55-1.54c-0.13-1.03-0.07-2.09-0.25-3.11c-0.08-0.46-0.45-1.02-0.86-1.25
		c-0.86-0.5-1.79-0.95-2.75-1.17c-0.85-0.2-1.82-0.49-2.9,0.29c1.58,1.47,2.09,3.39,2.65,5.29c0.09,0.32,0.32,0.65,0.58,0.87
		c0.3,0.25,0.77,0.59,1.06,0.51c1.04-0.28,1.72,0.29,2.39,0.85c1.4,1.17,2.76,2.38,4.11,3.61c0.35,0.32,0.57,0.78,0.98,1.36
		c-1.37-0.22-2.47-0.13-3.44-0.92c-2.17-1.75-4.57-1.21-7.05-0.69c0.11,0.37,0.11,0.6,0.21,0.68c0.95,0.79,1.9,1.57,2.89,2.3
		c0.26,0.2,0.66,0.37,0.96,0.33c1.36-0.19,2.7-0.47,4.09-0.59c1.93-0.17,2.71-0.25,3.67,1.26c0.56,0.88,1.03,1.86,1.31,2.86
		c0.47,1.64,0.7,3.35,1.12,5c0.43,1.66,0.29,3.21-0.21,4.84c-1.01,3.26-2.01,6.55-2.7,9.89c-1.02,4.96-1.77,9.99-2.65,14.98
		c-0.1,0.59-0.26,1.17-0.39,1.76c-0.45-0.2-0.54-0.41-0.63-0.62c-1.07-2.42-2.33-4.73-3.75-6.98c-1.13-1.79-1.75-4-0.11-6.09
		c0.46-0.59,0.72-1.35,0.98-2.07c0.46-1.25-0.03-2.35-0.81-3.27c-0.72-0.86-1.61-1.53-2.7-1.29c-0.28,1.25-0.55,2.33-0.75,3.42
		c-0.24,1.27-0.19,2.47,1.08,3.29c0.24,0.16,0.41,0.58,0.43,0.88c0.05,1.04,0.01,2.08,0.01,3.47c-2.19-1.77-4.1-3.32-5.99-4.85
		c-0.57-4.55-4.24-7.59-8.12-6.74c0.61,1.43,1.28,2.84,1.8,4.29c0.56,1.55,1.68,2.16,3.21,2.33c0.49,0.06,0.98,0.23,1.44,0.43
		c2.21,0.95,3.89,2.62,5.65,4.17c0.67,0.59,1.31,1.22,2,1.87c-1.9,0.57-3.57,1.08-5.34,1.61c-0.97-2.45-2.92-2.41-5.02-1.94
		c-0.75,0.17-1.5,0.31-2.23,0.55c-0.26,0.09-0.44,0.42-0.58,0.55c1.22,0.92,2.34,1.76,3.46,2.6c0.86,0.65,3.43,0.68,4.14-0.14
		c0.93-1.07,2.17-1.38,3.38-1.79c1.94-0.66,4.72,0.25,5.49,2.49c0.4,1.17,1.04,2.25,1.47,3.41c0.73,1.98,1.33,3.95,1.08,6.17
		c-0.29,2.51-0.18,5.06-0.32,7.59c-0.05,0.83,0.24,1.03,1.07,0.99C27.73,500.44,27.72,500.05,27.68,499.65z M40.46,492.37
		c-0.04,0.09-0.08,0.18-0.12,0.27c-0.43-0.19-0.87-0.38-1.3-0.56c0.04-0.1,0.08-0.19,0.12-0.29
		C39.6,491.98,40.03,492.17,40.46,492.37z M37.02,483.36c0.95,0.53,0.56,1.42,0.53,2.23C37.19,484.91,35.91,484.39,37.02,483.36z
		 M47.18,468.11c0,0.11,0,0.23,0,0.34c-0.56,0.02-1.12,0.04-1.68,0.06c0.02-0.16,0.04-0.32,0.06-0.48
		C46.11,468.06,46.65,468.09,47.18,468.11z M47.45,456.61c0.23-0.37,0.46-0.74,0.7-1.11c0.09,0.05,0.17,0.09,0.26,0.14
		c-0.22,0.41-0.44,0.82-0.66,1.23C47.65,456.78,47.55,456.7,47.45,456.61z M38.55,456.31c0.1-0.45,0.2-0.89,0.3-1.34
		c0-0.01,0.14,0.02,0.22,0.03c-0.07,0.45-0.13,0.91-0.2,1.36C38.75,456.34,38.55,456.3,38.55,456.31z M22.35,468.24
		c0.77,0.87,1.02,1.47,0.52,2.58C22.66,469.79,22.54,469.19,22.35,468.24z M20.34,470.52c0.13-0.03,0.25-0.06,0.38-0.09
		c0.05,0.37,0.1,0.73,0.15,1.1c-0.1,0.02-0.21,0.04-0.31,0.06C20.48,471.23,20.41,470.87,20.34,470.52z"/>
	<g>
		<path d="M76.76,447.25c-0.39,0.66-0.78,1.11-0.93,1.63c-0.21,0.7-0.23,1.45-0.35,2.18c-0.17,0.99,0.2,1.84,0.68,2.66
			c0.44,0.75,0.79,0.84,1.59,0.5c0.99-0.42,1.51-1.42,1.14-2.72C78.5,450.08,78.01,448.67,76.76,447.25z"/>
		<path d="M69.85,448.51c-0.08,0.18-0.15,0.37-0.18,0.56c-0.2,0.98,0.33,1.63,1.34,1.66c0.77,0.02,1.49-0.17,2-0.78
			c0.6-0.72,1.19-1.45,1.69-2.24c0.26-0.42,0.32-0.97,0.47-1.47C73.39,445.77,70.49,447.07,69.85,448.51z"/>
		<path d="M70.82,441.72c-0.9-0.1-2.07,0.58-2.14,1.19c-0.08,0.69,0.57,1.43,1.58,1.71c0.42,0.11,0.88,0.17,1.31,0.13
			c1.16-0.09,2.31-0.25,3.61-0.39c-0.11-0.28-0.12-0.46-0.22-0.54C73.75,442.79,72.46,441.91,70.82,441.72z"/>
		<path d="M76.98,441.7c0.27-0.06,0.65-0.34,0.7-0.59c0.26-1.14,0.46-2.3,0.61-3.47c0.04-0.31-0.14-0.66-0.27-0.98
			c-0.27-0.65-0.8-1.06-1.47-1c-0.66,0.05-0.95,0.63-1.08,1.24c-0.07,0.33-0.07,0.68-0.1,1.02c0.02,1.2,0.3,2.34,0.93,3.36
			C76.44,441.5,76.79,441.75,76.98,441.7z"/>
		<path d="M78.87,446.63c0,0.57-0.14,1.02,0.02,1.28c0.63,1.05,1.29,2.1,2.08,3.03c0.68,0.8,1.68,0.76,2.35,0.1
			c0.51-0.51,0.44-1.05-0.19-1.98C82.17,447.64,80.65,447.21,78.87,446.63z"/>
		<path d="M85.45,444.07c-0.41-0.33-0.94-0.57-1.45-0.68c-1.67-0.36-3.09,0.19-4.4,1.3c0.08,0.22,0.09,0.34,0.15,0.4
			c0.9,0.97,4.53,1.35,5.58,0.6C85.94,445.26,86.04,444.54,85.45,444.07z"/>
		<path d="M83.05,440.22c0.17-0.15,0.2-0.44,0.29-0.67c0.22-0.54,0.05-0.94-0.45-1.23c-0.56-0.32-1.11-0.37-1.66-0.01
			c-1.51,0.97-2.13,2.44-2.53,4.44c0.72-0.09,1.24,0,1.54-0.21C81.22,441.83,82.13,441.02,83.05,440.22z"/>
		<path d="M72.85,437.96c-0.25-0.23-1.05-0.23-1.3-0.01c-0.39,0.36-0.76,1-0.37,1.58c0.32,0.48,0.76,0.91,1.22,1.26
			c0.78,0.59,1.61,1.11,2.43,1.64c0.14,0.09,0.35,0.09,0.53,0.13c0.11-0.1,0.21-0.19,0.32-0.29
			C74.92,440.72,74.15,439.16,72.85,437.96z"/>
		<path d="M75.54,444.46c0,0.91,0.85,2.03,1.57,2.06c0.74,0.03,1.77-1.06,1.76-1.88c0-1.01-0.72-1.64-1.85-1.61
			C76.1,443.05,75.55,443.58,75.54,444.46z"/>
	</g>
	<path d="M118.23,422.79c0.58-0.91,1.09-1.87,1.61-2.79c0.41,0.17,0.89,0.43,1.4,0.55c1.34,0.33,2.23-0.62,1.89-1.95
		c-0.32-1.23-0.95-2.2-2.37-2.52c0.75-1.47,0.94-2.86,0.19-4.36c-0.31-0.62-0.71-0.97-1.25-0.96c-0.39,0-0.84,0.37-1.14,0.7
		c-0.77,0.85-0.57,1.88-0.28,3.14c-1.27-1.28-2.61-1.57-4.01-1.62c-1.07-0.03-1.71,1.04-1.25,2.01c0.41,0.88,1.06,1.51,1.99,1.85
		c0.47,0.17,0.92,0.38,1.3,0.55c-0.55,0.94-1.12,1.75-1.52,2.65c-0.9,2.02,1.13,3.57,2.63,3.22
		C117.71,423.17,118.08,423.03,118.23,422.79z M118.78,412.55c-0.03-0.32,0.49-0.76,0.86-0.97c0.11-0.06,0.66,0.4,0.82,0.71
		c0.21,0.41,0.23,0.92,0.38,1.62c-0.16,0.47-0.34,1.12-0.62,1.73c-0.24,0.53-0.67,0.47-0.82-0.03
		C119.12,414.62,118.87,413.59,118.78,412.55z M114.49,415.6c-0.17-0.17-0.38-0.33-0.46-0.54c-0.11-0.3-0.26-0.71-0.14-0.93
		c0.12-0.23,0.56-0.44,0.85-0.43c1.61,0.06,2.74,0.95,3.5,2.69C116.98,417.04,115.58,416.73,114.49,415.6z M120.73,416.86
		c0.84,0.09,1.99,1.63,1.76,2.47c-0.05,0.18-0.29,0.35-0.49,0.43c-0.71,0.29-1.93-0.26-2.15-0.98c-0.06-0.21,0.04-0.51,0.15-0.73
		C120.19,417.67,120.45,417.31,120.73,416.86z M116.82,422.53c-0.56-0.32-1.25-0.76-1.45-1.31c-0.51-1.39,1.29-3.59,3-3.58
		c0.05,0.04,0.35,0.16,0.41,0.35c0.47,1.55,0.02,2.93-0.91,4.16C117.67,422.41,117.04,422.65,116.82,422.53z"/>
	<path d="M400.54,429.35c0.58-0.91,1.09-1.87,1.61-2.79c0.41,0.17,0.89,0.43,1.4,0.55c1.34,0.33,2.23-0.62,1.89-1.95
		c-0.32-1.23-0.95-2.2-2.37-2.52c0.75-1.47,0.94-2.86,0.19-4.36c-0.31-0.62-0.71-0.97-1.25-0.96c-0.39,0-0.84,0.37-1.14,0.7
		c-0.77,0.85-0.57,1.88-0.28,3.14c-1.27-1.28-2.61-1.57-4.01-1.62c-1.07-0.03-1.71,1.04-1.25,2.01c0.42,0.88,1.06,1.51,1.99,1.85
		c0.47,0.17,0.92,0.38,1.3,0.55c-0.55,0.94-1.12,1.75-1.52,2.65c-0.9,2.02,1.13,3.57,2.63,3.22
		C400.02,429.73,400.39,429.58,400.54,429.35z M401.09,419.11c-0.03-0.32,0.49-0.76,0.86-0.97c0.11-0.06,0.66,0.4,0.82,0.71
		c0.21,0.41,0.23,0.92,0.38,1.62c-0.16,0.47-0.34,1.12-0.62,1.73c-0.24,0.53-0.67,0.47-0.82-0.03
		C401.42,421.17,401.17,420.14,401.09,419.11z M396.79,422.16c-0.17-0.17-0.38-0.33-0.46-0.54c-0.11-0.3-0.26-0.71-0.14-0.93
		c0.12-0.23,0.56-0.44,0.85-0.43c1.61,0.06,2.74,0.95,3.5,2.69C399.29,423.6,397.88,423.29,396.79,422.16z M403.04,423.42
		c0.84,0.09,1.99,1.63,1.76,2.47c-0.05,0.18-0.29,0.35-0.49,0.43c-0.71,0.29-1.93-0.26-2.15-0.98c-0.06-0.21,0.04-0.51,0.15-0.73
		C402.5,424.22,402.75,423.87,403.04,423.42z M399.12,429.08c-0.56-0.32-1.25-0.76-1.45-1.31c-0.51-1.39,1.29-3.59,3-3.58
		c0.05,0.04,0.35,0.16,0.41,0.35c0.47,1.55,0.02,2.93-0.91,4.16C399.97,428.97,399.34,429.21,399.12,429.08z"/>
</g>
</svg>
