<?xml version="1.0" encoding="utf-8"?>
<!-- Generator: Adobe Illustrator 24.1.0, SVG Export Plug-In . SVG Version: 6.00 Build 0)  -->
<svg version="1.0" id="Layer_1" xmlns="http://www.w3.org/2000/svg" xmlns:xlink="http://www.w3.org/1999/xlink" x="0px" y="0px"
	 viewBox="0 0 164.41 98.25" enable-background="new 0 0 164.41 98.25" xml:space="preserve">
<g>
	<path d="M141.43,98.24H23.04c-12.68,0-23-10.32-23-23V22.99c0-12.68,10.32-23,23-23h118.39c12.68,0,23,10.32,23,23v52.24
		C164.43,87.92,154.11,98.24,141.43,98.24z M23.04,5.92c-9.41,0-17.07,7.66-17.07,17.07v52.24c0,9.41,7.66,17.07,17.07,17.07h118.39
		c9.41,0,17.07-7.66,17.07-17.07V22.99c0-9.41-7.66-17.07-17.07-17.07H23.04z"/>
</g>
<g>
	<g>
		<path d="M145.89,23.74c-2.86,0-5.19-2.33-5.19-5.19s2.33-5.19,5.19-5.19c2.86,0,5.19,2.33,5.19,5.19S148.75,23.74,145.89,23.74z
			 M145.89,16.33c-1.23,0-2.22,1-2.22,2.22c0,1.23,1,2.22,2.22,2.22c1.23,0,2.22-1,2.22-2.22
			C148.11,17.32,147.11,16.33,145.89,16.33z"/>
	</g>
	<g>
		<path d="M145.89,84.9c-2.86,0-5.19-2.33-5.19-5.19s2.33-5.19,5.19-5.19c2.86,0,5.19,2.33,5.19,5.19S148.75,84.9,145.89,84.9z
			 M145.89,77.49c-1.23,0-2.22,1-2.22,2.22c0,1.23,1,2.22,2.22,2.22c1.23,0,2.22-1,2.22-2.22
			C148.11,78.48,147.11,77.49,145.89,77.49z"/>
	</g>
</g>
<g>
	<g>
		<path d="M18.58,23.74c-2.86,0-5.19-2.33-5.19-5.19s2.33-5.19,5.19-5.19s5.19,2.33,5.19,5.19S21.44,23.74,18.58,23.74z
			 M18.58,16.33c-1.23,0-2.22,1-2.22,2.22c0,1.23,1,2.22,2.22,2.22s2.22-1,2.22-2.22C20.81,17.32,19.81,16.33,18.58,16.33z"/>
	</g>
	<g>
		<path d="M18.58,84.9c-2.86,0-5.19-2.33-5.19-5.19s2.33-5.19,5.19-5.19s5.19,2.33,5.19,5.19S21.44,84.9,18.58,84.9z M18.58,77.49
			c-1.23,0-2.22,1-2.22,2.22c0,1.23,1,2.22,2.22,2.22s2.22-1,2.22-2.22C20.81,78.48,19.81,77.49,18.58,77.49z"/>
	</g>
</g>
</svg>
